<svg xmlns="http://www.w3.org/2000/svg" width="225.594" height="70.941" viewBox="0 0 225.594 70.941">
  <g id="Group_3911" data-name="Group 3911" transform="translate(-1182.99 -602.083)">
    <g id="Group_3645" data-name="Group 3645" transform="translate(591.485 195.625)">
      <path id="Path_2221" data-name="Path 2221" d="M591.559,459.834V418.539q-.809-10.416,10.451-10.526H787.066c8.06-.308,13.629,2.588,16.192,9.347l6.832,25.5v17.565q-1.178,3.219-7.067,4.081h-27.45c0-.123.005-.244.005-.367v-3.33c0-5.845-3.115-10.629-6.92-10.629h-8.243c-3.808,0-6.921,4.783-6.921,10.629v3.33c0,.17,0,.34.009.51l-89.4.6q.038-.546.038-1.106v-3.33c0-5.845-3.113-10.629-6.921-10.629h-8.243c-3.806,0-6.919,4.783-6.919,10.629v3.33c0,.422.016.84.049,1.25h-.049l-35.48-.883-10.895-.842q-4.121,0-4.123-3.828Z" transform="translate(0 1.242)" fill="#ff6f00"/>
      <path id="Path_2222" data-name="Path 2222" d="M682.065,409.793v22.276H697.1l30.494,12.607,3.22.009v-13.1l-4.55-16.974c-1.41-3.359-4.2-4.537-7.775-4.488Z" transform="translate(73.331 2.7)" fill="#263238"/>
      <path id="Path_2223" data-name="Path 2223" d="M683.152,427.794H695.96l17.44,7.576-.214-24.622-30.259-.277Z" transform="translate(74.029 3.249)" fill="#69e3f6"/>
      <path id="Path_2224" data-name="Path 2224" d="M700.622,411.441c.009-1.024,0,11.452,0,11.452H711.96l-2.329-8.082c-.917-3.1-3.341-4.378-9.009-4.284Z" transform="translate(88.357 3.291)" fill="#69e3f6"/>
      <path id="Path_2225" data-name="Path 2225" d="M700.7,418.823h11.668l1.656,5.594.076,11.829-1.55.1-11.7-5.3Z" transform="translate(88.423 10.013)" fill="#69e3f6"/>
      <g id="Group_3608" data-name="Group 3608" transform="translate(605.281 447.26)">
        <path id="Path_2226" data-name="Path 2226" d="M615.43,429.536H599.383a.266.266,0,0,1,0-.532H615.43a.266.266,0,0,1,0,.532Z" transform="translate(-599.117 -429.004)" fill="#1f1a17"/>
      </g>
      <g id="Group_3609" data-name="Group 3609" transform="translate(605.281 448.795)">
        <path id="Path_2227" data-name="Path 2227" d="M615.43,430.382H599.383a.265.265,0,1,1,0-.53H615.43a.265.265,0,0,1,0,.53Z" transform="translate(-599.117 -429.852)" fill="#1f1a17"/>
      </g>
      <g id="Group_3610" data-name="Group 3610" transform="translate(605.281 450.328)">
        <path id="Path_2228" data-name="Path 2228" d="M615.43,431.231H599.383a.266.266,0,0,1,0-.532H615.43a.266.266,0,0,1,0,.532Z" transform="translate(-599.117 -430.699)" fill="#1f1a17"/>
      </g>
      <g id="Group_3611" data-name="Group 3611" transform="translate(605.281 451.863)">
        <path id="Path_2229" data-name="Path 2229" d="M615.43,432.077H599.383a.265.265,0,1,1,0-.53H615.43a.265.265,0,0,1,0,.53Z" transform="translate(-599.117 -431.547)" fill="#1f1a17"/>
      </g>
      <g id="Group_3612" data-name="Group 3612" transform="translate(605.281 453.396)">
        <path id="Path_2230" data-name="Path 2230" d="M615.43,432.926H599.383a.266.266,0,0,1,0-.532H615.43a.266.266,0,0,1,0,.532Z" transform="translate(-599.117 -432.394)" fill="#1f1a17"/>
      </g>
      <g id="Group_3613" data-name="Group 3613" transform="translate(605.281 454.928)">
        <path id="Path_2231" data-name="Path 2231" d="M615.43,433.773H599.383a.266.266,0,0,1,0-.532H615.43a.266.266,0,0,1,0,.532Z" transform="translate(-599.117 -433.241)" fill="#1f1a17"/>
      </g>
      <g id="Group_3614" data-name="Group 3614" transform="translate(605.281 456.463)">
        <path id="Path_2232" data-name="Path 2232" d="M615.43,434.619H599.383a.265.265,0,1,1,0-.53H615.43a.265.265,0,0,1,0,.53Z" transform="translate(-599.117 -434.089)" fill="#1f1a17"/>
      </g>
      <g id="Group_3615" data-name="Group 3615" transform="translate(605.281 457.996)">
        <path id="Path_2233" data-name="Path 2233" d="M615.43,435.466H599.383a.265.265,0,1,1,0-.53H615.43a.265.265,0,0,1,0,.53Z" transform="translate(-599.117 -434.936)" fill="#1f1a17"/>
      </g>
      <g id="Group_3616" data-name="Group 3616" transform="translate(605.281 459.531)">
        <path id="Path_2234" data-name="Path 2234" d="M615.43,436.314H599.383a.265.265,0,1,1,0-.53H615.43a.265.265,0,0,1,0,.53Z" transform="translate(-599.117 -435.784)" fill="#1f1a17"/>
      </g>
      <g id="Group_3617" data-name="Group 3617" transform="translate(605.281 461.063)">
        <path id="Path_2235" data-name="Path 2235" d="M615.43,437.163H599.383a.266.266,0,0,1,0-.532H615.43a.266.266,0,0,1,0,.532Z" transform="translate(-599.117 -436.631)" fill="#1f1a17"/>
      </g>
      <g id="Group_3618" data-name="Group 3618" transform="translate(605.281 462.598)">
        <path id="Path_2236" data-name="Path 2236" d="M615.43,438.007H599.383a.264.264,0,1,1,0-.528H615.43a.264.264,0,1,1,0,.528Z" transform="translate(-599.117 -437.479)" fill="#1f1a17"/>
      </g>
      <path id="Path_2237" data-name="Path 2237" d="M599.484,430.251h-5.373v9.938h-2.577V427.527h7.73Z" transform="translate(0.024 17.061)" fill="#cc4425"/>
      <rect id="Rectangle_315" data-name="Rectangle 315" width="3.533" height="3.533" transform="translate(630.131 458.205)" fill="#263238"/>
      <rect id="Rectangle_316" data-name="Rectangle 316" width="3.533" height="1.767" transform="translate(630.131 458.205)" fill="#7c7c7c"/>
      <rect id="Rectangle_317" data-name="Rectangle 317" width="3.533" height="3.533" transform="translate(697.559 457.249)" fill="#263238"/>
      <rect id="Rectangle_318" data-name="Rectangle 318" width="3.533" height="1.766" transform="translate(697.559 457.249)" fill="#7c7c7c"/>
      <rect id="Rectangle_319" data-name="Rectangle 319" width="3.533" height="3.533" transform="translate(728.916 457.838)" fill="#263238"/>
      <rect id="Rectangle_320" data-name="Rectangle 320" width="3.533" height="1.766" transform="translate(728.916 457.838)" fill="#7c7c7c"/>
      <rect id="Rectangle_321" data-name="Rectangle 321" width="18.845" height="1.62" transform="translate(626.745 407.636)" fill="#ffc400"/>
      <path id="Path_2238" data-name="Path 2238" d="M648.072,409.256h58.446l-6.885-2.8h-44Z" transform="translate(45.805 0)" fill="#ffc400"/>
      <path id="Path_2239" data-name="Path 2239" d="M707.6,411.378h9.277a2.839,2.839,0,0,1,2.36,1.265l2.476,3.715a3.824,3.824,0,0,1,.626,1.755l.751,7.769-1.211.147-1.786-6.671a10.257,10.257,0,0,0-1.028-2.481l-1.976-2.459h-7.84Z" transform="translate(94.008 3.984)" fill="#263238"/>
      <path id="Path_2240" data-name="Path 2240" d="M630.377,431.513a10.453,10.453,0,1,1-10.451,10.453A10.452,10.452,0,0,1,630.377,431.513Z" transform="translate(23.014 20.288)" fill="#263238"/>
      <path id="Path_2241" data-name="Path 2241" d="M691.711,431.513a10.453,10.453,0,1,1-10.453,10.453A10.453,10.453,0,0,1,691.711,431.513Z" transform="translate(72.677 20.288)" fill="#263238"/>
      <g id="Group_3619" data-name="Group 3619" transform="translate(759.104 456.968)">
        <path id="Path_2242" data-name="Path 2242" d="M689.4,444.939a5.285,5.285,0,1,1,5.283-5.284A5.289,5.289,0,0,1,689.4,444.939Zm0-10.3a5.02,5.02,0,1,0,5.02,5.02A5.027,5.027,0,0,0,689.4,434.634Z" transform="translate(-684.114 -434.368)" fill="#fbe9e7"/>
      </g>
      <g id="Group_3620" data-name="Group 3620" transform="translate(760.135 457.999)">
        <path id="Path_2243" data-name="Path 2243" d="M688.937,443.447a4.255,4.255,0,1,1,4.255-4.255A4.258,4.258,0,0,1,688.937,443.447Zm0-8.243a3.989,3.989,0,1,0,3.989,3.989A3.995,3.995,0,0,0,688.937,435.2Z" transform="translate(-684.684 -434.938)" fill="#fbe9e7"/>
      </g>
      <g id="Group_3621" data-name="Group 3621" transform="translate(763.896 457.998)">
        <path id="Path_2244" data-name="Path 2244" d="M687.685,439.36l-.919-.071,0-4.325.123-.009a3.793,3.793,0,0,1,1.339.1l.114.033Zm-.657-.315.431.033.583-3.8a3.689,3.689,0,0,0-1.014-.069Z" transform="translate(-686.762 -434.937)" fill="#fbe9e7"/>
      </g>
      <g id="Group_3622" data-name="Group 3622" transform="translate(764.012 459.257)">
        <path id="Path_2245" data-name="Path 2245" d="M687.336,439.072l-.51-.766,3.4-2.673.083.091a3.826,3.826,0,0,1,.751,1.113l.045.109Zm-.154-.709.237.357,3.348-1.888a3.578,3.578,0,0,0-.57-.836Z" transform="translate(-686.826 -435.633)" fill="#fbe9e7"/>
      </g>
      <g id="Group_3623" data-name="Group 3623" transform="translate(764.118 461.758)">
        <path id="Path_2246" data-name="Path 2246" d="M690.852,439.607l-3.967-1.721.3-.87,4.184,1.1-.022.121a3.89,3.89,0,0,1-.436,1.27Zm-3.636-1.868,3.525,1.529a3.642,3.642,0,0,0,.32-.961l-3.7-.974Z" transform="translate(-686.885 -437.015)" fill="#fbe9e7"/>
      </g>
      <g id="Group_3624" data-name="Group 3624" transform="translate(763.925 461.977)">
        <path id="Path_2247" data-name="Path 2247" d="M687.822,441.624l-.029-.112-1.015-4.086.876-.29.047.114,1.622,3.878-.11.056a3.833,3.833,0,0,1-1.272.425ZM687.1,437.6l.927,3.728a3.708,3.708,0,0,0,.959-.326l-1.477-3.538Z" transform="translate(-686.778 -437.136)" fill="#fbe9e7"/>
      </g>
      <g id="Group_3625" data-name="Group 3625" transform="translate(761.458 461.901)">
        <path id="Path_2248" data-name="Path 2248" d="M686.74,441.39l-.112-.051a3.865,3.865,0,0,1-1.129-.729l-.083-.081,2.631-3.435.771.5Zm-.97-.889a3.615,3.615,0,0,0,.856.543l1.842-3.359-.36-.235Z" transform="translate(-685.415 -437.094)" fill="#fbe9e7"/>
      </g>
      <g id="Group_3626" data-name="Group 3626" transform="translate(760.128 461.798)">
        <path id="Path_2249" data-name="Path 2249" d="M684.9,438.823l-.034-.118a3.8,3.8,0,0,1-.174-1.33l.009-.118,4.32-.221.116.914Zm.049-1.312a3.625,3.625,0,0,0,.139,1l3.753-.773-.054-.427Z" transform="translate(-684.68 -437.037)" fill="#fbe9e7"/>
      </g>
      <g id="Group_3627" data-name="Group 3627" transform="translate(760.877 458.736)">
        <path id="Path_2250" data-name="Path 2250" d="M688.357,439.294l-3.263-2.84.073-.1a3.873,3.873,0,0,1,.952-.947l.1-.063,2.8,3.3Zm-2.9-2.879,2.892,2.517.306-.3-2.483-2.932A3.608,3.608,0,0,0,685.454,436.415Z" transform="translate(-685.094 -435.345)" fill="#fbe9e7"/>
      </g>
      <g id="Group_3628" data-name="Group 3628" transform="translate(763.28 461.183)">
        <path id="Path_2251" data-name="Path 2251" d="M687.51,438.876a1.089,1.089,0,1,1,1.089-1.089A1.089,1.089,0,0,1,687.51,438.876Zm0-1.913a.823.823,0,1,0,.825.823A.825.825,0,0,0,687.51,436.963Z" transform="translate(-686.422 -436.697)" fill="#fbe9e7"/>
      </g>
      <g id="Group_3629" data-name="Group 3629" transform="translate(648.411 456.868)">
        <path id="Path_2252" data-name="Path 2252" d="M628.234,444.884a5.285,5.285,0,1,1,5.284-5.286A5.292,5.292,0,0,1,628.234,444.884Zm0-10.306a5.02,5.02,0,1,0,5.02,5.02A5.027,5.027,0,0,0,628.234,434.577Z" transform="translate(-622.949 -434.313)" fill="#fbe9e7"/>
      </g>
      <g id="Group_3630" data-name="Group 3630" transform="translate(649.442 457.9)">
        <path id="Path_2253" data-name="Path 2253" d="M627.772,443.392a4.255,4.255,0,1,1,4.255-4.257A4.259,4.259,0,0,1,627.772,443.392Zm0-8.245a3.99,3.99,0,1,0,3.989,3.989A4,4,0,0,0,627.772,435.147Z" transform="translate(-623.519 -434.883)" fill="#fbe9e7"/>
      </g>
      <g id="Group_3631" data-name="Group 3631" transform="translate(653.205 457.898)">
        <path id="Path_2254" data-name="Path 2254" d="M626.516,439.305l-.914-.071,0-4.327.123-.007a3.727,3.727,0,0,1,1.336.1l.116.031Zm-.651-.317.429.033.581-3.8a3.727,3.727,0,0,0-1.01-.067Z" transform="translate(-625.598 -434.882)" fill="#fbe9e7"/>
      </g>
      <g id="Group_3632" data-name="Group 3632" transform="translate(653.317 459.156)">
        <path id="Path_2255" data-name="Path 2255" d="M626.172,439.016l-.512-.764,3.4-2.675.083.092a3.915,3.915,0,0,1,.751,1.111l.045.11Zm-.156-.709.241.358,3.348-1.889a3.57,3.57,0,0,0-.574-.836Z" transform="translate(-625.66 -435.577)" fill="#fbe9e7"/>
      </g>
      <g id="Group_3633" data-name="Group 3633" transform="translate(653.425 461.657)">
        <path id="Path_2256" data-name="Path 2256" d="M629.687,439.552l-3.967-1.723.3-.87,4.184,1.1-.023.121a3.8,3.8,0,0,1-.433,1.27Zm-3.638-1.868,3.527,1.529a3.579,3.579,0,0,0,.322-.961l-3.708-.974Z" transform="translate(-625.72 -436.959)" fill="#fbe9e7"/>
      </g>
      <g id="Group_3634" data-name="Group 3634" transform="translate(653.234 461.878)">
        <path id="Path_2257" data-name="Path 2257" d="M626.656,441.567l-1.042-4.2.874-.29.047.114,1.62,3.878-.11.056a3.859,3.859,0,0,1-1.272.425Zm-.726-4.023.925,3.73a3.656,3.656,0,0,0,.959-.328l-1.475-3.536Z" transform="translate(-625.614 -437.081)" fill="#fbe9e7"/>
      </g>
      <g id="Group_3635" data-name="Group 3635" transform="translate(650.765 461.802)">
        <path id="Path_2258" data-name="Path 2258" d="M625.573,441.335l-.11-.051a3.818,3.818,0,0,1-1.127-.729l-.085-.083,2.631-3.433.773.5Zm-.966-.89a3.6,3.6,0,0,0,.854.547l1.84-3.362-.358-.235Z" transform="translate(-624.25 -437.039)" fill="#fbe9e7"/>
      </g>
      <g id="Group_3636" data-name="Group 3636" transform="translate(649.435 461.699)">
        <path id="Path_2259" data-name="Path 2259" d="M623.73,438.768l-.034-.119a3.864,3.864,0,0,1-.174-1.33l.006-.116,4.323-.221.118.914Zm.051-1.314a3.681,3.681,0,0,0,.137,1l3.755-.773-.056-.425Z" transform="translate(-623.515 -436.982)" fill="#fbe9e7"/>
      </g>
      <g id="Group_3637" data-name="Group 3637" transform="translate(650.186 458.635)">
        <path id="Path_2260" data-name="Path 2260" d="M627.191,439.24,623.93,436.4l.072-.1a3.873,3.873,0,0,1,.952-.946l.1-.065,2.794,3.3Zm-2.9-2.879,2.89,2.516.306-.3L625,435.642A3.716,3.716,0,0,0,624.29,436.36Z" transform="translate(-623.93 -435.289)" fill="#fbe9e7"/>
      </g>
      <g id="Group_3638" data-name="Group 3638" transform="translate(652.588 461.083)">
        <path id="Path_2261" data-name="Path 2261" d="M626.345,438.821a1.089,1.089,0,1,1,1.091-1.089A1.089,1.089,0,0,1,626.345,438.821Zm0-1.915a.824.824,0,1,0,.827.825A.826.826,0,0,0,626.345,436.906Z" transform="translate(-625.257 -436.642)" fill="#fbe9e7"/>
      </g>
      <path id="Path_2262" data-name="Path 2262" d="M636.96,423.6h13.454a.62.62,0,0,1,.671.548V448.7a.62.62,0,0,1-.671.55H636.96a.62.62,0,0,1-.671-.55V424.15A.62.62,0,0,1,636.96,423.6Z" transform="translate(36.264 13.882)" fill="#cc4425"/>
      <path id="Path_2263" data-name="Path 2263" d="M642.547,429.23h1.082c.447,0,.809.235.809.528h0c0,.291-.362.528-.809.528h-1.082c-.445,0-.809-.237-.809-.528h0C641.738,429.465,642.1,429.23,642.547,429.23Z" transform="translate(40.676 18.44)" fill="#ff6f00"/>
      <path id="Path_2264" data-name="Path 2264" d="M670.252,423.423H591.535v5.968h78.717Z" transform="translate(0.024 13.737)" fill="#ffc400"/>
      <path id="Rectangle_322" data-name="Rectangle 322" d="M5.62,0H162.7a0,0,0,0,1,0,0V22.275a0,0,0,0,1,0,0H0a0,0,0,0,1,0,0V5.62A5.62,5.62,0,0,1,5.62,0Z" transform="translate(594.253 412.493)" fill="#263238"/>
      <path id="Path_2265" data-name="Path 2265" d="M594.172,429.186V414.437q.448-3.749,5.312-3.677H750.076v18.709l-155.9-.282Z" transform="translate(2.16 3.482)" fill="#69e3f6"/>
      <g id="Group_3639" data-name="Group 3639" transform="translate(625.362 414.242)">
        <rect id="Rectangle_323" data-name="Rectangle 323" width="2.225" height="18.706" fill="#263238"/>
      </g>
      <g id="Group_3640" data-name="Group 3640" transform="translate(658.188 414.242)">
        <rect id="Rectangle_324" data-name="Rectangle 324" width="2.225" height="18.706" fill="#263238"/>
      </g>
      <g id="Group_3641" data-name="Group 3641" transform="translate(690.615 414.242)">
        <rect id="Rectangle_325" data-name="Rectangle 325" width="2.225" height="18.706" fill="#263238"/>
      </g>
      <g id="Group_3642" data-name="Group 3642" transform="translate(722.844 414.242)">
        <rect id="Rectangle_326" data-name="Rectangle 326" width="2.227" height="18.706" fill="#263238"/>
      </g>
      <g id="Group_3643" data-name="Group 3643" transform="translate(689.45 437.16)">
        <path id="Path_2266" data-name="Path 2266" d="M727.3,423.423h-81.67v5.968h95.538Z" transform="translate(-645.626 -423.423)" fill="#ffc400"/>
      </g>
      <g id="Group_3644" data-name="Group 3644" transform="translate(805.572 437.16)">
        <path id="Path_2267" data-name="Path 2267" d="M712.506,423.423h-2.715v5.968h4.18V428.9Z" transform="translate(-709.791 -423.423)" fill="#ffc400"/>
      </g>
      <path id="Path_2268" data-name="Path 2268" d="M704.382,446.586h3.078V434.894a4.588,4.588,0,0,0-4.588-4.588H684.05a4.587,4.587,0,0,0-4.586,4.588v11.854l2.85-.02c-.007-.168-.009-.34-.009-.51v-3.33c0-5.845,3.115-10.629,6.919-10.629h8.245c3.806,0,6.919,4.783,6.919,10.629v3.33C704.388,446.34,704.386,446.462,704.382,446.586Z" transform="translate(71.224 19.311)" fill="#cc4425"/>
      <path id="Path_2269" data-name="Path 2269" d="M642.7,447.138l3.234-.022V435.347a4.922,4.922,0,0,0-4.922-4.922H622.859a4.925,4.925,0,0,0-4.924,4.922v11.87l2.72.067.049,0c-.033-.409-.049-.827-.049-1.25V442.7c0-5.847,3.113-10.629,6.919-10.629h8.243c3.808,0,6.921,4.781,6.921,10.629v3.328Q642.738,446.591,642.7,447.138Z" transform="translate(21.401 19.407)" fill="#cc4425"/>
    </g>
    <path id="Path_2270" data-name="Path 2270" d="M304.7,202.133H97.024c-3.752,0-6.794-1.855-6.794-4.144v-.163H311.492v.163C311.492,200.278,308.451,202.133,304.7,202.133Z" transform="translate(1095.149 470.891)" fill="#177d7f"/>
  </g>
</svg>
