<svg xmlns="http://www.w3.org/2000/svg" width="275.053" height="108.931" viewBox="0 0 275.053 108.931">
  <g id="car-image" transform="translate(-32.378 -109.348)">
    <g id="Group_41" data-name="Group 41" transform="translate(32.378 213.643)">
      <path id="Path_34" data-name="Path 34" d="M307.431,414.358c0,.058-61.577.1-137.52.1-75.969,0-137.533-.047-137.533-.1s61.564-.1,137.533-.1C245.852,414.254,307.431,414.3,307.431,414.358Z" transform="translate(-32.378 -414.254)" fill="#263238"/>
    </g>
    <g id="Group_92" data-name="Group 92" transform="translate(47.187 136.449)">
      <g id="Group_91" data-name="Group 91" transform="translate(0 0)">
        <path id="Path_35" data-name="Path 35" d="M311.6,259.707h0a11.558,11.558,0,0,1,.475,15.192,16.653,16.653,0,0,1-5.951,4.515L286.4,288.3l-13.937,2.156L90.069,289.3,78.64,287.067a11.609,11.609,0,0,1-9.379-11.56l.114-7.94a2.813,2.813,0,0,1,1.986-2.648l.809-.248s.676-7.786,5.374-9.549c17.117-7.376,28.45-9.744,57.1-10.941l24.2-14.466s9.767-6.243,18.873-7.059,29.706-.83,39.147-.287c11.086.639,25.153,5.683,33,9.573,6.144,3.046,20.931,10.575,20.931,10.575l8.365,1.4c1.258.06,24.359,1.468,27.013,1.875a5.308,5.308,0,0,1,4.2,3.606c.663,2.194,1.22,10.244,1.22,10.244" transform="translate(-69.26 -221.996)" fill="#e8505b"/>
        <g id="Group_42" data-name="Group 42" transform="translate(74.042 3.392)">
          <path id="Path_36" data-name="Path 36" d="M351.351,237.417c-3.943-1.971-14.519-4.69-20.433-5.8s-17.934-1.262-22.739-1.138-18.146.351-25.181,2.349a49.243,49.243,0,0,0-12.86,6.561c-1.19.875-6.359,4.926-7.515,5.846l-8.953,8.356,110.007-3.472s.635-3.834-1.345-6.043S351.351,237.417,351.351,237.417Z" transform="translate(-253.671 -230.444)" fill="#263238"/>
        </g>
        <g id="Group_44" data-name="Group 44" transform="translate(2.976 34.397)">
          <path id="Path_37" data-name="Path 37" d="M82.238,315.47l-5.565-.08c.216-1.5.952-5.491,3.33-7.726l7.369.105a1.733,1.733,0,0,1,1.451,2.64l-1.341,2.179A6.053,6.053,0,0,1,82.238,315.47Z" transform="translate(-76.673 -307.664)" fill="#fafafa"/>
          <g id="Group_43" data-name="Group 43" transform="translate(6.166 0.089)">
            <path id="Path_38" data-name="Path 38" d="M92.1,315.27c.578-2.452,1.307-5.672,3.375-7.383l1.086.016a1.733,1.733,0,0,1,1.451,2.64l-1.341,2.179a6.046,6.046,0,0,1-4.644,2.851C92.054,315.472,92.08,315.374,92.1,315.27Z" transform="translate(-92.031 -307.887)" fill="#e0e0e0"/>
          </g>
        </g>
        <g id="Group_47" data-name="Group 47" transform="translate(20.309 37.516)">
          <g id="Group_45" data-name="Group 45" transform="translate(0 0)" opacity="0.7">
            <path id="Path_39" data-name="Path 39" d="M162.747,345.562a27.461,27.461,0,0,0,.379-8.7c-1.44-12.356-9.531-21.246-21.75-21.422-10.634-.153-19.421,6.492-21.216,18.8a31.671,31.671,0,0,0,.371,11.042Z" transform="translate(-119.842 -315.433)"/>
          </g>
          <g id="Group_46" data-name="Group 46" transform="translate(152.652 0.869)" opacity="0.7">
            <path id="Path_40" data-name="Path 40" d="M544.2,345.572c-.018-.456-.055-.919-.062-1.4-.217-15.593-10.675-26.392-23.117-26.572a20.639,20.639,0,0,0-20.91,20.315,65.158,65.158,0,0,0,.193,9.614l29.958.2Z" transform="translate(-500.037 -317.596)"/>
          </g>
        </g>
        <g id="Group_52" data-name="Group 52" transform="translate(174.453 39.819)">
          <circle id="Ellipse_11" data-name="Ellipse 11" cx="17.962" cy="17.962" r="17.962" transform="translate(0 35.816) rotate(-85.927)" fill="#263238"/>
          <g id="Group_48" data-name="Group 48" transform="translate(1.234 18.875)">
            <path id="Path_41" data-name="Path 41" d="M506.834,368.178c0,.016,0,.031,0,.047a17.962,17.962,0,0,0,35.921.518V368.7Z" transform="translate(-506.829 -368.178)" fill="#263238"/>
          </g>
          <g id="Group_49" data-name="Group 49" transform="translate(6.586 6.57)">
            <path id="Path_42" data-name="Path 42" d="M520.16,349.96a12.611,12.611,0,1,0,12.791-12.427A12.611,12.611,0,0,0,520.16,349.96Z" transform="translate(-520.159 -337.532)" fill="#fafafa"/>
          </g>
          <g id="Group_50" data-name="Group 50" transform="translate(6.588 6.57)">
            <path id="Path_43" data-name="Path 43" d="M532.953,337.533a12.611,12.611,0,0,0-12.791,12.427l25.218.364A12.61,12.61,0,0,0,532.953,337.533Z" transform="translate(-520.162 -337.532)" fill="#e0e0e0"/>
          </g>
          <g id="Group_51" data-name="Group 51" transform="translate(11.515 11.498)">
            <path id="Path_44" data-name="Path 44" d="M532.434,357.378a7.682,7.682,0,1,0,7.792-7.571A7.682,7.682,0,0,0,532.434,357.378Z" transform="translate(-532.434 -349.806)" fill="#263238"/>
          </g>
        </g>
        <g id="Group_57" data-name="Group 57" transform="translate(24.241 41.501)">
          <path id="Path_45" data-name="Path 45" d="M129.636,343.06a17.962,17.962,0,1,0,18.219-17.7A17.962,17.962,0,0,0,129.636,343.06Z" transform="translate(-129.634 -325.357)" fill="#263238"/>
          <g id="Group_53" data-name="Group 53" transform="translate(0 17.656)">
            <path id="Path_46" data-name="Path 46" d="M129.639,369.332c0,.016,0,.033,0,.047a17.962,17.962,0,1,0,35.921.518v-.046Z" transform="translate(-129.634 -369.332)" fill="#263238"/>
          </g>
          <g id="Group_54" data-name="Group 54" transform="translate(5.352 5.351)">
            <path id="Path_47" data-name="Path 47" d="M142.965,351.114a12.611,12.611,0,1,0,12.791-12.427A12.611,12.611,0,0,0,142.965,351.114Z" transform="translate(-142.964 -338.686)" fill="#fafafa"/>
          </g>
          <g id="Group_55" data-name="Group 55" transform="translate(5.353 5.351)">
            <path id="Path_48" data-name="Path 48" d="M155.758,338.687a12.61,12.61,0,0,0-12.791,12.427l25.218.364A12.611,12.611,0,0,0,155.758,338.687Z" transform="translate(-142.967 -338.686)" fill="#e0e0e0"/>
          </g>
          <g id="Group_56" data-name="Group 56" transform="translate(10.28 10.28)">
            <path id="Path_49" data-name="Path 49" d="M155.239,358.532a7.682,7.682,0,1,0,7.792-7.571,7.682,7.682,0,0,0-7.792,7.571Z" transform="translate(-155.239 -350.961)" fill="#263238"/>
          </g>
        </g>
        <g id="Group_58" data-name="Group 58" transform="translate(3.013 51.67)" opacity="0.4">
          <path id="Path_50" data-name="Path 50" d="M81.208,354.362c-.029,2.012-1.047,3.629-2.274,3.612s-2.2-1.664-2.169-3.676,1.047-3.629,2.274-3.611S81.237,352.35,81.208,354.362Z" transform="translate(-76.764 -350.687)"/>
        </g>
        <g id="Group_59" data-name="Group 59" transform="translate(211.6 37.671)">
          <path id="Path_51" data-name="Path 51" d="M627.015,315.858a1.766,1.766,0,0,1-.346.03l-.994.035c-.863.022-2.111.048-3.652.111s-3.376.147-5.407.311a45.7,45.7,0,0,0-6.542.965,16.63,16.63,0,0,0-3.219,1.111,13.57,13.57,0,0,0-2.648,1.739,42,42,0,0,0-3.921,3.72,16.092,16.092,0,0,1-2.816,2.342,7.66,7.66,0,0,1-.877.475,1.729,1.729,0,0,1-.322.132c-.013-.026.428-.216,1.145-.691a17.405,17.405,0,0,0,2.741-2.385,39.534,39.534,0,0,1,3.9-3.777,13.628,13.628,0,0,1,2.686-1.78,16.553,16.553,0,0,1,3.267-1.135,43.975,43.975,0,0,1,6.583-.951c2.04-.152,3.877-.228,5.42-.257s2.794-.038,3.657-.03l.995.013A1.741,1.741,0,0,1,627.015,315.858Z" transform="translate(-596.272 -315.817)" fill="#263238"/>
        </g>
        <g id="Group_60" data-name="Group 60" transform="translate(167.931 34.213)" opacity="0.5">
          <path id="Path_52" data-name="Path 52" d="M536.131,339.667s.072-.052.217-.14a5.719,5.719,0,0,0,.608-.446,6.211,6.211,0,0,0,1.66-2.339,9.513,9.513,0,0,0,.581-4.5,31.487,31.487,0,0,0-1.19-5.961,31.128,31.128,0,0,0-2.89-6.767,25.908,25.908,0,0,0-5.341-6.507,22.04,22.04,0,0,0-8.076-4.538,25.171,25.171,0,0,0-9.922-.847,33.707,33.707,0,0,0-9.681,2.518,22.3,22.3,0,0,0-7.658,5.219,22.055,22.055,0,0,0-4.377,7.167,35.119,35.119,0,0,0-1.872,7.122q-.263,1.673-.4,3.2a20.335,20.335,0,0,0-.119,2.862,6.074,6.074,0,0,0,1.552,4.178,3.558,3.558,0,0,0,3.534,1.16s-.083.029-.248.072a3.052,3.052,0,0,1-.757.071,4.032,4.032,0,0,1-2.6-1.232,6.172,6.172,0,0,1-1.624-4.244,20.276,20.276,0,0,1,.1-2.884q.127-1.526.383-3.21a35.013,35.013,0,0,1,1.853-7.171,26.027,26.027,0,0,1,1.785-3.731,20.457,20.457,0,0,1,2.618-3.52A22.449,22.449,0,0,1,502,309.907a33.813,33.813,0,0,1,9.754-2.542,25.36,25.36,0,0,1,10.021.861,22.229,22.229,0,0,1,8.158,4.6,26.037,26.037,0,0,1,5.37,6.579,32.439,32.439,0,0,1,4.04,12.824,9.537,9.537,0,0,1-.632,4.55,6.135,6.135,0,0,1-1.719,2.341A3.9,3.9,0,0,1,536.131,339.667Z" transform="translate(-487.514 -307.2)" fill="#fff"/>
        </g>
        <g id="Group_61" data-name="Group 61" transform="translate(181.862 62.979)">
          <path id="Path_53" data-name="Path 53" d="M522.208,378.851" transform="translate(-522.208 -378.851)" fill="none" stroke="#839198" stroke-width="1"/>
        </g>
        <g id="Group_62" data-name="Group 62" transform="translate(0.083 49.843)">
          <path id="Path_54" data-name="Path 54" d="M90.384,352.6a8.467,8.467,0,0,1-.58-.685,13.049,13.049,0,0,0-1.744-1.7,17.038,17.038,0,0,0-7.233-3.3,33.46,33.46,0,0,0-8.017-.514c-1.032.039-1.868.088-2.445.119a6.2,6.2,0,0,1-.9.024.812.812,0,0,1,.23-.045l.662-.078c.576-.061,1.41-.138,2.444-.2a30.979,30.979,0,0,1,8.078.444,16.542,16.542,0,0,1,7.3,3.416,11.5,11.5,0,0,1,1.7,1.774c.184.225.3.421.386.546a.793.793,0,0,1,.117.2Z" transform="translate(-69.466 -346.13)" fill="#263238"/>
        </g>
        <g id="Group_63" data-name="Group 63" transform="translate(1.743 42.617)">
          <path id="Path_55" data-name="Path 55" d="M92.75,328.465c0,.07-4.289.066-9.576-.011s-9.575-.2-9.573-.266,4.288-.066,9.577.01S92.752,328.394,92.75,328.465Z" transform="translate(-73.601 -328.138)" fill="#263238"/>
        </g>
        <g id="Group_64" data-name="Group 64" transform="translate(15.622 31.852)" opacity="0.5">
          <path id="Path_56" data-name="Path 56" d="M162.039,335.265s-.01-.084-.015-.246-.01-.413-.018-.721-.019-.709-.047-1.171-.057-1-.116-1.594a41.123,41.123,0,0,0-2.183-9.916,43.136,43.136,0,0,0-2.852-6.413,34.067,34.067,0,0,0-4.552-6.623,19.771,19.771,0,0,0-7.188-5.083,25.518,25.518,0,0,0-9.289-1.911,29.832,29.832,0,0,0-4.825.347,30.357,30.357,0,0,0-4.558,1.144,27.7,27.7,0,0,0-4.153,1.82l-.49.259-.472.286-.936.568-.888.616-.44.306-.418.329a25.335,25.335,0,0,0-5.494,5.833,27.739,27.739,0,0,0-3.177,6.234,28.848,28.848,0,0,0-1.394,5.612c-.094.847-.2,1.635-.214,2.369-.055.73-.037,1.4-.031,2-.012.6.064,1.132.084,1.595s.082.85.122,1.164l.089.715c.019.161.022.245.022.245s-.02-.081-.048-.241l-.115-.712c-.049-.314-.118-.7-.147-1.164s-.113-.994-.109-1.6c-.013-.6-.039-1.274.009-2.007.011-.735.107-1.527.195-2.38a28.619,28.619,0,0,1,1.365-5.654,27.755,27.755,0,0,1,3.172-6.293,25.462,25.462,0,0,1,5.527-5.9l.422-.335.444-.31.9-.625.943-.575.476-.289.493-.263a27.781,27.781,0,0,1,4.188-1.842,30.533,30.533,0,0,1,4.6-1.158,30.019,30.019,0,0,1,4.869-.352,25.7,25.7,0,0,1,9.382,1.937,19.96,19.96,0,0,1,7.266,5.159A34.113,34.113,0,0,1,157,315.1a42.967,42.967,0,0,1,2.836,6.455,40.171,40.171,0,0,1,2.111,9.968A29.843,29.843,0,0,1,162.039,335.265Z" transform="translate(-108.168 -301.326)" fill="#fff"/>
        </g>
        <g id="Group_65" data-name="Group 65" transform="translate(209.247 22.168)">
          <path id="Path_57" data-name="Path 57" d="M591.1,277.207a1.029,1.029,0,0,1-.018.263c-.026.2-.058.446-.1.745-.086.648-.221,1.584-.307,2.744a15.289,15.289,0,0,0,.186,4.058,8.582,8.582,0,0,0,2.259,4.331,12.111,12.111,0,0,0,4.129,2.71,21.657,21.657,0,0,0,3.915,1.135c1.142.23,2.077.368,2.722.475l.742.124a1,1,0,0,1,.256.061,1.05,1.05,0,0,1-.263-.009l-.749-.076c-.649-.076-1.59-.188-2.743-.395a20.627,20.627,0,0,1-3.971-1.094,12.116,12.116,0,0,1-4.225-2.751,8.717,8.717,0,0,1-2.307-4.463,14.886,14.886,0,0,1-.135-4.119c.11-1.167.273-2.1.389-2.745.059-.322.109-.57.146-.739a.989.989,0,0,1,.07-.255Z" transform="translate(-590.41 -277.207)" fill="#263238"/>
        </g>
        <g id="Group_66" data-name="Group 66" transform="translate(111.138 31.799)">
          <path id="Path_58" data-name="Path 58" d="M353.609,301.388a.687.687,0,0,1,.222-.022,3.473,3.473,0,0,1,.639.033,1.245,1.245,0,0,1,.872.53,1.336,1.336,0,0,1,.106,1.342,2,2,0,0,1-1.3,1.007,5.811,5.811,0,0,1-1.87.093l-4.224-.24a3.437,3.437,0,0,1-1.129-.212,1.412,1.412,0,0,1-.815-.814,1.217,1.217,0,0,1,.211-1.095,1.728,1.728,0,0,1,.851-.621,5.86,5.86,0,0,1,1.867-.189c.58,0,1.118.018,1.612.039l2.326.1a6.421,6.421,0,0,1,.854.046.719.719,0,0,1-.221.029c-.144.011-.359.02-.634.025-.551.014-1.349,0-2.33-.018-.491-.009-1.029-.015-1.605-.007a5.8,5.8,0,0,0-1.787.2,1.49,1.49,0,0,0-.733.541.974.974,0,0,0-.171.873,1.165,1.165,0,0,0,.675.658,3.226,3.226,0,0,0,1.046.191l4.221.26a5.728,5.728,0,0,0,1.8-.062,1.823,1.823,0,0,0,1.189-.881,1.187,1.187,0,0,0-.062-1.184,1.147,1.147,0,0,0-.772-.511C353.92,301.4,353.607,301.415,353.609,301.388Z" transform="translate(-346.064 -301.189)" fill="#263238"/>
        </g>
        <g id="Group_67" data-name="Group 67" transform="translate(167.94 31.33)">
          <path id="Path_59" data-name="Path 59" d="M495.08,300.219a.7.7,0,0,1,.221-.022,3.517,3.517,0,0,1,.639.033,1.243,1.243,0,0,1,.872.53,1.336,1.336,0,0,1,.106,1.342,2,2,0,0,1-1.3,1.007,5.81,5.81,0,0,1-1.87.093l-4.224-.24a3.445,3.445,0,0,1-1.129-.212,1.415,1.415,0,0,1-.815-.814,1.221,1.221,0,0,1,.211-1.095,1.731,1.731,0,0,1,.852-.621,5.86,5.86,0,0,1,1.867-.189c.58,0,1.118.018,1.612.039l2.326.1a6.41,6.41,0,0,1,.854.046.727.727,0,0,1-.22.029c-.145.011-.359.02-.634.025-.551.014-1.349,0-2.33-.018-.491-.009-1.029-.015-1.605-.007a5.809,5.809,0,0,0-1.788.2,1.492,1.492,0,0,0-.732.542.976.976,0,0,0-.171.873,1.167,1.167,0,0,0,.676.658,3.225,3.225,0,0,0,1.046.191l4.221.26a5.755,5.755,0,0,0,1.8-.062,1.827,1.827,0,0,0,1.189-.881,1.184,1.184,0,0,0-.063-1.184,1.146,1.146,0,0,0-.772-.511C495.39,300.231,495.077,300.246,495.08,300.219Z" transform="translate(-487.534 -300.02)" fill="#263238"/>
        </g>
        <g id="Group_68" data-name="Group 68" transform="translate(69.77 23.068)">
          <path id="Path_60" data-name="Path 60" d="M357.308,279.449s-.016.077-.056.227l-.181.667c-.164.592-.406,1.463-.72,2.6-.639,2.276-1.571,5.6-2.757,9.834l-.007.025-.023.011a22.139,22.139,0,0,0-5.524,3.684,22.864,22.864,0,0,0-2.572,2.737,26.945,26.945,0,0,0-2.251,3.336,33.132,33.132,0,0,0-3.224,8.168,39.539,39.539,0,0,0-1.243,9.606v.1h-.093l-40.279.012-51.957-.021h-.074l-.009-.073c-1.3-10.652-2.127-19.422-2.624-25.528-.249-3.052-.42-5.437-.532-7.059-.053-.809-.092-1.427-.12-1.849s-.033-.633-.033-.633.024.214.058.631l.144,1.847c.132,1.625.329,4.006.577,7.055.524,6.1,1.373,14.866,2.7,25.514l-.083-.074,51.957-.02,40.279.012-.093.095a39.647,39.647,0,0,1,1.263-9.652,33.234,33.234,0,0,1,3.257-8.2,26.97,26.97,0,0,1,2.27-3.35,23.068,23.068,0,0,1,2.595-2.747,22.208,22.208,0,0,1,5.566-3.687l-.031.036,2.808-9.82.748-2.589c.086-.29.151-.51.2-.663S357.308,279.449,357.308,279.449Z" transform="translate(-243.029 -279.449)" fill="#263238"/>
        </g>
        <g id="Group_69" data-name="Group 69" transform="translate(124.835 25.104)">
          <path id="Path_61" data-name="Path 61" d="M381.484,284.518a.358.358,0,0,1,0,.1c-.008.078-.019.175-.033.293-.033.274-.081.65-.14,1.126s-.142,1.086-.213,1.782-.174,1.486-.244,2.363-.167,1.837-.228,2.87c-.08,1.032-.12,2.138-.173,3.3-.077,2.325-.1,4.885-.013,7.569s.29,5.237.524,7.552c.132,1.156.246,2.256.395,3.28.132,1.027.282,1.979.421,2.848s.282,1.652.4,2.341.235,1.28.334,1.763.164.843.215,1.114c.02.118.037.213.051.291a.357.357,0,0,1,.011.1.353.353,0,0,1-.031-.1c-.019-.076-.043-.17-.071-.286-.062-.269-.146-.639-.254-1.106s-.24-1.069-.369-1.758-.3-1.468-.434-2.339-.309-1.821-.447-2.849c-.157-1.025-.279-2.126-.416-3.283-.245-2.319-.444-4.876-.541-7.566s-.059-5.254.029-7.583c.059-1.164.106-2.27.193-3.3.068-1.034.164-2,.254-2.873s.19-1.668.275-2.362.171-1.292.249-1.779.135-.847.179-1.121c.02-.117.038-.213.051-.291A.371.371,0,0,1,381.484,284.518Z" transform="translate(-380.173 -284.518)" fill="#263238"/>
        </g>
        <g id="Group_70" data-name="Group 70" transform="translate(61.844 22.236)">
          <path id="Path_62" data-name="Path 62" d="M231.69,279.1a6.227,6.227,0,0,1-4.778.881,5.088,5.088,0,0,1-3.624-2.446l3.535-.158Z" transform="translate(-223.288 -277.377)" fill="#263238"/>
        </g>
        <g id="Group_71" data-name="Group 71" transform="translate(65.379 4.915)">
          <path id="Path_63" data-name="Path 63" d="M232.093,251.558s3.563,2.171,4.6,1.875S254.348,240,264.377,234.928a11.909,11.909,0,0,0-3.047-.691s-4.667,2.362-10.487,5.865c-4.428,2.665-8.934,5.459-11.041,6.746Z" transform="translate(-232.093 -234.237)" fill="#455a64"/>
        </g>
        <g id="Group_72" data-name="Group 72" transform="translate(6.349 25.024)">
          <path id="Path_64" data-name="Path 64" d="M155.5,284.32a.721.721,0,0,1-.115.074l-.349.2-1.364.775-5.149,2.886-.016.009h-.018c-3.227-.116-7.371-.2-12.118-.007-2.373.1-4.9.271-7.523.54s-5.359.643-8.158,1.088c-4.9.765-9.525,1.73-13.757,2.506a93.4,93.4,0,0,1-11.34,1.36c-3.249.187-5.884.139-7.7.086-.909-.027-1.614-.066-2.092-.094l-.543-.033c-.122-.009-.185-.019-.185-.019s.063,0,.186,0l.544.013c.478.016,1.184.04,2.092.055,1.817.028,4.448.053,7.691-.152a95.948,95.948,0,0,0,11.316-1.4c4.222-.786,8.853-1.757,13.758-2.523,2.8-.446,5.537-.815,8.17-1.086s5.16-.43,7.536-.526c4.754-.181,8.9-.077,12.131.064l-.033.008,5.178-2.833,1.38-.745.358-.188A.763.763,0,0,1,155.5,284.32Z" transform="translate(-85.074 -284.32)" fill="#263238"/>
        </g>
        <g id="Group_73" data-name="Group 73" transform="translate(76.803 4.66)">
          <path id="Path_65" data-name="Path 65" d="M264.311,254.378c25.247-1.127,76.172-2.065,101.419-3.193a4.252,4.252,0,0,0-1.544-4.507,54.662,54.662,0,0,0-12.23-6.932,94,94,0,0,0-23.324-5.447c-4.5-.368-12.722-.7-12.722-.7s-15.061.6-19.264.98a43.479,43.479,0,0,0-15.24,4.151c-5.263,2.605-14.421,10.276-14.421,10.276l-6.439,5.37Z" transform="translate(-260.546 -233.601)" fill="#455a64"/>
        </g>
        <g id="Group_74" data-name="Group 74" transform="translate(122.155 3.912)">
          <path id="Path_66" data-name="Path 66" d="M378.373,231.738,373.5,252.574l8.836-.282,1.758-20.554Z" transform="translate(-373.5 -231.738)" fill="#263238"/>
        </g>
        <g id="Group_75" data-name="Group 75" transform="translate(164.368 8.956)">
          <path id="Path_67" data-name="Path 67" d="M479.495,244.3l-.859,14.113h1.228l.831-13.673Z" transform="translate(-478.636 -244.3)" fill="#263238"/>
        </g>
        <g id="Group_76" data-name="Group 76" transform="translate(75.625 20.658)">
          <path id="Path_68" data-name="Path 68" d="M263.508,273.446c.388.52,2.632,5.563,2.632,5.563l-8.527-.559Z" transform="translate(-257.613 -273.446)" fill="#263238"/>
        </g>
        <g id="Group_77" data-name="Group 77" transform="translate(81.516 17.216)">
          <path id="Path_69" data-name="Path 69" d="M280.292,273.375l-6.5.181c-.858-.012-1.532-1.535-1.5-3.4h0c.024-1.669.6-3.08,1.366-3.323l6.172-1.959Z" transform="translate(-272.286 -264.873)" fill="#e8505b"/>
        </g>
        <g id="Group_78" data-name="Group 78" transform="translate(126.509 3.674)">
          <path id="Path_70" data-name="Path 70" d="M387.631,231.145c.057.009-.632,4.758-1.538,10.6s-1.687,10.583-1.744,10.574.631-4.757,1.538-10.606S387.574,231.136,387.631,231.145Z" transform="translate(-384.346 -231.145)" fill="#455a64"/>
        </g>
        <g id="Group_79" data-name="Group 79" transform="translate(79.327 20.35)">
          <path id="Path_71" data-name="Path 71" d="M269.28,272.68a7.6,7.6,0,0,1-.994,2.145,7.782,7.782,0,0,1-1.451,1.866c-.048-.039.6-.869,1.272-1.974S269.223,272.656,269.28,272.68Z" transform="translate(-266.832 -272.68)" fill="#455a64"/>
        </g>
        <g id="Group_80" data-name="Group 80" transform="translate(107.322 7.701)">
          <path id="Path_72" data-name="Path 72" d="M347.045,241.176a.717.717,0,0,1-.094.172l-.3.47-1.138,1.711c-.965,1.442-2.294,3.433-3.742,5.647s-2.74,4.233-3.673,5.694l-1.109,1.728-.309.466a.716.716,0,0,1-.12.155.685.685,0,0,1,.084-.177l.275-.486c.243-.42.6-1.023,1.053-1.764.9-1.483,2.174-3.514,3.623-5.731s2.8-4.2,3.795-5.616c.5-.71.906-1.283,1.194-1.673l.335-.447C346.995,241.223,347.039,241.172,347.045,241.176Z" transform="translate(-336.557 -241.175)" fill="#ebebeb"/>
        </g>
        <g id="Group_81" data-name="Group 81" transform="translate(109.959 10.855)">
          <path id="Path_73" data-name="Path 73" d="M347.269,249.032a60.866,60.866,0,0,1-4.142,5.806,61.006,61.006,0,0,1,4.142-5.806Z" transform="translate(-343.126 -249.031)" fill="#ebebeb"/>
        </g>
        <g id="Group_82" data-name="Group 82" transform="translate(235.622 26.929)">
          <path id="Path_74" data-name="Path 74" d="M662.752,298.736a9.418,9.418,0,0,1-3.674-.546,4.851,4.851,0,0,1-2.518-6.512l.022-.046a4.537,4.537,0,0,1,3.98-2.569h.876a5.567,5.567,0,0,1,.57,2.087C662.246,293.07,662.6,295.973,662.752,298.736Z" transform="translate(-656.111 -289.064)" fill="#f5f5f5"/>
        </g>
        <g id="Group_83" data-name="Group 83" transform="translate(140.733 8.378)">
          <path id="Path_75" data-name="Path 75" d="M428.56,242.862c.049.031-1.879,3.151-4.306,6.968s-4.433,6.888-4.482,6.857,1.879-3.15,4.306-6.969S428.511,242.83,428.56,242.862Z" transform="translate(-419.772 -242.861)" fill="#ebebeb"/>
        </g>
        <g id="Group_84" data-name="Group 84" transform="translate(145.815 12.317)">
          <path id="Path_76" data-name="Path 76" d="M435.482,252.672a37.817,37.817,0,0,1-3.051,4.73,37.954,37.954,0,0,1,3.051-4.73Z" transform="translate(-432.428 -252.671)" fill="#ebebeb"/>
        </g>
        <g id="Group_85" data-name="Group 85" transform="translate(83.017 18.421)">
          <path id="Path_77" data-name="Path 77" d="M281.037,267.881a11.124,11.124,0,0,1-2.449.932,11.323,11.323,0,0,1-2.566.534c-.012-.06,1.125-.329,2.507-.734S281.016,267.824,281.037,267.881Z" transform="translate(-276.023 -267.875)" fill="#ebebeb"/>
        </g>
        <g id="Group_86" data-name="Group 86" transform="translate(75.655 27.145)">
          <path id="Path_78" data-name="Path 78" d="M305.015,289.708c0,.057-10.6.1-23.663.1s-23.665-.047-23.665-.1,10.593-.1,23.665-.1S305.015,289.65,305.015,289.708Z" transform="translate(-257.687 -289.603)" fill="#ebebeb"/>
        </g>
        <g id="Group_87" data-name="Group 87" transform="translate(112.628 31.353)">
          <path id="Path_79" data-name="Path 79" d="M356.648,300.188a56.371,56.371,0,0,1-6.876,0,56.9,56.9,0,0,1,6.876,0Z" transform="translate(-349.772 -300.084)" fill="#ebebeb"/>
        </g>
        <g id="Group_88" data-name="Group 88" transform="translate(21.915 36.134)">
          <path id="Path_80" data-name="Path 80" d="M144.493,312.084a1.181,1.181,0,0,1-.263.009c-.172,0-.424-.015-.75-.008a22.186,22.186,0,0,0-2.748.169,21.111,21.111,0,0,0-15.02,9.168,22.1,22.1,0,0,0-1.406,2.367c-.155.287-.256.519-.337.67a1.3,1.3,0,0,1-.128.23,1.19,1.19,0,0,1,.089-.247c.068-.157.157-.395.3-.689a19.149,19.149,0,0,1,1.356-2.413,20.67,20.67,0,0,1,15.126-9.233,19.209,19.209,0,0,1,2.766-.1c.327.006.58.036.751.047a1.261,1.261,0,0,1,.261.033Z" transform="translate(-123.842 -311.993)" fill="#ebebeb"/>
        </g>
        <g id="Group_89" data-name="Group 89" transform="translate(132.255 26.031)">
          <path id="Path_81" data-name="Path 81" d="M429.992,286.933c0,.058-7.015.1-15.667.1s-15.668-.047-15.668-.1,7.014-.1,15.668-.1S429.992,286.876,429.992,286.933Z" transform="translate(-398.657 -286.829)" fill="#ebebeb"/>
        </g>
        <g id="Group_90" data-name="Group 90" transform="translate(169.614 30.592)">
          <path id="Path_82" data-name="Path 82" d="M499.417,298.436a6.633,6.633,0,0,1-1.132.008c-.7-.016-1.661-.039-2.725-.045s-2.028.007-2.726.016a6.7,6.7,0,0,1-1.132-.019,5.545,5.545,0,0,1,1.126-.129c.7-.047,1.665-.083,2.733-.078s2.034.053,2.73.107A5.616,5.616,0,0,1,499.417,298.436Z" transform="translate(-491.702 -298.188)" fill="#ebebeb"/>
        </g>
      </g>
    </g>
    <g id="Group_161" data-name="Group 161" transform="translate(211.114 111.187)">
      <g id="Group_160" data-name="Group 160" transform="translate(0 0)">
        <g id="Group_106" data-name="Group 106" transform="translate(32.951)">
          <g id="Group_105" data-name="Group 105" transform="translate(0.757 2.764)">
            <path id="Path_83" data-name="Path 83" d="M566.61,182.909h0a2.788,2.788,0,0,1-2.787-2.8l.012-3.214a2.773,2.773,0,0,1-2.339-2.67c-.028-2.31.372-7.616.372-7.616h0a8.03,8.03,0,0,1,8.068,1.014h0l-.546,12.695a2.787,2.787,0,0,1-2.78,2.587Z" transform="translate(-561.495 -165.96)" fill="#b78876"/>
            <g id="Group_93" data-name="Group 93" transform="translate(2.332 10.048)">
              <path id="Path_84" data-name="Path 84" d="M567.307,191.841a5.372,5.372,0,0,0,3.012-.855,2.846,2.846,0,0,1-3.017,1.455Z" transform="translate(-567.302 -190.986)" fill="#aa6550"/>
            </g>
            <g id="Group_95" data-name="Group 95" transform="translate(8.095 4.25)">
              <path id="Path_85" data-name="Path 85" d="M581.747,176.617c.04-.017,1.588-.469,1.537,1.11a1.187,1.187,0,0,1-1.627,1.158C581.656,178.839,581.747,176.617,581.747,176.617Z" transform="translate(-581.657 -176.544)" fill="#b78876"/>
              <g id="Group_94" data-name="Group 94" transform="translate(0.5 0.516)">
                <path id="Path_86" data-name="Path 86" d="M582.9,179.069c.007,0,.027.02.072.043a.277.277,0,0,0,.206.011.682.682,0,0,0,.335-.6.9.9,0,0,0-.066-.4.317.317,0,0,0-.2-.218.14.14,0,0,0-.164.071c-.022.043-.013.075-.022.078s-.033-.027-.018-.092a.176.176,0,0,1,.066-.1.21.21,0,0,1,.154-.036.388.388,0,0,1,.28.254.934.934,0,0,1,.082.444.715.715,0,0,1-.423.669.294.294,0,0,1-.25-.05C582.906,179.108,582.9,179.073,582.9,179.069Z" transform="translate(-582.903 -177.828)" fill="#aa6550"/>
              </g>
            </g>
            <g id="Group_104" data-name="Group 104" transform="translate(0.805 2.31)">
              <g id="Group_101" data-name="Group 101" transform="translate(0 1.244)">
                <g id="Group_96" data-name="Group 96" transform="translate(0.406 0.38)">
                  <path id="Path_87" data-name="Path 87" d="M564.513,176.057a.329.329,0,0,0,.318.333.316.316,0,0,0,.34-.3.329.329,0,0,0-.317-.333.317.317,0,0,0-.341.3Z" transform="translate(-564.513 -175.76)" fill="#263238"/>
                </g>
                <path id="Path_88" data-name="Path 88" d="M563.506,175.16c.041.043.291-.142.646-.141s.615.178.653.135c.019-.019-.022-.1-.136-.18a.907.907,0,0,0-.524-.162.867.867,0,0,0-.514.166C563.523,175.063,563.486,175.141,563.506,175.16Z" transform="translate(-563.501 -174.813)" fill="#263238"/>
                <g id="Group_98" data-name="Group 98" transform="translate(3.49 0.066)">
                  <g id="Group_97" data-name="Group 97" transform="translate(0.393 0.314)">
                    <path id="Path_89" data-name="Path 89" d="M573.173,176.057a.329.329,0,0,0,.318.333.316.316,0,0,0,.34-.3.329.329,0,0,0-.318-.333.316.316,0,0,0-.34.3Z" transform="translate(-573.173 -175.76)" fill="#263238"/>
                  </g>
                  <path id="Path_90" data-name="Path 90" d="M572.2,175.325c.04.043.291-.142.646-.141s.615.179.654.135c.019-.019-.022-.1-.137-.18a.9.9,0,0,0-.523-.162.869.869,0,0,0-.515.166C572.216,175.228,572.179,175.306,572.2,175.325Z" transform="translate(-572.194 -174.978)" fill="#263238"/>
                </g>
                <g id="Group_99" data-name="Group 99" transform="translate(1.307 0.087)">
                  <path id="Path_91" data-name="Path 91" d="M567.658,177.989a2.361,2.361,0,0,0-.577-.1c-.091-.009-.176-.027-.192-.089a.461.461,0,0,1,.061-.269l.268-.691a11.837,11.837,0,0,0,.6-1.806,11.9,11.9,0,0,0-.746,1.753l-.257.694a.523.523,0,0,0-.047.356.227.227,0,0,0,.149.132.62.62,0,0,0,.154.021,2.321,2.321,0,0,0,.585,0Z" transform="translate(-566.758 -175.03)" fill="#263238"/>
                </g>
                <g id="Group_100" data-name="Group 100" transform="translate(2.12 3.292)">
                  <path id="Path_92" data-name="Path 92" d="M569.913,183.012c-.058,0-.058.382-.388.656s-.74.23-.743.285c-.006.024.091.075.263.08a.961.961,0,0,0,.62-.216.836.836,0,0,0,.3-.55C569.982,183.107,569.939,183.008,569.913,183.012Z" transform="translate(-568.781 -183.012)" fill="#263238"/>
                </g>
              </g>
              <g id="Group_102" data-name="Group 102" transform="translate(3.402 0)">
                <path id="Path_93" data-name="Path 93" d="M571.975,171.979c.035.1.39.051.806.1s.753.164.808.077c.025-.041-.033-.132-.169-.226a1.411,1.411,0,0,0-1.23-.136C572.037,171.858,571.961,171.934,571.975,171.979Z" transform="translate(-571.974 -171.713)" fill="#263238"/>
              </g>
              <g id="Group_103" data-name="Group 103" transform="translate(0.127 0.197)">
                <path id="Path_94" data-name="Path 94" d="M563.825,172.571c.063.08.307,0,.6-.007s.543.054.6-.03c.025-.041-.014-.122-.123-.2a.872.872,0,0,0-.968.03C563.832,172.448,563.8,172.531,563.825,172.571Z" transform="translate(-563.816 -172.203)" fill="#263238"/>
              </g>
            </g>
          </g>
          <path id="Path_95" data-name="Path 95" d="M559.613,161.032a.853.853,0,0,1,.315-.762.605.605,0,0,1,.784.059.706.706,0,0,1,.607-.855c.377-.024.7.261,1.062.362a1.715,1.715,0,0,0,1.079-.124c.342-.138.661-.329,1.007-.455a2.955,2.955,0,0,1,3.78,1.735,1.311,1.311,0,0,1,1.391.526,2.153,2.153,0,0,1,.329,1.516,4.835,4.835,0,0,1-.263,1.037c0,.03,0,.059,0,.089-.024,1.271-.167,2.763-.709,2.771-.945.014-.72-1.766-.72-1.766-1.16-.448-.728-2.185-1.017-2.449s-.9-.876-3.323.365a4.7,4.7,0,0,1-2.88.311l-.06-.012-.014,0-.02-.008a2.2,2.2,0,0,1-.623-.263,1.23,1.23,0,0,1-.513-.57.672.672,0,0,1,.132-.724A1.48,1.48,0,0,1,559.613,161.032Z" transform="translate(-559.608 -159.076)" fill="#263238"/>
        </g>
        <g id="Group_107" data-name="Group 107" transform="translate(47.955 15.817)">
          <path id="Path_96" data-name="Path 96" d="M610.538,200.23c-.059.1-.715,1.334-.715,1.334l.542-2.1c.17-.661-.24-.592-.36-.356s-.865,2.237-.865,2.237c.7-2.605.478-2.834.283-2.875s-.809,2.341-.809,2.341a2.23,2.23,0,0,0-.629-.688c-.629-.433-1.678,0-1.728.3s.324.379.324.379a.947.947,0,0,1,1.513.86.59.59,0,0,1-1.154.113c-.26-1.174-.665-.793-.665-.793l.4,2.591-.428,1.3-2.343,6.355-4.481-4.665s-2.395,5.295-2.451,5.473c-.038.119,2.247,2.495,3.748,4.04a4.239,4.239,0,0,0,7.166-1.988l1.772-9.128.829-2.991s.3-1.215.37-1.5C610.956,200.091,610.693,199.974,610.538,200.23Z" transform="translate(-596.977 -198.469)" fill="#b78876"/>
        </g>
        <g id="Group_108" data-name="Group 108" transform="translate(0 25.706)">
          <path id="Path_97" data-name="Path 97" d="M499.25,232.8a4.259,4.259,0,0,0,3.692-1.806l3.338-4.4-3.922-3.5-3.514,4.388-13.2-.7-3.116-1.748a1.1,1.1,0,0,0-.7-.127l-4.289,1.213,4.024,1.236,7.021,2.642Z" transform="translate(-477.54 -223.1)" fill="#b78876"/>
        </g>
        <g id="Group_159" data-name="Group 159" transform="translate(23.1 15.817)">
          <g id="Group_119" data-name="Group 119" transform="translate(28.514 84.253)">
            <path id="Path_98" data-name="Path 98" d="M606.092,408.313l.553,2.322s3.8,4.935,4.969,4.692c.768-.158-.175-1.445-1.62-5.192l-.3-1.546Z" transform="translate(-606.092 -408.313)" fill="#e8505b"/>
            <g id="Group_109" data-name="Group 109" transform="translate(0.481 1.764)">
              <path id="Path_99" data-name="Path 99" d="M612.487,417.227a.208.208,0,0,1-.03.07.417.417,0,0,1-.16.149.625.625,0,0,1-.338.075.9.9,0,0,1-.43-.158,18.425,18.425,0,0,1-1.914-1.784,24.474,24.474,0,0,1-1.7-1.989c-.2-.267-.362-.486-.468-.64l-.121-.178a.331.331,0,0,1-.038-.066.268.268,0,0,1,.05.056l.132.17.486.625c.415.522,1.007,1.232,1.711,1.97a21.444,21.444,0,0,0,1.889,1.792.7.7,0,0,0,.725.1A.5.5,0,0,0,612.487,417.227Z" transform="translate(-607.291 -412.706)" fill="#263238"/>
            </g>
            <g id="Group_110" data-name="Group 110" transform="translate(3.509 4.657)">
              <path id="Path_100" data-name="Path 100" d="M616.463,419.951c0,.013-.12-.011-.307.016a1.818,1.818,0,0,0-.683.259,1.4,1.4,0,0,0-.513.512c-.09.164-.115.284-.127.28a.656.656,0,0,1,.08-.3,1.307,1.307,0,0,1,.521-.552,1.624,1.624,0,0,1,.717-.248A.592.592,0,0,1,616.463,419.951Z" transform="translate(-614.832 -419.908)" fill="#263238"/>
            </g>
            <g id="Group_111" data-name="Group 111" transform="translate(0.286 1.203)">
              <path id="Path_101" data-name="Path 101" d="M608.061,413.648c-.013,0,.04-.166.07-.436a1.788,1.788,0,0,0-.191-1.018,1.681,1.681,0,0,0-.726-.732,2.939,2.939,0,0,0-.412-.15.328.328,0,0,1,.12.006,1.272,1.272,0,0,1,.315.1,1.629,1.629,0,0,1,.769.746,1.725,1.725,0,0,1,.177,1.058,1.946,1.946,0,0,1-.076.318A.338.338,0,0,1,608.061,413.648Z" transform="translate(-606.803 -411.309)" fill="#263238"/>
            </g>
            <g id="Group_112" data-name="Group 112" transform="translate(0.24 0.394)">
              <path id="Path_102" data-name="Path 102" d="M606.694,409.294a2.344,2.344,0,0,1,.211.728c.069.412.144.738.128.743a2.388,2.388,0,0,1-.2-.73C606.76,409.625,606.675,409.3,606.694,409.294Z" transform="translate(-606.691 -409.294)" fill="#263238"/>
            </g>
            <g id="Group_113" data-name="Group 113" transform="translate(3.042 2.124)">
              <path id="Path_103" data-name="Path 103" d="M614.6,413.63c0,.022-.217.016-.471.075s-.445.158-.457.138a1.109,1.109,0,0,1,.927-.214Z" transform="translate(-613.669 -413.604)" fill="#263238"/>
            </g>
            <g id="Group_114" data-name="Group 114" transform="translate(3.277 2.509)">
              <path id="Path_104" data-name="Path 104" d="M615.026,414.6c0,.022-.183,0-.395.055s-.364.146-.377.129a.752.752,0,0,1,.77-.183Z" transform="translate(-614.255 -414.564)" fill="#263238"/>
            </g>
            <g id="Group_115" data-name="Group 115" transform="translate(3.566 2.974)">
              <path id="Path_105" data-name="Path 105" d="M615.759,415.793a1.1,1.1,0,0,0-.785.178.612.612,0,0,1,.785-.178Z" transform="translate(-614.974 -415.72)" fill="#263238"/>
            </g>
            <g id="Group_116" data-name="Group 116" transform="translate(2.321 1.021)">
              <path id="Path_106" data-name="Path 106" d="M613.26,411.817a.366.366,0,0,1-.127-.014,2.526,2.526,0,0,1-.337-.09,3.04,3.04,0,0,1-.734-.373.382.382,0,0,1-.19-.292.224.224,0,0,1,.289-.182.592.592,0,0,1,.263.177,4.713,4.713,0,0,1,.349.38c.093.113.162.21.208.278a.4.4,0,0,1,.063.112c-.009.007-.118-.138-.312-.355-.1-.109-.217-.234-.357-.365a.552.552,0,0,0-.233-.155c-.086-.022-.2.024-.2.114a.335.335,0,0,0,.158.23c.084.06.169.113.252.161a3.419,3.419,0,0,0,.457.221C613.085,411.768,613.264,411.805,613.26,411.817Z" transform="translate(-611.873 -410.856)" fill="#263238"/>
            </g>
            <g id="Group_117" data-name="Group 117" transform="translate(3.502 0.688)">
              <path id="Path_107" data-name="Path 107" d="M614.819,411.276a.354.354,0,0,1,0-.116c0-.074.007-.182.024-.315a1.684,1.684,0,0,1,.119-.459.979.979,0,0,1,.15-.243.254.254,0,0,1,.3-.1.292.292,0,0,1,.105.3,1.054,1.054,0,0,1-.083.273,1.4,1.4,0,0,1-.271.39,1.751,1.751,0,0,1-.242.207.327.327,0,0,1-.1.058c-.008-.011.129-.1.3-.3a1.46,1.46,0,0,0,.248-.382,1.048,1.048,0,0,0,.073-.254c.011-.086,0-.191-.069-.228s-.155.014-.214.08a.945.945,0,0,0-.141.223,1.793,1.793,0,0,0-.132.439A3.617,3.617,0,0,1,614.819,411.276Z" transform="translate(-614.812 -410.028)" fill="#263238"/>
            </g>
            <g id="Group_118" data-name="Group 118" transform="translate(0.286 1.206)" opacity="0.4">
              <path id="Path_108" data-name="Path 108" d="M607.071,412.433l-.267-1.116s.931.172,1.172.869a2.916,2.916,0,0,1,.182,1.192l2.023,2.178s.508-.991,1.427-.754a9.506,9.506,0,0,1,.7,1.99c-.024.438-.486.35-.651.275a8.188,8.188,0,0,1-1.812-1.429C608.774,414.527,607.59,413.116,607.071,412.433Z" transform="translate(-606.804 -411.317)"/>
            </g>
          </g>
          <g id="Group_139" data-name="Group 139" transform="translate(5.711 82.259)">
            <g id="Group_121" data-name="Group 121" transform="translate(0.017 0)">
              <path id="Path_109" data-name="Path 109" d="M553.246,406.515l-.018-3.1,5.8-.07.074,4.531-.359.028c-1.6.108-8.141.438-9.216.126C548.33,407.684,553.246,406.515,553.246,406.515Z" transform="translate(-549.34 -403.347)" fill="#e8505b"/>
              <g id="Group_120" data-name="Group 120" transform="translate(7.659 2.824)" opacity="0.4">
                <path id="Path_110" data-name="Path 110" d="M568.416,412.067a2.014,2.014,0,0,1,.724-1.246,1.957,1.957,0,0,1,1.351-.438l.021,1.621Z" transform="translate(-568.416 -410.379)"/>
              </g>
            </g>
            <g id="Group_123" data-name="Group 123" transform="translate(0 3.825)">
              <g id="Group_122" data-name="Group 122" opacity="0.4">
                <path id="Path_111" data-name="Path 111" d="M550.82,412.874s-1.722.519-1.5.8,6.843.2,9.761-.1l-.011-.129-7.725.164S551.158,412.883,550.82,412.874Z" transform="translate(-549.298 -412.874)"/>
              </g>
            </g>
            <g id="Group_124" data-name="Group 124" transform="translate(0.019 4.394)">
              <path id="Path_112" data-name="Path 112" d="M559.188,414.293a.566.566,0,0,1-.1.012l-.286.02-1.053.059c-.89.043-2.12.087-3.48.106s-2.592.008-3.483-.012l-1.055-.03-.287-.013a.547.547,0,0,1-.1-.01.62.62,0,0,1,.1,0h.287l1.055.008c.891.007,2.121.01,3.481-.009s2.589-.055,3.48-.085l1.054-.037.287-.008a.625.625,0,0,1,.1,0Z" transform="translate(-549.347 -414.29)" fill="#263238"/>
            </g>
            <g id="Group_125" data-name="Group 125" transform="translate(1.479 3.756)">
              <path id="Path_113" data-name="Path 113" d="M553.549,413.6a2.407,2.407,0,0,0-.2-.5,2.327,2.327,0,0,0-.365-.4.936.936,0,0,1,.568.9Z" transform="translate(-552.981 -412.702)" fill="#263238"/>
            </g>
            <g id="Group_126" data-name="Group 126" transform="translate(3.431 3.286)">
              <path id="Path_114" data-name="Path 114" d="M558.157,412.01c-.016.011-.1-.089-.186-.22s-.143-.248-.126-.259.1.088.186.22S558.175,412,558.157,412.01Z" transform="translate(-557.842 -411.53)" fill="#263238"/>
            </g>
            <g id="Group_127" data-name="Group 127" transform="translate(3.846 3.189)">
              <path id="Path_115" data-name="Path 115" d="M559.245,411.611c-.013.014-.1-.045-.206-.134s-.173-.172-.16-.186.106.045.206.133S559.258,411.6,559.245,411.611Z" transform="translate(-558.878 -411.289)" fill="#263238"/>
            </g>
            <g id="Group_128" data-name="Group 128" transform="translate(3.898 2.932)">
              <path id="Path_116" data-name="Path 116" d="M559.612,410.677a1.318,1.318,0,0,1-.606.014A1.334,1.334,0,0,1,559.612,410.677Z" transform="translate(-559.006 -410.649)" fill="#263238"/>
            </g>
            <g id="Group_129" data-name="Group 129" transform="translate(3.915 2.572)">
              <path id="Path_117" data-name="Path 117" d="M559.735,409.756a.855.855,0,0,1-.686.06,1.88,1.88,0,0,1,.343-.028A1.922,1.922,0,0,1,559.735,409.756Z" transform="translate(-559.049 -409.756)" fill="#263238"/>
            </g>
            <g id="Group_130" data-name="Group 130" transform="translate(2.448 2.753)">
              <path id="Path_118" data-name="Path 118" d="M556.492,410.714a1.065,1.065,0,0,1-.373,0,2.2,2.2,0,0,1-.4-.083,1.056,1.056,0,0,1-.228-.091.2.2,0,0,1-.093-.114.147.147,0,0,1,.055-.15.684.684,0,0,1,.848.189.671.671,0,0,1,.125.247.209.209,0,0,1,.011.1,1.046,1.046,0,0,0-.174-.315.672.672,0,0,0-.321-.2.577.577,0,0,0-.444.036c-.059.044-.033.113.033.152a1.137,1.137,0,0,0,.211.087,2.612,2.612,0,0,0,.386.095C556.351,410.7,556.492,410.7,556.492,410.714Z" transform="translate(-555.396 -410.205)" fill="#263238"/>
            </g>
            <g id="Group_131" data-name="Group 131" transform="translate(3.395 2.556)">
              <path id="Path_119" data-name="Path 119" d="M557.805,410.439a.372.372,0,0,1-.046-.259.62.62,0,0,1,.1-.273.374.374,0,0,1,.308-.194.148.148,0,0,1,.117.171.407.407,0,0,1-.062.167,1.144,1.144,0,0,1-.173.228.525.525,0,0,1-.212.153c-.007-.009.073-.068.175-.187a1.311,1.311,0,0,0,.153-.226c.05-.079.084-.221-.01-.237s-.187.086-.243.162a.608.608,0,0,0-.1.244,1.4,1.4,0,0,0,0,.251Z" transform="translate(-557.753 -409.713)" fill="#263238"/>
            </g>
            <g id="Group_132" data-name="Group 132" transform="translate(7.679 2.776)">
              <path id="Path_120" data-name="Path 120" d="M570.466,410.3c0,.013-.166-.014-.428.02a1.817,1.817,0,0,0-1.5,1.23c-.085.25-.092.417-.1.416a.324.324,0,0,1,0-.117,1.543,1.543,0,0,1,.06-.314,1.762,1.762,0,0,1,1.546-1.264,1.518,1.518,0,0,1,.32,0A.321.321,0,0,1,570.466,410.3Z" transform="translate(-568.424 -410.26)" fill="#263238"/>
            </g>
            <g id="Group_133" data-name="Group 133" transform="translate(9.07 0.404)">
              <path id="Path_121" data-name="Path 121" d="M571.9,404.354a10.162,10.162,0,0,1,.066,1.191,10.035,10.035,0,0,1,0,1.193,10.3,10.3,0,0,1-.066-1.191A10.087,10.087,0,0,1,571.9,404.354Z" transform="translate(-571.885 -404.354)" fill="#263238"/>
            </g>
            <g id="Group_134" data-name="Group 134" transform="translate(5.244 3.948)">
              <path id="Path_122" data-name="Path 122" d="M564.053,413.187a4.773,4.773,0,0,1-1.7.038c0-.02.381,0,.847-.013S564.05,413.166,564.053,413.187Z" transform="translate(-562.358 -413.18)" fill="#263238"/>
            </g>
            <g id="Group_135" data-name="Group 135" transform="translate(7.912 3.936)">
              <path id="Path_123" data-name="Path 123" d="M569.167,413.153c.014.014-.03.08-.067.168s-.058.164-.078.164-.031-.091.014-.192S569.155,413.139,569.167,413.153Z" transform="translate(-569.004 -413.151)" fill="#263238"/>
            </g>
            <g id="Group_136" data-name="Group 136" transform="translate(8.281 3.397)">
              <path id="Path_124" data-name="Path 124" d="M570.14,411.81c.014.013-.022.074-.082.136s-.119.1-.132.087.023-.074.082-.136S570.126,411.8,570.14,411.81Z" transform="translate(-569.924 -411.807)" fill="#263238"/>
            </g>
            <g id="Group_137" data-name="Group 137" transform="translate(8.778 3.116)">
              <path id="Path_125" data-name="Path 125" d="M571.491,411.141c0,.02-.081.02-.165.051s-.146.077-.161.066.033-.093.138-.132S571.5,411.123,571.491,411.141Z" transform="translate(-571.162 -411.109)" fill="#263238"/>
            </g>
            <g id="Group_138" data-name="Group 138" transform="translate(9.369 3.015)">
              <path id="Path_126" data-name="Path 126" d="M572.807,410.868c.007.018-.026.048-.074.068s-.092.02-.1,0,.026-.048.074-.067S572.8,410.85,572.807,410.868Z" transform="translate(-572.634 -410.855)" fill="#263238"/>
            </g>
          </g>
          <g id="Group_140" data-name="Group 140" transform="translate(7.26 23.918)">
            <path id="Path_127" data-name="Path 127" d="M580.573,318.79,569.1,258.041l-15.946,2.429,1.133,57.746,9.034.19-1.5-50.377,10.161,50.763Z" transform="translate(-553.156 -258.041)" fill="#455a64"/>
          </g>
          <path id="Path_128" data-name="Path 128" d="M560.043,228.2l-18.227-.681.518-16.633-2.389,2.724-4.871-4.218,5.36-7.305a8.675,8.675,0,0,1,5.8-3.432c.681-.093,1.2-.138,1.534-.18a9.869,9.869,0,0,0,5.947,0h0a8.106,8.106,0,0,1,2.462.472,10.132,10.132,0,0,1,3.929,2.544h0l5.98,8.084-5.112,4.423-2.912-2.561Z" transform="translate(-535.074 -198.471)" fill="#263238"/>
          <g id="Group_141" data-name="Group 141" transform="translate(7.05 6.136)">
            <path id="Path_129" data-name="Path 129" d="M553.116,213.753c.058,0,0,2.769-.126,6.179s-.278,6.172-.335,6.172,0-2.768.126-6.18S553.058,213.751,553.116,213.753Z" transform="translate(-552.633 -213.753)" fill="#455a64"/>
          </g>
          <g id="Group_142" data-name="Group 142" transform="translate(22.328 7.227)">
            <path id="Path_130" data-name="Path 130" d="M590.7,216.47a62.1,62.1,0,0,1,.693,7.167,62.135,62.135,0,0,1-.693-7.167Z" transform="translate(-590.684 -216.47)" fill="#455a64"/>
          </g>
          <g id="Group_143" data-name="Group 143" transform="translate(12.669 0.174)">
            <path id="Path_131" data-name="Path 131" d="M567.379,198.917c.035.045-.1.213-.308.373s-.4.255-.437.209.1-.213.308-.374S567.343,198.871,567.379,198.917Z" transform="translate(-566.629 -198.905)" fill="#455a64"/>
          </g>
          <g id="Group_144" data-name="Group 144" transform="translate(13.975 0.362)">
            <path id="Path_132" data-name="Path 132" d="M570.154,199.377c.051.029.013.194-.041.387s-.109.354-.168.351-.1-.189-.033-.408S570.1,199.349,570.154,199.377Z" transform="translate(-569.879 -199.373)" fill="#455a64"/>
          </g>
          <g id="Group_145" data-name="Group 145" transform="translate(15.105 0.484)">
            <path id="Path_133" data-name="Path 133" d="M572.783,199.676c.058,0,.112.153.121.349s-.029.357-.087.359-.112-.153-.121-.349S572.726,199.679,572.783,199.676Z" transform="translate(-572.695 -199.676)" fill="#455a64"/>
          </g>
          <g id="Group_146" data-name="Group 146" transform="translate(16.337 0.395)">
            <path id="Path_134" data-name="Path 134" d="M575.831,199.455c.059,0,.108.168.164.368s.1.371.044.4-.184-.117-.246-.346S575.776,199.455,575.831,199.455Z" transform="translate(-575.764 -199.455)" fill="#455a64"/>
          </g>
          <g id="Group_147" data-name="Group 147" transform="translate(17.73 0.247)">
            <path id="Path_135" data-name="Path 135" d="M579.26,199.089c.055-.02.149.1.257.243s.2.266.163.314-.2-.018-.329-.188S579.206,199.107,579.26,199.089Z" transform="translate(-579.232 -199.086)" fill="#455a64"/>
          </g>
          <g id="Group_148" data-name="Group 148" transform="translate(18.463 0.023)">
            <path id="Path_136" data-name="Path 136" d="M581.065,198.549c.033-.048.169-.014.308.075s.225.2.194.251-.169.014-.308-.075S581.033,198.6,581.065,198.549Z" transform="translate(-581.058 -198.527)" fill="#455a64"/>
          </g>
          <g id="Group_149" data-name="Group 149" transform="translate(7.461 11.079)">
            <path id="Path_137" data-name="Path 137" d="M568.92,226.165c0,.058-3.417.107-7.632.11s-7.632-.042-7.632-.1,3.417-.107,7.632-.11S568.92,226.108,568.92,226.165Z" transform="translate(-553.656 -226.067)" fill="#fafafa"/>
          </g>
          <g id="Group_150" data-name="Group 150" transform="translate(7.592 12.208)">
            <path id="Path_138" data-name="Path 138" d="M569.247,228.977c0,.058-3.417.107-7.632.109s-7.632-.041-7.632-.1,3.416-.107,7.632-.11S569.247,228.918,569.247,228.977Z" transform="translate(-553.983 -228.878)" fill="#fafafa"/>
          </g>
          <g id="Group_151" data-name="Group 151" transform="translate(7.302 13.38)">
            <path id="Path_139" data-name="Path 139" d="M568.946,231.851c0,.058-3.511.136-7.842.174s-7.844.022-7.844-.035,3.51-.136,7.842-.174S568.946,231.793,568.946,231.851Z" transform="translate(-553.26 -231.794)" fill="#fafafa"/>
          </g>
          <g id="Group_152" data-name="Group 152" transform="translate(22.896 6.831)">
            <path id="Path_140" data-name="Path 140" d="M597.144,215.485a4.2,4.2,0,0,1-.654.718c-.426.421-1.034.983-1.732,1.573s-1.355,1.1-1.842,1.445a4.175,4.175,0,0,1-.817.524,4.845,4.845,0,0,1,.727-.642l1.8-1.488,1.767-1.522a4.824,4.824,0,0,1,.756-.61Z" transform="translate(-592.099 -215.485)" fill="#fafafa"/>
          </g>
          <g id="Group_153" data-name="Group 153" transform="translate(23.009 7.841)">
            <path id="Path_141" data-name="Path 141" d="M598.236,218a5.132,5.132,0,0,1-.773.763c-.5.447-1.208,1.043-2.019,1.666s-1.569,1.156-2.129,1.523a5.1,5.1,0,0,1-.935.551,6.185,6.185,0,0,1,.85-.672c.537-.4,1.278-.947,2.086-1.568s1.528-1.2,2.05-1.612A6.176,6.176,0,0,1,598.236,218Z" transform="translate(-592.38 -218)" fill="#fafafa"/>
          </g>
          <g id="Group_154" data-name="Group 154" transform="translate(23.74 8.793)">
            <path id="Path_142" data-name="Path 142" d="M599.795,220.373a32.437,32.437,0,0,1-2.729,2.469,32.911,32.911,0,0,1-2.865,2.311,32.9,32.9,0,0,1,2.729-2.47A32.5,32.5,0,0,1,599.795,220.373Z" transform="translate(-594.201 -220.372)" fill="#fafafa"/>
          </g>
          <g id="Group_155" data-name="Group 155" transform="translate(2.898 7.257)">
            <path id="Path_143" data-name="Path 143" d="M546.712,220.82a2.676,2.676,0,0,1-.776-.473,13.419,13.419,0,0,1-1.605-1.487c-.586-.619-1.1-1.187-1.473-1.606a3.918,3.918,0,0,1-.565-.707,3.918,3.918,0,0,1,.673.606c.4.392.933.945,1.517,1.564s1.126,1.156,1.546,1.516a7.274,7.274,0,0,1,.683.588Z" transform="translate(-542.292 -216.547)" fill="#fafafa"/>
          </g>
          <g id="Group_156" data-name="Group 156" transform="translate(2.053 8.243)">
            <path id="Path_144" data-name="Path 144" d="M544.939,223.665a4.191,4.191,0,0,1-.785-.586c-.464-.386-1.088-.943-1.746-1.588s-1.225-1.26-1.62-1.717a4.212,4.212,0,0,1-.6-.774,4.937,4.937,0,0,1,.708.674c.421.43,1,1.024,1.657,1.668s1.26,1.213,1.7,1.627A4.917,4.917,0,0,1,544.939,223.665Z" transform="translate(-540.189 -219)" fill="#fafafa"/>
          </g>
          <g id="Group_157" data-name="Group 157" transform="translate(1.289 9.285)">
            <path id="Path_145" data-name="Path 145" d="M543.236,226.2a5.171,5.171,0,0,1-.728-.675c-.435-.43-1.037-1.022-1.719-1.657s-1.316-1.192-1.778-1.594a5.239,5.239,0,0,1-.726-.677,4.232,4.232,0,0,1,.821.563c.487.375,1.14.917,1.826,1.556s1.276,1.25,1.684,1.708A4.332,4.332,0,0,1,543.236,226.2Z" transform="translate(-538.284 -221.598)" fill="#fafafa"/>
          </g>
          <g id="Group_158" data-name="Group 158" transform="translate(6.844 28.483)">
            <path id="Path_146" data-name="Path 146" d="M570.205,269.886c0,.058-4.052,0-9.047-.122s-9.042-.273-9.041-.331,4.051,0,9.047.122S570.205,269.829,570.205,269.886Z" transform="translate(-552.118 -269.41)" fill="#455a64"/>
          </g>
        </g>
      </g>
    </g>
    <g id="Group_171" data-name="Group 171" transform="translate(223.564 109.348)">
      <g id="Group_170" data-name="Group 170" transform="translate(0 0)">
        <g id="Group_169" data-name="Group 169" transform="translate(4.843 5.148)">
          <path id="Path_153" data-name="Path 153" d="M525.485,167.661a2.407,2.407,0,0,1-3.162-.319,1.542,1.542,0,0,0-1.17.276,1.751,1.751,0,0,0-.266,2.217c.6.949,1.751,1.358,2.464,2.213.713-.855,1.8-1.221,2.407-2.171A1.752,1.752,0,0,0,525.485,167.661Z" transform="translate(-520.609 -167.321)" fill="#e8505b"/>
        </g>
        <path id="Path_154" data-name="Path 154" d="M523.961,168.432s-.085-.009-.261-.035c-.191-.029-.452-.066-.786-.117l-3.023-.461.042-.009a7.216,7.216,0,0,1-3.645,1.259,7.295,7.295,0,1,1,6.81-7.924,7.149,7.149,0,0,1-.7,3.773v-.047l1.166,2.649c.126.291.225.517.3.684s.1.23.095.227a.675.675,0,0,1-.033-.066l-.086-.18c-.08-.168-.188-.4-.329-.691l-1.213-2.58-.011-.023.011-.024a7.081,7.081,0,1,0-2.433,2.845l.02-.013.022,0,2.966.526.8.145.21.039A.7.7,0,0,1,523.961,168.432Z" transform="translate(-508.537 -154.494)" fill="#263238"/>
      </g>
    </g>
  </g>
</svg>
