<svg xmlns="http://www.w3.org/2000/svg" width="247.692" height="107.964" viewBox="0 0 247.692 107.964">
  <g id="Group_3905" data-name="Group 3905" transform="translate(-931.371 -397.896)">
    <g id="Group_2840" data-name="Group 2840" transform="translate(820.801 -460.115)">
      <rect id="Rectangle_213" data-name="Rectangle 213" width="42.016" height="19.649" transform="translate(279.165 927.52)" fill="#234b84"/>
      <rect id="Rectangle_214" data-name="Rectangle 214" width="42.017" height="19.649" transform="translate(147.826 925.78)" fill="#234b84"/>
      <g id="Group_2822" data-name="Group 2822" transform="translate(153.694 930.766)">
        <path id="Path_1326" data-name="Path 1326" d="M157.616,896.753a14.661,14.661,0,1,1-14.661,14.661A14.66,14.66,0,0,1,157.616,896.753Z" transform="translate(-142.955 -896.753)" fill="#263238"/>
      </g>
      <g id="Group_2823" data-name="Group 2823" transform="translate(166.327 943.398)">
        <path id="Path_1327" data-name="Path 1327" d="M151.71,907.539a2.03,2.03,0,1,1,2.03-2.03A2.031,2.031,0,0,1,151.71,907.539Zm0-3.784a1.754,1.754,0,1,0,1.754,1.754A1.756,1.756,0,0,0,151.71,903.755Z" transform="translate(-149.682 -903.479)" fill="#fbe9e7"/>
      </g>
      <g id="Group_2824" data-name="Group 2824" transform="translate(159.694 936.768)">
        <path id="Path_1328" data-name="Path 1328" d="M154.811,917.269a8.66,8.66,0,1,1,8.659-8.661A8.67,8.67,0,0,1,154.811,917.269Zm0-17.044a8.385,8.385,0,1,0,8.385,8.383A8.4,8.4,0,0,0,154.811,900.225Z" transform="translate(-146.15 -899.949)" fill="#fbe9e7"/>
      </g>
      <g id="Group_2825" data-name="Group 2825" transform="translate(166.019 936.753)">
        <path id="Path_1329" data-name="Path 1329" d="M151.847,906.005l-2.329-5.718.135-.047a8.062,8.062,0,0,1,4.3-.024l.163.032-.064.152c-.165.4-.353.915-.535,1.407s-.374,1.016-.545,1.429Zm-1.966-5.553,1.966,4.824.873-2.145c.169-.409.357-.926.541-1.422.161-.436.325-.881.477-1.258A7.927,7.927,0,0,0,149.88,900.452Z" transform="translate(-149.518 -899.941)" fill="#fbe9e7"/>
      </g>
      <g id="Group_2826" data-name="Group 2826" transform="translate(170.599 939.197)">
        <path id="Path_1330" data-name="Path 1330" d="M151.957,906.147l3.752-4.905.111.094a8.107,8.107,0,0,1,2.2,3.7l.053.158-.163.023c-.434.064-.973.16-1.489.252s-1.061.192-1.5.255Zm3.8-4.507-3.166,4.135,2.293-.332c.434-.062.971-.156,1.491-.25.458-.083.93-.167,1.337-.229A7.955,7.955,0,0,0,155.752,901.64Z" transform="translate(-151.957 -901.242)" fill="#fbe9e7"/>
      </g>
      <g id="Group_2827" data-name="Group 2827" transform="translate(170.62 946.725)">
        <path id="Path_1331" data-name="Path 1331" d="M155.827,910.09l-.1-.13c-.27-.347-.616-.762-.954-1.166s-.693-.832-.965-1.183l-1.839-2.361,6.12.834-.026.141a8.164,8.164,0,0,1-2.124,3.743Zm-3.226-4.475,1.424,1.827c.27.347.622.768.96,1.176.3.355.6.723.856,1.042a7.936,7.936,0,0,0,1.921-3.343Z" transform="translate(-151.968 -905.251)" fill="#fbe9e7"/>
      </g>
      <g id="Group_2828" data-name="Group 2828" transform="translate(166.068 948.04)">
        <path id="Path_1332" data-name="Path 1332" d="M152.085,912.017a11.422,11.422,0,0,1-2.379-.282l-.161-.032.062-.154c.167-.406.359-.918.541-1.41s.376-1.01.545-1.422l1.136-2.766,2.316,5.724-.135.047A5.714,5.714,0,0,1,152.085,912.017Zm-2.161-.516a7.933,7.933,0,0,0,3.855.007l-1.951-4.828-.881,2.143c-.167.406-.357.917-.541,1.41C150.243,910.67,150.077,911.119,149.923,911.5Z" transform="translate(-149.544 -905.951)" fill="#fbe9e7"/>
      </g>
      <g id="Group_2829" data-name="Group 2829" transform="translate(159.925 946.686)">
        <path id="Path_1333" data-name="Path 1333" d="M148.519,910.021l-.107-.1a8.138,8.138,0,0,1-2.09-3.76l-.049-.158.165-.019c.438-.051.978-.13,1.5-.21s1.065-.156,1.506-.207l2.971-.342Zm-1.884-3.778a7.906,7.906,0,0,0,1.854,3.378l3.288-4.04-2.3.265c-.438.049-.977.13-1.5.207C147.518,906.12,147.043,906.192,146.635,906.242Z" transform="translate(-146.273 -905.23)" fill="#fbe9e7"/>
      </g>
      <g id="Group_2830" data-name="Group 2830" transform="translate(160.006 939.185)">
        <path id="Path_1334" data-name="Path 1334" d="M152.419,906.145l-6.1-.941.03-.141a8.1,8.1,0,0,1,2.186-3.705l.115-.122.1.133c.265.353.61.781.941,1.193s.672.836.937,1.187Zm-5.775-1.168,5.149.791-1.392-1.852c-.263-.349-.6-.772-.931-1.181-.293-.364-.6-.738-.847-1.068A7.965,7.965,0,0,0,146.645,904.977Z" transform="translate(-146.316 -901.236)" fill="#fbe9e7"/>
      </g>
      <g id="Group_2831" data-name="Group 2831" transform="translate(287.404 931.063)">
        <path id="Path_1335" data-name="Path 1335" d="M228.816,896.911a14.661,14.661,0,1,1-14.661,14.663A14.662,14.662,0,0,1,228.816,896.911Z" transform="translate(-214.155 -896.911)" fill="#263238"/>
      </g>
      <g id="Group_2832" data-name="Group 2832" transform="translate(300.035 943.698)">
        <path id="Path_1336" data-name="Path 1336" d="M222.911,907.7a2.028,2.028,0,1,1,2.03-2.028A2.031,2.031,0,0,1,222.911,907.7Zm0-3.784a1.754,1.754,0,1,0,1.754,1.756A1.756,1.756,0,0,0,222.911,903.911Z" transform="translate(-220.881 -903.639)" fill="#fbe9e7"/>
      </g>
      <g id="Group_2833" data-name="Group 2833" transform="translate(293.406 937.065)">
        <path id="Path_1337" data-name="Path 1337" d="M226.01,917.425a8.659,8.659,0,1,1,8.661-8.657A8.667,8.667,0,0,1,226.01,917.425Zm0-17.042a8.385,8.385,0,1,0,8.385,8.385A8.395,8.395,0,0,0,226.01,900.383Z" transform="translate(-217.351 -900.107)" fill="#fbe9e7"/>
      </g>
      <g id="Group_2834" data-name="Group 2834" transform="translate(299.733 937.05)">
        <path id="Path_1338" data-name="Path 1338" d="M223.047,906.163l-2.327-5.718.135-.047a8.105,8.105,0,0,1,4.3-.026l.162.034-.062.154c-.169.407-.359.924-.541,1.423s-.372,1-.539,1.412Zm-1.962-5.553,1.962,4.824.875-2.145c.165-.406.353-.911.535-1.4.161-.441.329-.894.483-1.277A7.938,7.938,0,0,0,221.084,900.61Z" transform="translate(-220.72 -900.099)" fill="#fbe9e7"/>
      </g>
      <g id="Group_2835" data-name="Group 2835" transform="translate(304.52 939.493)">
        <path id="Path_1339" data-name="Path 1339" d="M223.446,906.256h-.068l-.011-.145-.1-.075,3.546-4.637.111.092a8.116,8.116,0,0,1,2.2,3.7l.053.158-.163.024c-.436.062-.973.16-1.491.252s-1.061.19-1.5.254Zm3.412-4.458-3.164,4.137,2.291-.331c.434-.066.971-.16,1.491-.253.458-.081.93-.167,1.337-.229A7.95,7.95,0,0,0,226.858,901.8Z" transform="translate(-223.269 -901.4)" fill="#fbe9e7"/>
      </g>
      <g id="Group_2836" data-name="Group 2836" transform="translate(304.33 947.022)">
        <path id="Path_1340" data-name="Path 1340" d="M227.027,910.248l-.1-.13c-.274-.351-.625-.772-.965-1.183s-.685-.819-.954-1.166l-1.839-2.361,6.118.836-.026.141a8.1,8.1,0,0,1-2.124,3.741Zm-3.226-4.473,1.422,1.825c.269.344.614.759.948,1.159.3.364.612.734.87,1.059a7.943,7.943,0,0,0,1.921-3.341Z" transform="translate(-223.168 -905.409)" fill="#fbe9e7"/>
      </g>
      <g id="Group_2837" data-name="Group 2837" transform="translate(299.782 948.335)">
        <path id="Path_1341" data-name="Path 1341" d="M223.287,912.176a11.534,11.534,0,0,1-2.379-.28l-.161-.034.062-.154c.167-.4.357-.913.539-1.4s.377-1.014.546-1.429l1.136-2.768,2.315,5.726-.135.049A5.757,5.757,0,0,1,223.287,912.176Zm-2.162-.515a7.937,7.937,0,0,0,3.857.006l-1.955-4.83-.879,2.145c-.169.407-.359.922-.545,1.422C221.443,910.835,221.277,911.28,221.125,911.661Z" transform="translate(-220.746 -906.108)" fill="#fbe9e7"/>
      </g>
      <g id="Group_2838" data-name="Group 2838" transform="translate(293.637 946.984)">
        <path id="Path_1342" data-name="Path 1342" d="M219.718,910.18l-.109-.1a8.142,8.142,0,0,1-2.088-3.761l-.047-.156.163-.021c.438-.049.978-.13,1.5-.208s1.065-.156,1.506-.208l2.971-.34Zm-1.884-3.78a7.926,7.926,0,0,0,1.854,3.38l3.286-4.041-2.3.265c-.436.049-.975.13-1.5.207C218.717,906.277,218.242,906.349,217.835,906.4Z" transform="translate(-217.474 -905.389)" fill="#fbe9e7"/>
      </g>
      <g id="Group_2839" data-name="Group 2839" transform="translate(293.721 939.484)">
        <path id="Path_1343" data-name="Path 1343" d="M223.62,906.3l-6.1-.941.026-.139a8.1,8.1,0,0,1,2.19-3.705l.113-.122.1.131c.265.351.607.777.937,1.189s.676.838.941,1.192Zm-5.775-1.168,5.149.792-1.392-1.852c-.263-.351-.6-.777-.935-1.187-.293-.364-.593-.738-.843-1.065A7.966,7.966,0,0,0,217.846,905.134Z" transform="translate(-217.519 -901.395)" fill="#fbe9e7"/>
      </g>
      <path id="Path_1344" data-name="Path 1344" d="M136.424,871.414l-3.583,35.514v22.806l-2.118.407v12.464l13.114,4.237h6.6l.885.047a15.108,15.108,0,0,1-.085-1.6c0-8.956,7.808-16.216,17.439-16.216s17.437,7.26,17.437,16.216a15.094,15.094,0,0,1-.415,3.527l.8.045h30.381l50.094.6,15.919.543.947.017.342-5.874c0-.1,0-.2,0-.3a15.134,15.134,0,0,1,.141-2.073h0c1.095-7.978,8.423-14.143,17.3-14.143,8.541,0,15.647,5.711,17.146,13.253l0,0,0,.017c.056.293.107.586.148.883.043.314.075.629.1.946l1.076,7.955,1.527.026L335.5,944.4l2.6-2.389V933l-1.735-1.193c.905-8.126-2.314-13.151-8.359-16.064L304.57,903.161h-2.6l-21.989-25.179a45.058,45.058,0,0,0-3.692-3.69c-7-5.168-30.755-16.28-30.755-16.28H143.512l-7.087,13.4Zm117.291,5.377,10.59.813c3.72.034,7.247.387,10.425,3.587l23.621,26.225c1.292,1.546.1,2.224-1.14,2.118l-36-6.516q-6.842-.572-8.794-7.656l-2.77-16.126c-.505-2.143,1.072-2.755,4.071-2.445ZM142.426,905.765l88.126,1.517q6.67.124,7.164-6.077l2.387-22.359c.051-2.051-1.025-3-3.039-3.039l-86.825-1.084c-3.425.505-5.476,2.838-5.859,7.38l-1.955,23.66Z" transform="translate(0 0)" fill="#ff6f00"/>
      <path id="Path_1345" data-name="Path 1345" d="M131.937,883.595l-.087.871v22.48h6.6V883.734Z" transform="translate(0.989 22.461)" fill="#cc4425"/>
      <path id="Path_1346" data-name="Path 1346" d="M225.464,899.874c-.086,0-.173,0-.261,0l-88.126-1.519a.273.273,0,0,1-.269-.3l1.953-23.662c.383-4.522,2.434-7.089,6.1-7.628l86.868,1.082a3.5,3.5,0,0,1,2.543.9,3.253,3.253,0,0,1,.766,2.421l-2.389,22.378C232.311,897.745,229.9,899.874,225.464,899.874Zm-88.083-2.066,87.834,1.514c4.3.058,6.565-1.827,6.883-5.825l2.389-22.363a2.717,2.717,0,0,0-.616-2,2.964,2.964,0,0,0-2.154-.731l-86.823-1.086c-3.378.5-5.219,2.832-5.581,7.129Z" transform="translate(5.342 7.687)" fill="#cc4425"/>
      <path id="Path_1347" data-name="Path 1347" d="M217.058,941.123H162.843l0-.28,1.144-76.564.274,0,52.239.494,0,.272Zm-53.655-.552h53.1l-.547-75.251-51.424-.484Z" transform="translate(28.2 5.503)" fill="#cc4425"/>
      <path id="Path_1348" data-name="Path 1348" d="M166.512,868.518l-.4,25.6,33.5.449c2.717-.223,4.19-1.692,4.3-4.52l1.955-18.571c.024-1.994-.783-2.8-2.28-2.607Z" transform="translate(31.071 9.225)" fill="#69e3f6"/>
      <path id="Path_1349" data-name="Path 1349" d="M225.4,941.937l-32.8-.5v-.271l-.165-76.677.272,0c10.3-.152,21.914.36,29.21,8.729l12.864,13.84c.387.441,1.093,1.208,1.991,2.175,5.553,6,11.469,12.55,11.362,14.41l.011,9.978-.218.045c-.225.045-22.522,5-22.522,27.991ZM193.141,940.9l31.705.479c.169-21.972,20.393-27.619,22.738-28.2l-.011-9.551c.1-1.793-7.829-10.357-11.215-14.017-.9-.973-1.613-1.741-2-2.18L221.5,873.589c-7.087-8.128-17.957-8.7-28.52-8.552Z" transform="translate(54.172 5.671)" fill="#cc4425"/>
      <path id="Path_1350" data-name="Path 1350" d="M247.347,901.177,242.258,901l-9.123-8.471q-1.71-1.958,0-3.095c1.142-.76,5.4-.139,7.57.064a12.028,12.028,0,0,1,4.5,4.331A15.445,15.445,0,0,1,247.347,901.177Z" transform="translate(89.161 27.266)" fill="#ffc400"/>
      <path id="Path_1351" data-name="Path 1351" d="M198.125,885.537a1.955,1.955,0,1,1-1.953,1.955A1.956,1.956,0,0,1,198.125,885.537Z" transform="translate(57.461 24.166)" fill="#263238"/>
      <path id="Path_1352" data-name="Path 1352" d="M187.373,885.321a1.954,1.954,0,1,1-1.957,1.953A1.954,1.954,0,0,1,187.373,885.321Z" transform="translate(48.018 23.977)" fill="#263238"/>
      <path id="Path_1353" data-name="Path 1353" d="M195.446,886.176h7.7a.63.63,0,0,1,.629.631h0a.63.63,0,0,1-.629.627h-7.7a.631.631,0,0,1-.629-.627h0A.631.631,0,0,1,195.446,886.176Z" transform="translate(56.271 24.728)" fill="#ffc400"/>
      <path id="Path_1354" data-name="Path 1354" d="M184.563,886.029h7.7a.63.63,0,0,1,.629.629h0a.629.629,0,0,1-.629.629h-7.7a.629.629,0,0,1-.629-.629h0A.63.63,0,0,1,184.563,886.029Z" transform="translate(46.717 24.598)" fill="#ffc400"/>
      <path id="Path_1355" data-name="Path 1355" d="M180.069,869.183l-.815,24.763-39.424-.325,1.63-21.993q.327-2.527,3.583-3.1l35.026.652Z" transform="translate(7.995 9.236)" fill="#69e3f6"/>
      <path id="Path_1356" data-name="Path 1356" d="M159.06,898.376a.3.3,0,0,1-.069-.007l-6.665-1.745-20.207-.413a.273.273,0,0,1-.269-.28.258.258,0,0,1,.28-.272l20.272.422,6.729,1.752a.278.278,0,0,1,.2.338A.272.272,0,0,1,159.06,898.376Z" transform="translate(0.989 33.051)" fill="#cc4425"/>
      <path id="Path_1357" data-name="Path 1357" d="M267.807,898.888a.376.376,0,0,1-.077-.009l-5.286-1.555-99.787-.976-7.065,1.808a.276.276,0,0,1-.137-.535l7.1-1.814a.571.571,0,0,0,.071-.009l99.86.977a.271.271,0,0,1,.077.011l5.322,1.564a.275.275,0,0,1-.079.539Z" transform="translate(21.531 33.174)" fill="#cc4425"/>
      <path id="Path_1358" data-name="Path 1358" d="M259.213,902.162h0l-99.682-.811a.275.275,0,0,1,0-.55h0l99.681.809a.276.276,0,0,1,0,.552Z" transform="translate(25.051 37.567)" fill="#cc4425"/>
      <path id="Path_1359" data-name="Path 1359" d="M228.3,899.4l-.124-.535,5.9-1.365,12.746.235.075-2.295.55.017-.083,2.565a.273.273,0,0,1-.274.267h-.006l-12.952-.244Z" transform="translate(85.558 32.861)" fill="#cc4425"/>
      <path id="Path_1360" data-name="Path 1360" d="M135.363,887.185c47.719-.137,94.906,2.2,141.321,8.146l-141.321-3.136v-5.01Z" transform="translate(4.074 25.608)" fill="#ffc400"/>
      <path id="Path_1361" data-name="Path 1361" d="M133.888,866.537a.275.275,0,0,1-.12-.522,19.071,19.071,0,0,1,8.759-1.82l47.4.162a.276.276,0,0,1,0,.552h0l-47.407-.163a18.342,18.342,0,0,0-8.511,1.765A.309.309,0,0,1,133.888,866.537Z" transform="translate(2.537 5.427)" fill="#cc4425"/>
      <path id="Path_1362" data-name="Path 1362" d="M198.225,868.1l10.59.815c3.722.034,7.245.387,10.424,3.583l23.621,26.229c1.29,1.544.1,2.224-1.138,2.116l-36-6.516q-6.842-.569-8.8-7.656l-2.77-16.126c-.5-2.143,1.074-2.755,4.073-2.445Z" transform="translate(55.606 8.788)" fill="#69e3f6"/>
    </g>
    <path id="Path_1363" data-name="Path 1363" d="M330.316,203.416H97.836c-4.2,0-7.606-2.408-7.606-5.378v-.211H337.922v.211C337.922,201.008,334.517,203.416,330.316,203.416Z" transform="translate(841.141 302.443)" fill="#177d7f"/>
  </g>
</svg>
