<svg xmlns="http://www.w3.org/2000/svg" width="385.5" height="204.7" viewBox="0 0 385.5 204.7">
  <g id="Group_3437" data-name="Group 3437" transform="translate(-227.94 -191.786)">
    <path id="Path_1797" data-name="Path 1797" d="M600.516,773.91l-1.118,2.135-2.816-.727-.914,2.432.651,1.321.929-2.473,2.708.7,1.179-2.253,2.111.191.094-1.07Z" transform="translate(-321.16 -508.405)" fill="#f7a491"/>
    <path id="Path_1798" data-name="Path 1798" d="M574.774,635.36l-.9-4.033-3.047.282-1.031-3.948-2.987-.177-1.154-2.865-1.122.523,1.544,3.831,2.831.168,1.073,4.107,3-.277.82,3.655Z" transform="translate(-293.963 -378.02)" fill="#f7cc7f"/>
    <g id="Group_3356" data-name="Group 3356" transform="translate(509.191 293.514)">
      <path id="Path_1799" data-name="Path 1799" d="M2493.63,1028.952a2.742,2.742,0,0,1,1.018-2.12,2.124,2.124,0,0,1,3.036.308c.867,1.043.978,3.037-.5,6.083-3.266.9-5.206.427-6.073-.616a2.124,2.124,0,0,1,.252-3.041A2.744,2.744,0,0,1,2493.63,1028.952Z" transform="translate(-2485.299 -1022.373)" fill="#f48c7f"/>
      <g id="Group_3348" data-name="Group 3348" transform="translate(0 10.69)">
        <path id="Path_1800" data-name="Path 1800" d="M2449.482,1082.49a28.255,28.255,0,0,0,2.694-1.787c.26-.2.77-.457.783-.816a.343.343,0,0,0-.278-.378c-.354-.073-.682.307-.945.5-.8.6-1.735,1.239-2.717,1.831a.4.4,0,0,0-.093.555.406.406,0,0,0,.555.092Z" transform="translate(-2448.855 -1079.5)" fill="#f48c7f"/>
      </g>
      <g id="Group_3349" data-name="Group 3349" transform="translate(14.909 3.415)">
        <path id="Path_1801" data-name="Path 1801" d="M2567.209,1024.375c.388-.28.77-.567,1.154-.853a4.385,4.385,0,0,0,1.1-.917.345.345,0,0,0-.385-.537,4.336,4.336,0,0,0-1.189.793c-.382.287-.766.573-1.144.867a.4.4,0,0,0,.463.647Z" transform="translate(-2566.589 -1022.049)" fill="#f48c7f"/>
      </g>
      <g id="Group_3350" data-name="Group 3350" transform="translate(7.086 13.125)">
        <path id="Path_1802" data-name="Path 1802" d="M2505.632,1101.67a4.978,4.978,0,0,1,.5-2.5.322.322,0,0,0-.539-.335,3.7,3.7,0,0,0-.747,2.915.4.4,0,0,0,.788-.085Z" transform="translate(-2504.812 -1098.731)" fill="#f48c7f"/>
      </g>
      <g id="Group_3351" data-name="Group 3351" transform="translate(12.252 12.426)">
        <path id="Path_1803" data-name="Path 1803" d="M2547.189,1095.582a3.525,3.525,0,0,1-.667-1.3c-.079-.293-.091-1.264-.629-1.047-.508.2-.218,1.072-.1,1.442a4.153,4.153,0,0,0,.746,1.366c.325.4.973-.063.65-.465Z" transform="translate(-2545.604 -1093.207)" fill="#f48c7f"/>
      </g>
      <g id="Group_3352" data-name="Group 3352" transform="translate(14.85 9.119)">
        <path id="Path_1804" data-name="Path 1804" d="M2566.568,1067.938l.986-.011c.328,0,.7.07.938-.2a.352.352,0,0,0-.046-.484c-.226-.235-.68-.135-.979-.13l-.985.017a.408.408,0,0,0-.359.446.414.414,0,0,0,.445.359Z" transform="translate(-2566.121 -1067.092)" fill="#f48c7f"/>
      </g>
      <g id="Group_3353" data-name="Group 3353" transform="translate(0.993 4.766)">
        <path id="Path_1805" data-name="Path 1805" d="M2459.644,1034.141c-2.272-1.356-2.264-1.378-2.548-1.417a.352.352,0,0,0-.336.547c.178.242.153.2,2.549,1.618a.412.412,0,0,0,.541-.206.419.419,0,0,0-.206-.541Z" transform="translate(-2456.695 -1032.721)" fill="#f48c7f"/>
      </g>
      <g id="Group_3354" data-name="Group 3354" transform="translate(5.787 1.414)">
        <path id="Path_1806" data-name="Path 1806" d="M2496.2,1008.4a6.066,6.066,0,0,0-.473-1.212c-.187-.36-.425-.936-.889-.938a.3.3,0,0,0-.251.183c-.135.388.246.783.417,1.115a7.176,7.176,0,0,1,.456,1.134.4.4,0,0,0,.511.229.405.405,0,0,0,.229-.511Z" transform="translate(-2494.554 -1006.252)" fill="#f48c7f"/>
      </g>
      <g id="Group_3355" data-name="Group 3355" transform="translate(11.191 0)">
        <path id="Path_1807" data-name="Path 1807" d="M2538.651,995.3a.352.352,0,0,0-.445-.2c-.342.092-.5.606-.624.9a6.944,6.944,0,0,0-.344,1.065.4.4,0,0,0,.334.456.409.409,0,0,0,.455-.334C2538.41,995.827,2538.783,995.773,2538.651,995.3Z" transform="translate(-2537.229 -995.084)" fill="#f48c7f"/>
      </g>
    </g>
    <path id="Path_1808" data-name="Path 1808" d="M766.322,364.415c-.268,2.113,1.932,3.79,3.889,3.657a4.815,4.815,0,0,0,4.315-4.046,3.54,3.54,0,0,0-3.179-4.31,2.669,2.669,0,0,0-2.813,3.559c.431,1.341,1.655,1.841,2.272,1.471a.613.613,0,0,0-.13-1.144.6.6,0,0,0-.6.257,1.757,1.757,0,0,1-.665-2.13c.42-1.279,2.037-1.352,3.041-.755a3.02,3.02,0,0,1,1.01,3.7,3.933,3.933,0,0,1-3.3,2.549,3.064,3.064,0,0,1-3.247-2.8A.3.3,0,0,0,766.322,364.415Z" transform="translate(-470.183 -146.656)" fill="#f79c8d"/>
    <path id="Path_1809" data-name="Path 1809" d="M2284.765,892.962c-.268,2.113,1.932,3.79,3.889,3.657a4.815,4.815,0,0,0,4.315-4.046,3.54,3.54,0,0,0-3.179-4.31,2.669,2.669,0,0,0-2.813,3.559c.431,1.341,1.655,1.841,2.272,1.471a.613.613,0,0,0-.13-1.144.6.6,0,0,0-.6.258,1.757,1.757,0,0,1-.665-2.13c.42-1.279,2.037-1.352,3.041-.755a3.019,3.019,0,0,1,1.01,3.7,3.932,3.932,0,0,1-3.3,2.549,3.065,3.065,0,0,1-3.247-2.8A.3.3,0,0,0,2284.765,892.962Z" transform="translate(-1796.334 -608.269)" fill="#9bc1f9"/>
    <path id="Path_1810" data-name="Path 1810" d="M2126.088,460.829l-.016-2.015-1.669-1.129a.277.277,0,0,1,.067-.492l1.911-.638.558-1.936a.277.277,0,0,1,.489-.088l1.2,1.62,2.014-.068a.277.277,0,0,1,.234.438l-1.171,1.639.687,1.894a.277.277,0,0,1-.344.358l-1.921-.607-1.589,1.238A.277.277,0,0,1,2126.088,460.829Z" transform="translate(-1656.194 -229.374)" fill="#f47458"/>
    <g id="Group_3365" data-name="Group 3365" transform="translate(432.924 202.352)">
      <path id="Path_1811" data-name="Path 1811" d="M1880.488,311.911a2.564,2.564,0,1,1,2.736,2.381A2.564,2.564,0,0,1,1880.488,311.911Z" transform="translate(-1876.192 -304.87)" fill="#f7cc7f"/>
      <g id="Group_3357" data-name="Group 3357" transform="translate(7.012 11.649)">
        <path id="Path_1812" data-name="Path 1812" d="M1903.608,369.845a17.181,17.181,0,0,0-.5-2.257.586.586,0,0,0-1.132.234,18.381,18.381,0,0,0,.483,2.427.613.613,0,0,0,.776.372.625.625,0,0,0,.372-.776Z" transform="translate(-1901.975 -367.212)" fill="#f7cc7f"/>
      </g>
      <g id="Group_3358" data-name="Group 3358" transform="translate(9.717 9.252)">
        <path id="Path_1813" data-name="Path 1813" d="M1926.656,350.133a25.426,25.426,0,0,1-2.375-1.715.586.586,0,0,0-.769.884,11.153,11.153,0,0,0,2.591,1.948.629.629,0,0,0,.835-.282.636.636,0,0,0-.282-.836Z" transform="translate(-1923.334 -348.279)" fill="#f7cc7f"/>
      </g>
      <g id="Group_3359" data-name="Group 3359" transform="translate(11.25 6.073)">
        <path id="Path_1814" data-name="Path 1814" d="M1935.623,323.617a.441.441,0,0,0-.112.592c.287.521,1.017.5,1.535.478a5.539,5.539,0,0,0,1.593-.3.621.621,0,0,0-.412-1.172C1936.744,323.718,1936.182,323.169,1935.623,323.617Z" transform="translate(-1935.444 -323.175)" fill="#f7cc7f"/>
      </g>
      <g id="Group_3360" data-name="Group 3360" transform="translate(9.342 1.319)">
        <path id="Path_1815" data-name="Path 1815" d="M1921.648,285.849c-.746,1.092-1.356,1.461-1.261,2.062a.517.517,0,0,0,.672.442c.4-.091.619-.516.86-.814s.456-.573.662-.877a.639.639,0,0,0-.061-.873.623.623,0,0,0-.872.061Z" transform="translate(-1920.377 -285.64)" fill="#f7cc7f"/>
      </g>
      <g id="Group_3361" data-name="Group 3361" transform="translate(6.22 0)">
        <path id="Path_1816" data-name="Path 1816" d="M1897.209,276.562a2.729,2.729,0,0,0-.6-1.21.537.537,0,0,0-.875.3,2.6,2.6,0,0,0,.3,1.325.621.621,0,0,0,1.172-.412Z" transform="translate(-1895.724 -275.223)" fill="#f7cc7f"/>
      </g>
      <g id="Group_3362" data-name="Group 3362" transform="translate(2.369 1.933)">
        <path id="Path_1817" data-name="Path 1817" d="M1867.507,291.492c-1.076-.817-1.295-1.048-1.717-1a.512.512,0,0,0-.472.542c.1.517.4.657,1.39,1.379a.625.625,0,0,0,.858-.06.614.614,0,0,0-.06-.858Z" transform="translate(-1865.311 -290.483)" fill="#f7cc7f"/>
      </g>
      <g id="Group_3363" data-name="Group 3363" transform="translate(0 6.056)">
        <path id="Path_1818" data-name="Path 1818" d="M1846.849,323.678a.569.569,0,0,0,.205,1.018,10.231,10.231,0,0,0,2.746-.4.639.639,0,0,0,.576-.662.625.625,0,0,0-.662-.577C1847.5,323.454,1847.275,323.453,1846.849,323.678Z" transform="translate(-1846.606 -323.047)" fill="#f7cc7f"/>
      </g>
      <g id="Group_3364" data-name="Group 3364" transform="translate(1.721 9.97)">
        <path id="Path_1819" data-name="Path 1819" d="M1862.064,354.165c-1.171,1.133-1.342.933-1.8,1.626a.526.526,0,0,0,.505.754,2.214,2.214,0,0,0,1.215-.654c.358-.284.7-.587,1.029-.9a.631.631,0,0,0-.061-.883.639.639,0,0,0-.883.061Z" transform="translate(-1860.196 -353.954)" fill="#f7cc7f"/>
      </g>
    </g>
    <g id="Group_3367" data-name="Group 3367" transform="translate(479.179 250.799)">
      <g id="Group_3366" data-name="Group 3366" transform="translate(0 0)">
        <path id="Path_1820" data-name="Path 1820" d="M2212.682,662.793l2.182.115s2.89-1.856,3.025-2.575-.207-2.284.233-2.446a1.431,1.431,0,0,1,1.854.749c.364.726-.159,3.243.085,3.432a11.533,11.533,0,0,0,2.32.278,1.62,1.62,0,0,1,1.377.961v0a.863.863,0,0,1-.283,1.05l-.515.372.347.535a.863.863,0,0,1-.251,1.191l-.4.266.241.318a.863.863,0,0,1-.243,1.262l-.358.215.045.1a.864.864,0,0,1-.361,1.109l-.359.2-5.81-.307a4,4,0,0,1-1.566-.41l-2.025-.446a.45.45,0,0,1-.352-.47l.345-5.08A.45.45,0,0,1,2212.682,662.793Z" transform="translate(-2211.863 -657.786)" fill="#fae0b2"/>
      </g>
    </g>
    <g id="Group_3369" data-name="Group 3369" transform="translate(277.457 225.834)">
      <path id="Path_1821" data-name="Path 1821" d="M633.632,460.836c8.74-1.069,16.357,2.417,17.014,7.786.328,2.684-1.146,5.331-3.794,7.441l4.515,7.482-8.217-5.24a24.275,24.275,0,0,1-7.14,1.974c-8.74,1.069-16.357-2.417-17.013-7.786S624.892,461.905,633.632,460.836Z" transform="translate(-618.951 -460.644)" fill="#fae0b2"/>
      <g id="Group_3368" data-name="Group 3368" transform="translate(10.923 3.798)">
        <path id="Path_1822" data-name="Path 1822" d="M716.258,496.979a5.556,5.556,0,1,1-4.714-6.287A5.555,5.555,0,0,1,716.258,496.979Z" transform="translate(-705.202 -490.635)" fill="#f7cc7f"/>
        <path id="Path_1823" data-name="Path 1823" d="M724.667,538.08a2.97,2.97,0,1,0,5.881.841Z" transform="translate(-722.175 -532.072)" fill="#efefef"/>
      </g>
    </g>
    <path id="Path_1824" data-name="Path 1824" d="M865.086,1199.825s44.63-71.843,61.635-75.049,31.573,26.174,31.573,26.174a23.321,23.321,0,0,1,19.536-4.092c11.837,2.622,75.329,62.206,75.329,62.206l-191.332-2.386Z" transform="translate(-553.614 -814.625)" fill="#9bc1f9"/>
    <path id="Path_1825" data-name="Path 1825" d="M500.082,1254.608c39.623,6.593,99.077,65.842,144.361,65.842s55.034-14.171,72.016-11.175,39.779,11.175,39.779,11.175l-336.507.994S460.458,1248.015,500.082,1254.608Z" transform="translate(-167.502 -927.863)" fill="#86b1f2"/>
    <path id="Path_1826" data-name="Path 1826" d="M1206.473,1059.562l-7.743,62.573h15.485Z" transform="translate(-847.852 -757.883)" fill="#3c8f7c"/>
    <path id="Path_1827" data-name="Path 1827" d="M1320.865,1169.9l-7.743,62.573h15.485Z" transform="translate(-947.757 -854.252)" fill="#3c8f7c"/>
    <g id="Group_3370" data-name="Group 3370" transform="translate(257.685 310.417)">
      <rect id="Rectangle_267" data-name="Rectangle 267" width="2.372" height="26.293" transform="translate(6.557 51.007)" fill="#355389"/>
      <path id="Path_1828" data-name="Path 1828" d="M470.569,1128.559l-7.743,62.573h15.485Z" transform="translate(-462.826 -1128.559)" fill="#3c8f7c"/>
      <path id="Path_1829" data-name="Path 1829" d="M485,1424.343l11.04,9.467-.424-3.431-10.273-8.809Z" transform="translate(-482.193 -1384.464)" fill="#50bfa5"/>
      <path id="Path_1830" data-name="Path 1830" d="M498.4,1318.878l6.761,2.311-.318-2.569-6.151-2.1Z" transform="translate(-493.898 -1292.715)" fill="#50bfa5"/>
    </g>
    <g id="Group_3371" data-name="Group 3371" transform="translate(275.154 297.871)">
      <rect id="Rectangle_268" data-name="Rectangle 268" width="1.706" height="29.898" transform="translate(7.108 53.304)" fill="#355389"/>
      <path id="Path_1831" data-name="Path 1831" d="M609.176,1029.488l-8.408,60.348h16.816Z" transform="translate(-600.768 -1029.488)" fill="#3c8f7c"/>
      <path id="Path_1832" data-name="Path 1832" d="M604.981,1431.707l15.086-4.756-.228-1.637-14.609,4.606Z" transform="translate(-604.447 -1375.188)" fill="#50bfa5"/>
      <path id="Path_1833" data-name="Path 1833" d="M625.956,1292.224l10-3.152-.228-1.636-9.52,3Z" transform="translate(-622.766 -1254.77)" fill="#50bfa5"/>
    </g>
    <path id="Path_1834" data-name="Path 1834" d="M419.73,1508.846s43.443-37.736,99.458-40.054c18.81-.778,95.831,14.828,160.689,27.09,2.726.516,8.622,5.562,11.382,6.081,30.7,5.772,59.319,6.992,68.574,7.364Z" transform="translate(-167.502 -1115.265)" fill="#96d9c9"/>
    <path id="Path_1835" data-name="Path 1835" d="M2996.231,1405.011l.062-3.25a4.242,4.242,0,0,0-4.108-4.364h0c-5.718,0-10.352,4.923-10.352,11v4.44a5.109,5.109,0,0,1-2.548,4.482,4.514,4.514,0,0,0-2.217,3.96v2.341a8.532,8.532,0,0,0,2.98,6.487,5.176,5.176,0,0,1,1.785,3.95v3.315a6.449,6.449,0,0,0,6.246,6.635h1.968a6.449,6.449,0,0,0,6.246-6.635h0c-.566-4.629.806-7.3,2.389-8.827a12.161,12.161,0,0,0,3.69-8.743v-.468a12.075,12.075,0,0,0-4.09-9.07A6.584,6.584,0,0,1,2996.231,1405.011Z" transform="translate(-2400.986 -1052.936)" fill="#50bfa5"/>
    <path id="Path_1836" data-name="Path 1836" d="M2707.965,1570.967s-15.948-21.184-25.983-24.432-.577,9.655-.577,9.655-17.8-19.467-24.336-17.712c-5.989,1.609,0,13.676,0,13.676s-6.745-6.682-14.925-6.682,6.322,25.02,6.322,25.02Z" transform="translate(-2106.29 -1176.052)" fill="#9bc1f9"/>
    <path id="Path_1837" data-name="Path 1837" d="M2340.587,1612.373s-10.9-29.153-24.4-25.781c-10.94,2.732-3.162,17.4-3.829,16.734s-6.535-10.623-16.029-10.623,2.915,13.437,2.915,13.437-20.229-6.318-21.812.316c-1.315,5.506,6.037,5.917,6.037,5.917Z" transform="translate(-1789.809 -1217.934)" fill="#86b1f2"/>
    <g id="Group_3381" data-name="Group 3381" transform="translate(384.317 343.723)">
      <g id="Group_3372" data-name="Group 3372" transform="translate(28.443 6.936)">
        <path id="Path_1838" data-name="Path 1838" d="M1687.39,1446.336a22.281,22.281,0,0,1,2.262,1.71,83.687,83.687,0,0,1,29.608,41.589c.12.381.721.218.6-.165a82.193,82.193,0,0,0-9.12-19.441c-10.459-16.339-23.492-23.778-23.351-23.693Z" transform="translate(-1687.389 -1446.335)" fill="#466eb6"/>
      </g>
      <g id="Group_3373" data-name="Group 3373" transform="translate(48.219 8.782)">
        <path id="Path_1839" data-name="Path 1839" d="M1843.546,1461.031c.875,5.764,3.883,10.948,5.956,16.327,5.546,14.39,6.456,25.349,6.955,26.563a.115.115,0,0,0,.225-.03c.138-1.127-1.084-9.02-3.494-17.228-4.006-13.647-8.2-18.978-9.453-25.684-.023-.126-.208-.07-.189.052Z" transform="translate(-1843.545 -1460.908)" fill="#466eb6"/>
      </g>
      <path id="Path_1840" data-name="Path 1840" d="M1723.183,1432.966a5.194,5.194,0,0,0-.85,2.076,4.005,4.005,0,0,0,.229,1.971,4.321,4.321,0,0,1-1.355-1.755,4.237,4.237,0,0,1-.1-3.272c.606-1.28,1.924-1.579,2.26-1.042A2.3,2.3,0,0,1,1723.183,1432.966Z" transform="translate(-1688.149 -1425.734)" fill="#466eb6"/>
      <path id="Path_1841" data-name="Path 1841" d="M1795.226,1505.446a5.17,5.17,0,0,0-.6,2.154,3.989,3.989,0,0,0,.459,1.923,4.309,4.309,0,0,1-1.548-1.576,4.222,4.222,0,0,1-.483-3.225c.448-1.338,1.716-1.789,2.112-1.3A2.293,2.293,0,0,1,1795.226,1505.446Z" transform="translate(-1751.104 -1489.09)" fill="#466eb6"/>
      <path id="Path_1842" data-name="Path 1842" d="M1885.676,1544.448a3.826,3.826,0,0,0-1.518.651,2.955,2.955,0,0,0-.9,1.154,3.185,3.185,0,0,1,.194-1.622,3.122,3.122,0,0,1,1.638-1.769c.979-.36,1.825.164,1.725.619S1886.177,1544.244,1885.676,1544.448Z" transform="translate(-1829.986 -1523.597)" fill="#466eb6"/>
      <path id="Path_1843" data-name="Path 1843" d="M1894.753,1566.656a3.822,3.822,0,0,0-1.518.652,2.947,2.947,0,0,0-.9,1.154,3.188,3.188,0,0,1,.194-1.622,3.122,3.122,0,0,1,1.638-1.769c.979-.36,1.825.164,1.725.619S1895.254,1566.453,1894.753,1566.656Z" transform="translate(-1837.913 -1542.994)" fill="#466eb6"/>
      <path id="Path_1844" data-name="Path 1844" d="M1694.162,1478.3a4.783,4.783,0,0,1,1.414-1.506,3.688,3.688,0,0,1,1.739-.562,3.978,3.978,0,0,0-1.989-.464,3.9,3.9,0,0,0-2.778,1.17c-.841,1-.586,2.215-.009,2.291C1693.117,1479.32,1693.709,1478.8,1694.162,1478.3Z" transform="translate(-1662.979 -1465.098)" fill="#466eb6"/>
      <path id="Path_1845" data-name="Path 1845" d="M1738.088,1518.856a4.782,4.782,0,0,1,1.414-1.507,3.689,3.689,0,0,1,1.739-.563,3.979,3.979,0,0,0-1.989-.463,3.9,3.9,0,0,0-2.778,1.17c-.841,1-.586,2.215-.009,2.292C1737.043,1519.876,1737.635,1519.358,1738.088,1518.856Z" transform="translate(-1701.342 -1500.518)" fill="#466eb6"/>
      <path id="Path_1846" data-name="Path 1846" d="M1818.77,1485.431a4.787,4.787,0,0,1,2.05.26,3.69,3.69,0,0,1,1.476,1.077,3.979,3.979,0,0,0-.792-1.882,3.9,3.9,0,0,0-2.578-1.562c-1.3-.1-2.138.826-1.86,1.338S1818.1,1485.358,1818.77,1485.431Z" transform="translate(-1772.154 -1471.697)" fill="#466eb6"/>
      <path id="Path_1847" data-name="Path 1847" d="M1831.638,1516.56a4.784,4.784,0,0,1,2.05.26,3.687,3.687,0,0,1,1.476,1.077,3.977,3.977,0,0,0-.792-1.882,3.9,3.9,0,0,0-2.578-1.562c-1.3-.1-2.138.826-1.86,1.338S1830.966,1516.487,1831.638,1516.56Z" transform="translate(-1783.392 -1498.884)" fill="#466eb6"/>
      <path id="Path_1848" data-name="Path 1848" d="M1794.013,1581.356a4.777,4.777,0,0,1,1.414-1.506,3.689,3.689,0,0,1,1.739-.563,3.984,3.984,0,0,0-1.989-.463,3.9,3.9,0,0,0-2.778,1.17c-.841,1-.586,2.215-.009,2.292S1793.561,1581.858,1794.013,1581.356Z" transform="translate(-1750.185 -1555.103)" fill="#466eb6"/>
      <path id="Path_1849" data-name="Path 1849" d="M1673.659,1451.893a3.069,3.069,0,0,1,1.087-.759,2.369,2.369,0,0,1,1.166-.124,2.554,2.554,0,0,0-1.187-.554,2.5,2.5,0,0,0-1.9.368c-.66.515-.661,1.314-.308,1.438S1673.308,1452.148,1673.659,1451.893Z" transform="translate(-1645.752 -1442.956)" fill="#466eb6"/>
      <path id="Path_1850" data-name="Path 1850" d="M1685.426,1428.432a3.068,3.068,0,0,0,.046,1.325,2.366,2.366,0,0,0,.6,1.006,2.557,2.557,0,0,1-1.156-.616,2.5,2.5,0,0,1-.848-1.739c.015-.837.653-1.318.964-1.11S1685.419,1428,1685.426,1428.432Z" transform="translate(-1656.042 -1422.73)" fill="#466eb6"/>
      <g id="Group_3376" data-name="Group 3376" transform="translate(183.886)">
        <g id="Group_3374" data-name="Group 3374" transform="translate(16.279 3.058)">
          <path id="Path_1851" data-name="Path 1851" d="M3047.656,1423.686a117.313,117.313,0,0,1,5.4,40.156h.517a118.062,118.062,0,0,0-5.427-39.836c-.947-2.984-1.9-6.479-4.683-8.291-.054-.035-.1.049-.049.085C3045.922,1417.6,3046.77,1420.895,3047.656,1423.686Z" transform="translate(-3043.395 -1415.707)" fill="#466eb6"/>
        </g>
        <g id="Group_3375" data-name="Group 3375" transform="translate(2.963 14.32)">
          <path id="Path_1852" data-name="Path 1852" d="M2959.414,1541.51a146.61,146.61,0,0,0-20.937-36.832c-.091-.116-.3.041-.206.159a146.434,146.434,0,0,1,20.5,36.674Z" transform="translate(-2938.249 -1504.637)" fill="#466eb6"/>
        </g>
        <path id="Path_1853" data-name="Path 1853" d="M3067.764,1407.54a5.178,5.178,0,0,0-1.578,1.582,4,4,0,0,0-.546,1.9,4.307,4.307,0,0,1-.572-2.133,4.224,4.224,0,0,1,1.166-3.046c1.048-.945,2.375-.713,2.478-.091C3068.83,1406.374,3068.29,1407.032,3067.764,1407.54Z" transform="translate(-3046.042 -1403.48)" fill="#466eb6"/>
        <path id="Path_1854" data-name="Path 1854" d="M3037.061,1481.419a5.174,5.174,0,0,1,2.148-.617,3.99,3.99,0,0,1,1.927.44,4.308,4.308,0,0,0-1.592-1.532,4.221,4.221,0,0,0-3.23-.45c-1.333.461-1.771,1.734-1.277,2.125A2.293,2.293,0,0,0,3037.061,1481.419Z" transform="translate(-3019.645 -1468.016)" fill="#466eb6"/>
        <path id="Path_1855" data-name="Path 1855" d="M3048,1520.686a5.175,5.175,0,0,1,2.148-.617,3.988,3.988,0,0,1,1.927.44,4.3,4.3,0,0,0-1.591-1.532,4.222,4.222,0,0,0-3.23-.451c-1.333.461-1.771,1.734-1.277,2.125A2.293,2.293,0,0,0,3048,1520.686Z" transform="translate(-3029.201 -1502.311)" fill="#466eb6"/>
        <path id="Path_1856" data-name="Path 1856" d="M2955.478,1580.158a5.174,5.174,0,0,1,2.148-.617,3.989,3.989,0,0,1,1.927.439,4.313,4.313,0,0,0-1.592-1.532,4.221,4.221,0,0,0-3.23-.451c-1.333.461-1.771,1.734-1.276,2.125A2.292,2.292,0,0,0,2955.478,1580.158Z" transform="translate(-2948.394 -1554.25)" fill="#466eb6"/>
        <path id="Path_1857" data-name="Path 1857" d="M2927.6,1538.215a5.172,5.172,0,0,1,2.148-.617,3.989,3.989,0,0,1,1.927.44,4.311,4.311,0,0,0-1.592-1.532,4.222,4.222,0,0,0-3.23-.451c-1.333.461-1.771,1.734-1.277,2.125A2.292,2.292,0,0,0,2927.6,1538.215Z" transform="translate(-2924.044 -1517.619)" fill="#466eb6"/>
        <path id="Path_1858" data-name="Path 1858" d="M3083.865,1453.448a5.174,5.174,0,0,0-1.808,1.314,3.991,3.991,0,0,0-.839,1.79,4.3,4.3,0,0,1-.229-2.2,4.222,4.222,0,0,1,1.631-2.824c1.184-.768,2.457-.33,2.46.3C3085.1,1452.465,3084.464,1453.03,3083.865,1453.448Z" transform="translate(-3059.896 -1443.58)" fill="#466eb6"/>
        <path id="Path_1859" data-name="Path 1859" d="M3097.693,1495.445a4.511,4.511,0,0,0-2.307.763,3.448,3.448,0,0,0-1.186,1.777,5.714,5.714,0,0,1-.061-2.752,3.511,3.511,0,0,1,2.242-2.663c1.5-.388,2.994.717,2.937,1.479C3099.279,1494.821,3098.456,1495.213,3097.693,1495.445Z" transform="translate(-3071.299 -1479.709)" fill="#466eb6"/>
        <path id="Path_1860" data-name="Path 1860" d="M3111.81,1561.233a4.513,4.513,0,0,0-2.4.364,3.445,3.445,0,0,0-1.468,1.552,5.715,5.715,0,0,1,.4-2.723,3.511,3.511,0,0,1,2.658-2.248c1.545-.13,2.831,1.211,2.646,1.951C3113.479,1560.885,3112.6,1561.133,3111.81,1561.233Z" transform="translate(-3083.468 -1537.071)" fill="#466eb6"/>
        <path id="Path_1861" data-name="Path 1861" d="M3015.55,1581.978a3.678,3.678,0,0,0-1.833.752,2.81,2.81,0,0,0-.864,1.512,4.656,4.656,0,0,1-.207-2.235,2.863,2.863,0,0,1,1.672-2.294c1.2-.4,2.476.413,2.473,1.035C3016.8,1581.38,3016.158,1581.745,3015.55,1581.978Z" transform="translate(-3000.201 -1555.794)" fill="#466eb6"/>
        <path id="Path_1862" data-name="Path 1862" d="M3022.5,1414.023a3.066,3.066,0,0,1,1.244-.459,2.362,2.362,0,0,1,1.159.176,2.549,2.549,0,0,0-1.008-.837,2.5,2.5,0,0,0-1.93-.125c-.769.331-.972,1.1-.662,1.313A1.359,1.359,0,0,0,3022.5,1414.023Z" transform="translate(-3007.698 -1409.969)" fill="#466eb6"/>
        <path id="Path_1863" data-name="Path 1863" d="M3040.022,1392.86a3.064,3.064,0,0,0-.291,1.294,2.363,2.363,0,0,0,.328,1.126,2.555,2.555,0,0,1-.963-.889,2.5,2.5,0,0,1-.38-1.9c.227-.806.965-1.11,1.214-.83A1.361,1.361,0,0,1,3040.022,1392.86Z" transform="translate(-3022.974 -1391.562)" fill="#466eb6"/>
        <path id="Path_1864" data-name="Path 1864" d="M2916.186,1504.844a3.071,3.071,0,0,1,1.244-.459,2.364,2.364,0,0,1,1.159.176,2.555,2.555,0,0,0-1.009-.837,2.5,2.5,0,0,0-1.93-.125c-.768.331-.972,1.1-.662,1.313A1.36,1.36,0,0,0,2916.186,1504.844Z" transform="translate(-2914.849 -1489.288)" fill="#466eb6"/>
        <path id="Path_1865" data-name="Path 1865" d="M2936.018,1483.906a3.061,3.061,0,0,0-.4,1.265,2.372,2.372,0,0,0,.234,1.149,2.56,2.56,0,0,1-.887-.965,2.5,2.5,0,0,1-.223-1.921c.292-.785,1.052-1.027,1.277-.728A1.36,1.36,0,0,1,2936.018,1483.906Z" transform="translate(-2932.135 -1471.056)" fill="#466eb6"/>
      </g>
      <g id="Group_3378" data-name="Group 3378" transform="translate(73.646 41.745)">
        <g id="Group_3377" data-name="Group 3377" transform="translate(2.452 2.903)">
          <path id="Path_1866" data-name="Path 1866" d="M2063.7,1744.138a12.389,12.389,0,0,1,1.533,1.289,11.455,11.455,0,0,1,2.712,4.621c.036.117.047.224.156.292a.059.059,0,0,0,.08-.021c.066-.123.011-.237-.025-.366a10.772,10.772,0,0,0-1.614-3.213,7.634,7.634,0,0,0-2.834-2.613.006.006,0,0,0-.006.011Z" transform="translate(-2063.701 -1744.126)" fill="#466eb6"/>
        </g>
        <path id="Path_1867" data-name="Path 1867" d="M2045.673,1743.663a3.061,3.061,0,0,1,1.244-.459,2.367,2.367,0,0,1,1.159.176,2.551,2.551,0,0,0-1.009-.837,2.5,2.5,0,0,0-1.93-.125c-.769.331-.972,1.1-.662,1.313A1.361,1.361,0,0,0,2045.673,1743.663Z" transform="translate(-2044.336 -1739.609)" fill="#466eb6"/>
        <path id="Path_1868" data-name="Path 1868" d="M2063.2,1722.5a3.071,3.071,0,0,0-.291,1.294,2.368,2.368,0,0,0,.328,1.126,2.551,2.551,0,0,1-.963-.889,2.5,2.5,0,0,1-.38-1.9c.226-.806.965-1.11,1.214-.83A1.359,1.359,0,0,1,2063.2,1722.5Z" transform="translate(-2059.613 -1721.202)" fill="#466eb6"/>
      </g>
      <g id="Group_3380" data-name="Group 3380" transform="translate(0 32.145)">
        <g id="Group_3379" data-name="Group 3379" transform="translate(2.091 3.245)">
          <path id="Path_1869" data-name="Path 1869" d="M1479.318,1671.083c7.713,2.359,14.389,7.229,20.808,11.961,4.328,3.191,3.965,3.8,4.87,4.321a.2.2,0,0,0,.289-.222,5.431,5.431,0,0,0-1.716-2.05,26.849,26.849,0,0,0-2.206-1.807c-1.632-1.214-3.327-2.35-5.008-3.494a80.808,80.808,0,0,0-10.661-6.349,40.959,40.959,0,0,0-6.357-2.423.033.033,0,0,0-.017.063Z" transform="translate(-1479.295 -1671.018)" fill="#466eb6"/>
        </g>
        <path id="Path_1870" data-name="Path 1870" d="M1523.229,1647.611a5.171,5.171,0,0,0-.6,2.154,3.993,3.993,0,0,0,.459,1.923,4.312,4.312,0,0,1-1.548-1.576,4.223,4.223,0,0,1-.483-3.225c.448-1.338,1.716-1.789,2.112-1.3A2.293,2.293,0,0,1,1523.229,1647.611Z" transform="translate(-1513.551 -1645.396)" fill="#466eb6"/>
        <path id="Path_1871" data-name="Path 1871" d="M1574.3,1677.636a5.173,5.173,0,0,0-.6,2.154,3.988,3.988,0,0,0,.459,1.922,4.306,4.306,0,0,1-1.548-1.576,4.222,4.222,0,0,1-.483-3.225c.448-1.338,1.716-1.789,2.112-1.3A2.293,2.293,0,0,1,1574.3,1677.636Z" transform="translate(-1558.156 -1671.618)" fill="#466eb6"/>
        <path id="Path_1872" data-name="Path 1872" d="M1625.268,1713.026a5.172,5.172,0,0,0-.6,2.154,3.986,3.986,0,0,0,.459,1.923,4.307,4.307,0,0,1-1.548-1.576,4.224,4.224,0,0,1-.483-3.225c.448-1.338,1.717-1.789,2.112-1.3A2.292,2.292,0,0,1,1625.268,1713.026Z" transform="translate(-1602.669 -1702.527)" fill="#466eb6"/>
        <path id="Path_1873" data-name="Path 1873" d="M1498.259,1693.466a4.785,4.785,0,0,1,1.414-1.506,3.691,3.691,0,0,1,1.739-.563,3.983,3.983,0,0,0-1.989-.464,3.9,3.9,0,0,0-2.778,1.17c-.841,1-.586,2.216-.009,2.291C1497.215,1694.486,1497.806,1693.968,1498.259,1693.466Z" transform="translate(-1491.885 -1685.161)" fill="#466eb6"/>
        <path id="Path_1874" data-name="Path 1874" d="M1551.427,1724.462a4.784,4.784,0,0,1,1.414-1.507,3.685,3.685,0,0,1,1.739-.562,3.982,3.982,0,0,0-1.989-.464,3.9,3.9,0,0,0-2.778,1.17c-.841,1-.586,2.215-.009,2.291C1550.383,1725.482,1550.974,1724.964,1551.427,1724.462Z" transform="translate(-1538.32 -1712.232)" fill="#466eb6"/>
        <path id="Path_1875" data-name="Path 1875" d="M1464.161,1671.73a3.062,3.062,0,0,1,1.087-.759,2.363,2.363,0,0,1,1.166-.124,2.555,2.555,0,0,0-1.187-.554,2.505,2.505,0,0,0-1.9.368c-.66.515-.661,1.314-.308,1.438S1463.81,1671.985,1464.161,1671.73Z" transform="translate(-1462.784 -1667.098)" fill="#466eb6"/>
        <path id="Path_1876" data-name="Path 1876" d="M1475.927,1648.269a3.071,3.071,0,0,0,.047,1.325,2.371,2.371,0,0,0,.6,1.006,2.558,2.558,0,0,1-1.156-.616,2.5,2.5,0,0,1-.848-1.739c.015-.836.653-1.318.964-1.11S1475.921,1647.835,1475.927,1648.269Z" transform="translate(-1473.074 -1646.872)" fill="#466eb6"/>
      </g>
    </g>
    <path id="Path_1877" data-name="Path 1877" d="M611.987,1788.182H229.392a1.452,1.452,0,0,1-1.452-1.452h0a1.452,1.452,0,0,1,1.452-1.452H611.987a1.452,1.452,0,0,1,1.452,1.452h0A1.452,1.452,0,0,1,611.987,1788.182Z" transform="translate(0 -1391.695)" fill="#3c8f7c"/>
    <g id="Group_3388" data-name="Group 3388" transform="translate(281.952 245.229)">
      <g id="Group_3383" data-name="Group 3383" transform="translate(0 14.57)">
        <path id="Path_1878" data-name="Path 1878" d="M710.32,737.344c-3,.8-3.5,12.363-3.5,12.363l-9.507-1.09s1.733-12.055,6.754-17.093,17.71-1.958,22.534,1.178,2.731,7.132,2.731,7.132S713.32,736.542,710.32,737.344Z" transform="translate(-691.887 -728.855)" fill="#13375b"/>
        <path id="Path_1879" data-name="Path 1879" d="M663.327,871.737c-.5,10.98-3.575,11.953-3.636,12.105a4.06,4.06,0,0,1-5.242-.6l.9-.917a3.715,3.715,0,0,0,1.548.914,2.769,2.769,0,0,0,2.182-.331,3.645,3.645,0,0,0,1.035-.977c1.579-2.111,2.332-7.6,2.546-10.219Z" transform="translate(-654.449 -853.623)" fill="#355389"/>
        <path id="Path_1880" data-name="Path 1880" d="M810.739,744.128a54.013,54.013,0,0,0-1.486,9.484c-.152,4.252-3.083,7.8-3.464,18.441a196.212,196.212,0,0,1-1.9,20.425s-11.809.822-14.134-1.684-1.318-25.288.981-36.363-7.808-14.1-2.557-17.724,12.081-1.17,14.973-.185S810.823,741.782,810.739,744.128Z" transform="translate(-769.903 -734.04)" fill="#184655"/>
        <path id="Path_1881" data-name="Path 1881" d="M725.62,787.456a68.828,68.828,0,0,0-.346,17.1c1.048,8.607-.62,25.586-.62,25.586s-8.8,6.142-11.382,1.265c-.485-.916-1.646-11.792-1.751-16.34-.111-4.83.554-21.7.778-27.167a6.725,6.725,0,0,1,.985-3.238c1.922-3.139,6.335-10.088,7.869-10.328C723.154,774.025,726.671,778.354,725.62,787.456Z" transform="translate(-704.282 -768.564)" fill="#f7cc7f"/>
        <path id="Path_1882" data-name="Path 1882" d="M715.919,915.8c1.237,1.206,9.1,8.769,13.047,9.315q-.069-.722-.121-1.436c-3.086-.495-10.04-6.9-12.859-9.635C715.965,914.606,715.942,915.194,715.919,915.8Z" transform="translate(-708.135 -890.594)" fill="#13375b"/>
        <path id="Path_1883" data-name="Path 1883" d="M725.6,1078.677q.013-.708.018-1.411c-2.385,1.022-10.776.369-14.1,0,0,.492-.006.945,0,1.353C714.559,1078.959,722.755,1079.856,725.6,1078.677Z" transform="translate(-704.283 -1033.144)" fill="#13375b"/>
        <path id="Path_1884" data-name="Path 1884" d="M717.8,1149.32c.049.445.1.88.148,1.3,3.315.665,9.7-2.167,12.768-3.5.032-.5.063-1.021.094-1.552C727.962,1146.81,720.718,1149.868,717.8,1149.32Z" transform="translate(-709.78 -1092.8)" fill="#13375b"/>
        <path id="Path_1885" data-name="Path 1885" d="M715.258,1149.932c1.474.618,10.644,4.552,12.738,4.686.032-.388.068-.82.1-1.289-1.476-.137-8.457-3.056-12.99-4.946C715.157,1148.9,715.207,1149.418,715.258,1149.932Z" transform="translate(-707.428 -1095.256)" fill="#13375b"/>
        <g id="Group_3382" data-name="Group 3382" transform="translate(14.876 37.412)">
          <path id="Rectangle_269" data-name="Rectangle 269" d="M3.394,0h0A3.394,3.394,0,0,1,6.788,3.394V17.711A3.394,3.394,0,0,1,3.394,21.1h0A3.394,3.394,0,0,1,0,17.711V3.394A3.394,3.394,0,0,1,3.394,0Z" transform="translate(6.788 21.105) rotate(180)" fill="#50bfa5"/>
          <rect id="Rectangle_270" data-name="Rectangle 270" width="6.788" height="1.421" transform="translate(0 6.283)" fill="#13375b"/>
        </g>
      </g>
      <g id="Group_3387" data-name="Group 3387" transform="translate(8.983 0)">
        <g id="Group_3386" data-name="Group 3386">
          <g id="Group_3385" data-name="Group 3385">
            <path id="Path_1886" data-name="Path 1886" d="M746.391,1660.1s-3.143,2.886-3.151,2.891c-.441.326-1.622,1.04-1.965,1.392-1.288,1.325,6.968,4.627,6.222,2.751a3.618,3.618,0,0,1,.205-2.153c.615-.754,1.722-1.828,1.722-1.828Z" transform="translate(-739.144 -1527.6)" fill="#f7a491"/>
            <path id="Path_1887" data-name="Path 1887" d="M733.737,1686.709a29.608,29.608,0,0,1-2.578-1.535c-.8-.59-.906-2.355-1.63-2.614-.8-.285-4.143,3.138-4.143,3.138s6.542,7.109,9.965,9.479a3.067,3.067,0,0,0,1.947.353C738.506,1695.551,735.638,1690.413,733.737,1686.709Z" transform="translate(-725.385 -1547.201)" fill="#184655"/>
            <path id="Path_1888" data-name="Path 1888" d="M1095.238,1696.088s.976,4.726.977,4.736c.061.617.069,2.179.212,2.716.537,2.019,8.495-4.111,6.251-4.469a2.9,2.9,0,0,1-1.56-1.061,18.824,18.824,0,0,1-1.177-3.113Z" transform="translate(-1048.401 -1557.991)" fill="#f7a491"/>
            <path id="Path_1889" data-name="Path 1889" d="M1106.823,1727.75a33.382,33.382,0,0,1-2.972,1.623c-1.035.443-2.929-.786-3.6-.231-.735.611.462,6.024.462,6.024s13.613-3.609,16.509-5.482C1118.372,1728.942,1111.5,1728.037,1106.823,1727.75Z" transform="translate(-1052.573 -1586.682)" fill="#184655"/>
            <path id="Path_1890" data-name="Path 1890" d="M1020.321,937.718a5.185,5.185,0,0,0-2.538-.69,44.447,44.447,0,0,1-2.724-4.24s-7.154-11.995-7.516-12.657l-1.425-14.454-7.577-1.094s1.981,15.669,2.232,16.466,11.9,15.843,12.876,17.2c0,0,.541,2.063.925,3.346a10.823,10.823,0,0,0,1.5,2.656,11.416,11.416,0,0,0,1.789,2.312c.986.994.533-.406.533-.406s-1.477-2.174-1.277-2.264c.154-.07.887,1.166,1.966,2.277.278.286.552.567.807.823.668.672,1.3.449.716-.367a9.086,9.086,0,0,0-.86-1.057,7.484,7.484,0,0,1-.744-1.039,9.81,9.81,0,0,1-.76-1.076c.048-.007.049-.2.354.1a23.017,23.017,0,0,0,1.548,1.756c.329.271.981.879.981.879a8.25,8.25,0,0,0,1.237.679c.375-.291-.269-1.017-.768-1.326a6.13,6.13,0,0,0-.913-.98s-1.126-1.576-.894-1.743a20.865,20.865,0,0,1,1.85,1.549c.872.685,1.873,1.234,2.045,1.081.29-.259-.592-1.124-.592-1.124s-.652-.572-.853-.779c-.236-.242-.883-1.023-.883-1.023s-2.119-2.823-1.887-2.964a1.8,1.8,0,0,1,1.164-.144c.2.128.419.551.615.68a.615.615,0,0,0,.757-.1c.188-.228-.5-1.209-.5-1.209A3.677,3.677,0,0,0,1020.321,937.718Z" transform="translate(-963.949 -867.759)" fill="#f8a492"/>
            <path id="Path_1891" data-name="Path 1891" d="M997.013,806.982c5.865,1.4,7.343,14.488,7.7,16.178-1.944.683-4.251,1.372-6.247,1.954l-2.388-18.4A9.538,9.538,0,0,0,997.013,806.982Z" transform="translate(-961.797 -782.288)" fill="#3c8f7c"/>
            <path id="Path_1892" data-name="Path 1892" d="M986.059,1192.321l8.435,33.72,5.333,32.655-6.641.9s-9.354-24.972-9.615-27.846-4.956-16.31-4.956-16.31Z" transform="translate(-946.548 -1119.059)" fill="#355389"/>
            <path id="Path_1893" data-name="Path 1893" d="M781.626,1161.5s.632,32.331.111,35.336-14.653,28.639-14.653,28.639l4.758,5.172s20.221-23.446,21.112-25.514c1.4-3.243,8.294-39.8,8.294-39.8Z" transform="translate(-761.802 -1092.137)" fill="#13375b"/>
            <path id="Path_1894" data-name="Path 1894" d="M878.808,806.9a5.1,5.1,0,0,0-5.015,3.068c-1.432,3.4-2.864,19.726-2.213,27.565s-2.1,18.686-2.1,18.686c12.489,6.464,21.365-.528,21.365-.528s3.3-29.994,2.083-35.534c-2.538-11.578-7.418-13.444-7.418-13.444Z" transform="translate(-851.236 -782.288)" fill="#96d9c9"/>
            <path id="Path_1895" data-name="Path 1895" d="M812.031,931.432c-1.353-2.205-1.657-1.892-1.823-2.18a52.584,52.584,0,0,1,.022-5.59s.542-15.477.6-16.312l6.928-14.289-5.989-5.609s-7.13,15.755-7.362,16.647,1.418,21.926,1.5,23.783c0,0-.695,2.244-1.085,3.669a12.8,12.8,0,0,0-.189,3.379,13.508,13.508,0,0,0,.253,3.232c.3,1.521.694-.054.694-.054s-.059-2.914.166-2.876c.173.029.114,1.621.427,3.307.08.433.161.861.239,1.253.2,1.029.877,1.2.832.092a10.708,10.708,0,0,0-.152-1.5,8.864,8.864,0,0,1-.061-1.416,11.663,11.663,0,0,1-.054-1.46c.046.023.154-.152.253.306.119.55.121,1.774.357,2.569.134.451.359,1.411.359,1.411a9.414,9.414,0,0,0,.694,1.381c.492-.043.34-1.108.08-1.7a7.215,7.215,0,0,0-.242-1.464s-.09-2.147.206-2.161a24.457,24.457,0,0,1,.738,2.56c.373,1.165.936,2.282,1.172,2.244.4-.065.119-1.4.119-1.4s-.245-.927-.3-1.241c-.069-.368-.192-1.485-.192-1.485s-.252-3.907.03-3.9a1.832,1.832,0,0,1,1.1.572c.1.237.054.766.152,1a.63.63,0,0,0,.716.367c.293-.1.25-1.424.25-1.424A4.314,4.314,0,0,0,812.031,931.432Z" transform="translate(-794.381 -852.799)" fill="#f8a492"/>
            <path id="Path_1896" data-name="Path 1896" d="M839.4,825.027l7.851,6.089a28.129,28.129,0,0,0,5.208-6.961c1.762-3.7-.384-13.453-2.26-12.951C846,812.327,839.4,825.027,839.4,825.027Z" transform="translate(-824.963 -786.19)" fill="#3c8f7c"/>
            <path id="Path_1897" data-name="Path 1897" d="M946.849,747.759l-1.175,7.743s4.29,9.219,6.851,8.419c2.149-.671.827-8.828.827-8.828s-1.171-4.38-.82-6.573S946.849,747.759,946.849,747.759Z" transform="translate(-917.777 -730.394)" fill="#f7a491"/>
            <path id="Path_1898" data-name="Path 1898" d="M959.961,748.52c.351-2.192-5.683-.761-5.683-.761l-.1.642a3.568,3.568,0,0,0,.654,1.079,7.945,7.945,0,0,0,5.276,2.388A11.957,11.957,0,0,1,959.961,748.52Z" transform="translate(-925.207 -730.394)" fill="#f47458"/>
            <g id="Group_3384" data-name="Group 3384" transform="translate(23.249)">
              <path id="Path_1899" data-name="Path 1899" d="M943.913,647.747c-.17-.062-1.367,8.818.9,11.262s6.694,3.243,8.281,1.319c1.755-2.129,1.667-11.673-1.863-14.186S943.913,647.747,943.913,647.747Z" transform="translate(-939.08 -641.336)" fill="#f7a491"/>
              <path id="Path_1900" data-name="Path 1900" d="M919.78,613.858a9.8,9.8,0,0,0-5.146,2.935c-1.239.146-2.923.831-4.662,3.71a7.2,7.2,0,0,0,1.93,9.387,5.609,5.609,0,0,1,2.454,4.147l.393-1.15a6.425,6.425,0,0,0,.312-2.708,5.291,5.291,0,0,0-.4-1.628c-.6-1.285,1.286-2.139,1.814-3.208.407-.823.427-2.707,1.068-4.068l.766-1.039a4.868,4.868,0,0,1,3.494-.987C923.529,619.637,923.281,613.144,919.78,613.858Z" transform="translate(-908.969 -613.803)" fill="#184655"/>
              <path id="Path_1901" data-name="Path 1901" d="M951.686,704.007c.018,1.083-.475,1.97-1.1,1.981s-1.147-.859-1.165-1.942.474-1.97,1.1-1.981S951.668,702.923,951.686,704.007Z" transform="translate(-944.297 -690.887)" fill="#f7a491"/>
            </g>
          </g>
        </g>
      </g>
      <path id="Path_1902" data-name="Path 1902" d="M876.6,806.593c.164-6.746-.255-16.018-6.689-18.649-2.3-.964-5.107.12-7.236.912h0a10.62,10.62,0,0,1,6.349,1.355c5.3,2.677,5.255,10.349,5.063,16.323-.483,15.021-11.994,13.43-11.994,13.43l-.268,1s4.324,1.419,9.841-1.3C876.067,817.491,876.6,806.593,876.6,806.593Z" transform="translate(-835.566 -765.56)" fill="#184655"/>
    </g>
    <g id="Group_3393" data-name="Group 3393" transform="translate(502.07 317.818)">
      <path id="Path_1903" data-name="Path 1903" d="M2634.4,1317.376s-3.555,17.473-1.934,19.094,10.592,4.93,12.629,4.173,6.227-20.718,5.063-22.7S2635.344,1314.594,2634.4,1317.376Z" transform="translate(-2601.723 -1299.494)" fill="#466eb6"/>
      <path id="Path_1904" data-name="Path 1904" d="M2662.047,1731.794s.233,2.007.233,2.347v.34l-.167.346-.066.137,1.2,1.684s4.819.072,4.926.072-.645-1.165-.645-1.165-1.594-1.2-1.881-2.042a5.972,5.972,0,0,1,.243-2.6Z" transform="translate(-2627.928 -1662.036)" fill="#f7a491"/>
      <path id="Path_1905" data-name="Path 1905" d="M2425.72,1618.112s-1.716,1.065-1.983,1.277l-.267.212-.168.346-.066.137-2.065.107s-3.052-3.73-3.119-3.814.878.126.878.126a8.471,8.471,0,0,0,2.764-.039,11.905,11.905,0,0,0,2.532-1.968Z" transform="translate(-2414.83 -1560.359)" fill="#f7a491"/>
      <path id="Path_1906" data-name="Path 1906" d="M2474.287,1494.4l-18.487,15.746,2.848,4.031s18.142-11.4,19.136-11.535,2.556.217,2.744.942.768,22.2.768,22.2h4.936l2.573-27.407Z" transform="translate(-2447.8 -1455.469)" fill="#b75742"/>
      <g id="Group_3389" data-name="Group 3389" transform="translate(43.823 6.697)">
        <path id="Path_1907" data-name="Path 1907" d="M2747.978,1249.659a53.078,53.078,0,0,0,5.669-5.518,3.679,3.679,0,0,1,.991-1.949c.618-.716,1.086-2.349,1.492-1.886s-.6,1.76-.14,1.769,2.747-2.561,3.114-2.142-1.954,2.7-1.542,2.712,2.3-2.306,2.816-1.713-2.47,2.516-2.191,2.834,2.131-.943,2.549-.465-2.613,1.6-2.371,1.607,1.991-.043,2,.294c.015.38-4.425.973-4.968,1.632h0c-1.16,1.847-3.224,5.22-5.315,6.7-2.558,1.811-8.47,5.652-8.47,5.652l-2.937-3.794S2746.356,1250.722,2747.978,1249.659Z" transform="translate(-2738.679 -1239.886)" fill="#f7a491"/>
        <path id="Path_1908" data-name="Path 1908" d="M2872.622,1263.611a1.819,1.819,0,0,1,.178.713,1.777,1.777,0,0,1-.577,1.436A3.035,3.035,0,0,0,2872.622,1263.611Z" transform="translate(-2855.312 -1260.607)" fill="#f48c7f"/>
      </g>
      <g id="Group_3390" data-name="Group 3390" transform="translate(15.223 0)">
        <path id="Path_1909" data-name="Path 1909" d="M2523.63,1199.321a53.046,53.046,0,0,1-4.029-6.809,3.679,3.679,0,0,0-.447-2.14c-.41-.853-.434-2.552-.947-2.211s.119,1.856-.327,1.744-1.982-3.19-2.446-2.881,1.179,3.121.779,3.02-1.614-2.826-2.271-2.39,1.727,3.075,1.374,3.309-1.811-1.467-2.339-1.116,2.1,2.23,1.868,2.17-1.911-.562-2.011-.24c-.114.364,4.016,2.1,4.369,2.875h0c.636,2.086,1.747,5.881,3.378,7.857,2,2.417,6.7,7.671,6.7,7.671l3.826-2.894S2524.917,1200.771,2523.63,1199.321Z" transform="translate(-2512.833 -1187.002)" fill="#f7a491"/>
        <path id="Path_1910" data-name="Path 1910" d="M2547.847,1216.148a1.83,1.83,0,0,0-.359.642,1.776,1.776,0,0,0,.182,1.536A3.033,3.033,0,0,1,2547.847,1216.148Z" transform="translate(-2543.014 -1212.457)" fill="#f48c7f"/>
      </g>
      <path id="Path_1911" data-name="Path 1911" d="M2592.373,1306.4l-3.451,4.5,4.285,6.374s-.4,4.736-1.021,6.214-4.192,7.551-4.192,7.551,8.679,5.32,17.171,4.541c0,0,2.392-12.307,3.063-13.489s7.148-7.04,7.148-7.04l-3.144-5.079-5.428,3.01s-9.921-1.6-10.4-2.081S2592.373,1306.4,2592.373,1306.4Z" transform="translate(-2563.252 -1291.279)" fill="#f7cc7f"/>
      <path id="Path_1912" data-name="Path 1912" d="M2650.763,1230.03s-3.35-1.773-4.5,1.165a2.2,2.2,0,0,0-2.49,2.813s-3.027,1.523-1.111,5.446c0,0-.842,3.69,3.475,3.923a2.351,2.351,0,0,0,2.615,1,4.724,4.724,0,0,0,2.472-.824s3.493,1.021,4.55-2.132c0,0,2.4-.573.788-3.654,0,0,2.1-3.995-1.594-5.2C2654.973,1232.574,2654.543,1228.489,2650.763,1230.03Z" transform="translate(-2610.446 -1224.118)" fill="#f47458"/>
      <path id="Path_1913" data-name="Path 1913" d="M2720.829,1294.563c-.272.759-.077,1.524.437,1.708s1.15-.283,1.422-1.042.077-1.525-.437-1.709S2721.1,1293.8,2720.829,1294.563Z" transform="translate(-2679.159 -1279.996)" fill="#f7a491"/>
      <path id="Path_1914" data-name="Path 1914" d="M2650.309,1277.554c-.038.806.373,1.48.917,1.506s1.017-.607,1.055-1.413-.373-1.48-.917-1.506S2650.347,1276.748,2650.309,1277.554Z" transform="translate(-2617.674 -1264.852)" fill="#f7a491"/>
      <path id="Path_1915" data-name="Path 1915" d="M2675.84,1321.3c0,.053-.435,1.923-.666,2.912a.8.8,0,0,0,.445.9c.921.421,2.733,1.008,3.984-.127a.523.523,0,0,0,.17-.407l-.153-4.464Z" transform="translate(-2639.375 -1303.262)" fill="#f7a491"/>
      <path id="Path_1916" data-name="Path 1916" d="M2678.736,1322.35a3.614,3.614,0,0,0,3.576-.3,5.447,5.447,0,0,0,.492-.325l-.055-1.6-3.78,1.182C2678.969,1321.328,2678.867,1321.779,2678.736,1322.35Z" transform="translate(-2642.504 -1303.262)" fill="#f48c7f"/>
      <path id="Path_1917" data-name="Path 1917" d="M2665.51,1247.7a4.8,4.8,0,0,1,2.619,2.041c.969,1.6,1.5,6.245-1.957,8.274s-5.98-1.114-5.915-4.086S2661.645,1247.159,2665.51,1247.7Z" transform="translate(-2626.364 -1239.971)" fill="#f7a491"/>
      <path id="Path_1918" data-name="Path 1918" d="M2653.564,1764.856c-.736-.093.535-2.645.944-3.054l5.416.728a19.138,19.138,0,0,1,3.225,1.827c.146.147.166.4-.47.5A54.2,54.2,0,0,1,2653.564,1764.856Z" transform="translate(-2620.323 -1689.011)" fill="#466eb6"/>
      <path id="Path_1919" data-name="Path 1919" d="M2399.241,1632.81c.636.382,1.792-2.1,1.858-2.678l-4.373-3.444s-3.374-.967-4.055-.287C2392.054,1627.02,2397.8,1631.943,2399.241,1632.81Z" transform="translate(-2392.626 -1570.546)" fill="#466eb6"/>
      <g id="Group_3391" data-name="Group 3391" transform="translate(40.607 20.578)">
        <path id="Path_1920" data-name="Path 1920" d="M2715.965,1368.246c-3.491-3.491-2.8-14.219-2.16-18.751l1.5.211c-.539,3.839-1.28,14.459,1.731,17.47Z" transform="translate(-2713.284 -1349.495)" fill="#466eb6"/>
      </g>
      <g id="Group_3392" data-name="Group 3392" transform="translate(28.219 19.282)">
        <path id="Path_1921" data-name="Path 1921" d="M2615.633,1353.3l-.17-1.36a120.494,120.494,0,0,1,5.224-12.676l1.351.681C2622.013,1339.992,2619.15,1346.755,2615.633,1353.3Z" transform="translate(-2615.463 -1339.262)" fill="#466eb6"/>
      </g>
    </g>
    <g id="Group_3398" data-name="Group 3398" transform="translate(453.97 313.894)">
      <path id="Path_1922" data-name="Path 1922" d="M2126.56,1344.162s-5.956-.79-8.128.334S2115.07,1359,2115.07,1359l1.929.586s-.274,9.266,1.2,9.91,11.833-1.354,14.2-3.716-2.084-22.113-2.084-22.113Z" transform="translate(-2102.119 -1319.904)" fill="#3c8f7c"/>
      <g id="Group_3394" data-name="Group 3394" transform="translate(31.277)">
        <path id="Path_1923" data-name="Path 1923" d="M2264.7,1170.825a55.294,55.294,0,0,0,1.859-8.036,3.834,3.834,0,0,1-.23-2.267c.138-.977-.373-2.673.244-2.5s.466,1.882.875,1.63.964-3.795,1.523-3.634-.189,3.473.177,3.247.713-3.317,1.5-3.09-.747,3.6-.323,3.721,1.337-2.028,1.973-1.846-1.388,2.879-1.173,2.746,1.722-1.161,1.923-.873c.228.325-3.331,3.349-3.436,4.233h0c.025,2.273.117,6.4-.882,8.873-1.222,3.031-4.239,9.733-4.239,9.733l-4.715-1.67S2263.879,1172.672,2264.7,1170.825Z" transform="translate(-2259.781 -1156.016)" fill="#f7a491"/>
        <path id="Path_1924" data-name="Path 1924" d="M2323.968,1190.407a1.9,1.9,0,0,1,.559.525,1.851,1.851,0,0,1,.3,1.584A3.163,3.163,0,0,0,2323.968,1190.407Z" transform="translate(-2315.84 -1186.052)" fill="#f48c7f"/>
      </g>
      <path id="Path_1925" data-name="Path 1925" d="M2018.81,1320.048a3.467,3.467,0,0,0-.311-2.037c-.332-.816-.288-2.4-.759-2.109s.034,1.736-.36,1.609-1.645-3.076-2.071-2.812.931,2.969.578,2.855-1.33-2.717-1.933-2.344,1.421,2.954,1.1,3.155-1.559-1.461-2.045-1.16,1.79,2.186,1.583,2.119-1.684-.622-1.786-.328c-.116.333,2.948,1.674,3.232,2.418s4.981,8.361,6.538,8.532,9.063-3.811,9.736-5.3.216-3.186-.781-3.508-8.024,3.671-8.337,3.57S2018.81,1320.048,2018.81,1320.048Z" transform="translate(-2012.799 -1294.589)" fill="#f7a491"/>
      <path id="Path_1926" data-name="Path 1926" d="M2046.167,1341.238a1.9,1.9,0,0,0-.377.668,1.852,1.852,0,0,0,.182,1.6A3.162,3.162,0,0,1,2046.167,1341.238Z" transform="translate(-2041.52 -1317.782)" fill="#f48c7f"/>
      <path id="Path_1927" data-name="Path 1927" d="M2055.316,1625.484a9.645,9.645,0,0,1-2.265-1.755,63.823,63.823,0,0,0-5.751,5.959,1.566,1.566,0,0,0,1.344.218c.619-.281,3.465-1.555,4.789-1.1.345.12,4.206,1.429,7.629,2.312.421-1.227-.736-3.681-.165-4.834A36.9,36.9,0,0,0,2055.316,1625.484Z" transform="translate(-2042.931 -1564.499)" fill="#f7a491"/>
      <path id="Path_1928" data-name="Path 1928" d="M2045.753,1618.456s-3.357,3.432-3.685,4.041c-.267.5-4.433,2.2-4.642,1.563s4.957-7.457,5.772-7.706S2045.753,1618.456,2045.753,1618.456Z" transform="translate(-2034.302 -1558.041)" fill="#07345a"/>
      <path id="Path_1929" data-name="Path 1929" d="M2262.569,1682.276a9.43,9.43,0,0,1-1.794,2.2,64.533,64.533,0,0,0,6.241,5.48,1.428,1.428,0,0,0,.212-1.3c-.3-.594-1.807-4.287-1.346-5.569a30.284,30.284,0,0,1,1.83-4.224,33.244,33.244,0,0,1-3.73-1.535C2263.385,1679.1,2262.663,1682.017,2262.569,1682.276Z" transform="translate(-2229.372 -1611.316)" fill="#f7a491"/>
      <path id="Path_1930" data-name="Path 1930" d="M2216.115,1506.289s8.737,8.626,9.628,10.291c.665,1.243-3.367,14.029-3.367,14.029s-3.791-.288-5.376-1.817c0,0,2.006-8.92,1.589-9.322s-10.4-6.193-10.4-6.193l1.24-5.286Z" transform="translate(-2183.445 -1461.931)" fill="#b75742"/>
      <path id="Path_1931" data-name="Path 1931" d="M2147.009,1494.628s-2.281,5.295-2.281,7.361c0,1.582.7,14.254-2.641,15.476-1.9.694-10.819-.33-10.819-.33l.808-5.737s4.249.631,4.622.271-3.4-9.915-2.615-13.194,7.337-5.278,7.337-5.278Z" transform="translate(-2116.265 -1450.497)" fill="#f47458"/>
      <path id="Path_1932" data-name="Path 1932" d="M2249.454,1310.2s1.065.319,4.344,4.776l-5.264,8.321-3.207-7.734Z" transform="translate(-2215.879 -1290.672)" fill="#9bc1f9"/>
      <path id="Path_1933" data-name="Path 1933" d="M2128.02,1348.243a27.238,27.238,0,0,0,3.953-.708c1.047-.38,7.914,22.285,5.512,22.8-5.017,1.077-18.049,3.948-18.049,3.948a8.246,8.246,0,0,1,.476-3.532c1.217-3.874,1.906-12.737,1.906-14.3,0-.918-4.755,2.264-4.755,2.264l-1.992-7.2a83.663,83.663,0,0,1,8.2-2.877C2123.861,1348.517,2128.02,1348.243,2128.02,1348.243Z" transform="translate(-2102.119 -1323.277)" fill="#9bc1f9"/>
      <g id="Group_3395" data-name="Group 3395" transform="translate(27.632 23.896)">
        <path id="Path_1934" data-name="Path 1934" d="M2238.32,1360.33c-.764-3.7-7.265-14.8-7.321-14.9l1.334-.714c.234.436,5.495,9.821,6.3,13.734Z" transform="translate(-2230.999 -1344.711)" fill="#3c8f7c"/>
      </g>
      <path id="Path_1935" data-name="Path 1935" d="M2254.02,1722.93s3.787,3.455,4.472,3.789c.559.272,1.85,4.36,1.14,4.585s-7.74-4.841-8.029-5.687S2254.02,1722.93,2254.02,1722.93Z" transform="translate(-2221.343 -1651.138)" fill="#07345a"/>
      <g id="Group_3396" data-name="Group 3396" transform="translate(17.059 24.423)">
        <path id="Path_1936" data-name="Path 1936" d="M2148.19,1368.83l-.681-1.084c.058-.036,5.809-3.708,6.457-8.392.655-4.733-2.681-9.706-2.715-9.756l1.058-.721c.149.219,3.649,5.424,2.925,10.652C2154.5,1364.808,2148.448,1368.668,2148.19,1368.83Z" transform="translate(-2147.509 -1348.877)" fill="#3c8f7c"/>
      </g>
      <g id="Group_3397" data-name="Group 3397" transform="translate(15.705 9.479)">
        <path id="Path_1937" data-name="Path 1937" d="M2147.092,1231.2a3.242,3.242,0,0,1,3.785,1.5c1.486,2.329.683,2.108,1.406,3.273s2.61.924,2.61,2.731-.844,2.088-.844,2.088a3.076,3.076,0,0,1-.08,2.851,5.368,5.368,0,0,1-4.706,2.49,8.149,8.149,0,0,1-5.293.765c-2.65-.684-1.727-.684-2.811-.684s-4.016-1.486-3.534-3.654c0,0-1.786-2.122-.053-3.855s2.061-3.494,3.065-5.823S2145.887,1230.635,2147.092,1231.2Z" transform="translate(-2136.815 -1230.864)" fill="#184655"/>
      </g>
      <path id="Path_1938" data-name="Path 1938" d="M2201.255,1321.986s-.1,3.2.2,3.5a1.167,1.167,0,0,1,.278,1.561c-.442.763-2.359.276-3.253-.161a4.223,4.223,0,0,1-1.411-1.2l.447-5.066Z" transform="translate(-2173.737 -1299.776)" fill="#f7a491"/>
      <path id="Path_1939" data-name="Path 1939" d="M2202.634,1323.312a4.485,4.485,0,0,1-2.522-1.981l.063-.709,3.735,1.365s-.024.78-.011,1.606A4.284,4.284,0,0,1,2202.634,1323.312Z" transform="translate(-2176.39 -1299.776)" fill="#b75742"/>
      <path id="Path_1940" data-name="Path 1940" d="M2183.034,1281.29s-.091-1.88-1.245-1.515-.275,3.2.683,3.109S2183.034,1281.29,2183.034,1281.29Z" transform="translate(-2159.908 -1264.062)" fill="#f7a491"/>
      <path id="Path_1941" data-name="Path 1941" d="M2192.071,1243.321a3.414,3.414,0,0,1,2.731,1.365c.924,1.406,1.927,5.421.4,8.192s-3.474,2.088-4.277,1.807a4.779,4.779,0,0,1-3.193-3.494C2186.931,1248.6,2187.513,1242.779,2192.071,1243.321Z" transform="translate(-2165.316 -1232.234)" fill="#f7a491"/>
    </g>
    <path id="Path_1942" data-name="Path 1942" d="M2141.345,634.929l-1.032,1.906-3.25-1.321-1.852,2.6-2.594-.591-.3,1.313,3.469.791,1.755-2.465,3.381,1.374,1.552-2.868Z" transform="translate(-1663.213 -387.024)" fill="#50bfa5"/>
    <g id="Group_3399" data-name="Group 3399" transform="translate(534.642 300.087)">
      <path id="Path_1943" data-name="Path 1943" d="M2657.823,1049.9l-1.68,1.874.591,2.447a.246.246,0,0,1-.338.282l-2.3-1.019-2.144,1.318a.246.246,0,0,1-.373-.234l.258-2.5-1.916-1.632a.245.245,0,0,1,.107-.426l2.461-.528.96-2.327a.246.246,0,0,1,.439-.03l1.263,2.177,2.51.194A.245.245,0,0,1,2657.823,1049.9Z" transform="translate(-2649.833 -1046.994)" fill="#fed333"/>
    </g>
    <g id="Group_3400" data-name="Group 3400" transform="translate(476.905 295.515)">
      <path id="Path_1944" data-name="Path 1944" d="M2201.9,1013.793l-1.681,1.874.591,2.447a.245.245,0,0,1-.338.282l-2.3-1.019-2.144,1.318a.245.245,0,0,1-.373-.234l.258-2.5-1.916-1.632a.245.245,0,0,1,.107-.427l2.461-.528.96-2.327a.245.245,0,0,1,.439-.03l1.263,2.177,2.51.194A.246.246,0,0,1,2201.9,1013.793Z" transform="translate(-2193.909 -1010.891)" fill="#fed333"/>
    </g>
    <g id="Group_3401" data-name="Group 3401" transform="translate(340.854 201.779)">
      <path id="Path_1945" data-name="Path 1945" d="M1129.456,386.783c0,.48-2.213.869-4.943.869s-4.943-.389-4.943-.869,2.213-.869,4.943-.869S1129.456,386.3,1129.456,386.783Z" transform="translate(-1119.57 -371.323)" fill="#f48c7f"/>
      <path id="Path_1946" data-name="Path 1946" d="M1130.52,270.7a3.871,3.871,0,0,0-4.072,3.633c0,2.007,4.072,11.826,4.072,11.826s4.072-9.82,4.072-11.826A3.871,3.871,0,0,0,1130.52,270.7Zm0,5.744a1.727,1.727,0,1,1,1.727-1.727A1.727,1.727,0,0,1,1130.52,276.441Z" transform="translate(-1125.577 -270.697)" fill="#f47458"/>
    </g>
    <g id="Group_3404" data-name="Group 3404" transform="translate(395.736 283.015)">
      <g id="Group_3402" data-name="Group 3402">
        <path id="Path_1947" data-name="Path 1947" d="M1589.561,1029.729a4.914,4.914,0,0,1-1.188-2.859c.192-.193.9-.055,1.123.03s.495.164.719.249a.467.467,0,0,0,.6-.282c.126-.271-.694-.806-1.014-.934a37.984,37.984,0,0,0-4.183-1c-.358-.082-4.463-5.083-6.005-6.684h0c-2.447-2.7-4.827-5.592-5.085-5.879l-6.7-14.081-6.117.448s7.219,15.732,7.67,16.478c.215.355,6.37,6.166,6.373,6.164,3.211,2.67,6.048,5.015,6.58,5.481a17.014,17.014,0,0,0,1.273,3.286C1584.056,1030.917,1589.422,1029.831,1589.561,1029.729Z" transform="translate(-1560.599 -987.383)" fill="#f48c7f"/>
        <path id="Path_1948" data-name="Path 1948" d="M1557.243,912.187s4.716-.831,7.06,16.32l-8.016,2.235-3.336-9.064Z" transform="translate(-1552.951 -912.181)" fill="#f47458"/>
      </g>
      <path id="Path_1949" data-name="Path 1949" d="M1660.859,1354.027v8.895a3.116,3.116,0,0,0,3.116,3.116h19.489a3.116,3.116,0,0,0,3.116-3.116v-8.895Z" transform="translate(-1647.194 -1298.073)" fill="#b75742"/>
      <path id="Path_1950" data-name="Path 1950" d="M1685.516,1363.781l1.064-.839c0-.007,0-.014,0-.021v-.557l-1.433,1.129-1.531-1.194,1.525-1.2,1.438,1.122v-.575l-1.072-.836,1.072-.845v-.577l-1.44,1.135-1.531-1.194,1.525-1.2,1.446,1.128v-.575l-1.079-.842,1.079-.85v-.577l-1.447,1.141-1.531-1.194,1.525-1.2,1.453,1.134v-.575l-1.086-.848,1.062-.837h-.732l-.7.55-.7-.55h-.737l1.075.839-1.525,1.2-1.531-1.195,1.073-.846h-.732l-.709.559-.716-.559h-.737l1.087.848-1.525,1.2-1.531-1.194,1.085-.855h-.732l-.721.568-.728-.568h-.737l1.1.857-1.525,1.2-1.531-1.195,1.1-.865h-.732l-.732.578-.74-.578h-.737l1.11.866-1.525,1.2-1.531-1.194,1.109-.874h-.732l-.744.587-.752-.587h-.737l1.122.876-1.525,1.2-1.531-1.195,1.12-.883h-.732l-.756.6-.764-.6h-.737l1.134.885-1.525,1.2-1.531-1.194,1.132-.892h-.732l-.768.605-.776-.605h-.737l1.146.894-1.16.914v1.147l1.167.911-1.167.92v1.136l1.174.916-1.174.926v1.125l1.182.922-.779.614a3.112,3.112,0,0,0,.252.379l.9-.706,1.531,1.195-.775.611a3.122,3.122,0,0,0,.606.1l.537-.423.552.431h.737l-.922-.72,1.525-1.2,1.531,1.194-.922.727h.732l.558-.44.564.44h.737l-.934-.729,1.525-1.2,1.531,1.195-.934.736h.732l.57-.449.576.449h.737l-.946-.738,1.525-1.2,1.531,1.194-.946.746h.732l.582-.458.588.458H1677l-.958-.747,1.525-1.2,1.531,1.194-.958.755h.732l.594-.468.6.468h.737l-.97-.757,1.525-1.2,1.531,1.195-.969.764h.732l.605-.477.581.454a3.1,3.1,0,0,0,.576-.125l-.791-.618,1.525-1.2.85.663a3.117,3.117,0,0,0,.238-.389Zm-.742-2.971-1.525,1.2-1.531-1.194,1.525-1.2Zm-20.114-1.437,1.525-1.2,1.531,1.194-1.525,1.2Zm1.164,1.483-1.525,1.2-1.531-1.194,1.525-1.2Zm2.259-1.2,1.531,1.195-1.525,1.2-1.531-1.195Zm.367-.289,1.525-1.2,1.531,1.194-1.525,1.2Zm3.424.28,1.531,1.194-1.525,1.2-1.531-1.194Zm.366-.289,1.525-1.2,1.531,1.194-1.525,1.2Zm3.424.28,1.531,1.194-1.525,1.2-1.531-1.194Zm.366-.289,1.525-1.2,1.531,1.195-1.525,1.2Zm3.423.28,1.531,1.194-1.525,1.2-1.531-1.194Zm.367-.289,1.525-1.2,1.531,1.194-1.525,1.2Zm3.416-2.693,1.531,1.194-1.525,1.2-1.531-1.194Zm-1.9-1.482,1.531,1.195-1.525,1.2-1.531-1.194Zm-1.891,1.491,1.531,1.194-1.525,1.2-1.531-1.194Zm-1.9-1.482,1.531,1.195-1.525,1.2-1.531-1.194Zm-1.891,1.491,1.531,1.195-1.525,1.2-1.531-1.195Zm-1.9-1.482,1.531,1.194-1.525,1.2-1.531-1.195Zm-1.891,1.491,1.531,1.194-1.525,1.2-1.531-1.194Zm-1.9-1.481,1.531,1.194-1.525,1.2-1.531-1.194Zm-1.891,1.491,1.531,1.195-1.525,1.2-1.531-1.194Zm-1.9-1.482,1.531,1.194-1.525,1.2-1.531-1.195Zm-1.891,1.491,1.531,1.194-1.525,1.2-1.531-1.194Zm-3.423-.28,1.525-1.2,1.531,1.194-1.525,1.2Zm.007,2.972,1.525-1.2,1.531,1.195-1.525,1.2Zm1.538,4.167-1.531-1.195,1.525-1.2,1.531,1.194Zm1.9,1.482-1.531-1.195,1.525-1.2,1.531,1.194Zm1.891-1.491-1.531-1.194,1.525-1.2,1.531,1.194Zm1.9,1.481-1.531-1.194,1.525-1.2,1.531,1.194Zm1.891-1.491-1.531-1.194,1.525-1.2,1.531,1.194Zm1.9,1.482-1.531-1.194,1.525-1.2,1.531,1.195Zm1.891-1.491-1.531-1.195,1.525-1.2,1.531,1.195Zm1.9,1.482-1.531-1.195,1.525-1.2,1.531,1.195Zm1.891-1.491-1.531-1.195,1.525-1.2,1.531,1.194Zm1.9,1.481-1.531-1.195,1.525-1.2,1.531,1.195Zm1.891-1.491-1.531-1.194,1.525-1.2,1.531,1.194Zm1.9,1.482-1.531-1.194,1.525-1.2,1.531,1.194Z" transform="translate(-1647.194 -1298.073)" fill="#f48c7f"/>
      <path id="Rectangle_271" data-name="Rectangle 271" d="M1.907,0H26.76a1.907,1.907,0,0,1,1.907,1.907v0A1.908,1.908,0,0,1,26.76,3.815H1.908A1.908,1.908,0,0,1,0,1.907v0A1.907,1.907,0,0,1,1.907,0Z" transform="translate(11.815 52.14)" fill="#f47458"/>
      <path id="Path_1951" data-name="Path 1951" d="M1718.389,1323.9l5.9,6.157,4.789-6.157Z" transform="translate(-1697.438 -1271.765)" fill="#fae0b2"/>
      <g id="Group_3403" data-name="Group 3403" transform="translate(17.11 40.926)">
        <path id="Path_1952" data-name="Path 1952" d="M1704.476,1249.415h0a.962.962,0,0,1-.963-.962v-4.325c0-3.775-2.727-7.575-6.27-7.575l-1.34-.029c-3.542,0-5.919,3.83-5.919,7.6v4.325a.962.962,0,0,1-.962.962h0a.962.962,0,0,1-.962-.962v-4.325a8.577,8.577,0,0,1,8.348-8.77h.681a8.577,8.577,0,0,1,8.349,8.77v4.325A.962.962,0,0,1,1704.476,1249.415Z" transform="translate(-1688.06 -1235.357)" fill="#b75742"/>
      </g>
      <path id="Path_1953" data-name="Path 1953" d="M1814.724,1335.189a.548.548,0,1,1-.548-.547A.548.548,0,0,1,1814.724,1335.189Z" transform="translate(-1780.617 -1281.143)" fill="#fae0b2"/>
      <path id="Path_1954" data-name="Path 1954" d="M1692.851,1331.609a.548.548,0,1,1-.548-.548A.548.548,0,0,1,1692.851,1331.609Z" transform="translate(-1674.178 -1278.015)" fill="#fae0b2"/>
      <path id="Path_1955" data-name="Path 1955" d="M1731.86,1228.182s-.495,3.143.99,3.492,4.883-.946,4.563-1.5-3.457-2.954-3.923-2.488S1732.5,1227.775,1731.86,1228.182Z" transform="translate(-1709.134 -1187.68)" fill="#f7a491"/>
    </g>
    <g id="Group_3407" data-name="Group 3407" transform="translate(357.731 238.166)">
      <path id="Path_1956" data-name="Path 1956" d="M1374.247,739.21c-.909-5.925-6.27-10.185-11.876-7.311a13.306,13.306,0,0,0-3.839,3.077c-2.395,3.074-2.975,6.883-5.514,9.839-2.189,2.548-8.031,2.068-10.759,4.028a11.8,11.8,0,0,0-4.641,9.678c0,4.7,1.062,9.692,4.7,12.664a15.017,15.017,0,0,0,13.349,2.453,21.484,21.484,0,0,0,11.213-8.124,40.994,40.994,0,0,0,6.169-12.411A32.08,32.08,0,0,0,1374.247,739.21Z" transform="translate(-1326.882 -709.078)" fill="#184655"/>
      <path id="Path_1957" data-name="Path 1957" d="M1431.662,891.059c-2.923-6.513-12.681-7.246-18.885-3.713-1.844,1.05-2.172.973-3.329,2.13-3.033,3.033-7.463,34.084,1.79,36.04s17.117,1.065,20.169-3.727C1433.451,918.581,1436.16,901.082,1431.662,891.059Z" transform="translate(-1386.329 -843.811)" fill="#f7cc7f"/>
      <path id="Path_1958" data-name="Path 1958" d="M1613.732,1693.52a43.027,43.027,0,0,1,.161,6.827,6.436,6.436,0,0,1-.239.823c-.32.941.555,3.815.555,3.815l11.731.043c.639,0,.212-.4-.308-.774a23.683,23.683,0,0,0-4.246-2.276c-.177-.083-.821-.481-1.054-.618a8.112,8.112,0,0,1-1.7-1.458c-.854-.925-.983-5.462-.983-5.462Z" transform="translate(-1567.9 -1549.724)" fill="#f7a491"/>
      <path id="Path_1959" data-name="Path 1959" d="M1616.157,1754.186a10.64,10.64,0,0,1-6.681-.179c-.319.939-.92,4.117-.562,4.117,2.942,0,5.432.557,13.86.424.3,0,.265-1.041.068-1.27C1622.3,1756.646,1616.389,1754.324,1616.157,1754.186Z" transform="translate(-1563.726 -1602.551)" fill="#355389"/>
      <path id="Path_1960" data-name="Path 1960" d="M1498.572,1142.751s.167,7.348,2.273,12.054c2.051,4.583,11.868,15.887,14.477,22.485-.807,3.721-3.024,8.952-2.863,13.076.182,4.674-.09,17.042-.09,17.042l5.268.167,6.911-31.916-10.414-34.436-4.726-8.362Z" transform="translate(-1467.453 -1060.066)" fill="#184655"/>
      <path id="Path_1961" data-name="Path 1961" d="M1267.593,1635.724s-3.237,4.442-4.663,5.565c-.764.6-2.837,1.409-3.056,2.4s9.391,9.791,9.391,9.791c.509.45.452-.173.3-.835a25.16,25.16,0,0,0-1.793-4.8c-.083-.19-.319-.96-.407-1.233a8.632,8.632,0,0,1-.331-2.355c-.032-1.338,3.048-5.052,3.048-5.052Z" transform="translate(-1258.981 -1499.247)" fill="#f7a491"/>
      <path id="Path_1962" data-name="Path 1962" d="M1261.221,1688.408a11.31,11.31,0,0,1-5.209-4.832c-.915.526-3.374,1.649-3.158,1.962,1.7,2.466,3.463,5.533,10.288,11.343.244.208,1.246-.991,1.249-1.312C1264.4,1694.684,1261.31,1688.682,1261.221,1688.408Z" transform="translate(-1252.84 -1541.04)" fill="#355389"/>
      <path id="Path_1963" data-name="Path 1963" d="M1306.6,596.2s-6.883-12.284-8.557-14.9-6.036-12.988-6.192-13.4,3-5.319,2.3-5.487-1.486,2.589-2.238,2.26-2.951-6.967-3.38-6.637c-.8.616,1.185,4.117.757,4.338s-1.723-3.852-2.563-3.732,1.6,3.733,1.363,4.052-2.765-3.085-3.223-2.359c-.249.394,2.327,2.972,1.832,3.213s-2.785-1.422-3.028-.943,2.119,1.137,2.825,2.43,1.908,1.853,2.408,4.248,1.246,11.063,3.8,15.388,8.183,13.9,8.183,13.9Z" transform="translate(-1279.751 -558.028)" fill="#f79c8d"/>
      <path id="Path_1964" data-name="Path 1964" d="M1324.03,1173.8s-4.073,6.118-5.043,11.182c-.945,4.932.625,19.82-1.016,26.723-2.793,2.588-7.607,5.6-9.838,9.078-2.529,3.935-9.837,13.916-9.837,13.916l4.222,3.155,23.949-22.2,9.7-29.618,3.327-8.661Z" transform="translate(-1292.54 -1095.818)" fill="#13375b"/>
      <path id="Path_1965" data-name="Path 1965" d="M1472.807,898.782s-5.393-.343-7.527,1.978,4.733,20.679,5.121,23.633-3.183,8.843-3.183,8.843,14.842,6.94,18.463,4.549c0,0-.58-23.672-.968-25.782s-3.621-10.69-4.4-11.534S1472.807,898.782,1472.807,898.782Z" transform="translate(-1438.02 -855.614)" fill="#f47458"/>
      <path id="Path_1966" data-name="Path 1966" d="M1528.078,841.288s-.028.159-.078.428a40.767,40.767,0,0,1-1.792,6.767c-.756,1.426,2.588,5.974,5.806,5.419.958-.165-.81-4.179-.725-4.6.163-.814.383-1.924.609-3.063l.377-1.905.625-3.162Z" transform="translate(-1491.495 -805.312)" fill="#f7a491"/>
      <path id="Path_1967" data-name="Path 1967" d="M1540.094,841.716c.05-.27.078-.428.078-.428l4.823-.12s-.281,1.423-.625,3.162l-.375,1.895a4.522,4.522,0,0,1-2.3-1.152,6.07,6.07,0,0,1-1.744-2.589C1540.007,842.179,1540.057,841.917,1540.094,841.716Z" transform="translate(-1503.589 -805.312)" fill="#f47458"/>
      <path id="Path_1968" data-name="Path 1968" d="M1530.889,755.636a4.352,4.352,0,0,0-3.7,1.577c-1.425,1.839-2.961,7.527.579,10.619s7.037-.408,7.556-4.119S1536.046,755.5,1530.889,755.636Z" transform="translate(-1491.06 -730.6)" fill="#f7a491"/>
      <path id="Path_1969" data-name="Path 1969" d="M1597.275,805.088c-.422.82-1.132,1.274-1.584,1.014s-.477-1.135-.054-1.955,1.132-1.274,1.584-1.014S1597.7,804.268,1597.275,805.088Z" transform="translate(-1551.963 -772.03)" fill="#f7a491"/>
      <path id="Path_1970" data-name="Path 1970" d="M1516.481,750.527s-3.037,5.409-5.209,5.659-2.458,3.124-2.458,3.124.777-6.622,2.928-7.9A8,8,0,0,1,1516.481,750.527Z" transform="translate(-1476.398 -726.099)" fill="#184655"/>
      <path id="Path_1971" data-name="Path 1971" d="M1517.049,795.815c.177.96-.179,1.841-.794,1.967s-1.257-.55-1.433-1.511.179-1.841.794-1.967S1516.872,794.854,1517.049,795.815Z" transform="translate(-1481.605 -764.369)" fill="#f7a491"/>
      <path id="Path_1972" data-name="Path 1972" d="M1412.576,828s7.613,8.17,8.745,11.463-1.1,8-4.19,8.208-9.956-14.5-9.956-14.5Z" transform="translate(-1387.63 -793.808)" fill="#b75742"/>
      <g id="Group_3405" data-name="Group 3405" transform="translate(27.357 41.753)">
        <path id="Path_1973" data-name="Path 1973" d="M1475.331,887.73a20.745,20.745,0,0,1,2.625,18.493,28.161,28.161,0,0,1-4,8.063c-2.531,3.373-4.519,4.257-4.345,4.156l-.746-1.449a10.36,10.36,0,0,0,2.212-1.767,21.138,21.138,0,0,0,4.662-7.6c4.371-11.1-1.759-18.155-1.862-18.419-.043-.058-.084-.249-.113-.283Z" transform="translate(-1468.869 -887.73)" fill="#f7cc7f"/>
      </g>
      <g id="Group_3406" data-name="Group 3406" transform="translate(40.646 44.025)">
        <path id="Path_1974" data-name="Path 1974" d="M1580.453,930.826A76.559,76.559,0,0,0,1573.8,905.8l1.519-.123c.069.084,1.7.977,3.256,4.7a37,37,0,0,1,2.751,14.069C1581.335,925.718,1580.453,930.826,1580.453,930.826Z" transform="translate(-1573.804 -905.672)" fill="#f7cc7f"/>
      </g>
    </g>
    <g id="Group_3408" data-name="Group 3408" transform="translate(379.486 192.861)">
      <path id="Path_1975" data-name="Path 1975" d="M1427.175,204.227l-2.547-2.539.822-.824,1.643,1.638,1.843-2.225.9.743Z" transform="translate(-1424.628 -200.277)" fill="#50bfa5"/>
    </g>
    <g id="Group_3413" data-name="Group 3413" transform="translate(438.728 219.97)">
      <g id="Group_3410" data-name="Group 3410">
        <g id="Group_3409" data-name="Group 3409">
          <path id="Path_1976" data-name="Path 1976" d="M1896.412,434.172a11.306,11.306,0,1,1,15.858,2.036A11.319,11.319,0,0,1,1896.412,434.172Zm19.17-14.807a12.917,12.917,0,1,0-11.868,20.708C1915.118,441.537,1922.572,428.415,1915.582,419.365Z" transform="translate(-1892.439 -414.341)" fill="#86b1f2"/>
        </g>
        <path id="Path_1977" data-name="Path 1977" d="M1907.581,445.34a11.306,11.306,0,1,1,15.859,2.036A11.319,11.319,0,0,1,1907.581,445.34Z" transform="translate(-1903.608 -425.509)" fill="#fff"/>
      </g>
      <g id="Group_3412" data-name="Group 3412" transform="translate(8.999 5.306)">
        <path id="Path_1978" data-name="Path 1978" d="M1967.414,456.24a3.872,3.872,0,0,0-3.914,3.823c.036,2.073,3.982,6.471,3.982,6.471s4.015-4.539,3.979-6.611A3.872,3.872,0,0,0,1967.414,456.24Zm.093,5.254a1.5,1.5,0,1,1,1.566-1.529A1.549,1.549,0,0,1,1967.507,461.494Z" transform="translate(-1963.5 -456.24)" fill="#86b1f2"/>
        <g id="Group_3411" data-name="Group 3411" transform="translate(0.938 12.488)">
          <path id="Path_1979" data-name="Path 1979" d="M1970.9,561.286l.5-.009.031.256h.012a.634.634,0,0,1,1.1,0h.008c.37-.534,1.239-.484,1.256.479l.02,1.119-.575.01-.018-1.034c0-.276-.1-.434-.287-.43a.316.316,0,0,0-.289.363l.02,1.111-.575.01-.019-1.065c0-.241-.093-.4-.279-.4a.325.325,0,0,0-.293.367l.019,1.107-.575.01C1970.925,561.976,1970.94,561.865,1970.9,561.286Z" transform="translate(-1970.903 -560.394)" fill="#86b1f2"/>
          <path id="Path_1980" data-name="Path 1980" d="M1997.516,555.449a.3.3,0,1,1-.007-.595A.3.3,0,1,1,1997.516,555.449Zm-.254,2.138-.034-1.9.591-.01.033,1.9Z" transform="translate(-1993.872 -554.854)" fill="#86b1f2"/>
          <path id="Path_1981" data-name="Path 1981" d="M2005.695,560.832l.513-.009.032.26h.012a.7.7,0,0,1,1.276.49l.02,1.127-.591.01-.018-1.053c0-.245-.093-.41-.307-.407a.337.337,0,0,0-.316.375l.02,1.1-.591.01C2005.717,561.522,2005.732,561.41,2005.695,560.832Z" transform="translate(-2001.289 -560.017)" fill="#86b1f2"/>
        </g>
      </g>
    </g>
    <g id="Group_3418" data-name="Group 3418" transform="translate(454.718 259.481)">
      <g id="Group_3416" data-name="Group 3416" transform="translate(0)">
        <g id="Group_3414" data-name="Group 3414">
          <path id="Path_1982" data-name="Path 1982" d="M2020.316,739.078a11.306,11.306,0,1,1,11.119,11.49A11.319,11.319,0,0,1,2020.316,739.078Zm24.219.4a12.917,12.917,0,1,0-22.2,8.771C2030.333,756.508,2044.348,750.908,2044.535,739.475Z" transform="translate(-2018.703 -726.346)" fill="#86b1f2"/>
        </g>
        <g id="Group_3415" data-name="Group 3415" transform="translate(1.612 1.612)">
          <path id="Path_1983" data-name="Path 1983" d="M2031.43,750.192a11.306,11.306,0,1,1,11.118,11.49A11.318,11.318,0,0,1,2031.43,750.192Z" transform="translate(-2031.429 -739.072)" fill="#fff"/>
        </g>
      </g>
      <g id="Group_3417" data-name="Group 3417" transform="translate(5.416 4.074)">
        <path id="Path_1984" data-name="Path 1984" d="M2120.548,776.206h0a.543.543,0,0,1-.543-.543V759.057a.543.543,0,0,1,.543-.543h0a.543.543,0,0,1,.543.543v16.606A.543.543,0,0,1,2120.548,776.206Z" transform="translate(-2112.592 -758.514)" fill="#86b1f2"/>
        <path id="Path_1985" data-name="Path 1985" d="M2072.2,778.656h-8.089a.349.349,0,0,1-.21-.07l-2.292-1.731a.349.349,0,0,1-.014-.546l2.3-1.935a.349.349,0,0,1,.225-.082h8.079a.349.349,0,0,1,.349.349v3.666A.349.349,0,0,1,2072.2,778.656Z" transform="translate(-2061.468 -772.293)" fill="#86b1f2"/>
        <path id="Path_1986" data-name="Path 1986" d="M2102.8,818.638h8.089a.348.348,0,0,0,.21-.071l2.292-1.731a.35.35,0,0,0,.014-.546l-2.3-1.935a.349.349,0,0,0-.225-.082H2102.8a.349.349,0,0,0-.349.349v3.666A.349.349,0,0,0,2102.8,818.638Z" transform="translate(-2097.265 -807.212)" fill="#86b1f2"/>
        <path id="Path_1987" data-name="Path 1987" d="M2107.051,822.069v-3.2h7.761l2.014,1.693-2,1.508Z" transform="translate(-2101.278 -811.225)" fill="#fdfffe"/>
      </g>
    </g>
    <g id="Group_3423" data-name="Group 3423" transform="translate(309.313 208.111)">
      <g id="Group_3421" data-name="Group 3421" transform="translate(0 0)">
        <g id="Group_3419" data-name="Group 3419" transform="translate(0.559 0.559)">
          <path id="Path_1988" data-name="Path 1988" d="M876.535,337.84a11.306,11.306,0,1,1,11.118,11.49A11.318,11.318,0,0,1,876.535,337.84Zm24.22.4a12.917,12.917,0,1,0-22.2,8.771C886.552,355.27,900.567,349.67,900.755,338.237Z" transform="translate(-874.922 -325.108)" fill="#86b1f2"/>
        </g>
        <g id="Group_3420" data-name="Group 3420">
          <circle id="Ellipse_28" data-name="Ellipse 28" cx="11.306" cy="11.306" r="11.306" transform="matrix(0.215, -0.977, 0.977, 0.215, 0, 22.08)" fill="#fff"/>
        </g>
      </g>
      <g id="Group_3422" data-name="Group 3422" transform="translate(7.62 6.153)">
        <path id="Path_1989" data-name="Path 1989" d="M947.63,389.734h0a.434.434,0,0,1-.434-.434V376.039a.434.434,0,0,1,.434-.434h0a.434.434,0,0,1,.434.434V389.3A.434.434,0,0,1,947.63,389.734Z" transform="translate(-945.104 -374.804)" fill="#86b1f2"/>
        <path id="Path_1990" data-name="Path 1990" d="M1002.191,389.734h0a.434.434,0,0,1-.434-.434V376.039a.434.434,0,0,1,.434-.434h0a.434.434,0,0,1,.434.434V389.3A.434.434,0,0,1,1002.191,389.734Z" transform="translate(-992.756 -374.804)" fill="#86b1f2"/>
        <path id="Path_1991" data-name="Path 1991" d="M935.515,372.533c0,1.8-1.082,3.253-2.417,3.253s-2.417-1.457-2.417-3.253,1.082-3.253,2.417-3.253S935.515,370.737,935.515,372.533Z" transform="translate(-930.681 -369.28)" fill="#86b1f2"/>
        <path id="Path_1992" data-name="Path 1992" d="M990.928,371.849h-.558a.186.186,0,0,0-.186.186v3.6a.186.186,0,0,1-.186.186h-.442a.186.186,0,0,1-.186-.186v-3.6a.186.186,0,0,0-.186-.186h-.744a.186.186,0,0,0-.186.186v3.6a.186.186,0,0,1-.186.186h-.442a.186.186,0,0,1-.186-.186v-3.6a.186.186,0,0,0-.186-.186h-.6a.186.186,0,0,0-.186.186v4.415a2.324,2.324,0,1,0,4.648,0v-4.415A.186.186,0,0,0,990.928,371.849Z" transform="translate(-979.402 -371.524)" fill="#86b1f2"/>
      </g>
    </g>
    <g id="Group_3429" data-name="Group 3429" transform="translate(398.489 196.135)">
      <g id="Group_3425" data-name="Group 3425" transform="translate(0 0)">
        <g id="Group_3424" data-name="Group 3424" transform="translate(3.068 3.068)">
          <path id="Path_1993" data-name="Path 1993" d="M1609.258,274.278a11.306,11.306,0,1,1,13.587-8.427A11.318,11.318,0,0,1,1609.258,274.278Zm5.529-23.583a12.917,12.917,0,1,0,3.86,23.554C1628.416,268.189,1625.919,253.3,1614.786,250.695Z" transform="translate(-1598.917 -250.35)" fill="#86b1f2"/>
        </g>
        <circle id="Ellipse_29" data-name="Ellipse 29" cx="11.306" cy="11.306" r="11.306" transform="translate(0 15.988) rotate(-45)" fill="#fff"/>
      </g>
      <g id="Group_3426" data-name="Group 3426" transform="translate(11.896 20.539)">
        <path id="Path_1994" data-name="Path 1994" d="M1669.3,391.373h-.009l-.543.27-.119-.5.753-.367.556-.01.051,2.87-.649.011Z" transform="translate(-1668.63 -390.454)" fill="#86b1f2"/>
        <path id="Path_1995" data-name="Path 1995" d="M1694.807,390.2h.009c.155-.295.258-.42.575-.92l.808-.014-.757.888.906,1.269-.826.015-.537-.878-.168.215.012.676-.671.012-.055-3.135.671-.012Z" transform="translate(-1690.877 -388.312)" fill="#86b1f2"/>
        <path id="Path_1996" data-name="Path 1996" d="M1713.346,395.128l.565-.01.036.291h.013a.721.721,0,0,1,1.246,0h.009a.811.811,0,0,1,.682-.379c.415-.007.734.278.745.923l.022,1.272-.654.012-.021-1.175c-.005-.314-.11-.493-.327-.489a.359.359,0,0,0-.328.412l.022,1.263-.654.012-.021-1.21c-.012-.675-.659-.528-.65-.037l.022,1.258-.654.012C1713.371,395.912,1713.388,395.785,1713.346,395.128Z" transform="translate(-1707.683 -394.183)" fill="#86b1f2"/>
      </g>
      <g id="Group_3428" data-name="Group 3428" transform="translate(11.857 6.991)">
        <path id="Rectangle_272" data-name="Rectangle 272" d="M0,0H8.951a0,0,0,0,1,0,0V2.107A4.476,4.476,0,0,1,4.476,6.583h0A4.476,4.476,0,0,1,0,2.107V0A0,0,0,0,1,0,0Z" transform="translate(0 5.65)" fill="#86b1f2"/>
        <g id="Group_3427" data-name="Group 3427" transform="translate(5.967 6.47)">
          <path id="Path_1997" data-name="Path 1997" d="M1718.781,335.855h-1.622a1.716,1.716,0,0,1,0-3.431h1.622a1.716,1.716,0,1,1,0,3.431Zm-1.622-2.835a1.119,1.119,0,0,0,0,2.238h1.622a1.119,1.119,0,1,0,0-2.238Z" transform="translate(-1715.443 -332.424)" fill="#86b1f2"/>
        </g>
        <path id="Path_1998" data-name="Path 1998" d="M1687.175,281.33c.231.927-.727,1.225-.65,1.886.06.966,1,.8,1.067,1.873a.987.987,0,0,1-.324.793,1.332,1.332,0,0,0,.094-.31,1.089,1.089,0,0,0-.233-.854c-.2-.237-.508-.365-.708-.6a1.246,1.246,0,0,1,.061-1.757c.313-.318.524-.415.662-.865C1687.154,281.44,1687.163,281.386,1687.175,281.33Z" transform="translate(-1683.839 -281.33)" fill="#86b1f2"/>
        <path id="Path_1999" data-name="Path 1999" d="M1705.239,281.33c.231.927-.727,1.225-.65,1.886.06.966,1,.8,1.067,1.873a.986.986,0,0,1-.324.793,1.332,1.332,0,0,0,.094-.31,1.088,1.088,0,0,0-.233-.854c-.2-.237-.508-.365-.708-.6a1.246,1.246,0,0,1,.061-1.757c.313-.318.525-.415.662-.865C1705.218,281.44,1705.227,281.386,1705.239,281.33Z" transform="translate(-1699.615 -281.33)" fill="#86b1f2"/>
      </g>
    </g>
    <g id="Group_3435" data-name="Group 3435" transform="translate(358.368 196.763)">
      <g id="Group_3432" data-name="Group 3432" transform="translate(0 0)">
        <g id="Group_3430" data-name="Group 3430" transform="translate(0.268 0.252)">
          <path id="Path_2000" data-name="Path 2000" d="M1279.356,255.3a11.306,11.306,0,1,1,2.839-15.734A11.318,11.318,0,0,1,1279.356,255.3Zm-13.814-19.9a12.917,12.917,0,1,0,20.079,12.9C1287.662,236.991,1274.935,228.88,1265.542,235.4Z" transform="translate(-1259.988 -233.074)" fill="#86b1f2"/>
        </g>
        <g id="Group_3431" data-name="Group 3431">
          <circle id="Ellipse_30" data-name="Ellipse 30" cx="11.306" cy="11.306" r="11.306" transform="translate(0 4.151) rotate(-10.58)" fill="#fff"/>
        </g>
      </g>
      <path id="Path_2001" data-name="Path 2001" d="M1295.836,290.1s-3,7.305-4.27,9.045h18.627s-4.111-7.021-4.428-9.045Z" transform="translate(-1287.299 -282.628)" fill="#86b1f2"/>
      <path id="Path_2002" data-name="Path 2002" d="M1374.478,290.524c-.245.8-.532,1.577-.835,2.35-.148.388-.312.77-.469,1.155s-.331.762-.5,1.142c-.343.757-.7,1.506-1.1,2.239-.2.367-.4.73-.621,1.085-.056.088-.109.178-.167.265s-.116.174-.176.259c-.114.175-.251.335-.38.5.048-.093.1-.184.148-.275.024-.046.052-.089.074-.136l.068-.14c.045-.093.092-.185.138-.278s.088-.188.131-.281c.089-.187.178-.373.261-.563s.176-.374.258-.564l1.019-2.265.517-1.13c.176-.375.346-.753.526-1.127C1373.726,292.007,1374.088,291.26,1374.478,290.524Z" transform="translate(-1356.002 -282.997)" fill="#fff"/>
      <g id="Group_3433" data-name="Group 3433" transform="translate(3.504 15.293)">
        <path id="Path_2003" data-name="Path 2003" d="M1286.145,353.064h.419a.19.19,0,0,0-.028-.09l-.646-1.035a.19.19,0,1,0-.322.2Z" transform="translate(-1285.539 -351.849)" fill="#86b1f2"/>
      </g>
      <g id="Group_3434" data-name="Group 3434" transform="translate(22.484 15.293)">
        <path id="Path_2004" data-name="Path 2004" d="M1435.836,353.064h-.419a.189.189,0,0,1,.028-.09l.646-1.035a.19.19,0,1,1,.322.2Z" transform="translate(-1435.417 -351.849)" fill="#86b1f2"/>
      </g>
    </g>
    <g id="Group_3436" data-name="Group 3436" transform="translate(392.766 191.786)">
      <path id="Path_2005" data-name="Path 2005" d="M1535.751,198.663l-4.012-1.757-.911,2.77-1.328-.437,1.392-4.23,3.988,1.747,1.017-3.277,3.67,1.529,1.508-3.223,1.266.592-2.076,4.436-3.489-1.454Z" transform="translate(-1529.501 -191.786)" fill="#fae0b2"/>
    </g>
  </g>
</svg>
