<svg xmlns="http://www.w3.org/2000/svg" width="191.559" height="139.383" viewBox="0 0 191.559 139.383">
  <g id="Group_2943" data-name="Group 2943" transform="translate(-158.945 -220.404)">
    <g id="shadow" transform="translate(158.945 327.611)">
      <path id="Path_1408" data-name="Path 1408" d="M341.548,880.8H185.814c-4.926,0-8.956,2.442-8.956,5.426h0c0,2.067,1.933,3.872,4.757,4.788H167.9c-4.926,0-8.956,2.442-8.956,5.426h0c0,2.984,4.03,5.426,8.956,5.426h4.778a4.442,4.442,0,0,0-2.144,3.511v2.171c0,2.985,4.03,5.427,8.956,5.427H332.908c4.926,0,8.956-2.442,8.956-5.427v-2.171c0-2.985-4.03-5.427-8.956-5.427l-10.432.121a4.961,4.961,0,0,0,2.95-1.143,4.27,4.27,0,0,0,.843-5.063,3.7,3.7,0,0,0-3.161-2.287l18.439.073c4.926,0,8.956-2.442,8.956-5.427h0C350.5,883.239,346.474,880.8,341.548,880.8Z" transform="translate(-158.945 -880.797)" fill="#606060" opacity="0.12" style="mix-blend-mode: multiply;isolation: isolate"/>
    </g>
    <g id="object" transform="translate(188.552 220.404)">
      <g id="Group_2942" data-name="Group 2942" transform="translate(0)">
        <g id="Group_2865" data-name="Group 2865" transform="translate(44.62 17.124)">
          <path id="Path_1409" data-name="Path 1409" d="M616.179,343.974l9.634-6.423,6.592-11.662,2.74,1.782-4.938,13.6-11.831,5.071Z" transform="translate(-616.179 -325.889)" fill="#a1bdcc"/>
        </g>
        <g id="Group_2866" data-name="Group 2866" transform="translate(84.001 39.427)">
          <path id="Path_1410" data-name="Path 1410" d="M869.881,463.275l-2.154,1.022-8.958,13.014.468,3.127,6.631-.084Z" transform="translate(-858.768 -463.275)" fill="#8aad9f"/>
        </g>
        <g id="Group_2878" data-name="Group 2878" transform="translate(28.99 17.463)">
          <g id="Group_2872" data-name="Group 2872" transform="translate(3.227 50.335)">
            <g id="Group_2869" data-name="Group 2869" transform="translate(10.931)">
              <g id="Group_2867" data-name="Group 2867">
                <path id="Path_1411" data-name="Path 1411" d="M622.506,640.119l.589,25.118-4.35,32.447-3.64.043-2.654-29.86-5.336-29.828Z" transform="translate(-607.115 -638.039)" fill="#8c9498"/>
              </g>
              <g id="Group_2868" data-name="Group 2868" transform="translate(8.005 59.208)">
                <path id="Path_1412" data-name="Path 1412" d="M656.428,1002.807l.023,1.968,3.96,1.921,1.945-1.991-1.992-1.945Z" transform="translate(-656.428 -1002.76)" fill="#3a3029"/>
              </g>
            </g>
            <g id="Group_2870" data-name="Group 2870" transform="translate(3.107 60.203)">
              <path id="Path_1413" data-name="Path 1413" d="M562.358,1008.889l3.13,2.661-.782,1.565-5.79-1.252v-2.974Z" transform="translate(-558.915 -1008.889)" fill="#3a3029"/>
            </g>
            <g id="Group_2871" data-name="Group 2871" transform="translate(0 8.593)">
              <path id="Path_1414" data-name="Path 1414" d="M553.477,694.339l-2.6,24.347-3.433,24.268-4.9-.233.179-25.176-2.947-23.35,6.922-3.224Z" transform="translate(-539.778 -690.971)" fill="#8c9498"/>
            </g>
          </g>
          <g id="Group_2873" data-name="Group 2873" transform="translate(1.582 17.511)">
            <path id="Path_1415" data-name="Path 1415" d="M535.014,437.628l9.51-1.785s6.472,4.164,11.38,16.767c5,12.832,5.875,30.287,5.875,30.287s-34.142,8.789-32.039,2.72l2.123-28.749Z" transform="translate(-529.647 -435.843)" fill="#a1bdcc"/>
          </g>
          <g id="Group_2876" data-name="Group 2876">
            <g id="Group_2874" data-name="Group 2874" transform="translate(5.587 8.164)">
              <path id="Path_1416" data-name="Path 1416" d="M563.022,389.455l-3.181,1.211a16.983,16.983,0,0,1-1.043-2.5c-.99.124-2.184.165-2.77-.642a2.815,2.815,0,0,1-.368-.863l-1.12-3.732a3.433,3.433,0,0,1-.214-1.321,2.882,2.882,0,0,1,1.32-1.878,7.013,7.013,0,0,1,5.7-1.3,3.073,3.073,0,0,1,1.423.7,4.167,4.167,0,0,1,.961,2.24l.467,2.238a2.852,2.852,0,0,1-.268,2.513c-.313.344-.793.529-1.033.927C562.473,387.755,563.016,388.634,563.022,389.455Z" transform="translate(-554.317 -378.264)" fill="#eacdb0"/>
            </g>
            <g id="Group_2875" data-name="Group 2875">
              <path id="Path_1417" data-name="Path 1417" d="M538.378,330.961a10.9,10.9,0,0,0-1.39-2.175c-.882-1.1-2.61-.929-3.911-.391-2.81,1.161-6.044,1.233-8.224,3.5-1.246,1.3-3.218,2.439-4.209,3.888a4.525,4.525,0,0,0-.7,2.059,6.817,6.817,0,0,0,3.2,6.459,9.747,9.747,0,0,0,1.546.723,7.3,7.3,0,0,0,3.563.747c-.416-.892-2.6-3.268-2.285-4.326.5-1.68,3.126-2.49,4.6-2.872,1.6-.416,3.411-.033,4.96-.531a6.064,6.064,0,0,0,2.8-2.5A4.6,4.6,0,0,0,538.378,330.961Z" transform="translate(-519.901 -327.974)" fill="#3a3029"/>
            </g>
          </g>
          <g id="Group_2877" data-name="Group 2877" transform="translate(10.55 19.268)">
            <path id="Path_1418" data-name="Path 1418" d="M588.954,446.664c3.112,6.088,6.157,12.214,9.337,18.267,1.884,3.587,2.225,7.469,2.78,11.41l1.656,11.755.7,4.966-14.2,2.7c.427-4.838.974-9.666,1.311-14.512.311-4.469.94-9.509-.243-13.89-.576-2.132-1.183-4.26-1.77-6.391q-1.614-5.864-3.27-11.718c-.078-.273-.425-.957-.361-1.243Z" transform="translate(-584.889 -446.664)" fill="#fff"/>
          </g>
        </g>
        <g id="Group_2887" data-name="Group 2887" transform="translate(77.438 37.984)">
          <g id="Group_2881" data-name="Group 2881" transform="translate(19.987 40.843)">
            <g id="Group_2879" data-name="Group 2879" transform="translate(7.327 46.614)">
              <path id="Path_1419" data-name="Path 1419" d="M990.907,994.674l.158,1.559-2.827,1.943-1.65-1.366,1.335-1.751,2.827-1.943Z" transform="translate(-986.588 -993.115)" fill="#514943"/>
            </g>
            <g id="Group_2880" data-name="Group 2880">
              <path id="Path_1420" data-name="Path 1420" d="M953.032,706.5l.479,4.734-4.24,16.263,3.937,26.134-2.9,1-7.641-25.514-1.213-7.422.044-15.713Z" transform="translate(-941.456 -705.976)" fill="#cab5a1"/>
            </g>
          </g>
          <g id="Group_2884" data-name="Group 2884" transform="translate(9.275 42.657)">
            <g id="Group_2882" data-name="Group 2882">
              <path id="Path_1421" data-name="Path 1421" d="M875.472,721.132l6.1,43.791h2.771l.5-28.07,5.042-19.7Z" transform="translate(-875.472 -717.151)" fill="#cab5a1"/>
            </g>
            <g id="Group_2883" data-name="Group 2883" transform="translate(4.356 47.426)">
              <path id="Path_1422" data-name="Path 1422" d="M906.8,1009.292v1.573l-3,1.573-1.5-1.573,1.5-1.573Z" transform="translate(-902.303 -1009.292)" fill="#514943"/>
            </g>
          </g>
          <g id="Group_2886" data-name="Group 2886">
            <g id="Group_2885" data-name="Group 2885">
              <path id="Path_1423" data-name="Path 1423" d="M849.748,490.486c-2.366-15.55-1.521-26.874-1.644-29.984a6.453,6.453,0,0,0-2.306-4.724c-.957-.213-1.791-.83-2.758-1.073-6.543-1.646-10.111,3.35-12.56,8.737a154.459,154.459,0,0,0-7.6,20.5c-1.8,6.142-3.6,12.339-4.356,18.713-.311,2.63-.571,5.124,2.308,6.284,4.588,1.849,9.745,1.808,14.591,2.4,5.567.681,11.141,1.178,16.745,1.411C855.092,512.871,852.114,506.036,849.748,490.486Z" transform="translate(-818.339 -454.387)" fill="#8aad9f"/>
            </g>
          </g>
        </g>
        <g id="Group_2896" data-name="Group 2896" transform="translate(0 111.738)">
          <g id="Group_2888" data-name="Group 2888" transform="translate(20.563 13.25)">
            <path id="Path_1424" data-name="Path 1424" d="M469.681,990.619a1.986,1.986,0,0,0,2.141,1.617c1.948.027,2.742,1.336.956,1.312s-3.911.316-4.618-1.015S469.154,989.674,469.681,990.619Z" transform="translate(-467.99 -990.326)" fill="#bcac98"/>
          </g>
          <g id="Group_2889" data-name="Group 2889" transform="translate(0.48 6.434)">
            <path id="Path_1425" data-name="Path 1425" d="M360.067,948.345s-.7.149-1.038,1.443-8.43-.927-11.216.983-3.148,3.527-3.5,6.446c-.739,6.169,10.315,5.5,14.069,4.089s10.093-1.972,8.4-8.652C366.46,952.488,360.067,948.345,360.067,948.345Z" transform="translate(-344.28 -948.345)" fill="#d3c2a4"/>
          </g>
          <g id="Group_2890" data-name="Group 2890" transform="translate(16.159 5.714)">
            <path id="Path_1426" data-name="Path 1426" d="M448.225,948.313l-.557.438s-2.767.894-5.906-2.651c-1.235-1.88-.84-2.2-.84-2.2l.7.157S442.924,948.156,448.225,948.313Z" transform="translate(-440.862 -943.905)" fill="#37454d"/>
          </g>
          <g id="Group_2891" data-name="Group 2891" transform="translate(20.888)">
            <path id="Path_1427" data-name="Path 1427" d="M469.994,909.148a1.278,1.278,0,0,1,1.061-.439c.785-.017,1.977,1.268,2.266,1.373s.986.276.285.54S470.335,909.943,469.994,909.148Z" transform="translate(-469.994 -908.709)" fill="#4f3c22"/>
          </g>
          <g id="Group_2892" data-name="Group 2892" transform="translate(16.516 0.431)">
            <path id="Path_1428" data-name="Path 1428" d="M444.728,913.084a3.861,3.861,0,0,1,5.96-.579c.415.354.743.781,1.132,1.156.258.249.581.363.832.634a3.066,3.066,0,0,1,.65,2.646c-.231.845.729,3.328-2.1,3.935s-6.583-1.1-7.382-2.572S442.3,915.345,444.728,913.084Z" transform="translate(-443.062 -911.362)" fill="#dacaaf"/>
          </g>
          <g id="Group_2893" data-name="Group 2893" transform="translate(15.854 2.078)">
            <path id="Path_1429" data-name="Path 1429" d="M441.77,921.79a1.816,1.816,0,0,0-1.545-.162c-.7.348-1.261.222-1.243,1.006s-.115,2.746.822,3.349.717-1.009,1.194-1.564S442.282,922.03,441.77,921.79Z" transform="translate(-438.982 -921.507)" fill="#4f3c22"/>
          </g>
          <g id="Group_2894" data-name="Group 2894" transform="translate(16.984 13.998)">
            <path id="Path_1430" data-name="Path 1430" d="M451.239,994.935s.153,2.272,1.287,2.45,3.878,1.352,3.382,1.995-1.3-.018-2.11-.029a13.133,13.133,0,0,1-5.152-.454,3.321,3.321,0,0,0-2.7.594Z" transform="translate(-445.945 -994.935)" fill="#d3c2a4"/>
          </g>
          <g id="Group_2895" data-name="Group 2895" transform="translate(0 6.904)">
            <path id="Path_1431" data-name="Path 1431" d="M343.148,956.6a2.34,2.34,0,0,1-1.823-2.237,2.823,2.823,0,0,1,2.835-3.131c1.748.032,1.716,1.615,1.353,1.848s-2.5.49-2.188,2.41C343.567,956.315,343.148,956.6,343.148,956.6Z" transform="translate(-341.322 -951.237)" fill="#bcac98"/>
          </g>
        </g>
        <g id="Group_2911" data-name="Group 2911" transform="translate(49.483)">
          <g id="Group_2897" data-name="Group 2897" transform="translate(20.836 26.626)">
            <path id="Path_1432" data-name="Path 1432" d="M774.485,386.165l2.191,1.962,9.505,3.11.71-1.681-7.408-5.135Z" transform="translate(-774.485 -384.421)" fill="#eacdb0"/>
          </g>
          <g id="Group_2898" data-name="Group 2898" transform="translate(18.181 28.379)">
            <path id="Path_1433" data-name="Path 1433" d="M758.132,398.428l1.028,2.293,8.581,5.3,1.276-1.183-6.18-6.113-1.247-3.253-2.406-.254Z" transform="translate(-758.132 -395.215)" fill="#eacdb0"/>
          </g>
          <g id="Group_2899" data-name="Group 2899" transform="translate(9.044 9.344)">
            <path id="Path_1434" data-name="Path 1434" d="M704.68,278.877a3.607,3.607,0,0,1,2.357-.913c1.323.059,6.576,1.178,9.3,3.6s6.495,4.974,4.127,12.47c-1.481,3.469-3.952,1.414-5.987,3.444s-2.914,4.554-6.01,1.322-2-6.011-4.717-10.464S701.133,280.71,704.68,278.877Z" transform="translate(-701.848 -277.961)" fill="#c2969c"/>
          </g>
          <g id="Group_2900" data-name="Group 2900" transform="translate(12.775 3.127)">
            <path id="Path_1435" data-name="Path 1435" d="M724.828,246.209l5.825-3.379,3.7-3.164,1.525,1.43-2.6,3.97-4.075,3.147Z" transform="translate(-724.828 -239.666)" fill="#c2969c"/>
          </g>
          <g id="Group_2901" data-name="Group 2901" transform="translate(3.023 13.781)">
            <path id="Path_1436" data-name="Path 1436" d="M670.165,305.294l-1.8,4.611-3.61,2.028.585,1.317,4.434-1.012,2.613-2.607Z" transform="translate(-664.761 -305.294)" fill="#c2969c"/>
          </g>
          <g id="Group_2905" data-name="Group 2905">
            <g id="Group_2902" data-name="Group 2902" transform="translate(0.006 5.936)">
              <path id="Path_1437" data-name="Path 1437" d="M648.629,258.019s-.474,3.456,1.883,5.167a3.387,3.387,0,0,1-3.477-1.592c-1.066-2.02-1.339-2.985.33-4.208S648.629,258.019,648.629,258.019Z" transform="translate(-646.175 -256.969)" fill="#754c3d"/>
            </g>
            <g id="Group_2903" data-name="Group 2903" transform="translate(2.031 4.685)">
              <path id="Path_1438" data-name="Path 1438" d="M659.765,255.644c-3.018-3.111.643-7.03,4.34-6.29,2.1.421,5.119,2.793,4.239,5.157.287.248.836.694.877,1.075.044.412-.734,1.065-1.029,1.328a.592.592,0,0,1-.279.165c-.135.023-.357-.113-.594-.278a3.541,3.541,0,0,1-.639.61,4.12,4.12,0,0,1-3.73.432A8.269,8.269,0,0,1,659.765,255.644Z" transform="translate(-658.649 -249.263)" fill="#eacdb0"/>
            </g>
            <g id="Group_2904" data-name="Group 2904">
              <path id="Path_1439" data-name="Path 1439" d="M649,228.651c2.174-.092,3.819-1.818,5.911-1.887,0,0,1.369-.044,3,1.706a3.919,3.919,0,0,0,.572-4.271c-1.151-2.462-6.5-3.795-6.5-3.795a8.95,8.95,0,0,0-5.429,4.325c-.633,1.193-.668,2.737.648,3.507A3.211,3.211,0,0,0,649,228.651Z" transform="translate(-646.137 -220.404)" fill="#754c3d"/>
            </g>
          </g>
          <g id="Group_2906" data-name="Group 2906" transform="translate(8.428 9.26)">
            <path id="Path_1440" data-name="Path 1440" d="M702.474,277.85s1.837,1.217,1.261,2.251a8.467,8.467,0,0,1-3.3,2.8c-.837.114-1.628-1.422-1.628-1.422l-.752.484s3.487,8.327,6.509,6.722,5.948-4.425,4.457-6.61-5.726-4.633-5.726-4.633Z" transform="translate(-698.053 -277.444)" fill="#f2d263"/>
          </g>
          <g id="Group_2907" data-name="Group 2907" transform="translate(32.303 31.67)">
            <path id="Path_1441" data-name="Path 1441" d="M845.119,417.363l.651,1.814.8-.272.359-2.728-1.019-.689Z" transform="translate(-845.119 -415.488)" fill="#3a3029"/>
          </g>
          <g id="Group_2908" data-name="Group 2908" transform="translate(26.78 37.733)">
            <path id="Path_1442" data-name="Path 1442" d="M813.118,452.838l-1.517,1.1-.5,1.259.859.637,1.857-2.416Z" transform="translate(-811.1 -452.838)" fill="#3a3029"/>
          </g>
          <g id="Group_2909" data-name="Group 2909" transform="translate(22.461 1.142)">
            <path id="Path_1443" data-name="Path 1443" d="M784.5,229.579l1.135-2.139.443.247-.019,2.118.46-.131-.017.378-.866.593Z" transform="translate(-784.497 -227.44)" fill="#eacdb0"/>
          </g>
          <g id="Group_2910" data-name="Group 2910" transform="translate(1.425 20.537)">
            <path id="Path_1444" data-name="Path 1444" d="M656.6,346.948l-.964-.037-.724.951.491.854,1.05.2.6-.849Z" transform="translate(-654.916 -346.91)" fill="#eacdb0"/>
          </g>
        </g>
        <g id="Group_2915" data-name="Group 2915" transform="translate(42.905 37.859)">
          <g id="Group_2912" data-name="Group 2912">
            <path id="Path_1445" data-name="Path 1445" d="M635.708,453.837c-4.119.744-8.564,4.4-8.782,8.379-2.2-3.323-8.983-3.894-12.913-2.453-10.371,3.8-10.552,17.359-3.753,24.6a49.675,49.675,0,0,0,12.993,9.477c3.994,2.131,13.925,6.254,13.944,6.225.031.015,6.515-8.563,8.884-12.42A49.674,49.674,0,0,0,652.5,472.9C654.707,463.215,646.578,451.874,635.708,453.837Z" transform="translate(-605.613 -453.614)" fill="#b22759"/>
          </g>
          <g id="Group_2913" data-name="Group 2913" transform="translate(23.192 14.264)" opacity="0.12" style="mix-blend-mode: multiply;isolation: isolate">
            <path id="Path_1446" data-name="Path 1446" d="M770.394,548.129a61.684,61.684,0,0,1-6.509,11.777c-2.5,3.521-5.643,6.851-9.584,8.748a14.221,14.221,0,0,1-5.828,1.439c4.141,1.858,8.593,3.7,8.606,3.68.031.015,6.515-8.562,8.884-12.42a49.681,49.681,0,0,0,6.419-14.745,15.088,15.088,0,0,0,.252-5.131A46.181,46.181,0,0,1,770.394,548.129Z" transform="translate(-748.473 -541.478)"/>
          </g>
          <g id="Group_2914" data-name="Group 2914" transform="translate(5.833 8.775)">
            <path id="Path_1447" data-name="Path 1447" d="M679.678,516.278l-8.282,2.489-6.177-10.817a.593.593,0,0,0-1.095.3q-.482,11-.963,22.008-.028.637-.056,1.275l-8.011-12.142-1.285-1.947a.6.6,0,0,0-1.075.146l-1.435,7.345-9.337,2.534a.589.589,0,0,0,.308,1.136l9.688-2.629a.582.582,0,0,0,.414-.414l1.23-6.294,8.218,12.457,1.285,1.947a.594.594,0,0,0,1.1-.3l.963-22.008.046-1.053,5.4,9.455a.6.6,0,0,0,.661.268l8.715-2.619C680.71,517.2,680.4,516.06,679.678,516.278Z" transform="translate(-641.546 -507.667)" fill="#fff"/>
          </g>
        </g>
        <g id="Group_2930" data-name="Group 2930" transform="translate(69.973 69.182)">
          <g id="Group_2927" data-name="Group 2927" transform="translate(2.446)">
            <g id="Group_2916" data-name="Group 2916" transform="translate(4.016 40.684)">
              <path id="Path_1448" data-name="Path 1448" d="M812.155,898.37v18.091h2.731l1.707-10.923,1.536-8.363Z" transform="translate(-812.155 -897.176)" fill="#2e4661"/>
            </g>
            <g id="Group_2917" data-name="Group 2917" transform="translate(9.989 40.001)">
              <path id="Path_1449" data-name="Path 1449" d="M848.951,892.971l1.024,7.851,1.365,12.629,2.731-.171v-9.728l1.365-9.9Z" transform="translate(-848.951 -892.971)" fill="#2e4661"/>
            </g>
            <g id="Group_2918" data-name="Group 2918" transform="translate(0 13.615)">
              <path id="Path_1450" data-name="Path 1450" d="M796.129,730.451s-2.9-.512-4.1,3.925-4.437,17.408-4.608,24.235,4.267,2.389,9.557,3.242,9.643.939,9.643-2.133S808.5,730.536,796.129,730.451Z" transform="translate(-787.42 -730.433)" fill="#b26650"/>
            </g>
            <g id="Group_2922" data-name="Group 2922" transform="translate(5.099)">
              <g id="Group_2920" data-name="Group 2920" transform="translate(0.567 2.672)">
                <g id="Group_2919" data-name="Group 2919">
                  <path id="Path_1451" data-name="Path 1451" d="M823.7,665.166c2.416-4.262,7.831-1.535,8.2,2.711.211,2.414-1.4,6.44-4.248,6.236-.177.39-.488,1.128-.888,1.292-.433.178-1.388-.458-1.767-.694a.671.671,0,0,1-.268-.25,1.256,1.256,0,0,1,.113-.733,4,4,0,0,1-.864-.5,4.657,4.657,0,0,1-1.652-3.909A9.346,9.346,0,0,1,823.7,665.166Z" transform="translate(-822.323 -663.025)" fill="#eacdb0"/>
                </g>
              </g>
              <g id="Group_2921" data-name="Group 2921">
                <path id="Path_1452" data-name="Path 1452" d="M824.149,650.271s3.867.967,3.867,2.578c0,2.422.161,4.047,0,5.488l2.739-1.621,1.611-4.511s-.322-3.706-2.255-4.35a52.585,52.585,0,0,0-5.961-1.289l-3.061.967-2.256-.161.78,6.767S820.6,649.3,824.149,650.271Z" transform="translate(-818.832 -646.565)" fill="#754c3d"/>
              </g>
            </g>
            <g id="Group_2923" data-name="Group 2923" transform="translate(11.696 14.23)">
              <path id="Path_1453" data-name="Path 1453" d="M859.464,734.224l4.779,1.707,4.267,10.582,3.413,7.68-1.877,1.195-5.461-7.68Z" transform="translate(-859.464 -734.224)" fill="#b26650"/>
            </g>
            <g id="Group_2924" data-name="Group 2924" transform="translate(22.277 34.198)">
              <path id="Path_1454" data-name="Path 1454" d="M924.644,858.421l1.195,1.707.683-.683h2.048l-2.048-2.219Z" transform="translate(-924.644 -857.227)" fill="#eacdb0"/>
            </g>
            <g id="Group_2925" data-name="Group 2925" transform="translate(2.48 59.969)">
              <path id="Path_1455" data-name="Path 1455" d="M804.229,1015.974l-1.536,1.536.683,1.024,3.072-1.024v-1.536Z" transform="translate(-802.693 -1015.974)" fill="#8c9498"/>
            </g>
            <g id="Group_2926" data-name="Group 2926" transform="translate(12.833 60.335)">
              <path id="Path_1456" data-name="Path 1456" d="M866.473,1018.346l.569,2.247,1.877.683,1.024-.512-1.59-2.535Z" transform="translate(-866.473 -1018.229)" fill="#8c9498"/>
            </g>
          </g>
          <g id="Group_2928" data-name="Group 2928" transform="translate(0.845 13.986)">
            <path id="Path_1457" data-name="Path 1457" d="M786.161,732.721l-2.011,1.564-4.056,9.634-2.535,6.93,1.69.845,2.366-3.211Z" transform="translate(-777.558 -732.721)" fill="#b26650"/>
          </g>
          <g id="Group_2929" data-name="Group 2929" transform="translate(0 32.114)">
            <path id="Path_1458" data-name="Path 1458" d="M774.888,845.231l-.338.845-2.2.845v-1.183l.845-1.352Z" transform="translate(-772.352 -844.386)" fill="#eacdb0"/>
          </g>
        </g>
        <g id="Group_2931" data-name="Group 2931" transform="translate(78.546 37.957)">
          <path id="Path_1459" data-name="Path 1459" d="M830.927,457.561l-.66-1.964-2.128-1.378-2.973,2.1,1.66,1.478,3.209-.808Z" transform="translate(-825.166 -454.218)" fill="#eacdb0"/>
        </g>
        <g id="Group_2932" data-name="Group 2932" transform="translate(68.209 11.053)">
          <path id="Path_1460" data-name="Path 1460" d="M761.49,292.923l.36-3.578.559-.533.722.3-.043.953.665-1,1.367-.583,1.927,1.657-1.744,3.711Z" transform="translate(-761.49 -288.488)" fill="#eacdb0"/>
        </g>
        <g id="Group_2933" data-name="Group 2933" transform="translate(34.817 13.913)">
          <path id="Path_1461" data-name="Path 1461" d="M556.477,331.621l21.118-7.767,11.662-17.747,4.057,2.2-8.451,20.113L563.318,340.2l-7.527-4.517Z" transform="translate(-555.792 -306.107)" fill="#aeccdc"/>
        </g>
        <g id="Group_2936" data-name="Group 2936" transform="translate(87.652 39.435)">
          <g id="Group_2934" data-name="Group 2934" transform="translate(2.868)">
            <path id="Path_1462" data-name="Path 1462" d="M917.08,467.885l-3.549,19.944-12.339,9.8-2.271-2.58,9.539-11.11,1.69-15.043,3.211-5.578Z" transform="translate(-898.922 -463.322)" fill="#94baab"/>
          </g>
          <g id="Group_2935" data-name="Group 2935" transform="translate(0 31.776)">
            <path id="Path_1463" data-name="Path 1463" d="M884.2,659.06l-2.873,2.535-.068,2.645,1.082.4,1.859-1.183,1.564-2.579Z" transform="translate(-881.255 -659.06)" fill="#eacdb0"/>
          </g>
        </g>
        <g id="Group_2941" data-name="Group 2941" transform="translate(93.877 20.681)">
          <g id="Group_2937" data-name="Group 2937" transform="translate(0 2.637)">
            <path id="Path_1464" data-name="Path 1464" d="M924.017,364.042s-2.1.993-2.581,6.445a33.354,33.354,0,0,1-1.832,8.775,3.855,3.855,0,0,0,3.117.774c1.516-.494,2.049-.536,2.087-2.791s1.58-12.669,1.58-12.669Z" transform="translate(-919.604 -364.042)" fill="#9e6652"/>
          </g>
          <g id="Group_2938" data-name="Group 2938" transform="translate(2.64 1.679)">
            <path id="Path_1465" data-name="Path 1465" d="M941.522,361.943a5.474,5.474,0,0,0-4.885,3.511,4.824,4.824,0,0,1,2.909-7.317,5.578,5.578,0,0,1,1.819,3.8Z" transform="translate(-935.867 -358.137)" fill="#9e6652"/>
          </g>
          <g id="Group_2939" data-name="Group 2939" transform="translate(2.389 4.318)">
            <path id="Path_1466" data-name="Path 1466" d="M935.511,377.23c2.382-5.189,8.939-2.561,9.792,2.332.485,2.782-.991,7.618-4.313,7.663-.167.47-.454,1.358-.9,1.589-.485.25-1.658-.394-2.121-.63a.782.782,0,0,1-.335-.264,1.465,1.465,0,0,1,.058-.862,4.652,4.652,0,0,1-1.053-.494,5.426,5.426,0,0,1-2.307-4.375A10.891,10.891,0,0,1,935.511,377.23Z" transform="translate(-934.323 -374.396)" fill="#eacdb0"/>
          </g>
          <g id="Group_2940" data-name="Group 2940" transform="translate(6.187)">
            <path id="Path_1467" data-name="Path 1467" d="M957.982,349.493s-1.39,2.79,2.179,4.547,5.286,5.319,3.86,8.274-4.784,4.559-3.512,5.746,6.889,1.712,6.889,1.712,6.011-10.175,2.764-16.033S960.559,346.127,957.982,349.493Z" transform="translate(-957.715 -347.795)" fill="#9e6652"/>
          </g>
        </g>
      </g>
    </g>
  </g>
</svg>
