<svg xmlns="http://www.w3.org/2000/svg" width="208.465" height="203.243" viewBox="0 0 208.465 203.243">
  <g id="Group_2005" data-name="Group 2005" transform="translate(-35.969 -48.929)">
    <g id="Background_Complete" data-name="Background Complete" transform="translate(39.408 48.929)">
      <g id="Group_1908" data-name="Group 1908" transform="translate(11.575)">
        <path id="Path_892" data-name="Path 892" d="M79.051,183.7H72.939v-6.593H66.346V171h6.593V164.4h6.111V171h6.594v6.112H79.051Zm-5.242-.87h4.372v-6.593h6.594v-4.372H78.181v-6.594H73.809v6.594H67.216v4.372h6.593Z" transform="translate(-66.346 -108.306)" fill="#ebebeb"/>
        <path id="Path_893" data-name="Path 893" d="M415.321,113h-4.146v-4.474H406.7v-4.147h4.473V99.9h4.146v4.473H419.8v4.147h-4.474Zm-3.556-.59h2.966v-4.473H419.2v-2.967h-4.474v-4.474h-2.966v4.474h-4.474v2.967h4.474Z" transform="translate(-241.358 -75.14)" fill="#ebebeb"/>
        <path id="Path_894" data-name="Path 894" d="M388.235,55.52v6.114h-6.595v6.6h-6.109v-6.6h-6.595V55.52h6.595v-6.59h6.109v6.59Z" transform="translate(-221.939 -48.929)" fill="#ebebeb"/>
      </g>
      <g id="Group_1920" data-name="Group 1920" transform="translate(0 87.787)">
        <g id="Group_1914" data-name="Group 1914" transform="translate(137.138 18.849)">
          <rect id="Rectangle_109" data-name="Rectangle 109" width="34.305" height="51.462" transform="translate(59.042 65.279) rotate(180)" fill="#ebebeb"/>
          <rect id="Rectangle_110" data-name="Rectangle 110" width="42.592" height="13.818" transform="translate(63.186 13.818) rotate(180)" fill="#dbdbdb"/>
          <g id="Group_1909" data-name="Group 1909" transform="translate(22.224 1.886)">
            <path id="Rectangle_111" data-name="Rectangle 111" d="M.556,0h.1a.555.555,0,0,1,.555.555V9.238a.555.555,0,0,1-.555.555h-.1A.555.555,0,0,1,0,9.238V.556A.556.556,0,0,1,.556,0Z" transform="translate(39.331 9.792) rotate(180)" fill="#c7c7c7"/>
            <path id="Rectangle_112" data-name="Rectangle 112" d="M.556,0h.1a.555.555,0,0,1,.555.555V9.238a.555.555,0,0,1-.555.555h-.1A.556.556,0,0,1,0,9.237V.556A.556.556,0,0,1,.556,0Z" transform="translate(37.089 9.792) rotate(180)" fill="#c7c7c7"/>
            <path id="Rectangle_113" data-name="Rectangle 113" d="M.556,0h.1a.555.555,0,0,1,.555.555V9.238a.555.555,0,0,1-.555.555h-.1A.556.556,0,0,1,0,9.237V.556A.556.556,0,0,1,.556,0Z" transform="translate(34.846 9.792) rotate(180)" fill="#c7c7c7"/>
            <path id="Rectangle_114" data-name="Rectangle 114" d="M.556,0h.1a.555.555,0,0,1,.555.555V9.238a.555.555,0,0,1-.555.555h-.1A.556.556,0,0,1,0,9.237V.556A.556.556,0,0,1,.556,0Z" transform="translate(32.604 9.792) rotate(180)" fill="#c7c7c7"/>
            <path id="Rectangle_115" data-name="Rectangle 115" d="M.556,0h.1a.556.556,0,0,1,.556.556V9.238a.555.555,0,0,1-.555.555h-.1A.556.556,0,0,1,0,9.237V.556A.556.556,0,0,1,.556,0Z" transform="translate(30.361 9.792) rotate(180)" fill="#c7c7c7"/>
            <path id="Rectangle_116" data-name="Rectangle 116" d="M.556,0h.1a.556.556,0,0,1,.556.556V9.238a.555.555,0,0,1-.555.555h-.1A.555.555,0,0,1,0,9.238V.556A.556.556,0,0,1,.556,0Z" transform="translate(28.119 9.792) rotate(180)" fill="#c7c7c7"/>
            <path id="Rectangle_117" data-name="Rectangle 117" d="M.556,0h.1a.556.556,0,0,1,.556.556V9.238a.555.555,0,0,1-.555.555h-.1A.555.555,0,0,1,0,9.238V.556A.556.556,0,0,1,.556,0Z" transform="translate(25.876 9.792) rotate(180)" fill="#c7c7c7"/>
            <path id="Rectangle_118" data-name="Rectangle 118" d="M.556,0h.1a.556.556,0,0,1,.556.556V9.238a.555.555,0,0,1-.555.555h-.1A.555.555,0,0,1,0,9.238V.556A.556.556,0,0,1,.556,0Z" transform="translate(23.634 9.792) rotate(180)" fill="#c7c7c7"/>
            <path id="Rectangle_119" data-name="Rectangle 119" d="M.556,0h.1a.556.556,0,0,1,.556.556V9.238a.555.555,0,0,1-.555.555h-.1A.555.555,0,0,1,0,9.238V.556A.556.556,0,0,1,.556,0Z" transform="translate(21.391 9.792) rotate(180)" fill="#c7c7c7"/>
            <path id="Rectangle_120" data-name="Rectangle 120" d="M.556,0h.1a.555.555,0,0,1,.555.555V9.238a.555.555,0,0,1-.555.555h-.1A.555.555,0,0,1,0,9.238V.556A.556.556,0,0,1,.556,0Z" transform="translate(19.148 9.792) rotate(180)" fill="#c7c7c7"/>
            <path id="Rectangle_121" data-name="Rectangle 121" d="M.556,0h.1a.555.555,0,0,1,.555.555V9.238a.555.555,0,0,1-.555.555h-.1A.556.556,0,0,1,0,9.237V.556A.556.556,0,0,1,.556,0Z" transform="translate(16.906 9.792) rotate(180)" fill="#c7c7c7"/>
            <path id="Rectangle_122" data-name="Rectangle 122" d="M.556,0h.1a.555.555,0,0,1,.555.555V9.238a.555.555,0,0,1-.555.555h-.1A.556.556,0,0,1,0,9.237V.556A.556.556,0,0,1,.556,0Z" transform="translate(14.663 9.792) rotate(180)" fill="#c7c7c7"/>
            <path id="Rectangle_123" data-name="Rectangle 123" d="M.556,0h.1a.555.555,0,0,1,.555.555V9.238a.555.555,0,0,1-.555.555h-.1A.556.556,0,0,1,0,9.237V.556A.556.556,0,0,1,.556,0Z" transform="translate(12.421 9.792) rotate(180)" fill="#c7c7c7"/>
            <path id="Rectangle_124" data-name="Rectangle 124" d="M.556,0h.1a.555.555,0,0,1,.555.555V9.238a.555.555,0,0,1-.555.555h-.1A.556.556,0,0,1,0,9.237V.556A.556.556,0,0,1,.556,0Z" transform="translate(10.178 9.792) rotate(180)" fill="#c7c7c7"/>
            <path id="Rectangle_125" data-name="Rectangle 125" d="M.556,0h.1a.556.556,0,0,1,.556.556V9.238a.555.555,0,0,1-.555.555h-.1A.556.556,0,0,1,0,9.237V.556A.556.556,0,0,1,.556,0Z" transform="translate(7.935 9.792) rotate(180)" fill="#c7c7c7"/>
            <path id="Rectangle_126" data-name="Rectangle 126" d="M.556,0h.1a.555.555,0,0,1,.555.555V9.238a.555.555,0,0,1-.555.555h-.1A.556.556,0,0,1,0,9.237V.556A.556.556,0,0,1,.556,0Z" transform="translate(5.693 9.792) rotate(180)" fill="#c7c7c7"/>
            <path id="Rectangle_127" data-name="Rectangle 127" d="M.556,0h.1a.555.555,0,0,1,.555.555V9.238a.555.555,0,0,1-.555.555h-.1A.556.556,0,0,1,0,9.237V.556A.556.556,0,0,1,.556,0Z" transform="translate(3.45 9.792) rotate(180)" fill="#c7c7c7"/>
            <path id="Rectangle_128" data-name="Rectangle 128" d="M.556,0h.1a.556.556,0,0,1,.556.556V9.238a.555.555,0,0,1-.555.555h-.1A.556.556,0,0,1,0,9.237V.556A.556.556,0,0,1,.556,0Z" transform="translate(1.208 9.792) rotate(180)" fill="#c7c7c7"/>
          </g>
          <rect id="Rectangle_129" data-name="Rectangle 129" width="22.84" height="22.84" transform="translate(53.31 51.467) rotate(180)" fill="#fff"/>
          <g id="Group_1910" data-name="Group 1910" transform="translate(47.253 66.681)">
            <path id="Path_895" data-name="Path 895" d="M439.279,410.019v-.012a4.315,4.315,0,0,0-4.321-4.309H426.4a4.315,4.315,0,0,0-4.321,4.309v.012a4.325,4.325,0,0,0,4.321,4.321h8.555A4.325,4.325,0,0,0,439.279,410.019Z" transform="translate(-422.082 -405.698)" fill="#dbdbdb"/>
            <path id="Path_896" data-name="Path 896" d="M448.373,410.019v-.012a4.315,4.315,0,0,0-4.321-4.309h-4.284v8.641h4.284A4.325,4.325,0,0,0,448.373,410.019Z" transform="translate(-431.177 -405.698)" fill="#ebebeb"/>
          </g>
          <g id="Group_1911" data-name="Group 1911" transform="translate(10.971 59.778)">
            <path id="Path_897" data-name="Path 897" d="M347.4,395.81v.012a4.315,4.315,0,0,0,4.321,4.309h8.555a4.315,4.315,0,0,0,4.321-4.309v-.012a4.326,4.326,0,0,0-4.321-4.321h-8.555A4.326,4.326,0,0,0,347.4,395.81Z" transform="translate(-347.397 -391.489)" fill="#dbdbdb"/>
            <path id="Path_898" data-name="Path 898" d="M347.4,395.81v.012a4.315,4.315,0,0,0,4.321,4.309H356v-8.642h-4.284A4.326,4.326,0,0,0,347.4,395.81Z" transform="translate(-347.397 -391.489)" fill="#ebebeb"/>
          </g>
          <g id="Group_1912" data-name="Group 1912" transform="translate(0 52.434)">
            <path id="Path_899" data-name="Path 899" d="M326.077,389.8l.009.009a4.314,4.314,0,0,0,6.1-.009l6.05-6.05a4.315,4.315,0,0,0,.009-6.1l-.009-.008a4.324,4.324,0,0,0-6.11,0l-6.05,6.05A4.325,4.325,0,0,0,326.077,389.8Z" transform="translate(-324.813 -376.372)" fill="#dbdbdb"/>
            <path id="Path_900" data-name="Path 900" d="M326.077,394.33l.009.009a4.314,4.314,0,0,0,6.1-.009l3.029-3.029-6.111-6.111-3.029,3.03A4.325,4.325,0,0,0,326.077,394.33Z" transform="translate(-324.813 -380.906)" fill="#ebebeb"/>
          </g>
          <g id="Group_1913" data-name="Group 1913" transform="translate(23.197 68.42)">
            <path id="Path_901" data-name="Path 901" d="M389.762,413.6v-.013a4.315,4.315,0,0,0-4.322-4.309h-8.555a4.315,4.315,0,0,0-4.321,4.309v.013a4.325,4.325,0,0,0,4.321,4.321h8.555A4.326,4.326,0,0,0,389.762,413.6Z" transform="translate(-372.564 -409.278)" fill="#dbdbdb"/>
            <path id="Path_902" data-name="Path 902" d="M398.856,413.6v-.013a4.315,4.315,0,0,0-4.322-4.309h-4.284v8.642h4.284A4.326,4.326,0,0,0,398.856,413.6Z" transform="translate(-381.659 -409.278)" fill="#ebebeb"/>
          </g>
        </g>
        <g id="Group_1919" data-name="Group 1919" transform="translate(0 0)">
          <path id="Rectangle_130" data-name="Rectangle 130" d="M3.174,0h33.5a3.174,3.174,0,0,1,3.174,3.174V59.416a8.475,8.475,0,0,1-8.475,8.475H8.476A8.476,8.476,0,0,1,0,59.415V3.174A3.174,3.174,0,0,1,3.174,0Z" transform="translate(39.852 83.91) rotate(180)" fill="#ebebeb"/>
          <rect id="Rectangle_131" data-name="Rectangle 131" width="23.074" height="10.573" transform="translate(31.463 17.976) rotate(180)" fill="#ebebeb"/>
          <g id="Group_1916" data-name="Group 1916" transform="translate(0 38.134)">
            <rect id="Rectangle_132" data-name="Rectangle 132" width="39.852" height="26.869" transform="translate(39.852 26.869) rotate(180)" fill="#fff"/>
            <g id="Group_1915" data-name="Group 1915" transform="translate(0 3.063)">
              <rect id="Rectangle_133" data-name="Rectangle 133" width="39.852" height="2.432" transform="translate(39.852 20.743) rotate(180)" fill="#dbdbdb"/>
              <rect id="Rectangle_134" data-name="Rectangle 134" width="39.852" height="2.432" transform="translate(39.852 2.432) rotate(180)" fill="#dbdbdb"/>
            </g>
          </g>
          <g id="Group_1918" data-name="Group 1918" transform="translate(5.402)">
            <rect id="Rectangle_135" data-name="Rectangle 135" width="26.29" height="9.79" transform="translate(27.669 9.79) rotate(180)" fill="#dbdbdb"/>
            <rect id="Rectangle_136" data-name="Rectangle 136" width="29.048" height="2.899" transform="translate(29.048 12.69) rotate(180)" fill="#c7c7c7"/>
            <g id="Group_1917" data-name="Group 1917" transform="translate(2.707 1.367)">
              <rect id="Rectangle_137" data-name="Rectangle 137" width="1.208" height="7.056" rx="0.555" transform="translate(23.633 7.056) rotate(180)" fill="#c7c7c7"/>
              <rect id="Rectangle_138" data-name="Rectangle 138" width="1.208" height="7.056" rx="0.555" transform="translate(21.391 7.056) rotate(180)" fill="#c7c7c7"/>
              <rect id="Rectangle_139" data-name="Rectangle 139" width="1.208" height="7.056" rx="0.555" transform="translate(19.148 7.056) rotate(180)" fill="#c7c7c7"/>
              <rect id="Rectangle_140" data-name="Rectangle 140" width="1.208" height="7.056" rx="0.555" transform="translate(16.906 7.056) rotate(180)" fill="#c7c7c7"/>
              <rect id="Rectangle_141" data-name="Rectangle 141" width="1.208" height="7.056" rx="0.555" transform="translate(14.663 7.056) rotate(180)" fill="#c7c7c7"/>
              <rect id="Rectangle_142" data-name="Rectangle 142" width="1.208" height="7.056" rx="0.555" transform="translate(12.421 7.056) rotate(180)" fill="#c7c7c7"/>
              <rect id="Rectangle_143" data-name="Rectangle 143" width="1.208" height="7.056" rx="0.555" transform="translate(10.178 7.056) rotate(180)" fill="#c7c7c7"/>
              <rect id="Rectangle_144" data-name="Rectangle 144" width="1.208" height="7.056" rx="0.555" transform="translate(7.935 7.056) rotate(180)" fill="#c7c7c7"/>
              <rect id="Rectangle_145" data-name="Rectangle 145" width="1.208" height="7.056" rx="0.555" transform="translate(5.693 7.056) rotate(180)" fill="#c7c7c7"/>
              <rect id="Rectangle_146" data-name="Rectangle 146" width="1.208" height="7.056" rx="0.555" transform="translate(3.45 7.056) rotate(180)" fill="#c7c7c7"/>
              <rect id="Rectangle_147" data-name="Rectangle 147" width="1.208" height="7.056" rx="0.555" transform="translate(1.208 7.056) rotate(180)" fill="#c7c7c7"/>
            </g>
          </g>
        </g>
      </g>
    </g>
    <g id="Shadow" transform="translate(41.584 233.048)">
      <g id="Group_1921" data-name="Group 1921">
        <ellipse id="Ellipse_15" data-name="Ellipse 15" cx="98.617" cy="9.562" rx="98.617" ry="9.562" fill="#ebebeb"/>
      </g>
    </g>
    <g id="Floor" transform="translate(36.469 220.682)">
      <line id="Line_11" data-name="Line 11" x2="207.465" transform="translate(0)" fill="none" stroke="#263238" stroke-linecap="round" stroke-linejoin="round" stroke-width="1"/>
    </g>
    <g id="Insurance" transform="translate(73.37 53.303)">
      <g id="Group_1944" data-name="Group 1944" transform="translate(0 0)">
        <g id="Group_1926" data-name="Group 1926" transform="translate(0 12.56)">
          <g id="Group_1924" data-name="Group 1924">
            <g id="Group_1922" data-name="Group 1922">
              <rect id="Rectangle_148" data-name="Rectangle 148" width="130.126" height="172.842" fill="#ffc727"/>
            </g>
            <g id="Group_1923" data-name="Group 1923" opacity="0.1">
              <rect id="Rectangle_149" data-name="Rectangle 149" width="130.126" height="172.842"/>
            </g>
          </g>
          <g id="Group_1925" data-name="Group 1925" transform="translate(3.537)">
            <rect id="Rectangle_150" data-name="Rectangle 150" width="130.126" height="172.842" fill="#ffc727"/>
          </g>
        </g>
        <g id="Group_1942" data-name="Group 1942" transform="translate(7.728 18.965)">
          <g id="Group_1927" data-name="Group 1927" transform="translate(2.449 0.496)">
            <rect id="Rectangle_151" data-name="Rectangle 151" width="114.875" height="155.72" transform="translate(0 1.462) rotate(-0.729)" fill="#ebebeb"/>
          </g>
          <g id="Group_1928" data-name="Group 1928">
            <rect id="Rectangle_152" data-name="Rectangle 152" width="155.721" height="114.875" transform="translate(0 155.684) rotate(-88.764)" fill="#dbdbdb"/>
          </g>
          <g id="Group_1929" data-name="Group 1929" transform="translate(1.666 1.221)">
            <rect id="Rectangle_153" data-name="Rectangle 153" width="114.875" height="155.721" fill="#fff"/>
          </g>
          <g id="Group_1936" data-name="Group 1936" transform="translate(14.783 89.104)">
            <g id="Group_1931" data-name="Group 1931">
              <rect id="Rectangle_154" data-name="Rectangle 154" width="9.754" height="9.754" transform="translate(0 1.814)" fill="#ebebeb"/>
              <g id="Group_1930" data-name="Group 1930" transform="translate(15.021 1.814)">
                <rect id="Rectangle_155" data-name="Rectangle 155" width="31.603" height="1.429" fill="#455a64"/>
                <rect id="Rectangle_156" data-name="Rectangle 156" width="73.62" height="1.43" transform="translate(0 2.775)" fill="#ebebeb"/>
                <rect id="Rectangle_157" data-name="Rectangle 157" width="73.62" height="1.43" transform="translate(0 5.55)" fill="#ebebeb"/>
                <rect id="Rectangle_158" data-name="Rectangle 158" width="73.62" height="1.43" transform="translate(0 8.325)" fill="#ebebeb"/>
              </g>
              <path id="Path_903" data-name="Path 903" d="M160.248,286.576c.359.3.7.613,1.042.929s.666.642,1,.963c.656.649,1.289,1.317,1.913,1.993l-1.119.071a44.2,44.2,0,0,1,3.037-5.327c.565-.852,1.164-1.685,1.8-2.492a23.076,23.076,0,0,1,2.082-2.324,23.183,23.183,0,0,1-1.087,2.924c-.417.942-.875,1.859-1.366,2.756a44.415,44.415,0,0,1-3.3,5.168l-.612.819-.507-.748c-.516-.761-1.023-1.529-1.506-2.316-.236-.4-.483-.788-.711-1.192S160.458,286.994,160.248,286.576Z" transform="translate(-159.529 -280.39)" fill="#ffc727"/>
            </g>
            <g id="Group_1933" data-name="Group 1933" transform="translate(0 17.953)">
              <rect id="Rectangle_159" data-name="Rectangle 159" width="9.754" height="9.754" fill="#ebebeb"/>
              <g id="Group_1932" data-name="Group 1932" transform="translate(15.021)">
                <rect id="Rectangle_160" data-name="Rectangle 160" width="31.603" height="1.429" fill="#455a64"/>
                <rect id="Rectangle_161" data-name="Rectangle 161" width="73.62" height="1.429" transform="translate(0 2.775)" fill="#ebebeb"/>
                <rect id="Rectangle_162" data-name="Rectangle 162" width="73.62" height="1.429" transform="translate(0 5.55)" fill="#ebebeb"/>
                <rect id="Rectangle_163" data-name="Rectangle 163" width="73.62" height="1.429" transform="translate(0 8.324)" fill="#ebebeb"/>
              </g>
            </g>
            <g id="Group_1935" data-name="Group 1935" transform="translate(0 34.093)">
              <rect id="Rectangle_164" data-name="Rectangle 164" width="9.754" height="9.754" fill="#ebebeb"/>
              <g id="Group_1934" data-name="Group 1934" transform="translate(15.021)">
                <rect id="Rectangle_165" data-name="Rectangle 165" width="31.603" height="1.429" fill="#455a64"/>
                <rect id="Rectangle_166" data-name="Rectangle 166" width="73.62" height="1.429" transform="translate(0 2.775)" fill="#ebebeb"/>
                <rect id="Rectangle_167" data-name="Rectangle 167" width="73.62" height="1.429" transform="translate(0 5.55)" fill="#ebebeb"/>
                <rect id="Rectangle_168" data-name="Rectangle 168" width="73.62" height="1.429" transform="translate(0 8.325)" fill="#ebebeb"/>
              </g>
            </g>
            <rect id="Rectangle_169" data-name="Rectangle 169" width="49.331" height="1.429" transform="translate(39.311 53.293)" fill="#ebebeb"/>
          </g>
          <g id="Group_1937" data-name="Group 1937" transform="translate(45.35 40.326)">
            <rect id="Rectangle_170" data-name="Rectangle 170" width="26.745" height="1.43" fill="#455a64"/>
            <rect id="Rectangle_171" data-name="Rectangle 171" width="58.075" height="1.43" transform="translate(0 2.775)" fill="#ebebeb"/>
            <rect id="Rectangle_172" data-name="Rectangle 172" width="58.075" height="1.43" transform="translate(0 5.55)" fill="#ebebeb"/>
            <rect id="Rectangle_173" data-name="Rectangle 173" width="58.075" height="1.429" transform="translate(0 11.099)" fill="#ebebeb"/>
            <rect id="Rectangle_174" data-name="Rectangle 174" width="25.255" height="1.429" transform="translate(0 13.874)" fill="#ebebeb"/>
          </g>
          <g id="Group_1939" data-name="Group 1939" transform="translate(14.783 16.121)">
            <rect id="Rectangle_175" data-name="Rectangle 175" width="88.641" height="13.578" fill="#ffc727"/>
            <g id="Group_1938" data-name="Group 1938" transform="translate(6.108 3.005)">
              <path id="Path_904" data-name="Path 904" d="M171.34,144.391v-7.933h1.542v7.933Z" transform="translate(-171.34 -136.402)" fill="#fff"/>
              <path id="Path_905" data-name="Path 905" d="M182.91,139.307v5.084h-1.541v-7.933h1.2l4.134,5.207v-5.2h1.542v7.922h-1.251Z" transform="translate(-176.497 -136.402)" fill="#fff"/>
              <path id="Path_906" data-name="Path 906" d="M206.477,138.477a1.921,1.921,0,0,0-.285-.212,3.465,3.465,0,0,0-.5-.262,4.387,4.387,0,0,0-.642-.218,2.826,2.826,0,0,0-.7-.089,1.577,1.577,0,0,0-.95.235.775.775,0,0,0-.313.659.678.678,0,0,0,.117.408,1.014,1.014,0,0,0,.341.285,2.859,2.859,0,0,0,.564.223q.34.1.788.212.58.157,1.056.335a2.87,2.87,0,0,1,.8.447,1.851,1.851,0,0,1,.509.643,2.13,2.13,0,0,1,.179.922,2.294,2.294,0,0,1-.24,1.09,2.024,2.024,0,0,1-.648.732,2.819,2.819,0,0,1-.939.408,4.719,4.719,0,0,1-1.112.128,5.972,5.972,0,0,1-1.766-.268,5.461,5.461,0,0,1-1.564-.76l.682-1.33a2.1,2.1,0,0,0,.363.263,5.561,5.561,0,0,0,.62.324,4.821,4.821,0,0,0,.794.273,3.592,3.592,0,0,0,.894.112q1.274,0,1.274-.816a.67.67,0,0,0-.146-.436,1.228,1.228,0,0,0-.413-.313,3.933,3.933,0,0,0-.648-.246q-.38-.112-.849-.246a7.173,7.173,0,0,1-.989-.341,2.582,2.582,0,0,1-.7-.435,1.633,1.633,0,0,1-.419-.581,2.01,2.01,0,0,1-.14-.788,2.471,2.471,0,0,1,.223-1.073,2.17,2.17,0,0,1,.62-.782,2.8,2.8,0,0,1,.922-.475,3.815,3.815,0,0,1,1.129-.162,4.371,4.371,0,0,1,1.542.263,5.718,5.718,0,0,1,1.229.62Z" transform="translate(-186.679 -136.343)" fill="#fff"/>
              <path id="Path_907" data-name="Path 907" d="M223.149,143.084a1.766,1.766,0,0,0,.922-.223,1.8,1.8,0,0,0,.6-.581,2.4,2.4,0,0,0,.324-.821,4.763,4.763,0,0,0,.095-.956v-4.045h1.531V140.5a5.809,5.809,0,0,1-.2,1.531,3.522,3.522,0,0,1-.615,1.251,2.943,2.943,0,0,1-1.078.849,4.122,4.122,0,0,1-3.19-.017,3.016,3.016,0,0,1-1.078-.872,3.48,3.48,0,0,1-.6-1.257,5.929,5.929,0,0,1-.185-1.486v-4.045h1.542V140.5a4.774,4.774,0,0,0,.095.966,2.4,2.4,0,0,0,.324.822,1.682,1.682,0,0,0,1.5.793Z" transform="translate(-196.199 -136.402)" fill="#fff"/>
              <path id="Path_908" data-name="Path 908" d="M240.616,144.391v-7.933h3.508a2.255,2.255,0,0,1,1.011.229,2.62,2.62,0,0,1,.8.6,2.856,2.856,0,0,1,.525.849,2.563,2.563,0,0,1,.19.956,2.64,2.64,0,0,1-.386,1.4,2.208,2.208,0,0,1-1.045.91l1.811,2.983H245.3l-1.62-2.659h-1.519v2.659Zm1.542-4.011h1.933a.815.815,0,0,0,.4-.1,1.024,1.024,0,0,0,.319-.273,1.375,1.375,0,0,0,.212-.408,1.571,1.571,0,0,0,.078-.5,1.44,1.44,0,0,0-.089-.514,1.346,1.346,0,0,0-.24-.408,1.093,1.093,0,0,0-.346-.269.908.908,0,0,0-.4-.095h-1.865Z" transform="translate(-206.962 -136.402)" fill="#fff"/>
              <path id="Path_909" data-name="Path 909" d="M260.549,136.458h1.363l3.017,7.933h-1.587l-.737-1.978h-2.771l-.726,1.978h-1.587Zm1.777,4.872-1.1-3.117-1.14,3.117Z" transform="translate(-215.655 -136.402)" fill="#fff"/>
              <path id="Path_910" data-name="Path 910" d="M279.556,139.307v5.084h-1.541v-7.933h1.2l4.134,5.207v-5.2h1.542v7.922h-1.251Z" transform="translate(-226.193 -136.402)" fill="#fff"/>
              <path id="Path_911" data-name="Path 911" d="M298.023,140.321a4.1,4.1,0,0,1,.263-1.436,3.852,3.852,0,0,1,1.995-2.173,3.8,3.8,0,0,1,1.653-.346,3.607,3.607,0,0,1,1.894.48,3.073,3.073,0,0,1,1.19,1.251l-1.185.816a2.01,2.01,0,0,0-.38-.564,1.9,1.9,0,0,0-.48-.363,2.164,2.164,0,0,0-.537-.2,2.519,2.519,0,0,0-.548-.062,2.081,2.081,0,0,0-1.011.235,2.226,2.226,0,0,0-.715.609,2.667,2.667,0,0,0-.43.849,3.2,3.2,0,0,0-.146.944,3.069,3.069,0,0,0,.168,1.011,2.677,2.677,0,0,0,.475.854,2.363,2.363,0,0,0,.737.592,2.014,2.014,0,0,0,.944.223,2.493,2.493,0,0,0,.559-.067,2.114,2.114,0,0,0,.553-.212,2.08,2.08,0,0,0,.486-.375,1.73,1.73,0,0,0,.358-.553l1.262.726a2.372,2.372,0,0,1-.542.787,3.465,3.465,0,0,1-.793.576,4.069,4.069,0,0,1-.944.358,4.129,4.129,0,0,1-.984.123,3.378,3.378,0,0,1-1.553-.358,4.031,4.031,0,0,1-1.212-.933,4.33,4.33,0,0,1-.793-1.307A4.08,4.08,0,0,1,298.023,140.321Z" transform="translate(-236.481 -136.355)" fill="#fff"/>
              <path id="Path_912" data-name="Path 912" d="M323.748,143.039v1.352H318.24v-7.933h5.408v1.352h-3.866v1.911h3.341v1.251h-3.341v2.067Z" transform="translate(-246.877 -136.402)" fill="#fff"/>
            </g>
          </g>
          <g id="Group_1940" data-name="Group 1940" transform="translate(14.54 64.75)">
            <path id="Path_913" data-name="Path 913" d="M247.394,249.323H158.267V230.257h89.127Zm-88.641-.486h88.155V230.743H158.753Z" transform="translate(-158.267 -230.257)" fill="#ebebeb"/>
            <rect id="Rectangle_176" data-name="Rectangle 176" width="88.641" height="0.486" transform="translate(0.243 11.236)" fill="#ebebeb"/>
            <rect id="Rectangle_177" data-name="Rectangle 177" width="88.641" height="0.486" transform="translate(0.243 3.909)" fill="#ebebeb"/>
            <rect id="Rectangle_178" data-name="Rectangle 178" width="0.486" height="18.58" transform="translate(28.933 0.243)" fill="#ebebeb"/>
            <rect id="Rectangle_179" data-name="Rectangle 179" width="0.486" height="18.58" transform="translate(59.708 0.243)" fill="#ebebeb"/>
            <path id="Path_914" data-name="Path 914" d="M169.185,234.6c1.568-.1,3.135-.147,4.7-.186s3.135-.051,4.7-.057,3.135.012,4.7.056l2.351.068c.784.04,1.568.064,2.352.119-.784.055-1.568.079-2.352.119l-2.351.068c-1.568.044-3.135.051-4.7.056s-3.135-.013-4.7-.057S170.753,234.7,169.185,234.6Z" transform="translate(-163.881 -232.364)" fill="#455a64"/>
            <path id="Path_915" data-name="Path 915" d="M230.64,234.6c1.567-.1,3.135-.147,4.7-.186s3.135-.051,4.7-.057,3.135.012,4.7.056l2.351.068c.784.04,1.568.064,2.351.119-.784.055-1.567.079-2.351.119l-2.351.068c-1.568.044-3.135.051-4.7.056s-3.135-.013-4.7-.057S232.207,234.7,230.64,234.6Z" transform="translate(-195.481 -232.364)" fill="#455a64"/>
            <path id="Path_916" data-name="Path 916" d="M292.473,234.6c1.568-.1,3.135-.147,4.7-.186s3.135-.051,4.7-.057,3.135.012,4.7.056l2.351.068c.784.04,1.568.064,2.352.119-.784.055-1.568.079-2.352.119l-2.351.068c-1.568.044-3.135.051-4.7.056s-3.135-.013-4.7-.057S294.041,234.7,292.473,234.6Z" transform="translate(-227.276 -232.364)" fill="#455a64"/>
            <path id="Path_917" data-name="Path 917" d="M169.185,244.246c1.568-.1,3.135-.147,4.7-.186s3.135-.05,4.7-.057,3.135.012,4.7.056l2.351.068c.784.04,1.568.064,2.352.119-.784.055-1.568.079-2.352.119l-2.351.068c-1.568.044-3.135.051-4.7.056s-3.135-.012-4.7-.056S170.753,244.346,169.185,244.246Z" transform="translate(-163.881 -237.325)" fill="#ebebeb"/>
            <path id="Path_918" data-name="Path 918" d="M230.64,244.246c1.567-.1,3.135-.147,4.7-.186s3.135-.05,4.7-.057,3.135.012,4.7.056l2.351.068c.784.04,1.568.064,2.351.119-.784.055-1.567.079-2.351.119l-2.351.068c-1.568.044-3.135.051-4.7.056s-3.135-.012-4.7-.056S232.207,244.346,230.64,244.246Z" transform="translate(-195.481 -237.325)" fill="#ebebeb"/>
            <path id="Path_919" data-name="Path 919" d="M292.473,244.246c1.568-.1,3.135-.147,4.7-.186s3.135-.05,4.7-.057,3.135.012,4.7.056l2.351.068c.784.04,1.568.064,2.352.119-.784.055-1.568.079-2.352.119l-2.351.068c-1.568.044-3.135.051-4.7.056s-3.135-.012-4.7-.056S294.041,244.346,292.473,244.246Z" transform="translate(-227.276 -237.325)" fill="#ebebeb"/>
            <path id="Path_920" data-name="Path 920" d="M169.185,248.125c1.568-.1,3.135-.147,4.7-.186s3.135-.051,4.7-.057,3.135.012,4.7.056l2.351.068c.784.04,1.568.064,2.352.119-.784.055-1.568.079-2.352.119l-2.351.068c-1.568.044-3.135.051-4.7.056s-3.135-.013-4.7-.057S170.753,248.225,169.185,248.125Z" transform="translate(-163.881 -239.32)" fill="#ebebeb"/>
            <path id="Path_921" data-name="Path 921" d="M230.64,248.125c1.567-.1,3.135-.147,4.7-.186s3.135-.051,4.7-.057,3.135.012,4.7.056l2.351.068c.784.04,1.568.064,2.351.119-.784.055-1.567.079-2.351.119l-2.351.068c-1.568.044-3.135.051-4.7.056s-3.135-.013-4.7-.057S232.207,248.225,230.64,248.125Z" transform="translate(-195.481 -239.32)" fill="#ebebeb"/>
            <path id="Path_922" data-name="Path 922" d="M292.473,248.125c1.568-.1,3.135-.147,4.7-.186s3.135-.051,4.7-.057,3.135.012,4.7.056l2.351.068c.784.04,1.568.064,2.352.119-.784.055-1.568.079-2.352.119l-2.351.068c-1.568.044-3.135.051-4.7.056s-3.135-.013-4.7-.057S294.041,248.225,292.473,248.125Z" transform="translate(-227.276 -239.32)" fill="#ebebeb"/>
            <path id="Path_923" data-name="Path 923" d="M169.185,258.486c1.568-.1,3.135-.147,4.7-.186s3.135-.051,4.7-.057,3.135.012,4.7.056l2.351.068c.784.04,1.568.064,2.352.119-.784.055-1.568.078-2.352.119l-2.351.068c-1.568.044-3.135.051-4.7.056s-3.135-.012-4.7-.056S170.753,258.586,169.185,258.486Z" transform="translate(-163.881 -244.648)" fill="#ebebeb"/>
            <path id="Path_924" data-name="Path 924" d="M230.64,258.486c1.567-.1,3.135-.147,4.7-.186s3.135-.051,4.7-.057,3.135.012,4.7.056l2.351.068c.784.04,1.568.064,2.351.119-.784.055-1.567.078-2.351.119l-2.351.068c-1.568.044-3.135.051-4.7.056s-3.135-.012-4.7-.056S232.207,258.586,230.64,258.486Z" transform="translate(-195.481 -244.648)" fill="#ebebeb"/>
            <path id="Path_925" data-name="Path 925" d="M292.473,258.486c1.568-.1,3.135-.147,4.7-.186s3.135-.051,4.7-.057,3.135.012,4.7.056l2.351.068c.784.04,1.568.064,2.352.119-.784.055-1.568.078-2.352.119l-2.351.068c-1.568.044-3.135.051-4.7.056s-3.135-.012-4.7-.056S294.041,258.586,292.473,258.486Z" transform="translate(-227.276 -244.648)" fill="#ebebeb"/>
            <path id="Path_926" data-name="Path 926" d="M169.185,262.365c1.568-.1,3.135-.147,4.7-.186s3.135-.051,4.7-.057,3.135.012,4.7.056l2.351.068c.784.04,1.568.064,2.352.119-.784.055-1.568.079-2.352.119l-2.351.068c-1.568.044-3.135.05-4.7.056s-3.135-.012-4.7-.057S170.753,262.465,169.185,262.365Z" transform="translate(-163.881 -246.642)" fill="#ebebeb"/>
            <path id="Path_927" data-name="Path 927" d="M230.64,262.365c1.567-.1,3.135-.147,4.7-.186s3.135-.051,4.7-.057,3.135.012,4.7.056l2.351.068c.784.04,1.568.064,2.351.119-.784.055-1.567.079-2.351.119l-2.351.068c-1.568.044-3.135.05-4.7.056s-3.135-.012-4.7-.057S232.207,262.465,230.64,262.365Z" transform="translate(-195.481 -246.642)" fill="#ebebeb"/>
            <path id="Path_928" data-name="Path 928" d="M292.473,262.365c1.568-.1,3.135-.147,4.7-.186s3.135-.051,4.7-.057,3.135.012,4.7.056l2.351.068c.784.04,1.568.064,2.352.119-.784.055-1.568.079-2.352.119l-2.351.068c-1.568.044-3.135.05-4.7.056s-3.135-.012-4.7-.057S294.041,262.465,292.473,262.365Z" transform="translate(-227.276 -246.642)" fill="#ebebeb"/>
          </g>
          <g id="Group_1941" data-name="Group 1941" transform="translate(14.783 37.401)">
            <path id="Path_929" data-name="Path 929" d="M180.2,186.942a29.337,29.337,0,0,1-9.42,8.173,29.349,29.349,0,0,1-9.415-8.173c-3.316-4.388-3.152-11.258,1.591-12.744,5.246-1.643,7.824,6.251,7.824,6.251s2.616-7.947,7.828-6.251C183.331,175.735,183.511,182.554,180.2,186.942Z" transform="translate(-158.937 -173.961)" fill="#ffc727"/>
            <path id="Path_930" data-name="Path 930" d="M166.906,196.594l-1.43-5.954-.933,2.1h-5.776v-.672h5.339l1.56-3.51,1.115,4.642,1.576-9.618,1.391,7.609,1.1-3.177,1.734,5.2.384-1.149h9.487v.672h-9l-.869,2.6-1.746-5.234-1.289,3.725-1.154-6.31Z" transform="translate(-158.767 -178.907)" fill="#fff"/>
          </g>
        </g>
        <g id="Group_1943" data-name="Group 1943" transform="translate(38.62)">
          <rect id="Rectangle_180" data-name="Rectangle 180" width="56.424" height="17.203" transform="translate(0 9.405)" fill="#c7c7c7"/>
          <path id="Path_931" data-name="Path 931" d="M246.8,57.932H211.787l-1.552,9.4h38.637ZM229.551,64.7a2.064,2.064,0,1,1,2.064-2.064A2.063,2.063,0,0,1,229.551,64.7Z" transform="translate(-201.34 -57.932)" fill="#c7c7c7"/>
          <path id="Path_932" data-name="Path 932" d="M248.872,75.062H210.235l.347-2.105h37.826Z" transform="translate(-201.34 -65.658)" fill="#a6a6a6"/>
        </g>
      </g>
    </g>
    <g id="Plant" transform="translate(37.869 159.043)">
      <g id="Group_1952" data-name="Group 1952" transform="translate(0 0)">
        <g id="Group_1951" data-name="Group 1951">
          <g id="Group_1948" data-name="Group 1948">
            <g id="Group_1945" data-name="Group 1945" transform="translate(5.413)">
              <path id="Path_933" data-name="Path 933" d="M63.725,307.369a24.059,24.059,0,0,0-.773,4.375c.04.073.032.344-.012.271-.009.24-.375.2-.375-.041,0-.154.008-.309.015-.459a27.539,27.539,0,0,0-3.1-2.656,5.8,5.8,0,0,1-1.7-2.7c-.832-2.868-.052-5.907-1.053-8.767a40.251,40.251,0,0,0-3.72-6.845,16.2,16.2,0,0,1-2.5-7.614c-.082-2.119.171-4.943,1.786-6.531,1.71-1.685,3.831-.422,5.143,1.08,3.8,4.359,5.556,9.868,6.267,15.5a61.026,61.026,0,0,1,.7,9.4A25.361,25.361,0,0,1,63.725,307.369Z" transform="translate(-50.492 -275.596)" fill="#ffc727"/>
              <path id="Path_934" data-name="Path 934" d="M67.215,320.984a53.661,53.661,0,0,0-.1-8.832c.005-.011.015-.018.015-.033.048-2.387.237-4.765.144-7.155a42.538,42.538,0,0,0-1.051-7.675c-.007-.03-.052-.023-.047.007A50.058,50.058,0,0,1,67,304.8q.073,2.023-.032,4.046c-.023.439-.064.88-.093,1.322v0a47.231,47.231,0,0,0-7.1-18.8c-.05-.077-.187.006-.138.085a49.082,49.082,0,0,1,5.781,13.938c-1.827-3.385-4.585-6.168-6.632-9.419-.011-.018-.041,0-.032.019,1.839,3.62,4.877,6.475,6.813,10.042.336,1.453.611,2.921.816,4.4a49.194,49.194,0,0,1,.441,6.109c-1.112-2.08-2.267-4.069-3.178-6.269-.024-.059-.108-.019-.088.04a24.465,24.465,0,0,0,3.272,6.694c.008,1.446-.035,2.893-.12,4.337-.227,3.856-.886,7.66-1.19,11.5a.089.089,0,0,0,.176.019A88.375,88.375,0,0,0,67.215,320.984Z" transform="translate(-54.739 -283.691)" fill="#263238"/>
              <path id="Path_935" data-name="Path 935" d="M67.7,291.134c-.012-.028-.053-.008-.043.02.7,1.947,1.1,3.92,1.611,5.917a.074.074,0,0,0,.145-.024A21.257,21.257,0,0,0,67.7,291.134Z" transform="translate(-59.317 -283.578)" fill="#263238"/>
            </g>
            <g id="Group_1946" data-name="Group 1946" transform="translate(16.323 13.527)">
              <path id="Path_936" data-name="Path 936" d="M89.842,305.632a29.338,29.338,0,0,1-1.62,3.328c-1.268,2.3-2.591,4.413-2.831,7.095a16.483,16.483,0,0,1-.51,3.555,10.672,10.672,0,0,1-1.417,2.782c-1.375,2-3.093,3.728-4.366,5.805a24.455,24.455,0,0,0-2.9,7c-.032.134-.244.1-.212-.036a.14.14,0,0,0,.008-.031.045.045,0,0,1-.013-.029,50.261,50.261,0,0,1,2.011-17.054,59.028,59.028,0,0,1,2.787-7.094,16.766,16.766,0,0,1,3.76-5.41c1.07-.964,3.391-2.791,4.915-1.825C90.184,304.18,90.13,304.914,89.842,305.632Z" transform="translate(-74.486 -303.441)" fill="#ffc727"/>
              <path id="Path_937" data-name="Path 937" d="M82.528,323.865a47.185,47.185,0,0,1-3.342,4.8c-.557.727-1.122,1.447-1.677,2.175-.262.344-.557.687-.8,1.056.152-.6.3-1.21.454-1.814a71.129,71.129,0,0,1,2.56-8.63,58.26,58.26,0,0,1,3.993-7.827c.039-.067-.069-.115-.108-.051-1.215,2-2.448,3.994-3.47,6.1a32.075,32.075,0,0,0-1.472,3.62,55.856,55.856,0,0,1,1.96-7.734c.008-.022-.025-.039-.034-.016a26.457,26.457,0,0,0-2.035,8.045.023.023,0,0,0,0,.013c-.249.747-.478,1.5-.692,2.26-.906,3.217-1.7,6.468-2.439,9.73a34.76,34.76,0,0,1,.555-6.395c.009-.049-.064-.06-.075-.013a20.281,20.281,0,0,0-.556,6.741q-.418,1.86-.815,3.725c-.565,2.65-1.26,5.349-1.59,8.04a.054.054,0,0,0,.106.018c.394-1.451.633-2.955.955-4.424s.657-2.944,1-4.414c.5-2.139,1.023-4.273,1.556-6.4a11.493,11.493,0,0,1,1.561-2.131c.566-.719,1.132-1.438,1.683-2.17a32.3,32.3,0,0,0,2.767-4.282C82.6,323.857,82.546,323.835,82.528,323.865Z" transform="translate(-72.951 -308.638)" fill="#263238"/>
              <path id="Path_938" data-name="Path 938" d="M89.706,329.712a29.983,29.983,0,0,0-3.27,5.2c-.011.023.025.048.039.025,1.1-1.725,2.183-3.463,3.282-5.189C89.775,329.715,89.727,329.685,89.706,329.712Z" transform="translate(-79.884 -316.944)" fill="#263238"/>
            </g>
            <g id="Group_1947" data-name="Group 1947" transform="translate(0 14.703)">
              <path id="Path_939" data-name="Path 939" d="M41.017,312.329c.745,1.283,1.6,2.824,1.276,4.366-.2.975-.917,1.767-1.045,2.762-.289,2.2,1.9,3.648,3.484,4.685,3.949,2.591,9.364,4.9,10.082,10.191.027.187.351.14.327-.043a.107.107,0,0,0-.008-.035c.008-.012.019-.016.019-.032a20.275,20.275,0,0,0-.074-8.08,25.732,25.732,0,0,0-3.184-7.573c-2.376-4.053-4.892-8.2-8.485-11.31-1-.858-3.032-2.4-3.824-.464C38.816,308.681,40.1,310.764,41.017,312.329Z" transform="translate(-39.35 -305.862)" fill="#ffc727"/>
              <path id="Path_940" data-name="Path 940" d="M50.164,330.919c2.617,2.834,6.779,4.423,9.033,7.6a31.783,31.783,0,0,0-6.943-13.041.1.1,0,0,1,.144-.144,25.706,25.706,0,0,1,5.673,8.217,36.752,36.752,0,0,0-2.443-6.248c-.037-.076.071-.143.116-.067a23.828,23.828,0,0,1,2.633,7.023c2.969,7.188,3.245,15.619,2.622,23.195-.009.108-.174.111-.171,0,.171-5.97.074-12.045-1.357-17.876-.03-.122-.063-.241-.094-.363-2.451-3.418-6.6-5-9.26-8.246C50.093,330.934,50.136,330.889,50.164,330.919Z" transform="translate(-44.883 -315.858)" fill="#263238"/>
              <path id="Path_941" data-name="Path 941" d="M48.869,331.837c1.374,1.261,2.727,2.55,4.1,3.811.014.013,0,.037-.02.026a20.063,20.063,0,0,1-4.165-3.755A.058.058,0,0,1,48.869,331.837Z" transform="translate(-44.195 -319.21)" fill="#263238"/>
              <path id="Path_942" data-name="Path 942" d="M48.441,320.589a43.16,43.16,0,0,0,4.112,5.656.024.024,0,0,1-.034.034,19.9,19.9,0,0,1-4.151-5.647A.043.043,0,0,1,48.441,320.589Z" transform="translate(-43.985 -313.424)" fill="#263238"/>
            </g>
          </g>
          <g id="Group_1950" data-name="Group 1950" transform="translate(10.644 43.65)">
            <g id="Group_1949" data-name="Group 1949" transform="translate(0 1.794)">
              <path id="Path_943" data-name="Path 943" d="M61.261,385.336H73.3l-1.622-16.2H63.114Z" transform="translate(-61.261 -369.141)" fill="#455a64"/>
              <path id="Path_944" data-name="Path 944" d="M64.455,371.773h9.128l-.264-2.633H64.756Z" transform="translate(-62.903 -369.141)" fill="#263238"/>
            </g>
            <rect id="Rectangle_181" data-name="Rectangle 181" width="11.283" height="2.586" transform="translate(11.66 2.586) rotate(180)" fill="#455a64"/>
          </g>
        </g>
      </g>
    </g>
    <g id="Shield" transform="translate(62.39 194.272)">
      <g id="Group_1956" data-name="Group 1956">
        <g id="Group_1954" data-name="Group 1954">
          <path id="Path_945" data-name="Path 945" d="M129.672,361.089s-2.91,23.3-7.694,28.543c-5.742,6.29-9.909,5.37-12.227,8.613a0,0,0,0,0,0,0c-2.318-3.248-6.485-2.323-12.232-8.618-4.783-5.243-7.688-28.543-7.688-28.543a87.336,87.336,0,0,0,19.92-12.975l0,0A87.48,87.48,0,0,0,129.672,361.089Z" transform="translate(-89.827 -348.114)" fill="#37474f"/>
          <path id="Path_946" data-name="Path 946" d="M109.752,348.119v50.126a0,0,0,0,0,0,0c-2.318-3.248-6.485-2.323-12.232-8.618-4.783-5.243-7.688-28.543-7.688-28.543a87.336,87.336,0,0,0,19.92-12.975Z" transform="translate(-89.827 -348.114)" fill="#263238"/>
          <g id="Group_1953" data-name="Group 1953" transform="translate(3.091 3.89)">
            <path id="Path_947" data-name="Path 947" d="M129.853,367.084s-2.458,19.682-6.5,24.113c-4.855,5.321-8.377,4.539-10.336,7.28-1.959-2.74-5.481-1.959-10.335-7.28-4.04-4.431-6.494-24.113-6.494-24.113a73.846,73.846,0,0,0,16.829-10.962A73.973,73.973,0,0,0,129.853,367.084Z" transform="translate(-96.19 -356.122)" fill="#455a64"/>
            <path id="Path_948" data-name="Path 948" d="M96.2,367.092s2.458,19.68,6.5,24.113c4.85,5.317,8.369,4.54,10.329,7.273V356.135A74.113,74.113,0,0,1,96.2,367.092Z" transform="translate(-96.196 -356.129)" fill="#37474f"/>
          </g>
        </g>
        <g id="Group_1955" data-name="Group 1955" transform="translate(12.118 17.263)">
          <circle id="Ellipse_16" data-name="Ellipse 16" cx="7.805" cy="7.805" r="7.805" fill="#ffc727"/>
          <path id="Path_949" data-name="Path 949" d="M125.327,400.417l-3.476-3.615,1.29-1.24,1.916,1.992,4.131-6.337,1.5.977Z" transform="translate(-118.412 -387.541)" fill="#fff"/>
        </g>
      </g>
    </g>
    <g id="Icon" transform="translate(55.791 49.112)">
      <g id="Group_1958" data-name="Group 1958" transform="translate(0 0)">
        <g id="Group_1957" data-name="Group 1957">
          <path id="Path_950" data-name="Path 950" d="M99.412,90.487a17.956,17.956,0,1,1,17.956-17.956A17.977,17.977,0,0,1,99.412,90.487Zm0-35.113a17.157,17.157,0,1,0,17.157,17.157A17.177,17.177,0,0,0,99.412,55.374Z" transform="translate(-78.924 -52.015)" fill="#37474f"/>
          <path id="Path_951" data-name="Path 951" d="M95.83,90.318c-.274-.012-.545-.029-.816-.051l.066-.8q.391.033.785.05Zm2.859-.073-.075-.8q.392-.036.781-.089l.107.792C99.233,90.189,98.961,90.22,98.689,90.245Zm-6.5-.413q-.4-.09-.794-.2l.207-.772q.379.1.763.188Zm10.117-.261-.217-.769q.38-.107.753-.228l.247.76Q102.7,89.461,102.3,89.572ZM88.687,88.7q-.377-.161-.748-.337l.342-.722c.238.113.477.22.719.324Zm17.051-.44-.35-.718q.353-.172.7-.359l.38.7Q106.1,88.08,105.738,88.261Zm-20.291-1.3q-.342-.225-.674-.464l.466-.649q.32.23.649.446Zm23.432-.6-.473-.644q.316-.232.623-.478l.5.624Q109.208,86.114,108.879,86.356Zm-26.308-1.69q-.3-.282-.581-.576l.574-.556q.274.283.558.554Zm29.062-.743-.58-.55q.27-.286.529-.581l.6.526Q111.915,83.626,111.633,83.923ZM80.148,81.9q-.24-.329-.469-.669l.664-.445q.219.326.45.644Zm33.765-.865-.669-.437q.216-.329.418-.667l.685.41Q114.137,80.7,113.913,81.038ZM78.257,78.753q-.178-.367-.342-.742l.733-.319c.1.239.214.477.327.712Zm37.385-.961-.736-.311q.153-.362.291-.732l.748.281Q115.8,77.414,115.642,77.792ZM76.959,75.315q-.109-.393-.2-.793l.778-.182q.09.383.2.761Zm39.8-1.03-.78-.174q.086-.383.155-.77l.787.141Q116.849,73.887,116.76,74.285ZM76.3,71.7q-.036-.406-.057-.816l.8-.04q.02.393.055.784Zm40.931-1.06-.8-.032q.015-.391.015-.786V69.74h.8v.076C117.248,70.1,117.243,70.368,117.232,70.639ZM77.089,68.093l-.8-.07q.036-.408.087-.812l.793.1Q77.124,67.7,77.089,68.093ZM116.248,67q-.056-.39-.127-.776l.786-.145q.074.4.133.807ZM77.71,64.615l-.771-.211q.108-.4.231-.785l.762.242Q77.813,64.235,77.71,64.615Zm37.725-1.053q-.125-.373-.265-.74l.747-.283q.145.381.275.77ZM78.945,61.3l-.721-.345q.178-.371.37-.733l.706.376C79.176,60.832,79.058,61.067,78.945,61.3Zm35.072-.975q-.189-.344-.392-.68l.684-.413q.211.349.408.708ZM80.753,58.267l-.647-.47q.24-.331.493-.653l.628.495Q80.984,57.948,80.753,58.267Zm31.292-.867c-.166-.2-.335-.4-.508-.6l.6-.528q.269.307.528.624Zm-28.97-1.8-.554-.576q.3-.283.6-.555l.53.6Q83.357,55.328,83.074,55.6Zm26.507-.735q-.3-.256-.606-.5l.5-.626q.321.254.631.52ZM85.83,53.39l-.443-.666q.34-.226.689-.439l.415.683Q86.156,53.173,85.83,53.39Zm20.877-.58q-.338-.2-.686-.385l.377-.7q.361.194.715.4Zm-17.774-1.1-.317-.734q.374-.161.755-.308l.287.746Q89.292,51.552,88.933,51.707ZM103.51,51.3q-.369-.135-.746-.256l.244-.761q.391.125.776.266Zm-11.223-.693-.179-.779c.265-.061.532-.117.8-.168l.147.786Q92.67,50.519,92.287,50.607Zm7.808-.217q-.386-.066-.777-.118l.1-.792q.407.053.808.122Zm-4.308-.263-.037-.8c.272-.013.544-.02.818-.022l.006.8Q96.179,50.108,95.787,50.127Z" transform="translate(-76.243 -49.306)" fill="#37474f"/>
        </g>
        <path id="Path_952" data-name="Path 952" d="M103.916,90.868h5.534V82.522H117.8V76.987H109.45V68.641h-5.534v8.346H95.57v5.534h8.346Z" transform="translate(-86.181 -59.248)" fill="#37474f"/>
      </g>
    </g>
    <g id="Character" transform="translate(145.937 59.104)">
      <g id="Group_2004" data-name="Group 2004" transform="translate(0 0)">
        <g id="Group_1969" data-name="Group 1969" transform="translate(29.986 79.582)">
          <g id="Group_1963" data-name="Group 1963" transform="translate(0 0.016)">
            <g id="Group_1960" data-name="Group 1960" transform="translate(0 78.85)">
              <g id="Group_1959" data-name="Group 1959">
                <path id="Path_953" data-name="Path 953" d="M323.961,423.668c.96.31,28.334-.045,29.366-.721.4-.25.578-4.242.658-9.071,0-.05.453-17.839.453-17.839l-17.519.184-.585,17.836s-10.417,4.823-11.475,5.685S323,423.362,323.961,423.668Z" transform="translate(-323.532 -396.036)" fill="#d3766a"/>
                <path id="Path_954" data-name="Path 954" d="M353.919,438.439c-.107,3.367-.282,5.83-.588,6.024-1.035.675-28.409,1.03-29.366.724s-.155-3.07.894-3.93a71.84,71.84,0,0,1,6.583-3.376C328.3,439.974,324.922,443.054,353.919,438.439Z" transform="translate(-323.533 -417.552)" fill="#263238"/>
              </g>
              <path id="Path_955" data-name="Path 955" d="M342.347,436.916c.071-.021.109-.042.113-.063C342.46,436.853,342.418,436.874,342.347,436.916Z" transform="translate(-333.207 -417.024)" fill="#ffc727"/>
            </g>
            <g id="Group_1962" data-name="Group 1962" transform="translate(12.289)">
              <path id="Path_956" data-name="Path 956" d="M373.064,233.724s-4.463,46.362-5.132,49.893c-.155.8-.417,45.347-.417,45.347l-18.687-.284s.847-38.316,1.7-45.368,5.829-49.588,5.829-49.588Z" transform="translate(-348.828 -233.724)" fill="#37474f"/>
              <g id="Group_1961" data-name="Group 1961" transform="translate(0.826 1.967)">
                <path id="Path_957" data-name="Path 957" d="M367.815,421.112a13.658,13.658,0,0,0-1.686-.124c-.563-.026-1.126-.054-1.688-.076-1.105-.043-2.211-.092-3.317-.131q-3.377-.117-6.755-.236c-1.267-.047-2.535-.048-3.8-.036a.038.038,0,0,0,0,.076c4.478.452,9,.547,13.5.656.644.016,1.288.024,1.931.033a14.388,14.388,0,0,0,1.831-.027C367.911,421.237,367.883,421.124,367.815,421.112Z" transform="translate(-350.529 -331.734)" fill="#263238"/>
                <path id="Path_958" data-name="Path 958" d="M387.141,237.849c-1.363,11.3-2.725,22.612-3.854,33.944-.56,5.619-1.085,11.247-1.434,16.884-.352,5.682-.492,11.37-.57,17.062-.089,6.433-.24,12.871-.138,19.305a.047.047,0,0,0,.095,0c.559-11.37.4-22.764,1-34.134s1.838-22.7,3.09-34.025c.7-6.334,1.358-12.672,2.011-19.011C387.354,237.758,387.155,237.735,387.141,237.849Z" transform="translate(-366.254 -237.774)" fill="#263238"/>
              </g>
            </g>
          </g>
          <g id="Group_1968" data-name="Group 1968" transform="translate(19.818)">
            <g id="Group_1964" data-name="Group 1964" transform="translate(17.865 75.01)">
              <path id="Path_959" data-name="Path 959" d="M401.816,421.6c1.007.073,27.514-6.768,28.356-7.67.326-.337-.445-4.257-1.514-8.968-.011-.049-5.574-16.867-5.574-16.867l-16.975,4.335,5.446,16.9s-8.975,7.156-9.8,8.246S400.811,421.534,401.816,421.6Z" transform="translate(-401.104 -388.098)" fill="#d3766a"/>
              <path id="Path_960" data-name="Path 960" d="M429.316,428.944c.695,3.3,1.11,5.73.858,5.991-.845.9-27.353,7.743-28.355,7.673s-.879-2.945-.065-4.03a72,72,0,0,1,5.593-4.841C404.792,436.516,402.243,440.309,429.316,428.944Z" transform="translate(-401.104 -409.101)" fill="#263238"/>
            </g>
            <g id="Group_1967" data-name="Group 1967">
              <g id="Group_1966" data-name="Group 1966">
                <path id="Path_961" data-name="Path 961" d="M391.522,328.479l19.033-5.291S396.28,287.035,395.48,284.56c-.58-1.8-5.278-23.729-6.928-33.311,0,0,2.466-6.993-3.058-17.558H364.328s.795,10.952,3.336,17.326a19.447,19.447,0,0,1,4.137.8s6.552,34.846,7.549,37.974C381.507,296.561,391.522,328.479,391.522,328.479Z" transform="translate(-364.328 -233.691)" fill="#37474f"/>
                <g id="Group_1965" data-name="Group 1965" transform="translate(2.166 2.473)">
                  <path id="Path_962" data-name="Path 962" d="M383.569,289.845q-1.143-6.061-2.273-12.125c-.214-1.141-.453-2.276-.689-3.413s-.441-2.283-.767-3.388a.067.067,0,0,0-.13.021c.06,1.032.251,2.06.387,3.085.133,1,.285,1.993.454,2.984.349,2.036.727,4.068,1.113,6.1.771,4.052,1.539,8.117,2.481,12.133.53,2.26,1.025,4.53,1.586,6.782.013.049.081.025.073-.022C385.1,297.942,384.333,293.892,383.569,289.845Z" transform="translate(-374.403 -255.283)" fill="#263238"/>
                  <path id="Path_963" data-name="Path 963" d="M373.493,249.97a4.106,4.106,0,0,0-.07-2.234c-.164-.909-.323-1.819-.491-2.727-.378-2.05-.794-4.092-1.234-6.129,0-.021-.04-.016-.037.006q.3,2.445.657,4.882c.238,1.633.552,3.26.753,4.9.066.531.021,1.574-.748,1.579-.647,0-1.039-.965-1.248-1.444a22.839,22.839,0,0,1-1.183-4.489c-.376-1.8-.682-3.62-1-5.434-.011-.061-.112-.044-.108.017a53.363,53.363,0,0,0,.635,5.372,20.08,20.08,0,0,0,1.255,5.051c.267.592.642,1.32,1.325,1.505a1.091,1.091,0,0,0,.295.035c.059.542.141,1.078.253,1.611a11.376,11.376,0,0,0,.43,1.649.064.064,0,0,0,.125-.021h0a11.636,11.636,0,0,0-.247-1.655,15.76,15.76,0,0,0-.4-1.594A1.386,1.386,0,0,0,373.493,249.97Z" transform="translate(-368.787 -238.811)" fill="#263238"/>
                  <path id="Path_964" data-name="Path 964" d="M378.609,270.973a17.049,17.049,0,0,0-3.357-1.113,23.009,23.009,0,0,0-3.381-.462c-.042,0-.05.068-.008.075,1.131.175,5.607,1.276,6.725,1.554C378.618,271.033,378.639,270.986,378.609,270.973Z" transform="translate(-370.354 -254.524)" fill="#263238"/>
                  <path id="Path_965" data-name="Path 965" d="M422.155,313.106q-1.517-4.036-3.04-8.071c-2.014-5.333-4.086-10.643-6.089-15.98-1.979-5.271-2.825-10.876-3.907-16.389-.552-2.809-1.095-5.621-1.651-8.429-.551-2.782-1.215-5.571-1.541-8.393-.318-2.759.1-5.521-.147-8.281a20.693,20.693,0,0,0-1.946-7.1c-.271-.566-.569-1.116-.893-1.653-.038-.063-.131,0-.1.06a22.477,22.477,0,0,1,2.445,7.4,22.979,22.979,0,0,1,.205,3.884c-.037,1.392-.136,2.786-.069,4.179a57.684,57.684,0,0,0,1.312,8.253q.815,4.175,1.645,8.346.83,4.213,1.658,8.427a64.06,64.06,0,0,0,1.969,8.11c.889,2.653,1.929,5.258,2.921,7.873q1.529,4.033,3.064,8.063c2.047,5.346,4.052,10.712,6.191,16.021.25.618.5,1.232.773,1.842.036.081.165.019.138-.064C424.226,318.47,423.165,315.792,422.155,313.106Z" transform="translate(-386.295 -238.781)" fill="#263238"/>
                  <path id="Path_966" data-name="Path 966" d="M437.114,411.258a13.787,13.787,0,0,0-1.65.371c-.546.139-1.093.274-1.637.417-1.07.28-2.142.554-3.211.838q-3.266.869-6.532,1.736c-1.227.324-2.441.69-3.65,1.07a.038.038,0,0,0,.019.073c4.417-.869,8.774-2.092,13.111-3.294.62-.172,1.239-.35,1.857-.529a14.561,14.561,0,0,0,1.744-.557C437.242,411.35,437.182,411.25,437.114,411.258Z" transform="translate(-395.33 -327.469)" fill="#263238"/>
                </g>
              </g>
            </g>
          </g>
        </g>
        <g id="Group_2003" data-name="Group 2003">
          <g id="Group_1970" data-name="Group 1970" transform="translate(42.04 40.003)">
            <path id="Path_967" data-name="Path 967" d="M349.981,178.284c.233.056,1.322.324,2.913.719a9.2,9.2,0,0,0,2.127-5.171c.044-.434.506,2.217-.648,5.538,3.076.759,7.26,1.791,10.923,2.657.389-1.419.814-2.717.814-2.717a16.311,16.311,0,0,0-.019,2.908c.5.122.992.233,1.463.343a57.284,57.284,0,0,1,1.627-6.047,20.068,20.068,0,0,0,.458,6.528,17.941,17.941,0,0,0,3.8.7c-2.632-4.829.469-6.586.256-10.372-.257-4.537-3.788-6.032-2.968-9.215.661-2.591,2.036-7.253-1.036-9a6.506,6.506,0,0,0-6.6-2.848c-5.652.84-5.375,9.345-6.093,10.9-1.025,2.226-2.32,2.8-3.742,5.286-1.447,2.511-.615,4.575-.881,6.435S349.4,178.149,349.981,178.284Z" transform="translate(-349.143 -152.218)" fill="#263238"/>
            <path id="Path_968" data-name="Path 968" d="M395.353,195.158a9.353,9.353,0,0,1-.626-2.536,4.884,4.884,0,0,1,.553-2.448,26.163,26.163,0,0,0,1-2.483,6.969,6.969,0,0,0,.338-2.744,6.11,6.11,0,0,0-.891-2.626,16.233,16.233,0,0,0-1.626-2.146,9.918,9.918,0,0,1-1.473-2.127,4.8,4.8,0,0,1-.418-2.54,4.5,4.5,0,0,0,.119,2.661,9.029,9.029,0,0,0,1.36,2.33,20.377,20.377,0,0,1,1.479,2.143,5.817,5.817,0,0,1,.754,2.367,6.847,6.847,0,0,1-.295,2.485c-.233.824-.575,1.629-.879,2.471a8.854,8.854,0,0,0-.379,1.311,3.937,3.937,0,0,0,0,1.391A7.6,7.6,0,0,0,395.353,195.158Z" transform="translate(-370.825 -164.194)" fill="#263238"/>
            <path id="Path_969" data-name="Path 969" d="M358.682,157.215a13.41,13.41,0,0,0-1.4,2.957c-.367,1.029-.683,2.073-.987,3.116l-.464,1.555a8.113,8.113,0,0,1-.573,1.457,8.646,8.646,0,0,1-2.02,2.38,12.591,12.591,0,0,0-1.16,1.2,7.62,7.62,0,0,0-.925,1.43,11.251,11.251,0,0,0-.59,1.577,6.948,6.948,0,0,0-.275,1.668c-.026.565.014,1.113.03,1.646a8.251,8.251,0,0,1-.1,1.585,3.338,3.338,0,0,1-1.878,2.409,3.389,3.389,0,0,0,2.208-2.338,8.159,8.159,0,0,0,.223-1.653c.025-.553,0-1.092.06-1.612a8.651,8.651,0,0,1,.915-2.984,7.527,7.527,0,0,1,.86-1.287,11.811,11.811,0,0,1,1.112-1.129,16.386,16.386,0,0,0,1.173-1.179,6.8,6.8,0,0,0,.96-1.414,8.719,8.719,0,0,0,.571-1.588c.149-.529.276-1.058.4-1.587.258-1.056.5-2.112.785-3.155A15.8,15.8,0,0,1,358.682,157.215Z" transform="translate(-348.344 -154.788)" fill="#263238"/>
          </g>
          <g id="Group_1980" data-name="Group 1980">
            <g id="Group_1978" data-name="Group 1978">
              <path id="Path_970" data-name="Path 970" d="M347.161,192.177c-3.143,4.323-10.092,15.4-15.42,15.8-4.3.321-13.418-8.443-15.8-10.8-1.551-1.538,6.019-11.042,7.7-9.5,2.164,1.988,7.488,9.069,8.628,9.069.634,0,4.44-2.3,11.825-7.246C346.963,187.576,349.036,189.6,347.161,192.177Z" transform="translate(-289.537 -130.361)" fill="#d3766a"/>
              <g id="Group_1977" data-name="Group 1977">
                <path id="Path_971" data-name="Path 971" d="M303.978,185.311c1.52,2.112,6.316,5.216,7.761,5.519s6.993-7.676,6.538-9.121-6.121-8.16-8.678-8.873S302.4,183.122,303.978,185.311Z" transform="translate(-283.327 -122.8)" fill="#d3766a"/>
                <g id="Group_1973" data-name="Group 1973">
                  <rect id="Rectangle_182" data-name="Rectangle 182" width="1.767" height="68.961" transform="translate(22.988 76.61) rotate(-163.247)" fill="#a6a6a6"/>
                  <path id="Path_972" data-name="Path 972" d="M347.964,76.306l2.454.739,1.488-6.729-1.467-.442Z" transform="translate(-306.109 -69.874)" fill="#dbdbdb"/>
                  <path id="Path_973" data-name="Path 973" d="M284.863,228.742a7.047,7.047,0,0,0,9.025-4.934l1.345-4.47-2.466-.742-1.346,4.469a4.482,4.482,0,0,1-5.814,3.211c-3.108-.936-3.182-4.33-2.731-5.828l1.272-4.224-2.466-.743-1.272,4.224a8.363,8.363,0,0,0,.123,4.854A6.344,6.344,0,0,0,284.863,228.742Z" transform="translate(-271.217 -144.746)" fill="#263238"/>
                  <g id="Group_1972" data-name="Group 1972" transform="translate(0 3.367)">
                    <path id="Path_974" data-name="Path 974" d="M261.806,90.351s6.3-.834,9.71.293,8.955,5.327,8.955,5.327,6.347-.51,9.891.457,8.154,4.976,8.154,4.976,6.06-.806,9.545.353,8.492,5.078,8.492,5.078,6.946-.429,10.414.506,8.258,5.116,8.258,5.116c-2.28-13.1-12.335-28.632-29.831-33.9S270.933,80.685,261.806,90.351Z" transform="translate(-261.806 -76.805)" fill="#455a64"/>
                    <g id="Group_1971" data-name="Group 1971" transform="translate(0 0.749)">
                      <path id="Path_975" data-name="Path 975" d="M261.806,91.144c1.632-1.057,3.279-2.087,4.95-3.076s3.348-1.968,5.056-2.887a70.464,70.464,0,0,1,10.554-4.825,23.023,23.023,0,0,1,5.608-1.3c1.927-.2,3.865-.264,5.8-.311s3.879,0,5.816.1q2.908.134,5.8.5a67.984,67.984,0,0,0-11.622-1c-1.949-.017-3.9.07-5.842.242A23.264,23.264,0,0,0,282.2,79.87a52.453,52.453,0,0,0-5.4,2.256c-1.758.843-3.49,1.737-5.176,2.711A106.267,106.267,0,0,0,261.806,91.144Z" transform="translate(-261.806 -78.347)" fill="#37474f"/>
                      <path id="Path_976" data-name="Path 976" d="M300.242,97.826c.7-1.121,1.43-2.219,2.209-3.282s1.568-2.117,2.413-3.123a30.448,30.448,0,0,1,5.639-5.429,31.067,31.067,0,0,1,7.064-3.388c1.236-.448,2.494-.842,3.761-1.2s2.543-.7,3.83-.993a48.6,48.6,0,0,0-7.718,1.822,29.6,29.6,0,0,0-7.226,3.336,13.729,13.729,0,0,0-1.577,1.244c-.5.437-.979.9-1.45,1.371a36.1,36.1,0,0,0-2.632,2.988A43,43,0,0,0,300.242,97.826Z" transform="translate(-281.57 -79.408)" fill="#37474f"/>
                      <path id="Path_977" data-name="Path 977" d="M337.373,103.257c.675-1.874,1.3-3.763,1.909-5.655s1.183-3.8,1.777-5.694c.554-1.91,1.129-3.813,1.663-5.729l.791-2.876c.246-.964.508-1.924.738-2.892-.342.935-.653,1.88-.98,2.82l-.929,2.835c-.613,1.892-1.184,3.8-1.777,5.695-.552,1.91-1.13,3.813-1.662,5.729S337.844,101.323,337.373,103.257Z" transform="translate(-300.663 -79.408)" fill="#37474f"/>
                      <path id="Path_978" data-name="Path 978" d="M381.363,114.31a106.357,106.357,0,0,0-4.7-10.677c-.869-1.743-1.819-3.445-2.82-5.118a52.387,52.387,0,0,0-3.259-4.863,23.241,23.241,0,0,0-4.072-4.231c-1.525-1.216-3.1-2.365-4.737-3.427a68.03,68.03,0,0,0-10.242-5.582q2.615,1.292,5.114,2.79,2.51,1.473,4.907,3.124c1.59,1.109,3.167,2.235,4.665,3.462a22.984,22.984,0,0,1,3.959,4.178,70.45,70.45,0,0,1,6.137,9.85c.917,1.71,1.784,3.447,2.621,5.2S380.586,112.528,381.363,114.31Z" transform="translate(-307.943 -79.408)" fill="#37474f"/>
                      <path id="Path_979" data-name="Path 979" d="M362.691,108.688a42.978,42.978,0,0,0,.078-7.93,35.951,35.951,0,0,0-.545-3.944c-.134-.651-.274-1.3-.452-1.944a13.736,13.736,0,0,0-.628-1.908,29.615,29.615,0,0,0-4.184-6.771,48.447,48.447,0,0,0-5.429-5.781c.91.957,1.8,1.934,2.646,2.943s1.689,2.022,2.472,3.078a31.073,31.073,0,0,1,4.019,6.725,30.453,30.453,0,0,1,1.7,7.64c.15,1.306.24,2.62.288,3.936C362.725,106.049,362.727,107.368,362.691,108.688Z" transform="translate(-307.943 -79.408)" fill="#37474f"/>
                    </g>
                  </g>
                </g>
                <g id="Group_1975" data-name="Group 1975" transform="translate(18.085 48.899)">
                  <path id="Path_980" data-name="Path 980" d="M309.5,173.094c.449,1.3-1.344,1.087-1.344,1.087s2.506.934,2.449,2.456c-.058,1.468-2.215,1.13-2.37,1.108.132.051,2.412.968,2.2,2.493-.224,1.584-2.331.873-2.466.827.109.087,1.541,1.26,1.116,2.381-.733,1.926-4.478-.974-6.122-.694,0,0,.156,2.842.143,2.925,0,0-3.619-2.685-3.873-4.925a1.439,1.439,0,0,1,.94-1.539,2.257,2.257,0,0,1-1.132-1.942c.068-.618,1.119-1.059,1.119-1.059a1.8,1.8,0,0,1-.8-1.7c.143-.85,1.175-1.16,1.175-1.16a2.148,2.148,0,0,1-.237-1.867C301.159,169.83,308.538,170.305,309.5,173.094Z" transform="translate(-299.033 -170.532)" fill="#d3766a"/>
                  <g id="Group_1974" data-name="Group 1974" transform="translate(1.071 2.514)">
                    <path id="Path_981" data-name="Path 981" d="M302.421,175.942a.02.02,0,0,1,0-.039,12.824,12.824,0,0,1,7.571.94c.075.036.049.172-.041.148A26.272,26.272,0,0,0,302.421,175.942Z" transform="translate(-301.836 -175.707)" fill="#263238"/>
                    <path id="Path_982" data-name="Path 982" d="M301.261,181.96c-.029,0-.03-.047,0-.052a12.012,12.012,0,0,1,8.2,1.539c.085.054.106.187,0,.132A21.622,21.622,0,0,0,301.261,181.96Z" transform="translate(-301.239 -178.81)" fill="#263238"/>
                    <path id="Path_983" data-name="Path 983" d="M309.4,190.189a16.508,16.508,0,0,0-7.825-2.045c-.036,0-.03-.052,0-.059a10.814,10.814,0,0,1,4.488.277,7.4,7.4,0,0,1,3.386,1.742C309.484,190.139,309.447,190.219,309.4,190.189Z" transform="translate(-301.397 -182.001)" fill="#263238"/>
                  </g>
                  <path id="Path_984" data-name="Path 984" d="M312.319,178.044a8.437,8.437,0,0,1,1.321.793,2.819,2.819,0,0,1,.966,1.112.925.925,0,0,1,.02.666,1.349,1.349,0,0,1-.389.563,1.647,1.647,0,0,1-1.313.278l-1.114-.189.981.565a4.634,4.634,0,0,1,1.168.939,1.652,1.652,0,0,1,.483,1.263.944.944,0,0,1-.807.873,2.858,2.858,0,0,1-1.42-.185l-1.258-.458,1.034.84a4.344,4.344,0,0,1,.766.8,1.793,1.793,0,0,1,.384.959.852.852,0,0,1-.439.783,1.881,1.881,0,0,1-1.05.078,14.85,14.85,0,0,1-2.235-.626c-.373-.122-.747-.245-1.127-.35a2.8,2.8,0,0,0-1.167-.134,3.006,3.006,0,0,1,1.135.238c.367.132.728.282,1.09.431a12.552,12.552,0,0,0,2.251.759,2.2,2.2,0,0,0,1.262-.053,1.207,1.207,0,0,0,.691-1.129,2.183,2.183,0,0,0-.445-1.2,4.768,4.768,0,0,0-.839-.906l-.224.383a3.286,3.286,0,0,0,1.676.235,1.372,1.372,0,0,0,.816-.44,1.546,1.546,0,0,0,.356-.843,2.084,2.084,0,0,0-.612-1.6,5,5,0,0,0-1.3-1.012l-.134.376a1.968,1.968,0,0,0,1.605-.43,1.665,1.665,0,0,0,.446-.72,1.2,1.2,0,0,0-.062-.847,2.89,2.89,0,0,0-1.117-1.129A6.907,6.907,0,0,0,312.319,178.044Z" transform="translate(-303.194 -174.395)" fill="#263238"/>
                </g>
                <g id="Group_1976" data-name="Group 1976" transform="translate(23.697 49.173)">
                  <path id="Path_985" data-name="Path 985" d="M321.776,180.322s-5.6-12.328-8.484-8.484c-.857,1.142-3.013,6.854-1.874,7.308,1.471.588,2.816-1.628,3.439-3.153,0,0,1.234,3.585,3.986,3.47A4.853,4.853,0,0,1,321.776,180.322Z" transform="translate(-310.847 -171.095)" fill="#d3766a"/>
                  <path id="Path_986" data-name="Path 986" d="M313.29,172a5.786,5.786,0,0,0-.971,1.374,12.508,12.508,0,0,0-.7,1.536,19.3,19.3,0,0,0-.966,3.244,3.174,3.174,0,0,0-.052.9,1.177,1.177,0,0,0,.156.488.83.83,0,0,0,.181.218.88.88,0,0,0,.241.142,1.42,1.42,0,0,0,.985.008,2.667,2.667,0,0,0,.792-.47,5.113,5.113,0,0,0,1.085-1.364,11.529,11.529,0,0,0,.737-1.539l-.366-.015a6.858,6.858,0,0,0,.578,1.159,6.319,6.319,0,0,0,.779,1.022,4.351,4.351,0,0,0,1.011.787,3.316,3.316,0,0,0,1.2.405,3.742,3.742,0,0,1-1.127-.521,4.524,4.524,0,0,1-.9-.837,5.966,5.966,0,0,1-.687-1.017,6.46,6.46,0,0,1-.482-1.118l-.151-.479-.215.463a12.252,12.252,0,0,1-.756,1.459,4.954,4.954,0,0,1-1.005,1.235,1.384,1.384,0,0,1-1.3.388c-.363-.114-.345-.727-.266-1.245a15.887,15.887,0,0,1,.351-1.612c.137-.538.282-1.075.454-1.6A10.718,10.718,0,0,1,313.29,172Z" transform="translate(-310.586 -171.558)" fill="#263238"/>
                </g>
              </g>
            </g>
            <g id="Group_1979" data-name="Group 1979" transform="translate(27.575 57.849)">
              <path id="Path_987" data-name="Path 987" d="M326.153,188.954l-7.585,11.187s10.623,9.176,14.943,9.143,10.7-9.78,13.952-13.98c3.444-4.444,2.624-8.248-2.958-4.856s-10.415,6.462-10.636,6.5S326.153,188.954,326.153,188.954Z" transform="translate(-318.568 -188.954)" fill="#ffc727"/>
              <path id="Path_988" data-name="Path 988" d="M348.213,189.8a.323.323,0,0,1-.646,0,.287.287,0,0,1,.034-.141,4.8,4.8,0,0,1,.466-.126A.327.327,0,0,1,348.213,189.8Zm-25.243,6.9a.322.322,0,1,0,.322.322A.322.322,0,0,0,322.97,196.693Zm4.984,0a.322.322,0,1,0,.322.322A.322.322,0,0,0,327.953,196.693Zm4.984,0a.322.322,0,1,0,.322.322A.322.322,0,0,0,332.937,196.693Zm4.984,0a.322.322,0,1,0,.322.322A.322.322,0,0,0,337.921,196.693Zm4.984,0a.322.322,0,1,0,.322.322A.322.322,0,0,0,342.9,196.693Zm-17.443-3.727a.322.322,0,1,0,.322.322A.322.322,0,0,0,325.462,192.966Zm5,0h-.019a.323.323,0,1,0,.321.325v0C330.666,193.178,330.564,193.071,330.467,192.965Zm14.93,0a.322.322,0,1,0,.322.322A.321.321,0,0,0,345.4,192.966Zm-24.919,7.217a.322.322,0,1,0,.322.322A.322.322,0,0,0,320.478,200.183Zm7.476,3.728a.322.322,0,1,0,.322.322A.322.322,0,0,0,327.953,203.911Zm4.984,0a.322.322,0,1,0,.322.322A.322.322,0,0,0,332.937,203.911Zm4.984,0a.322.322,0,1,0,.322.322A.322.322,0,0,0,337.921,203.911Zm-12.459-3.728a.322.322,0,1,0,.322.322A.322.322,0,0,0,325.462,200.183Zm4.984,0a.322.322,0,1,0,.322.322A.322.322,0,0,0,330.446,200.183Zm4.984,0a.322.322,0,1,0,.322.322A.322.322,0,0,0,335.429,200.183Zm4.983,0a.322.322,0,1,0,.322.322A.322.322,0,0,0,340.413,200.183Zm-9.967,7.217a.322.322,0,1,0,.322.322A.322.322,0,0,0,330.446,207.4Zm4.984,0a.322.322,0,1,0,.322.322A.322.322,0,0,0,335.429,207.4Z" transform="translate(-319.385 -189.25)" fill="#fff"/>
              <path id="Path_989" data-name="Path 989" d="M327.887,199.67c.579-.833,2.831-4.184,3.294-5.07.014-.027-.031-.048-.048-.029-.672.752-3.025,4.062-3.6,4.9-1.15,1.668-2.332,3.331-3.329,5.1-.02.036.033.079.061.045C325.578,203.053,326.724,201.346,327.887,199.67Z" transform="translate(-321.464 -191.839)" fill="#263238"/>
              <path id="Path_990" data-name="Path 990" d="M359.708,195.511c-3.255,4.2-9.633,13.947-13.952,13.976a8.406,8.406,0,0,1-3.376-1.015l17.07-19.024C362.492,188.753,362.487,191.921,359.708,195.511Z" transform="translate(-330.812 -189.158)" opacity="0.1"/>
            </g>
          </g>
          <g id="Group_1982" data-name="Group 1982" transform="translate(48.424 56.497)">
            <path id="Path_991" data-name="Path 991" d="M361.869,213.646l25.083.876S380.73,193.58,375.505,188c-2.377-2.54-4.7-2.153-6.671-.518-.491.408-6.583,8.14-7.1,10.835-.456,2.381,1.479,5.025,1.479,5.025Z" transform="translate(-361.578 -186.172)" fill="#ffc727"/>
            <g id="Group_1981" data-name="Group 1981" transform="translate(2.611 16.92)">
              <path id="Path_992" data-name="Path 992" d="M373.287,221.094a21.678,21.678,0,0,0-3.206-.054c-.531.038-1.056.1-1.583.173-.262.037-.525.065-.788.091a3.408,3.408,0,0,1-.829.006.019.019,0,0,0-.006.037,5.792,5.792,0,0,0,.775.126,5.537,5.537,0,0,0,.762-.005c.538-.033,1.075-.091,1.613-.13,1.086-.078,2.171-.156,3.26-.156C373.334,221.182,373.337,221.1,373.287,221.094Z" transform="translate(-366.859 -221.001)" fill="#263238"/>
              <path id="Path_993" data-name="Path 993" d="M379.531,223.217a23.381,23.381,0,0,0-2.578-.6c-.436-.074-.872-.122-1.313-.158q-.315-.026-.631-.043c-.232-.012-.465.006-.7-.009-.024,0-.031.035-.006.038.218.021.433.079.649.113l.652.1c.435.068.869.141,1.3.205.872.128,1.74.264,2.607.423C379.566,223.3,379.575,223.229,379.531,223.217Z" transform="translate(-370.681 -221.725)" fill="#263238"/>
            </g>
            <path id="Path_994" data-name="Path 994" d="M369.557,189.741a.322.322,0,1,1-.322-.322A.322.322,0,0,1,369.557,189.741Zm4.662-.322a.322.322,0,1,0,.322.322A.322.322,0,0,0,374.219,189.419Zm-9.968,7.217a.322.322,0,1,0,.322.322A.322.322,0,0,0,364.252,196.636Zm4.984,0a.322.322,0,1,0,.322.322A.322.322,0,0,0,369.235,196.636Zm4.984,0a.322.322,0,1,0,.322.322A.322.322,0,0,0,374.219,196.636Zm4.984,0a.322.322,0,1,0,.322.322A.322.322,0,0,0,379.2,196.636Zm-12.46-3.727a.322.322,0,1,0,.322.322A.321.321,0,0,0,366.743,192.909Zm4.984,0a.322.322,0,1,0,.322.322A.321.321,0,0,0,371.727,192.909Zm4.984,0a.322.322,0,1,0,.322.322A.322.322,0,0,0,376.711,192.909Zm-12.459,10.945a.322.322,0,1,0,.322.322A.322.322,0,0,0,364.252,203.853Zm4.984,0a.322.322,0,1,0,.322.322A.322.322,0,0,0,369.235,203.853Zm4.984,0a.322.322,0,1,0,.322.322A.322.322,0,0,0,374.219,203.853Zm4.984,0a.322.322,0,1,0,.322.322A.322.322,0,0,0,379.2,203.853Zm-17.445-3.727a.134.134,0,0,0-.044,0,3.857,3.857,0,0,0-.044.622.254.254,0,0,0,.087.015.321.321,0,1,0,0-.641Zm4.986,0a.322.322,0,1,0,.322.322A.322.322,0,0,0,366.743,200.126Zm4.984,0a.322.322,0,1,0,.322.322A.322.322,0,0,0,371.727,200.126Zm4.984,0a.322.322,0,1,0,.322.322A.322.322,0,0,0,376.711,200.126Zm4.668.268a.181.181,0,0,0,0,.053.316.316,0,0,0,.136.262C381.461,200.607,381.422,200.5,381.379,200.394ZM364.252,211.07a.322.322,0,1,0,.322.322A.322.322,0,0,0,364.252,211.07Zm4.984,0a.322.322,0,1,0,.322.322A.322.322,0,0,0,369.235,211.07Zm4.984,0a.322.322,0,1,0,.322.322A.322.322,0,0,0,374.219,211.07Zm4.984,0a.322.322,0,1,0,.322.322A.322.322,0,0,0,379.2,211.07Zm4.983,0a.322.322,0,1,0,.322.322A.322.322,0,0,0,384.186,211.07Zm-17.443-3.727a.322.322,0,1,0,.322.322A.321.321,0,0,0,366.743,207.343Zm4.984,0a.322.322,0,1,0,.322.322A.321.321,0,0,0,371.727,207.343Zm4.984,0a.322.322,0,1,0,.322.322A.322.322,0,0,0,376.711,207.343Zm4.984,0a.322.322,0,1,0,.322.322A.322.322,0,0,0,381.695,207.343Zm-19.734,7.289-.068.544a.328.328,0,0,0,.189-.3A.314.314,0,0,0,361.961,214.632Zm4.782-.072a.322.322,0,1,0,.322.322A.322.322,0,0,0,366.743,214.56Zm4.984,0a.322.322,0,1,0,.322.322A.322.322,0,0,0,371.727,214.56Zm4.984,0a.322.322,0,1,0,.322.322A.322.322,0,0,0,376.711,214.56Zm4.984,0a.322.322,0,1,0,.322.322A.322.322,0,0,0,381.695,214.56Zm4.78.072a.318.318,0,0,0-.117.248.324.324,0,0,0,.3.325C386.6,215.035,386.543,214.841,386.475,214.632Z" transform="translate(-361.58 -187.842)" fill="#fff"/>
            <path id="Path_995" data-name="Path 995" d="M364.818,199.418a25.954,25.954,0,0,0-1.48,2.232c.187-.434.363-.872.516-1.32.006-.018-.023-.03-.032-.013-.159.318-.322.634-.456.964-.12.3-.237.592-.347.891l-.01.016a11.833,11.833,0,0,0-1.375,2.84,5.527,5.527,0,0,0,.058,2.789,6.91,6.91,0,0,0,.542,1.352,4.2,4.2,0,0,0,.713,1.065c-.168.955-.278,1.924-.4,2.885a23.057,23.057,0,0,0-.294,2.827.052.052,0,0,0,.1.011c.019-.068.04-.135.062-.2a.032.032,0,0,0-.009-.032c.205-.867.294-1.774.413-2.652.124-.913.355-2.818.356-2.829,0-.044-.435-.8-.607-1.161a8.154,8.154,0,0,1-.5-1.378,5.174,5.174,0,0,1-.056-2.737,13.026,13.026,0,0,1,1.287-2.751c.515-.923,1.047-1.84,1.58-2.754C364.9,199.426,364.844,199.383,364.818,199.418Z" transform="translate(-361.485 -192.977)" fill="#263238"/>
          </g>
          <g id="Group_1989" data-name="Group 1989" transform="translate(41.516 57.367)">
            <g id="Group_1988" data-name="Group 1988" transform="translate(0 0.133)">
              <g id="Group_1984" data-name="Group 1984" transform="translate(0 15.074)">
                <rect id="Rectangle_183" data-name="Rectangle 183" width="16.192" height="21.078" transform="matrix(0.855, -0.518, 0.518, 0.855, 0, 8.391)" fill="#263238"/>
                <g id="Group_1983" data-name="Group 1983" transform="translate(3.024 0.551)">
                  <rect id="Rectangle_184" data-name="Rectangle 184" width="7.674" height="2.325" transform="matrix(-0.855, 0.519, -0.519, -0.855, 7.766, 2.75)" fill="#a6a6a6"/>
                  <path id="Path_996" data-name="Path 996" d="M355.473,224.242l.808-.491-.557-.916,1.963-1.192.556.916.808-.491-1.014-1.669-3.589,2.18Z" transform="translate(-353.983 -220.399)" fill="#a6a6a6"/>
                </g>
              </g>
              <g id="Group_1987" data-name="Group 1987" transform="translate(1.747)">
                <path id="Path_997" data-name="Path 997" d="M381.781,189.314c5.615,4.647,16.98,16.122,15.02,19.756-3.221,5.974-12.806,12.817-15.915,14.435-1.356.705-8.756-8.512-7.6-9.664,1.39-1.383,11.936-7.7,11.663-8.666-.155-.546-2.486-4.869-4.934-10.552C377.181,188.03,379.106,187.1,381.781,189.314Z" transform="translate(-362.332 -188.236)" fill="#d3766a"/>
                <g id="Group_1986" data-name="Group 1986" transform="translate(0 23.428)">
                  <path id="Path_998" data-name="Path 998" d="M350.867,243.987a1.87,1.87,0,0,0,1.427,1.588,2.773,2.773,0,0,0-.232,1.872c.306,1.1,2.166,1.1,2.166,1.1a3.42,3.42,0,0,0,.07,2.013c.4,1.025,2.275,1.3,2.275,1.3a3,3,0,0,0,1.177,1.732c1.614,1.051,4.282-.188,5.985-.959s5.815-4.551,6.672-5.193l-4.852-10.979s-8.623,1.282-10.5,2.472C353.478,239.935,350.741,242.533,350.867,243.987Z" transform="translate(-350.862 -236.461)" fill="#d3766a"/>
                  <g id="Group_1985" data-name="Group 1985" transform="translate(1.416 5.394)">
                    <path id="Path_999" data-name="Path 999" d="M353.789,251.075a24.425,24.425,0,0,1,4.925-3.5.035.035,0,0,1,.036.06c-1.725,1.042-3.221,2.412-4.9,3.52A.049.049,0,0,1,353.789,251.075Z" transform="translate(-353.776 -247.565)" fill="#263238"/>
                    <path id="Path_1000" data-name="Path 1000" d="M357.71,258.122a5.308,5.308,0,0,1,1.172-.757q.649-.359,1.309-.7c.881-.45,1.772-.88,2.676-1.283.04-.018.077.039.036.06-.877.45-1.748.913-2.606,1.4q-.643.366-1.281.74a6.342,6.342,0,0,1-1.235.651A.071.071,0,0,1,357.71,258.122Z" transform="translate(-355.789 -251.585)" fill="#263238"/>
                    <path id="Path_1001" data-name="Path 1001" d="M362.685,265.512a3.708,3.708,0,0,1,1.091-.625q.608-.294,1.214-.6c.807-.4,1.614-.8,2.406-1.235.039-.021.076.038.036.06-.8.441-1.6.893-2.407,1.327q-.595.319-1.192.633a3.493,3.493,0,0,1-1.13.478A.025.025,0,0,1,362.685,265.512Z" transform="translate(-358.354 -255.528)" fill="#263238"/>
                  </g>
                </g>
              </g>
            </g>
            <path id="Path_1002" data-name="Path 1002" d="M380.39,211.015l7.944,10.8s11.559-8.895,12.7-13.45c1.025-4.09-11.838-16.536-14.686-18.878s-5.1-2.305-3.67,2.439,5.574,12.963,5.608,13.1S380.39,211.015,380.39,211.015Z" transform="translate(-364.298 -187.962)" fill="#ffc727"/>
            <path id="Path_1003" data-name="Path 1003" d="M387.483,189.741a.322.322,0,1,1-.322-.322A.322.322,0,0,1,387.483,189.741Zm4.662,6.895a.322.322,0,1,0,.322.322A.322.322,0,0,0,392.145,196.636Zm-2.492-3.727a.322.322,0,1,0,.322.322A.322.322,0,0,0,389.653,192.909Zm2.492,10.945a.322.322,0,1,0,.322.322A.322.322,0,0,0,392.145,203.853Zm4.983,0a.322.322,0,1,0,.322.322A.322.322,0,0,0,397.128,203.853Zm4.984,0a.322.322,0,1,0,.322.322A.322.322,0,0,0,402.112,203.853Zm-12.459-3.728a.322.322,0,1,0,.322.322A.322.322,0,0,0,389.653,200.126Zm4.984,0a.322.322,0,1,0,.322.322A.322.322,0,0,0,394.636,200.126Zm5.227.53a.32.32,0,0,1-.564-.209.316.316,0,0,1,.16-.277Zm-12.7,10.415a.322.322,0,1,0,.322.322A.322.322,0,0,0,387.161,211.07Zm4.984,0a.322.322,0,1,0,.322.322A.322.322,0,0,0,392.145,211.07Zm4.983,0a.322.322,0,1,0,.322.322A.322.322,0,0,0,397.128,211.07Zm4.984,0a.322.322,0,1,0,.322.322A.322.322,0,0,0,402.112,211.07Zm-12.459-3.727a.322.322,0,1,0,.322.322A.322.322,0,0,0,389.653,207.343Zm4.984,0a.322.322,0,1,0,.322.322A.322.322,0,0,0,394.636,207.343Zm4.984,0a.322.322,0,1,0,.322.322A.322.322,0,0,0,399.62,207.343Zm-7.475,10.944a.322.322,0,1,0,.322.322A.322.322,0,0,0,392.145,218.288Zm-2.492-3.728a.322.322,0,1,0,.322.322A.322.322,0,0,0,389.653,214.56Zm4.984,0a.322.322,0,1,0,.322.322A.322.322,0,0,0,394.636,214.56Zm4.984,0a.322.322,0,1,0,.322.322A.322.322,0,0,0,399.62,214.56Z" transform="translate(-367.614 -188.711)" fill="#fff"/>
            <path id="Path_1004" data-name="Path 1004" d="M389.968,236.846c-.587-.827-2.974-4.086-3.65-4.823-.02-.022-.055.013-.043.036.479.888,2.794,4.226,3.384,5.051,1.179,1.649,2.341,3.327,3.669,4.867.027.031.086,0,.064-.042C392.366,240.169,391.149,238.51,389.968,236.846Z" transform="translate(-367.323 -210.615)" fill="#263238"/>
            <path id="Path_1005" data-name="Path 1005" d="M385.829,207c-.8-1.741-1.562-3.5-2.329-5.254-.015-.033-.07-.009-.059.025.343,1.016.721,2.016,1.122,3.008-.3-.489-.585-.986-.863-1.488-.02-.037-.071,0-.055.033a11.132,11.132,0,0,0,1.112,1.925c.248.6.5,1.2.769,1.794.387.868,2.188,4.661,2.422,5.078-1.406.908-2.6,1.9-3.954,2.885q-.992.726-1.968,1.471a20.062,20.062,0,0,0-2,1.524c-.034.034.149.191.219.275.032.037.1.014.076-.028,0,0-.053-.088-.07-.122.34-.187,1.644-1.165,1.983-1.412q.992-.722,1.981-1.451c1.34-.983,4.122-3.026,4.114-3.048C388.186,211.8,386.234,207.886,385.829,207Z" transform="translate(-364.11 -195.044)" fill="#263238"/>
          </g>
          <g id="Group_2002" data-name="Group 2002" transform="translate(48.201 39.445)">
            <g id="Group_2001" data-name="Group 2001">
              <g id="Group_1990" data-name="Group 1990" transform="translate(6.12 10.562)">
                <path id="Path_1006" data-name="Path 1006" d="M379.505,180.463c-.1.448-2.2,3.371-4.241,3.3-.665-.025-.691-3.661-.691-3.661l-.064-.268-.883-3.752,4.387-2.885.634-.382s.173,1.042.377,2.343c.01.06.019.12.029.185s.027.142.036.211c.033.194.066.392.094.59.022.151.045.3.063.456s.04.313.062.473A24.793,24.793,0,0,1,379.505,180.463Z" transform="translate(-373.626 -172.812)" fill="#d3766a"/>
                <path id="Path_1007" data-name="Path 1007" d="M379.025,175.155a7.734,7.734,0,0,1-4.516,4.677l-.883-3.752,4.387-2.885.634-.382S378.821,173.854,379.025,175.155Z" transform="translate(-373.626 -172.812)" fill="#263238"/>
              </g>
              <g id="Group_2000" data-name="Group 2000">
                <path id="Path_1008" data-name="Path 1008" d="M361.577,158.3c-1.93,6.484,1.737,8.372,3.135,8.787,1.27.376,5.642,1.5,8.23-4.755s.184-9.2-2.675-10.211S363.506,151.812,361.577,158.3Z" transform="translate(-361.028 -151.414)" fill="#d3766a"/>
                <g id="Group_1997" data-name="Group 1997" transform="translate(0.952 5.421)">
                  <path id="Path_1009" data-name="Path 1009" d="M364.5,162.843a4.394,4.394,0,0,0,.466.028.754.754,0,0,0,.481-.063.241.241,0,0,0,.077-.283.6.6,0,0,0-.531-.29.877.877,0,0,0-.613.154A.257.257,0,0,0,364.5,162.843Z" transform="translate(-363.65 -162.23)" fill="#263238"/>
                  <path id="Path_1010" data-name="Path 1010" d="M373.08,165.062a4.47,4.47,0,0,1-.415-.214.757.757,0,0,1-.382-.3.24.24,0,0,1,.078-.283.6.6,0,0,1,.6.02.878.878,0,0,1,.449.444A.257.257,0,0,1,373.08,165.062Z" transform="translate(-367.756 -163.239)" fill="#263238"/>
                  <g id="Group_1992" data-name="Group 1992" transform="translate(3.662 2.791)">
                    <g id="Group_1991" data-name="Group 1991">
                      <path id="Path_1011" data-name="Path 1011" d="M370.714,168.695c.008-.016.028.031.022.049-.146.437-.24.962.116,1.228.011.008,0,.03-.011.024C370.375,169.781,370.505,169.085,370.714,168.695Z" transform="translate(-370.524 -168.343)" fill="#263238"/>
                      <path id="Path_1012" data-name="Path 1012" d="M371.3,167.983c.726.158.356,1.6-.317,1.452S370.694,167.85,371.3,167.983Z" transform="translate(-370.581 -167.974)" fill="#263238"/>
                    </g>
                    <path id="Path_1013" data-name="Path 1013" d="M372.438,168.281c.105.114.191.29.339.343.172.063.342-.054.495-.17.016-.012.024,0,.02.023-.067.277-.246.533-.552.5-.279-.032-.41-.326-.408-.621C372.332,168.3,372.4,168.235,372.438,168.281Z" transform="translate(-371.454 -168.124)" fill="#263238"/>
                  </g>
                  <g id="Group_1994" data-name="Group 1994" transform="translate(0 1.56)">
                    <g id="Group_1993" data-name="Group 1993" transform="translate(0.319 0.26)">
                      <path id="Path_1014" data-name="Path 1014" d="M365.031,167.187c0-.018-.04.012-.044.031-.1.45-.284.95-.726,1-.014,0-.018.024,0,.026C364.77,168.3,365.012,167.63,365.031,167.187Z" transform="translate(-363.955 -166.595)" fill="#263238"/>
                      <path id="Path_1015" data-name="Path 1015" d="M364.436,166c-.705-.234-1.12,1.195-.467,1.411S365.028,166.2,364.436,166Z" transform="translate(-363.642 -165.975)" fill="#263238"/>
                    </g>
                    <path id="Path_1016" data-name="Path 1016" d="M363.774,165.733c-.135.043-.286.148-.424.118-.159-.035-.229-.223-.287-.4-.005-.018-.02-.01-.026.009-.087.271-.079.581.168.71.225.118.469-.066.613-.319C363.845,165.8,363.828,165.715,363.774,165.733Z" transform="translate(-362.986 -165.44)" fill="#263238"/>
                  </g>
                  <path id="Path_1017" data-name="Path 1017" d="M368.108,176.23c-.131.083-.269.206-.435.185a1.218,1.218,0,0,1-.461-.214.016.016,0,0,0-.025.019.622.622,0,0,0,.522.364.491.491,0,0,0,.438-.325C368.159,176.235,368.127,176.218,368.108,176.23Z" transform="translate(-365.146 -169.412)" fill="#263238"/>
                  <g id="Group_1995" data-name="Group 1995" transform="translate(1.436 5.548)">
                    <path id="Path_1018" data-name="Path 1018" d="M365.943,173.731a1.876,1.876,0,0,0,.526.792.846.846,0,0,0,.477.195c.383.026.5-.294.529-.592a2.022,2.022,0,0,0-.015-.476A2.432,2.432,0,0,1,365.943,173.731Z" transform="translate(-365.943 -173.65)" fill="#263238"/>
                    <path id="Path_1019" data-name="Path 1019" d="M367.026,175a.846.846,0,0,0,.477.195c.383.026.5-.294.529-.592A.873.873,0,0,0,367.026,175Z" transform="translate(-366.5 -174.125)" fill="#ff97b8"/>
                  </g>
                  <g id="Group_1996" data-name="Group 1996" transform="translate(0.756 0.424)">
                    <path id="Path_1020" data-name="Path 1020" d="M365.322,167.388s-.271.639-.355.953c-.008.03.064.064.169.1,0,0,.007.006.012,0a1.541,1.541,0,0,0,1.6-.167.033.033,0,0,0-.035-.056,2.328,2.328,0,0,1-1.466.023c0-.093.5-1.08.452-1.1a2.8,2.8,0,0,0-.755-.031c.525-1.349,1.263-2.6,1.766-3.953.017-.049-.05-.083-.076-.042a23.44,23.44,0,0,0-2.083,4.176C364.473,167.469,365.182,167.407,365.322,167.388Z" transform="translate(-364.542 -163.103)" fill="#263238"/>
                  </g>
                </g>
                <path id="Path_1021" data-name="Path 1021" d="M373.544,161.827c-1.555-.318-1.019-2.764-1.019-2.764s-1.727-.537-1.247-3.406a4.4,4.4,0,0,1-3.676,1.372c-.521-.034,1.453-.981,1.453-.981a7.106,7.106,0,0,1-6.039-.1c-.256-.106,1.163-3.957,4.408-4.679a6.416,6.416,0,0,1,7.172,2.873,4.471,4.471,0,0,1,1.755,3.564C376.154,159.806,374.148,161.95,373.544,161.827Z" transform="translate(-362.035 -151.07)" fill="#263238"/>
                <g id="Group_1999" data-name="Group 1999" transform="translate(9.836 9.474)">
                  <g id="Group_1998" data-name="Group 1998">
                    <path id="Path_1022" data-name="Path 1022" d="M382.654,174.406a1.439,1.439,0,0,1-.323.016,1.047,1.047,0,0,1-.314-.056.94.94,0,0,1-.357-.2,1.111,1.111,0,0,1-.21-.245,1.309,1.309,0,0,1-.175-.424L382,171.8s1.873-1.771,2.7-1.062S383.84,174.223,382.654,174.406Z" transform="translate(-381.274 -170.571)" fill="#d3766a"/>
                    <path id="Path_1023" data-name="Path 1023" d="M384.836,172.518c.018,0,.016.028,0,.031a2.892,2.892,0,0,0-1.829,1.471.632.632,0,0,1,.961.021c.017.018-.009.046-.03.037a.7.7,0,0,0-.808.085,3.416,3.416,0,0,0-.489.539c-.05.062-.168,0-.125-.075,0-.006.007-.011.01-.017C382.709,173.62,383.758,172.4,384.836,172.518Z" transform="translate(-381.908 -171.568)" fill="#263238"/>
                  </g>
                  <path id="Path_1024" data-name="Path 1024" d="M383.406,177.39a.314.314,0,1,1-.166-.411A.314.314,0,0,1,383.406,177.39Z" transform="translate(-382.06 -173.853)" fill="#fff"/>
                  <path id="Path_1025" data-name="Path 1025" d="M385.086,176.838a.222.222,0,1,1-.117-.291A.222.222,0,0,1,385.086,176.838Z" transform="translate(-383.015 -173.635)" fill="#fff"/>
                </g>
              </g>
            </g>
            <path id="Path_1026" data-name="Path 1026" d="M373.292,189l-2.2,3.757,2.718-.942,2.151,2.235,2.243-5.486-4.363,3.152Z" transform="translate(-366.201 -170.348)" fill="#fff"/>
          </g>
        </g>
      </g>
    </g>
  </g>
</svg>
