<svg xmlns="http://www.w3.org/2000/svg" width="246.331" height="174.552" viewBox="0 0 246.331 174.552">
  <g id="Group_3231" data-name="Group 3231" transform="translate(-55.445 -91.789)">
    <g id="Group_3051" data-name="Group 3051" transform="translate(90.793 91.789)">
      <g id="Group_3046" data-name="Group 3046" transform="translate(0 0)">
        <g id="Group_3045" data-name="Group 3045">
          <path id="Path_1507" data-name="Path 1507" d="M222.639,91.908c-5.08.582-10.843,4.495-11.5,9.06C208.794,97,200.6,95.887,195.686,97.283c-12.98,3.685-14.536,19.281-6.985,28.068a57.907,57.907,0,0,0,14.859,11.776c4.645,2.719,16.309,8.127,16.335,8.1.036.019,8.762-9.423,12.023-13.706a57.913,57.913,0,0,0,9.256-16.547C244.81,103.97,236.045,90.373,222.639,91.908Z" transform="translate(-184.158 -91.789)" fill="#d34e4e"/>
        </g>
      </g>
      <g id="Group_3048" data-name="Group 3048" transform="translate(25.888 17.433)" opacity="0.12" style="mix-blend-mode: multiply;isolation: isolate">
        <g id="Group_3047" data-name="Group 3047">
          <path id="Path_1508" data-name="Path 1508" d="M307.231,162.772A73.121,73.121,0,0,1,298.16,175.9c-3.385,3.887-7.535,7.511-12.512,9.432a18.424,18.424,0,0,1-7.226,1.269c4.851,2.415,10.081,4.831,10.1,4.81.036.019,8.762-9.423,12.023-13.706a57.9,57.9,0,0,0,9.255-16.547,16.65,16.65,0,0,0,.812-5.89A53.007,53.007,0,0,1,307.231,162.772Z" transform="translate(-278.422 -155.265)"/>
        </g>
      </g>
      <g id="Group_3050" data-name="Group 3050" transform="translate(6.142 9.891)">
        <g id="Group_3049" data-name="Group 3049">
          <path id="Path_1509" data-name="Path 1509" d="M254.031,138.716l-10.312,2.313-6.443-12.864a.739.739,0,0,0-1.36.269q-1.669,12.636-3.338,25.272l-.194,1.464-8.541-14.512-1.37-2.327a.746.746,0,0,0-1.321.1l-2.468,8.36-11.6,2.295a.677.677,0,1,0,.263,1.328l12.035-2.381a.721.721,0,0,0,.544-.449l2.115-7.164,8.762,14.888,1.37,2.327a.74.74,0,0,0,1.361-.269q1.669-12.636,3.338-25.272.08-.6.16-1.209l5.632,11.245a.723.723,0,0,0,.776.353l10.852-2.434A.677.677,0,1,0,254.031,138.716Z" transform="translate(-206.523 -127.806)" fill="#fff"/>
        </g>
      </g>
    </g>
    <g id="Group_3068" data-name="Group 3068" transform="translate(234.891 105.969)">
      <g id="Group_3052" data-name="Group 3052" transform="translate(0)">
        <path id="Path_1510" data-name="Path 1510" d="M721.012,149.256h0a.3.3,0,0,1-.4.144l-11.592-5.411a.3.3,0,0,1-.144-.4h0a.3.3,0,0,1,.4-.144l11.593,5.411A.3.3,0,0,1,721.012,149.256Z" transform="translate(-708.853 -143.421)" fill="#3b455a"/>
      </g>
      <g id="Group_3053" data-name="Group 3053" transform="translate(6.941 2.973)">
        <path id="Path_1511" data-name="Path 1511" d="M741.4,157.2l-.647,1.387-6.187-2.888a.765.765,0,0,1-.37-1.017h0a.765.765,0,0,1,1.017-.37Z" transform="translate(-734.126 -154.245)" fill="#8ec3cb"/>
      </g>
      <g id="Group_3067" data-name="Group 3067" transform="translate(11.166 2.436)">
        <g id="Group_3056" data-name="Group 3056" transform="translate(42.108 23.328)">
          <g id="Group_3054" data-name="Group 3054">
            <path id="Path_1512" data-name="Path 1512" d="M913.832,239.463l-.88,1.679-7.452-3.909-2.663,5.077,7.452,3.909-.881,1.679a1.387,1.387,0,0,0,2.457,1.289l4.424-8.434a1.387,1.387,0,1,0-2.457-1.289Z" transform="translate(-902.837 -237.233)" fill="#474ebb"/>
          </g>
          <g id="Group_3055" data-name="Group 3055" transform="translate(4.258 2.234)" opacity="0.12">
            <path id="Path_1513" data-name="Path 1513" d="M918.341,250.443,921,245.366,923,246.411l-4.11,4.318Z" transform="translate(-918.341 -245.366)"/>
          </g>
        </g>
        <g id="Group_3057" data-name="Group 3057" transform="translate(40.578 19.486)">
          <path id="Path_1514" data-name="Path 1514" d="M907.559,225.807l-6.337,12.081a.761.761,0,0,1-1.027.32l-2.929-1.536,7.044-13.429,2.929,1.536A.761.761,0,0,1,907.559,225.807Z" transform="translate(-897.265 -223.243)" fill="#3b455a"/>
        </g>
        <g id="Group_3066" data-name="Group 3066">
          <g id="Group_3058" data-name="Group 3058">
            <path id="Path_1515" data-name="Path 1515" d="M799.792,168.156a1.305,1.305,0,0,0-1.667.613l-.517.986a1.255,1.255,0,0,1-1.695.528l-33.875-17.769a1.972,1.972,0,0,0-1.329-.182l-9.7,2.078a.629.629,0,0,0-.427.325l-1,1.928a.63.63,0,0,0-.023.534l3.818,9.116a1.971,1.971,0,0,0,.9.985l33.878,17.771a1.254,1.254,0,0,1,.528,1.694l-.517.986a1.3,1.3,0,0,0,.443,1.72,1.276,1.276,0,0,0,1.8-.5l10-19.057A1.276,1.276,0,0,0,799.792,168.156Z" transform="translate(-749.512 -152.289)" fill="#8ec3cb"/>
          </g>
          <g id="Group_3059" data-name="Group 3059" transform="translate(1.341 1.922)" opacity="0.17">
            <path id="Path_1516" data-name="Path 1516" d="M765.631,159.541a2.118,2.118,0,0,0-1.235-.237l-8.785,1.1a.472.472,0,0,0-.371.242l-.8,1.535a.474.474,0,0,0,.014.442l4.1,7.816a2.12,2.12,0,0,0,.894.876l32.318,16.952Z" transform="translate(-754.393 -159.289)" fill="#dbe8eb"/>
          </g>
          <g id="Group_3065" data-name="Group 3065" transform="translate(8.284 12.245)">
            <g id="Group_3060" data-name="Group 3060" transform="translate(11.534 6.019)">
              <path id="Rectangle_241" data-name="Rectangle 241" d="M0,0H4.634a.317.317,0,0,1,.317.317v.3a.318.318,0,0,1-.318.318H0a0,0,0,0,1,0,0V0A0,0,0,0,1,0,0Z" transform="translate(0 4.385) rotate(-62.32)" fill="#3b455a"/>
            </g>
            <g id="Group_3061" data-name="Group 3061">
              <path id="Path_1517" data-name="Path 1517" d="M782.76,197.358l-2.259,4.307-.826-.433,2.259-4.307a.087.087,0,0,1,.118-.037l.672.352A.087.087,0,0,1,782.76,197.358Z" transform="translate(-779.675 -196.878)" fill="#3b455a"/>
            </g>
            <g id="Group_3062" data-name="Group 3062" transform="translate(23.067 12.1)">
              <path id="Path_1518" data-name="Path 1518" d="M866.754,241.417l-2.259,4.307-.826-.433,2.259-4.307a.087.087,0,0,1,.118-.037l.672.352A.087.087,0,0,1,866.754,241.417Z" transform="translate(-863.668 -240.937)" fill="#3b455a"/>
            </g>
            <g id="Group_3063" data-name="Group 3063" transform="translate(17.375 11.223)">
              <path id="Rectangle_242" data-name="Rectangle 242" d="M0,0H2.275a.261.261,0,0,1,.261.261V.505a.26.26,0,0,1-.26.26H0a0,0,0,0,1,0,0V0A0,0,0,0,1,0,0Z" transform="translate(0 2.245) rotate(-62.323)" fill="#3b455a"/>
            </g>
            <g id="Group_3064" data-name="Group 3064" transform="translate(5.841 5.173)">
              <path id="Rectangle_243" data-name="Rectangle 243" d="M0,0H2.275a.26.26,0,0,1,.26.26V.5a.261.261,0,0,1-.261.261H0a0,0,0,0,1,0,0V0A0,0,0,0,1,0,0Z" transform="translate(0 2.245) rotate(-62.325)" fill="#3b455a"/>
            </g>
          </g>
        </g>
      </g>
    </g>
    <g id="Group_3100" data-name="Group 3100" transform="translate(111.232 126.984)">
      <g id="Group_3074" data-name="Group 3074" transform="translate(29.215 79.466)">
        <g id="Group_3073" data-name="Group 3073">
          <g id="Group_3070" data-name="Group 3070">
            <g id="Group_3069" data-name="Group 3069">
              <path id="Path_1519" data-name="Path 1519" d="M378.056,511.406l-1.427,19.53L371.9,563.27h-3.634l-2.295-29.835L364.958,509.3Z" transform="translate(-364.958 -509.297)" fill="#ccd2d9"/>
            </g>
          </g>
          <g id="Group_3072" data-name="Group 3072" transform="translate(3.332 53.54)">
            <g id="Group_3071" data-name="Group 3071">
              <path id="Path_1520" data-name="Path 1520" d="M377.092,704.25v1.965l3.929,1.965,1.965-1.965-1.965-1.965Z" transform="translate(-377.092 -704.25)" fill="#3b455a"/>
            </g>
          </g>
        </g>
      </g>
      <g id="Group_3080" data-name="Group 3080" transform="translate(16.574 74.659)">
        <g id="Group_3079" data-name="Group 3079">
          <g id="Group_3076" data-name="Group 3076">
            <g id="Group_3075" data-name="Group 3075">
              <path id="Path_1521" data-name="Path 1521" d="M318.929,494.107l1.381,27.376,3.162,31.428h3.722l3.025-29.776,4.419-31.341Z" transform="translate(-318.929 -491.794)" fill="#ccd2d9"/>
            </g>
          </g>
          <g id="Group_3078" data-name="Group 3078" transform="translate(2.207 60.674)">
            <g id="Group_3077" data-name="Group 3077">
              <path id="Path_1522" data-name="Path 1522" d="M333,712.721v2.013l-4.025,2.012-2.012-2.012,2.012-2.013Z" transform="translate(-326.963 -712.721)" fill="#3b455a"/>
            </g>
          </g>
        </g>
      </g>
      <g id="Group_3085" data-name="Group 3085" transform="translate(18.49 11.666)">
        <g id="Group_3082" data-name="Group 3082" transform="translate(4.671 7.796)">
          <g id="Group_3081" data-name="Group 3081">
            <path id="Path_1523" data-name="Path 1523" d="M349.009,304.427l-3.809-.373a19.106,19.106,0,0,1,.2-3.042c-1.058-.371-2.282-.927-2.468-2.033a3.167,3.167,0,0,1,.061-1.053q.37-2.159.74-4.318a3.864,3.864,0,0,1,.446-1.437,3.24,3.24,0,0,1,2.268-1.23,7.885,7.885,0,0,1,6.387,1.547,3.455,3.455,0,0,1,1.08,1.421,4.686,4.686,0,0,1-.153,2.736l-.65,2.487c-.249.954-.609,2.037-1.526,2.4-.487.19-1.063.136-1.5.417C349.307,302.44,349.413,303.6,349.009,304.427Z" transform="translate(-342.911 -290.811)" fill="#efbfa5"/>
          </g>
        </g>
        <g id="Group_3084" data-name="Group 3084">
          <g id="Group_3083" data-name="Group 3083">
            <path id="Path_1524" data-name="Path 1524" d="M345.589,269.118a10.262,10.262,0,0,0-.072-3.3c-.143-.675-1.005-2.8-.743-3.4-.49,1.039-1.814,1.326-2.957,1.441-4.286.428-9.068-.632-13.008,1.568a5.086,5.086,0,0,0-1.74,1.721,7.664,7.664,0,0,0-.01,8.1,10.952,10.952,0,0,0,1.195,1.5,8.215,8.215,0,0,0,3.213,2.535c.028-1.106-.984-4.592-.136-5.5,1.19-1.274,3.356-1.026,4.9-.805a22.744,22.744,0,0,0,5.923.031,6.99,6.99,0,0,0,1.9-.4c1.435-.6,1.384-1.932,1.513-3.293Q345.578,269.225,345.589,269.118Z" transform="translate(-325.904 -262.422)" fill="#3b455a"/>
          </g>
        </g>
      </g>
      <g id="Group_3091" data-name="Group 3091" transform="translate(0 8.797)">
        <g id="Group_3088" data-name="Group 3088">
          <g id="Group_3087" data-name="Group 3087">
            <g id="Group_3086" data-name="Group 3086">
              <path id="Path_1525" data-name="Path 1525" d="M262.658,259.889l-.462-2.365,1.214-1.744-.239-.445-.56.272.593-1.736-.528-1.392-1.916-.506-1.882.8-.3,1.955.854,2.192.492,3.264Z" transform="translate(-258.578 -251.974)" fill="#efbfa5"/>
            </g>
          </g>
        </g>
        <g id="Group_3090" data-name="Group 3090" transform="translate(0.75 6.02)">
          <g id="Group_3089" data-name="Group 3089">
            <path id="Path_1526" data-name="Path 1526" d="M264.941,274.12l-3.631-.227,1.621,19.81,15.413,8.152,3.551-9.621-12.185-5.6Z" transform="translate(-261.31 -273.894)" fill="#ebb044"/>
          </g>
        </g>
      </g>
      <g id="Group_3097" data-name="Group 3097" transform="translate(31.313 0)">
        <g id="Group_3094" data-name="Group 3094" transform="translate(13.266)">
          <g id="Group_3093" data-name="Group 3093">
            <g id="Group_3092" data-name="Group 3092">
              <path id="Path_1527" data-name="Path 1527" d="M422.29,228.047l.123-2.406-1.448-1.555.174-.474.592.19-.832-1.635.326-1.453,1.825-.771,1.977.53.574,1.893-.536,2.291-.026,3.3Z" transform="translate(-420.898 -219.943)" fill="#efbfa5"/>
            </g>
          </g>
        </g>
        <g id="Group_3096" data-name="Group 3096" transform="translate(0 5.757)">
          <g id="Group_3095" data-name="Group 3095">
            <path id="Path_1528" data-name="Path 1528" d="M386.717,241.644l3.562-.738.282,13.705-1.4,10.593-9.109,13.369-7.458-10.79,8.659-6.364Z" transform="translate(-372.595 -240.906)" fill="#ebb044"/>
          </g>
        </g>
      </g>
      <g id="Group_3099" data-name="Group 3099" transform="translate(9.15 32.099)">
        <g id="Group_3098" data-name="Group 3098">
          <path id="Path_1529" data-name="Path 1529" d="M315.022,336.823l-12.034.51-6.074,23.121L291.9,392.507l38.729.942-9.109-45.3Z" transform="translate(-291.897 -336.823)" fill="#ebb044"/>
        </g>
      </g>
    </g>
    <g id="Group_3117" data-name="Group 3117" transform="translate(199.22 140.363)">
      <g id="Group_3104" data-name="Group 3104" transform="translate(0 2.713)">
        <g id="Group_3102" data-name="Group 3102">
          <g id="Group_3101" data-name="Group 3101">
            <path id="Path_1530" data-name="Path 1530" d="M582.929,286.273l-.443-2.311,1.192-1.7-.232-.435-.547.263.586-1.693-.51-1.361-1.868-.5-1.841.779-.3,1.908.826,2.143.469,3.189Z" transform="translate(-578.965 -278.537)" fill="#c1796b"/>
          </g>
        </g>
        <g id="Group_3103" data-name="Group 3103" transform="translate(0.451 5.311)">
          <path id="Path_1531" data-name="Path 1531" d="M584.244,297.875l-3.635,3.089.516,15.866,6.115,4.259,11.686-1.5-1.559-10.041-9.761,1.88Z" transform="translate(-580.608 -297.875)" fill="#474ebb"/>
        </g>
      </g>
      <g id="Group_3111" data-name="Group 3111" transform="translate(8.781 53.752)">
        <g id="Group_3107" data-name="Group 3107" transform="translate(9.099 0.386)">
          <g id="Group_3105" data-name="Group 3105" transform="translate(17.791 62.37)">
            <path id="Path_1532" data-name="Path 1532" d="M714.514,694.986l.457,2.1-3.622,2.986-2.5-1.652,1.582-2.541,3.622-2.985Z" transform="translate(-708.853 -692.89)" fill="#3b455a"/>
          </g>
          <g id="Group_3106" data-name="Group 3106">
            <path id="Path_1533" data-name="Path 1533" d="M654.857,465.787l4.041,9.32.381,26.221,8.31,28.2-3.864,1.714L646.767,498.5l-1.93-10.373-.767-21.846Z" transform="translate(-644.07 -465.787)" fill="#474ebb"/>
          </g>
        </g>
        <g id="Group_3110" data-name="Group 3110">
          <g id="Group_3108" data-name="Group 3108">
            <path id="Path_1534" data-name="Path 1534" d="M611.257,466.857l-.318,27.479,5.178,35.43H620.1l2.515-32.692,5.449-32.692Z" transform="translate(-610.94 -464.383)" fill="#474ebb"/>
          </g>
          <g id="Group_3109" data-name="Group 3109" transform="translate(2.678 64.91)">
            <path id="Path_1535" data-name="Path 1535" d="M627.15,700.735v2.153l-4.306,2.153-2.153-2.153,2.153-2.153Z" transform="translate(-620.691 -700.735)" fill="#3a332d"/>
          </g>
        </g>
      </g>
      <g id="Group_3112" data-name="Group 3112" transform="translate(3.471 18.625)">
        <path id="Path_1536" data-name="Path 1536" d="M605.072,336.87l10.576-.392s6.327,5.552,9.6,19.978c3.33,14.69-.615,35.837-.615,35.837s-28.376-3.782-33.028-4.366l7.1-29Z" transform="translate(-591.602 -336.478)" fill="#474ebb"/>
      </g>
      <g id="Group_3115" data-name="Group 3115" transform="translate(8.661 0)">
        <g id="Group_3113" data-name="Group 3113" transform="translate(7.147 6.852)">
          <path id="Path_1537" data-name="Path 1537" d="M641.446,306.854l3.706-.362a18.653,18.653,0,0,0-.2-2.959c1.03-.361,2.22-.9,2.4-1.978a3.067,3.067,0,0,0-.059-1.024q-.36-2.1-.72-4.2a3.759,3.759,0,0,0-.434-1.4,3.151,3.151,0,0,0-2.207-1.2,7.673,7.673,0,0,0-6.213,1.5,3.358,3.358,0,0,0-1.051,1.382,4.555,4.555,0,0,0,.149,2.661l.632,2.419c.242.927.592,1.982,1.485,2.331.474.185,1.034.132,1.463.406C641.157,304.921,641.053,306.047,641.446,306.854Z" transform="translate(-636.523 -293.608)" fill="#c1796b"/>
        </g>
        <g id="Group_3114" data-name="Group 3114">
          <path id="Path_1538" data-name="Path 1538" d="M610.5,274.762a11.931,11.931,0,0,1,.3-2.807c.33-1.5,2.1-2.18,3.64-2.287,3.318-.23,6.52-1.734,9.76-.573,1.852.664,4.339.823,6.016,1.759a4.949,4.949,0,0,1,1.693,1.674,7.456,7.456,0,0,1,.01,7.884,10.658,10.658,0,0,1-1.162,1.461,7.986,7.986,0,0,1-3.126,2.466c-.027-1.076.957-4.467.132-5.35-1.309-1.4-4.274-.916-5.9-.574-1.774.373-3.358,1.627-5.117,1.894a6.632,6.632,0,0,1-3.956-1.087A5.031,5.031,0,0,1,610.5,274.762Z" transform="translate(-610.5 -268.66)" fill="#3b455a"/>
        </g>
      </g>
      <g id="Group_3116" data-name="Group 3116" transform="translate(7.827 19.778)">
        <path id="Path_1539" data-name="Path 1539" d="M619.495,341.222,608.375,385.7l-.911,5.833,13.853,1.823s-.547-21.3-.365-24.137,2.237-8.982,2.552-15.6c.182-3.828,1.4-10.7.547-12.942Z" transform="translate(-607.464 -340.675)" fill="#fff"/>
      </g>
    </g>
    <g id="Group_3129" data-name="Group 3129" transform="translate(55.445 144.379)">
      <g id="Group_3118" data-name="Group 3118" transform="translate(10.809 116.055)">
        <path id="Path_1540" data-name="Path 1540" d="M100.77,705.866l-.057.6-.19,1.977-4,1.715L94.8,708.045l2.1-1.846.193-.083.023.246Z" transform="translate(-94.804 -705.866)" fill="#3b455a"/>
      </g>
      <g id="Group_3119" data-name="Group 3119" transform="translate(9.54 81.355)">
        <path id="Path_1541" data-name="Path 1541" d="M97.622,614.187l-.2.027H97.2l-3.439.5-3.192-33.62-.39-1.577c2.994.044,6.553.088,10.138.117Z" transform="translate(-90.183 -579.514)" fill="#c1796b"/>
      </g>
      <g id="Group_3120" data-name="Group 3120" transform="translate(21.168 81.454)">
        <path id="Path_1542" data-name="Path 1542" d="M144.339,579.876l-.737,8.736-7.389,22.649-3.61-.48-.059.443-.02,0,2.66-23.341-2.278-7.973C137.1,579.932,141.2,579.932,144.339,579.876Z" transform="translate(-132.524 -579.876)" fill="#c1796b"/>
      </g>
      <g id="Group_3121" data-name="Group 3121" transform="translate(20.98 112.802)">
        <path id="Path_1543" data-name="Path 1543" d="M135.716,694.058l.227.03,1.651,2.266-2.186,1.756-3.57-2.522.208-1.569,3.528.469Z" transform="translate(-131.839 -694.021)" fill="#3b455a"/>
      </g>
      <g id="Group_3122" data-name="Group 3122" transform="translate(21.189 112.359)">
        <path id="Path_1544" data-name="Path 1544" d="M136.267,692.888l-.141.432-3.528-.469.059-.443Z" transform="translate(-132.598 -692.408)" fill="#3e3d3b"/>
      </g>
      <g id="Group_3123" data-name="Group 3123" transform="translate(4.062 27.52)">
        <path id="Path_1545" data-name="Path 1545" d="M74.118,386.628c-.464,2.186-2.194,3.789-3.883,5.306a92.055,92.055,0,0,1,3.783-8.446A7.458,7.458,0,0,1,74.118,386.628Z" transform="translate(-70.235 -383.489)" fill="#8ec3cb"/>
      </g>
      <g id="Group_3124" data-name="Group 3124" transform="translate(0.347 16.378)">
        <path id="Path_1546" data-name="Path 1546" d="M58.047,407.761s3.264.065,7.855.132c2.994.044,6.553.088,10.138.117l1.872.013c4.191.026,8.289.025,11.433-.03,2.376-.042,4.207-.115,5.12-.232L86.8,368.109l-.03-.122-2.039-8.3-2.973-12.1-7.412-3.532a4.305,4.305,0,0,1-2.115-1.008l-.269-.128a5.97,5.97,0,0,0,.315.941q.076.175.163.333c.618,1.127,1.574,2.185,1.551,3.47a3.045,3.045,0,0,1-.1.7,11.764,11.764,0,0,1-.436,1.231c-1.645,4.309.164,9.173,2.839,12.814,1.37,1.864,3.18,3.481,3.961,5.659a4.814,4.814,0,0,1,.255,1.18c.182,1.963-.743,4.1-2.633,4.421a5.1,5.1,0,0,0-1.327.236c-1.4.649-.793,2.939-1.827,4.081a3.523,3.523,0,0,1-2.792.735,1.8,1.8,0,0,1-.942-.2c-.581-.379-.525-1.223-.7-1.9a3.491,3.491,0,0,0-2.755-2.287,17.381,17.381,0,0,0-3.76-.124,9.611,9.611,0,0,1-4.561-.971,5.966,5.966,0,0,1-1.478-1.115C55.258,387.269,58.047,407.761,58.047,407.761Z" transform="translate(-56.709 -342.916)" fill="#8ec3cb"/>
      </g>
      <g id="Group_3125" data-name="Group 3125" transform="translate(15.31 5.852)">
        <path id="Path_1547" data-name="Path 1547" d="M111.443,314.961c-.7-3.01.058-7.765,2.07-9.54a3.824,3.824,0,0,1,2.7-.832c.477,0,.636.119.882.076a4.876,4.876,0,0,1,1.16,3.256c-.078.937-.617,1.651-.661,2.658-.086,1.832-2.705,3.671-1.7,5.49a4.309,4.309,0,0,1-2.035.182l-2.115-1.008Q111.592,315.109,111.443,314.961Z" transform="translate(-111.19 -304.59)" fill="#c1796b"/>
      </g>
      <g id="Group_3126" data-name="Group 3126" transform="translate(15.869 16.506)">
        <path id="Path_1548" data-name="Path 1548" d="M115.342,344.391a4.308,4.308,0,0,1-2.115-1.008Z" transform="translate(-113.227 -343.383)" fill="#e1cfb5"/>
      </g>
      <g id="Group_3127" data-name="Group 3127" transform="translate(19.789 4.451)">
        <path id="Path_1549" data-name="Path 1549" d="M129.43,306.879c.043-1.006.583-1.721.661-2.658a4.876,4.876,0,0,0-1.16-3.256,1.21,1.21,0,0,0,.42-.185,2.709,2.709,0,0,0,.852-1.292,4.234,4.234,0,0,1,1.8,3.286,12.263,12.263,0,0,1-.405,5.4,6.68,6.68,0,0,1-3.577,4.089c-.1.038-.195.072-.291.1C126.725,310.55,129.344,308.711,129.43,306.879Z" transform="translate(-127.501 -299.488)" fill="#c1796b"/>
      </g>
      <g id="Group_3128" data-name="Group 3128">
        <path id="Path_1550" data-name="Path 1550" d="M55.507,326.385a4.758,4.758,0,0,0,1.31,2.48q.08-.487.166-.965-.087.479-.166.965a5.975,5.975,0,0,0,1.478,1.115,9.614,9.614,0,0,0,4.561.971,17.385,17.385,0,0,1,3.76.124,3.491,3.491,0,0,1,2.755,2.287c.171.672.115,1.516.7,1.9a1.8,1.8,0,0,0,.942.2,3.522,3.522,0,0,0,2.792-.735c1.034-1.142.43-3.432,1.827-4.081a5.1,5.1,0,0,1,1.327-.236c1.89-.32,2.815-2.458,2.633-4.421a4.809,4.809,0,0,0-.255-1.18c-.781-2.178-2.59-3.8-3.961-5.66-2.675-3.641-4.484-8.505-2.839-12.814a11.707,11.707,0,0,0,.436-1.231,3.03,3.03,0,0,0,.1-.7c.024-1.285-.932-2.343-1.551-3.47q-.087-.158-.163-.333a5.973,5.973,0,0,1-.315-.941q-.019-.077-.038-.154a7.48,7.48,0,0,1-1.409-8.036q.106-.224.226-.438-.119.215-.226.438a7.48,7.48,0,0,0,1.409,8.036c-.695-3.01.058-7.765,2.071-9.54a3.824,3.824,0,0,1,2.7-.832c.477,0,.636.119.882.076a1.206,1.206,0,0,0,.42-.186,2.705,2.705,0,0,0,.852-1.292,4.233,4.233,0,0,1,1.8,3.286,12.262,12.262,0,0,1-.405,5.4,6.679,6.679,0,0,1-3.577,4.09c-.1.038-.195.072-.291.1a2.385,2.385,0,0,0,.326.452,5.893,5.893,0,0,0,3.747,1.42,1,1,0,0,0,.491-.019.7.7,0,0,0,.387-.666,2.863,2.863,0,0,0-.171-.8c-.787-2.741.607-5.872.84-8.636s-.337-5.76-2.551-7.624a5.954,5.954,0,0,0-1.089.419c-.035-.046-.07-.091-.107-.136-3.2-3.848-7.729-.559-10.162,2.38a21.282,21.282,0,0,0-4.446,8.277,33.175,33.175,0,0,0-.653,10.038,49.221,49.221,0,0,0,1.214,5.079,7.458,7.458,0,0,1,.1,3.139c-.464,2.186-2.194,3.789-3.883,5.306q-.231.592-.459,1.2t-.453,1.234q-.145.4-.281.82.136-.417.281-.82.225-.626.453-1.234t.459-1.2c-.234.21-.467.419-.7.626C56.93,321.585,55.079,323.878,55.507,326.385ZM72.356,288.3a7.488,7.488,0,0,1,.766-.445A7.488,7.488,0,0,0,72.356,288.3Z" transform="translate(-55.445 -283.281)" fill="#3b455a"/>
      </g>
    </g>
    <g id="Group_3149" data-name="Group 3149" transform="translate(240.855 143.057)">
      <g id="Group_3148" data-name="Group 3148" transform="translate(0 0)">
        <g id="Group_3132" data-name="Group 3132" transform="translate(19.56 61.154)">
          <g id="Group_3130" data-name="Group 3130">
            <path id="Path_1551" data-name="Path 1551" d="M801.79,506.888l15.619-5.744-3.219,27.362,1.865,23.606.165,1.5h0l-3.069.081h0L806,531.6l-3.642-22.4h0Z" transform="translate(-801.79 -501.144)" fill="#efbfa5"/>
          </g>
          <g id="Group_3131" data-name="Group 3131" transform="translate(7.199 52.469)">
            <path id="Path_1552" data-name="Path 1552" d="M832.164,692.278l3.2-.081.816,2.7-.081.024.02,0-5.283,3.13-2.512.279L828,695.459l.679-.5Z" transform="translate(-828.002 -692.197)" fill="#3b455a"/>
          </g>
        </g>
        <g id="Group_3135" data-name="Group 3135" transform="translate(8.921 63.868)">
          <g id="Group_3133" data-name="Group 3133">
            <path id="Path_1553" data-name="Path 1553" d="M763.051,514.525l4.8,47.948,3.088.454,3-26.709,5.384-25.193Z" transform="translate(-763.051 -511.024)" fill="#efbfa5"/>
          </g>
          <g id="Group_3134" data-name="Group 3134" transform="translate(0.6 51.436)">
            <path id="Path_1554" data-name="Path 1554" d="M769.332,698.316l-4.095,2.322.384,1.932,7.317-1.1-.43-2.784Z" transform="translate(-765.237 -698.316)" fill="#3b455a"/>
          </g>
        </g>
        <g id="Group_3141" data-name="Group 3141" transform="translate(0 18.276)">
          <g id="Group_3137" data-name="Group 3137" transform="translate(0.591 0.04)">
            <g id="Group_3136" data-name="Group 3136">
              <path id="Path_1555" data-name="Path 1555" d="M733.725,405.977c-.989-.686-1.01-1.881-1.008-3.078a29.912,29.912,0,0,1,.922-6.728,101.061,101.061,0,0,0,2.582-14.34,75,75,0,0,1,5.6-22.927l1.4-3.728q.417-.727.867-1.437c1.746-2.74,4.778-7.4,8.021-8.159l.2-.046a16.861,16.861,0,0,1,10.858,1.257,10.737,10.737,0,0,1,1.621,1.15c1.507,1.215,2.735,1.873,3.385,3.725a33.831,33.831,0,0,1,1.006,5.029c.631,3.385,1.008,6.811,1.513,10.216.946,6.385,1.749,12.791,2.761,19.167.521,3.281,1.045,6.568,1.291,9.884.218,2.931,2.862,5.908,4.348,8.535.517.914-6.91,3.283-7.575,3.438-3.081.717-6.358.534-9.534.548q-10.44.047-20.865-.643a17.966,17.966,0,0,1-7.2-1.743C733.848,406.059,733.785,406.019,733.725,405.977Z" transform="translate(-732.717 -345.16)" fill="#d34e4e"/>
            </g>
          </g>
          <g id="Group_3138" data-name="Group 3138" transform="translate(8.608)">
            <path id="Path_1556" data-name="Path 1556" d="M777.306,345.056s3.92-1.058,4.462,7.788,1.445,31.231,2.708,37.369,3.159,18.177,3.159,18.177l-12.005.417-13.72-1.083s4.693-8.665,5.416-14.8-.542-29.245,2.527-37.91S773.566,345.212,777.306,345.056Z" transform="translate(-761.91 -345.016)" fill="#fff"/>
          </g>
          <g id="Group_3140" data-name="Group 3140" transform="translate(0 0.425)">
            <g id="Group_3139" data-name="Group 3139">
              <path id="Path_1557" data-name="Path 1557" d="M736.827,365.882l-6.261-.966v-5.393l15.107-11.513,4.874-1.444-2.347,6.318Z" transform="translate(-730.566 -346.565)" fill="#d34e4e"/>
            </g>
          </g>
        </g>
        <g id="Group_3146" data-name="Group 3146" transform="translate(14.916 3.809)">
          <g id="Group_3144" data-name="Group 3144">
            <g id="Group_3142" data-name="Group 3142">
              <path id="Path_1558" data-name="Path 1558" d="M788.5,299.835c-.593,1.781.265,3.68,1.019,5.3.668,1.439.9,2.387-.8,2.775-.956.219-2.652.627-3.491-.1-.635-.554-.278-2.267.031-2.947.236-.519.86-.783,1.082-1.309a1.835,1.835,0,0,0,.108-.693,9.545,9.545,0,0,0-.392-2.843,9.7,9.7,0,0,1-.492-1.889,7.241,7.241,0,0,1,.935-2.906c.651-1.61,2.918-3.771,4.816-2.506a2.773,2.773,0,0,1,.894,1.249,2.3,2.3,0,0,1,.249.889c.015,1.236-1.114,1.445-1.894,2.034A6.188,6.188,0,0,0,788.5,299.835Z" transform="translate(-784.879 -292.336)" fill="#3b455a"/>
            </g>
            <g id="Group_3143" data-name="Group 3143" transform="translate(3.109 1.914)">
              <path id="Path_1559" data-name="Path 1559" d="M800.321,311.841a5.353,5.353,0,0,1-3.552-3.344,10.724,10.724,0,0,1-.48-5c.569-5.6,7.536-5.241,9.895-.948C808.239,306.285,805.108,312.969,800.321,311.841Z" transform="translate(-796.199 -299.306)" fill="#efbfa5"/>
            </g>
          </g>
          <g id="Group_3145" data-name="Group 3145" transform="translate(7.198 12.451)">
            <path id="Path_1560" data-name="Path 1560" d="M811.123,339.067q.041.957.083,1.914a.293.293,0,0,0,.378.337l1.559-.054a1.7,1.7,0,0,0,.753-.143,1.431,1.431,0,0,0,.52-1.5,4.84,4.84,0,0,1-.161-1.674c-1.074.529-2.093-.666-3.167-.137Z" transform="translate(-811.089 -337.672)" fill="#efbfa5"/>
          </g>
        </g>
        <g id="Group_3147" data-name="Group 3147" transform="translate(19.016)">
          <path id="Path_1561" data-name="Path 1561" d="M805.186,278.669c1.829.621,3,2.472,4.787,3.21,1.024.424,2.235.478,3.07,1.206,1.872,1.631.367,5.055,1.905,7,.32.405.751.712,1.072,1.116a5.482,5.482,0,0,1,.845,3.174,3.485,3.485,0,0,1-.027.775c-.24,2.567-3.968,2.4-5.448,2.24-1.625-.181-1.083-1.083-1.083-1.083l.059-.072a3.108,3.108,0,0,0-1.092-2.818,3.805,3.805,0,0,1-.877-.77c-.481-.734-.022-1.708-.093-2.583-.285-3.525-6.2-2.77-7.871-5.28C798.385,281.708,801.731,277.5,805.186,278.669Z" transform="translate(-799.807 -278.468)" fill="#3b455a"/>
        </g>
      </g>
    </g>
    <g id="Group_3154" data-name="Group 3154" transform="translate(270.206 135.258)">
      <g id="Group_3151" data-name="Group 3151" transform="translate(5.927 0)">
        <g id="Group_3150" data-name="Group 3150">
          <path id="Path_1562" data-name="Path 1562" d="M862.683,253.241l-2.265-3.169-1.4.909,1.071,2.514-.86.123,2.269,2.476,1.579-.749Z" transform="translate(-859.021 -250.071)" fill="#efbfa5"/>
        </g>
      </g>
      <g id="Group_3153" data-name="Group 3153" transform="translate(0 4.243)">
        <g id="Group_3152" data-name="Group 3152">
          <path id="Path_1563" data-name="Path 1563" d="M837.44,291.49l11.849-9.57-4.4-14.621,4.37-1.779,8.147,19.279-11.864,14.968Z" transform="translate(-837.44 -265.521)" fill="#d34e4e"/>
        </g>
      </g>
    </g>
    <g id="Group_3155" data-name="Group 3155" transform="translate(252.12 178.968)">
      <path id="Path_1564" data-name="Path 1564" d="M773.488,412.235l3.539-.585-.184-1.523-2.512-.136.247-.761-2.967.87-.022,1.609Z" transform="translate(-771.588 -409.229)" fill="#efbfa5"/>
    </g>
    <g id="Group_3157" data-name="Group 3157" transform="translate(240.855 176.25)">
      <g id="Group_3156" data-name="Group 3156">
        <path id="Path_1565" data-name="Path 1565" d="M734.119,399.331l-.019.308,8.66,2.649-.208,3.191L730.566,402.4Z" transform="translate(-730.566 -399.331)" fill="#d34e4e"/>
      </g>
    </g>
    <g id="Group_3165" data-name="Group 3165" transform="translate(185.432 222.048)">
      <g id="Group_3164" data-name="Group 3164" transform="translate(0)">
        <g id="Group_3163" data-name="Group 3163">
          <g id="Group_3161" data-name="Group 3161">
            <g id="Group_3160" data-name="Group 3160">
              <g id="Group_3158" data-name="Group 3158" transform="translate(0 9.211)">
                <path id="Rectangle_244" data-name="Rectangle 244" d="M16.556,0H27.619A16.556,16.556,0,0,1,44.175,16.556v0A16.557,16.557,0,0,1,27.618,33.112H16.557A16.557,16.557,0,0,1,0,16.556v0A16.556,16.556,0,0,1,16.556,0Z" fill="#d34e4e"/>
              </g>
              <g id="Group_3159" data-name="Group 3159" transform="translate(10.44)">
                <path id="Path_1566" data-name="Path 1566" d="M588.1,573.5v-6.349a1.148,1.148,0,0,0-1.191-1.061H569.7a1.148,1.148,0,0,0-1.191,1.061v6.334a1.8,1.8,0,0,0-1.735,1.816h5.836a1.8,1.8,0,0,0-1.719-1.815v-5.274h14.821v5.27H585.6a1.8,1.8,0,0,0-1.786,1.818h5.836A1.807,1.807,0,0,0,588.1,573.5Z" transform="translate(-566.776 -566.092)" fill="#d34e4e"/>
              </g>
            </g>
          </g>
          <g id="Group_3162" data-name="Group 3162" transform="translate(10.554 13.904)">
            <path id="Path_1567" data-name="Path 1567" d="M588.962,625.254h-7.847v-7.986a.552.552,0,0,0-.539-.548h-4.46a.551.551,0,0,0-.539.548v7.986H567.73a.552.552,0,0,0-.539.548v4.538a.51.51,0,0,0,.155.384.492.492,0,0,0,.384.164h7.848v7.986a.551.551,0,0,0,.539.548h4.46a.494.494,0,0,0,.377-.157.51.51,0,0,0,.162-.391v-7.986h7.847a.552.552,0,0,0,.539-.548V625.8A.552.552,0,0,0,588.962,625.254Z" transform="translate(-567.191 -616.72)" fill="#fff"/>
          </g>
        </g>
      </g>
    </g>
    <g id="Group_3198" data-name="Group 3198" transform="translate(127.892 133.587)">
      <g id="Group_3197" data-name="Group 3197" transform="translate(0 0)">
        <g id="Group_3187" data-name="Group 3187">
          <g id="Group_3171" data-name="Group 3171" transform="translate(0 29.656)">
            <g id="Group_3166" data-name="Group 3166">
              <path id="Path_1568" data-name="Path 1568" d="M319.48,364.51a10.315,10.315,0,1,0,7.886-12.305A10.333,10.333,0,0,0,319.48,364.51Z" transform="translate(-319.242 -351.969)" fill="#3b455a"/>
            </g>
            <g id="Group_3167" data-name="Group 3167" transform="translate(3.226 3.237)">
              <path id="Path_1569" data-name="Path 1569" d="M331.153,372.376a7.09,7.09,0,1,0,5.42-8.458A7.1,7.1,0,0,0,331.153,372.376Z" transform="translate(-330.989 -363.755)" fill="#ccd2d9"/>
            </g>
            <g id="Group_3168" data-name="Group 3168" transform="translate(9.879 14.278)">
              <rect id="Rectangle_245" data-name="Rectangle 245" width="2.764" height="32.999" transform="translate(9.704 32.248) rotate(167.749)" fill="#ccd2d9"/>
            </g>
            <g id="Group_3169" data-name="Group 3169" transform="translate(8 8.154)">
              <path id="Path_1570" data-name="Path 1570" d="M348.428,384.611a2.427,2.427,0,1,0,1.856-2.9A2.432,2.432,0,0,0,348.428,384.611Z" transform="translate(-348.372 -381.66)" fill="#3b455a"/>
            </g>
            <g id="Group_3170" data-name="Group 3170" transform="translate(8.66 12.564)" opacity="0.13">
              <path id="Path_1571" data-name="Path 1571" d="M351.555,397.965l1.7,7.861a12.454,12.454,0,0,1-2.482-.1l.347-8.007Z" transform="translate(-350.777 -397.716)"/>
            </g>
          </g>
          <g id="Group_3173" data-name="Group 3173" transform="translate(14.525 67.154)">
            <g id="Group_3172" data-name="Group 3172">
              <path id="Path_1572" data-name="Path 1572" d="M421.8,488.746c-.6.107-1.114.624-1.78.56.149.948-.188-1.254-.1-.3q.186,1.921.233,3.857.026,1.1,0,2.2c0,.126-.029.813-.007.294-.008.193-.015.386-.025.579q-.027.558-.069,1.117a38.391,38.391,0,0,1-.662,4.858c-.168.82-.367,1.639-.6,2.453q-.185.64-.4,1.276c-.061.181-.127.361-.191.542-.012.034-.033.089-.049.132l-.04.1a23.436,23.436,0,0,1-2.4,4.555c-.122.178-.25.355-.379.531.133-.185-.2.263-.272.347q-.371.459-.778.9a20.25,20.25,0,0,1-1.842,1.749c.125-.11-.4.307-.493.378q-.283.207-.576.405-.531.359-1.094.687-.379.221-.771.427c-.088.046-.178.089-.265.136l-.025.014-.027.012c-.424.186-.841.378-1.275.548q-.818.321-1.668.581-.357.109-.719.208l-.324.086-.021,0a33.446,33.446,0,0,1-3.5.584c-.338.034-.675.057-1.013.081l-.066,0-.04,0-.227.011.136-.007-.132,0c-.509,0-1.015,0-1.521-.021q-.813-.04-1.612-.141c-.225-.029-.446-.065-.669-.1l-.015,0-.034-.008c-.095-.021-.193-.038-.288-.058a19.149,19.149,0,0,1-2.747-.788c-.132-.049-.946-.4-.434-.165-.189-.085-.38-.167-.566-.254q-.593-.278-1.156-.589a21.371,21.371,0,0,1-2.155-1.376c-.054-.04-.124-.092-.157-.118-.1-.083-.211-.165-.314-.249q-.234-.189-.462-.384-.485-.413-.941-.846a25.97,25.97,0,0,1-1.829-1.926q-.455-.53-.88-1.077c-.08-.1-.371-.5-.208-.271-.116-.16-.233-.319-.347-.48a41.127,41.127,0,0,1-4.71-8.954q-.416-1.069-.784-2.151c-.065-.19-.127-.38-.191-.57l-.015-.046-.027-.088c-.1-.328-.205-.657-.3-.987q-.51-1.708-.912-3.44c-.247-1.061-.48-2.129-.633-3.206-.3-2.121-4.588-1.512-4.287.606.011.075.024.149.034.224a38.642,38.642,0,0,0,1.055,4.807,56.557,56.557,0,0,0,3.14,8.882c2.868,6.29,7.4,12.94,15.456,15.855,8.443,3.053,19.549.36,25.449-5.708,5.575-5.734,6.937-13.226,7.148-19.952.1-3.241.438-3.378-.111-6.572A11.6,11.6,0,0,1,421.8,488.746Zm-16.576,29.23c.3-.077.111-.026,0,0Zm12.915-11.613Z" transform="translate(-372.131 -488.511)" fill="#7fc5a3"/>
            </g>
          </g>
          <g id="Group_3178" data-name="Group 3178" transform="translate(59.482)">
            <g id="Group_3174" data-name="Group 3174" transform="translate(4.473 0.367)">
              <path id="Path_1573" data-name="Path 1573" d="M553.109,246.889l9.26-1.552a1.255,1.255,0,0,1,1.423,1.019l3.544,21.16q.25,1.492.5,2.985a1.236,1.236,0,0,1-2.437.408l-3.544-21.16-.3-1.762-8.042,1.348A1.241,1.241,0,0,1,553.109,246.889Z" transform="translate(-552.117 -245.321)" fill="#ccd2d9"/>
            </g>
            <g id="Group_3177" data-name="Group 3177">
              <g id="Group_3175" data-name="Group 3175" transform="translate(0 0.75)">
                <path id="Path_1574" data-name="Path 1574" d="M538.4,252.078l2.811-.471-.819-4.892-2.812.472a2.09,2.09,0,0,0-1.717,2.406l.128.77A2.091,2.091,0,0,0,538.4,252.078Z" transform="translate(-535.83 -246.715)" fill="#3b455a"/>
              </g>
              <g id="Group_3176" data-name="Group 3176" transform="translate(4.115)">
                <path id="Path_1575" data-name="Path 1575" d="M551.76,250.071l2.383-.4a2.416,2.416,0,0,0,1.983-2.781l-.149-.889a2.416,2.416,0,0,0-2.782-1.983l-2.382.4Z" transform="translate(-550.813 -243.986)" fill="#ccd2d9"/>
              </g>
            </g>
          </g>
          <g id="Group_3183" data-name="Group 3183" transform="translate(30.477 3.903)">
            <g id="Group_3179" data-name="Group 3179" transform="translate(0 1.896)">
              <path id="Path_1576" data-name="Path 1576" d="M440.506,265.121l-9.26,1.552a1.256,1.256,0,0,0-1.014,1.427l3.544,21.16q.25,1.492.5,2.985a1.236,1.236,0,0,0,2.437-.408q-1.773-10.58-3.544-21.16-.148-.881-.3-1.762l8.042-1.348A1.241,1.241,0,0,0,440.506,265.121Z" transform="translate(-430.215 -265.101)" fill="#ccd2d9"/>
            </g>
            <g id="Group_3182" data-name="Group 3182" transform="translate(6.677)">
              <g id="Group_3180" data-name="Group 3180" transform="translate(4.085)">
                <path id="Path_1577" data-name="Path 1577" d="M473.033,263.117l-2.812.471-.82-4.892,2.812-.471a2.09,2.09,0,0,1,2.407,1.716l.129.77A2.09,2.09,0,0,1,473.033,263.117Z" transform="translate(-469.402 -258.196)" fill="#3b455a"/>
              </g>
              <g id="Group_3181" data-name="Group 3181" transform="translate(0 0.056)">
                <path id="Path_1578" data-name="Path 1578" d="M459.876,264.053l-2.382.4a2.415,2.415,0,0,1-2.782-1.983l-.149-.889a2.416,2.416,0,0,1,1.984-2.781l2.383-.4Z" transform="translate(-454.529 -258.4)" fill="#ccd2d9"/>
              </g>
            </g>
          </g>
          <g id="Group_3184" data-name="Group 3184" transform="translate(62.421 68.653)" opacity="0.13">
            <path id="Path_1579" data-name="Path 1579" d="M546.53,495.176s.175,1.517.294,3.276l4.125-2.658-.286-1.825Z" transform="translate(-546.53 -493.969)"/>
          </g>
          <g id="Group_3186" data-name="Group 3186" transform="translate(33.789 23.938)">
            <g id="Group_3185" data-name="Group 3185">
              <path id="Path_1580" data-name="Path 1580" d="M489.037,332.808a71.7,71.7,0,0,1,1.61,13.478c.271,7.98-.462,16.851-5.19,23.571-5,7.112-15.026,10.137-23,6.384-7.611-3.583-12.232-11.546-15.3-19.055a86.132,86.132,0,0,1-3.5-10.591c-.5-1.883-.99-3.8-1.3-5.721-.015-.089-.033-.177-.047-.267a1.978,1.978,0,0,1,3.9-.653c.215,1.281.5,2.552.8,3.815q.49,2.061,1.077,4.1c.113.392.23.784.348,1.176.155.518-.092-.285.049.159.072.227.142.454.215.68q.414,1.289.87,2.565a59.638,59.638,0,0,0,4.948,10.7c.129.215.261.427.393.64-.247-.4.083.128.169.26q.429.655.883,1.292c.571.8,1.174,1.572,1.815,2.314q.449.521.924,1.019.223.234.452.462c.1.1.2.2.306.3.083.082.416.383.043.045a22.367,22.367,0,0,0,2.185,1.764q.539.378,1.1.717c.178.107.358.207.538.31-.486-.281.286.143.411.2a15.83,15.83,0,0,0,2.58.978c.089.025.181.046.269.073.46.14-.428-.079.045.012.208.04.414.087.622.125q.74.132,1.492.192c.466.037.932.044,1.4.048.122,0,.48-.022,0,0,.1,0,.2-.007.3-.015.31-.024.618-.046.926-.081a23.4,23.4,0,0,0,3.173-.639c.094-.024.374-.12-.057.02.123-.04.246-.08.368-.122q.325-.111.646-.235c.508-.2,1.007-.418,1.493-.663.387-.2.757-.417,1.134-.631.423-.24-.349.251.046-.029.077-.055.156-.1.234-.158q.346-.238.679-.494.495-.38.958-.8.256-.23.5-.471c.1-.1.7-.745.322-.321a19.648,19.648,0,0,0,1.677-2.168q.343-.518.653-1.057c.065-.112.413-.77.163-.283.128-.248.255-.5.375-.748a29.052,29.052,0,0,0,1.89-5.37c.024-.094.046-.188.069-.282-.112.461-.028.121,0,0,.046-.213.094-.426.138-.64q.154-.751.28-1.508.24-1.444.383-2.9a57.116,57.116,0,0,0,.273-5.756q0-.662-.013-1.325c0-.229-.012-.458-.018-.687.015.615-.008-.2-.015-.349q-.055-1.3-.155-2.605-.176-2.3-.481-4.581c-.236-1.777-.565-3.53-.89-5.291-.016-.086-.037-.171-.056-.256a1.977,1.977,0,1,1,3.9-.654Z" transform="translate(-442.274 -331.151)" fill="#7fc5a3"/>
            </g>
          </g>
        </g>
        <g id="Group_3196" data-name="Group 3196" transform="translate(44.67 51.387)">
          <g id="Group_3194" data-name="Group 3194">
            <g id="Group_3188" data-name="Group 3188" transform="translate(0 49.865)">
              <path id="Path_1581" data-name="Path 1581" d="M481.9,612.733l0-.015.184-.047h.008l0,.007s0,0-.007.008h-.005C482.058,612.695,482.012,612.707,481.9,612.733Z" transform="translate(-481.895 -612.67)" fill="#a0a2a5"/>
            </g>
            <g id="Group_3189" data-name="Group 3189" transform="translate(14.77 36.626)">
              <path id="Path_1582" data-name="Path 1582" d="M535.692,564.483l-.014-.005.006-.015.014.006Z" transform="translate(-535.678 -564.463)" fill="#a0a2a5"/>
            </g>
            <g id="Group_3190" data-name="Group 3190" transform="translate(16.501 11.321)">
              <path id="Path_1583" data-name="Path 1583" d="M541.981,472.343v-.015l.069-.006v.016Z" transform="translate(-541.98 -472.322)" fill="#a0a2a5"/>
            </g>
            <g id="Group_3191" data-name="Group 3191" transform="translate(20.371 12.17)">
              <path id="Path_1584" data-name="Path 1584" d="M556.077,475.469l0-.015.131-.041h.007l0,.007s0,0-.006.009h0A1.318,1.318,0,0,1,556.077,475.469Z" transform="translate(-556.072 -475.412)" fill="#a0a2a5"/>
            </g>
            <g id="Group_3192" data-name="Group 3192" transform="translate(30.168)">
              <path id="Path_1585" data-name="Path 1585" d="M591.758,431.275h0l-.015,0v-.007c.005-.021.012-.051.022-.091l0-.015.014-.057v0l.015,0-.018.075Z" transform="translate(-591.743 -431.099)" fill="#a0a2a5"/>
            </g>
            <g id="Group_3193" data-name="Group 3193" transform="translate(30.16 0.195)">
              <path id="Path_1586" data-name="Path 1586" d="M591.728,431.825l-.015,0s0,0,0-.013h0l.015,0Z" transform="translate(-591.713 -431.809)" fill="#a0a2a5"/>
            </g>
          </g>
          <g id="Group_3195" data-name="Group 3195" transform="translate(16.561 12.859)">
            <path id="Path_1587" data-name="Path 1587" d="M542.2,477.94v-.015h.01l.1,0v.016h-.033l-.074,0Z" transform="translate(-542.196 -477.92)" fill="#a0a2a5"/>
          </g>
        </g>
      </g>
    </g>
    <g id="Group_3219" data-name="Group 3219" transform="translate(78.002 163.346)">
      <g id="Group_3218" data-name="Group 3218" transform="translate(0)">
        <g id="Group_3207" data-name="Group 3207">
          <g id="Group_3199" data-name="Group 3199" transform="translate(0 3.082)">
            <rect id="Rectangle_246" data-name="Rectangle 246" width="43.326" height="57.474" transform="translate(9.269) rotate(9.281)" fill="#3b455a"/>
          </g>
          <g id="Group_3200" data-name="Group 3200" transform="translate(3.59 11.524)" opacity="0.26">
            <path id="Path_1588" data-name="Path 1588" d="M150.654,440.672l.64.1,37.57,7.335,7.775-53.8-1.837.215Z" transform="translate(-150.654 -394.307)" fill="#040909"/>
          </g>
          <g id="Group_3201" data-name="Group 3201" transform="translate(2.555 5.241)">
            <rect id="Rectangle_247" data-name="Rectangle 247" width="38.956" height="53.174" transform="translate(8.576 0) rotate(9.281)" fill="#f7f7f7"/>
          </g>
          <g id="Group_3202" data-name="Group 3202" transform="translate(7.127 5.006)" opacity="0.05">
            <path id="Path_1589" data-name="Path 1589" d="M167.357,370.575l27.653,4.519-31.479,18.615Z" transform="translate(-163.531 -370.575)"/>
          </g>
          <g id="Group_3206" data-name="Group 3206" transform="translate(21.794)">
            <g id="Group_3203" data-name="Group 3203" transform="translate(0 6.741)" opacity="0.12">
              <rect id="Rectangle_248" data-name="Rectangle 248" width="16.919" height="1.579" transform="translate(0.255 0) rotate(9.281)"/>
            </g>
            <g id="Group_3205" data-name="Group 3205">
              <g id="Group_3204" data-name="Group 3204">
                <path id="Path_1590" data-name="Path 1590" d="M231.238,356.544l-.259-.042.028-.174a3.26,3.26,0,0,0-2.939-3.521l-2.49-.407a3.26,3.26,0,0,0-3.906,2.4l-.028.174-.259-.042a3.26,3.26,0,0,0-3.906,2.4l-.541,3.309,16.7,2.728.54-3.309A3.26,3.26,0,0,0,231.238,356.544Zm-2.738-.378-4.4-.719a.824.824,0,1,1,.265-1.626l4.4.719a.823.823,0,1,1-.266,1.625Z" transform="translate(-216.938 -352.347)" fill="#bec6cc"/>
              </g>
            </g>
          </g>
        </g>
        <g id="Group_3211" data-name="Group 3211" transform="translate(9.178 20.739)" opacity="0.47">
          <g id="Group_3208" data-name="Group 3208" transform="translate(3.39)">
            <path id="Path_1591" data-name="Path 1591" d="M190.251,428.788l-5.645-.922a.3.3,0,0,0-.342.244l-.916,5.611a.3.3,0,0,0,.246.34l5.645.922a.274.274,0,0,0,.211-.046l.012-.008,0,0a.273.273,0,0,0,.114-.188l.917-5.611A.3.3,0,0,0,190.251,428.788Zm-1.211,5.563-5.057-.826.821-5.027,5.057.826Z" transform="translate(-183.345 -427.862)" fill="#c0c4c9"/>
          </g>
          <g id="Group_3209" data-name="Group 3209" transform="translate(1.695 10.375)">
            <path id="Path_1592" data-name="Path 1592" d="M184.08,466.565l-5.645-.923a.3.3,0,0,0-.342.244l-.916,5.611a.3.3,0,0,0,.246.34l5.645.923a.274.274,0,0,0,.212-.046l.011-.007.007,0a.271.271,0,0,0,.112-.186l.917-5.611A.3.3,0,0,0,184.08,466.565Zm-1.211,5.563-5.057-.826.821-5.027,5.057.827Z" transform="translate(-177.174 -465.639)" fill="#c0c4c9"/>
          </g>
          <g id="Group_3210" data-name="Group 3210" transform="translate(0 20.75)">
            <path id="Path_1593" data-name="Path 1593" d="M177.909,504.342l-5.645-.922a.3.3,0,0,0-.342.244l-.917,5.611a.3.3,0,0,0,.246.34l5.645.923a.278.278,0,0,0,.212-.046l.011-.008.007,0a.273.273,0,0,0,.112-.186l.916-5.611A.3.3,0,0,0,177.909,504.342Zm-1.211,5.563-5.057-.827.821-5.027,5.057.827Z" transform="translate(-171.003 -503.416)" fill="#c0c4c9"/>
          </g>
        </g>
        <g id="Group_3212" data-name="Group 3212" transform="translate(15.384 20.937)">
          <path id="Path_1594" data-name="Path 1594" d="M193.6,430.822l1.368-.218.51,1.407,6.924-3.429.7.261-8.167,4.7Z" transform="translate(-193.599 -428.582)" fill="#d34e4e"/>
        </g>
        <g id="Group_3213" data-name="Group 3213" transform="translate(13.176 31.498)">
          <path id="Path_1595" data-name="Path 1595" d="M185.559,469.277l1.368-.218.51,1.408,6.924-3.429.7.261-8.167,4.7Z" transform="translate(-185.559 -467.037)" fill="#d34e4e"/>
        </g>
        <g id="Group_3214" data-name="Group 3214" transform="translate(11.455 41.298)">
          <path id="Path_1596" data-name="Path 1596" d="M179.291,504.962l1.368-.218.51,1.407,6.924-3.429.7.261-8.167,4.7Z" transform="translate(-179.291 -502.723)" fill="#d34e4e"/>
        </g>
        <g id="Group_3215" data-name="Group 3215" transform="translate(18.88 45.287)" opacity="0.32">
          <rect id="Rectangle_249" data-name="Rectangle 249" width="20.177" height="2.843" transform="matrix(0.987, 0.161, -0.161, 0.987, 0.458, 0)" fill="#8ec3cb"/>
        </g>
        <g id="Group_3216" data-name="Group 3216" transform="translate(20.675 34.298)" opacity="0.32">
          <rect id="Rectangle_250" data-name="Rectangle 250" width="20.177" height="2.843" transform="matrix(0.987, 0.161, -0.161, 0.987, 0.458, 0)" fill="#8ec3cb"/>
        </g>
        <g id="Group_3217" data-name="Group 3217" transform="translate(22.47 23.31)" opacity="0.32">
          <rect id="Rectangle_251" data-name="Rectangle 251" width="20.177" height="2.843" transform="translate(0.458 0) rotate(9.28)" fill="#8ec3cb"/>
        </g>
      </g>
    </g>
    <g id="Group_3224" data-name="Group 3224" transform="translate(226.554 174.202)">
      <g id="Group_3220" data-name="Group 3220" transform="translate(0 5.861)">
        <path id="Path_1597" data-name="Path 1597" d="M714.351,438.865l-19.388,4.7a13.282,13.282,0,0,1-16.1-9.679h0a13.28,13.28,0,0,1,9.868-15.979l19.339-4.693Z" transform="translate(-678.496 -413.219)" fill="#e0e0e0"/>
      </g>
      <g id="Group_3221" data-name="Group 3221" transform="translate(30.312 0)">
        <path id="Path_1598" data-name="Path 1598" d="M795.1,423.218l21.8-5.334a12.275,12.275,0,0,0,9.034-14.824l-.437-1.8a12.275,12.275,0,0,0-14.823-9.033l-21.8,5.334Z" transform="translate(-788.868 -391.876)" fill="#3b455a"/>
      </g>
      <g id="Group_3223" data-name="Group 3223" transform="translate(10.237 14.011)">
        <g id="Group_3222" data-name="Group 3222">
          <path id="Path_1599" data-name="Path 1599" d="M730.639,447.2l-4.926,1.2-.461.112q-.431-1.772-.861-3.545l-.432-1.779a.384.384,0,0,0-.459-.276l-3.061.743a.384.384,0,0,0-.281.455l1.182,4.868c.037.152.073.3.11.456l-3.587.871-1.8.437a.384.384,0,0,0-.281.455q.367,1.513.734,3.025a.345.345,0,0,0,.169.23.351.351,0,0,0,.29.046l4.926-1.2.461-.112.86,3.546.432,1.779a.384.384,0,0,0,.459.276l3.061-.743a.354.354,0,0,0,.233-.168.344.344,0,0,0,.047-.288l-1.181-4.868-.111-.456,3.588-.87,1.8-.437a.384.384,0,0,0,.281-.455l-.734-3.025A.384.384,0,0,0,730.639,447.2Z" transform="translate(-715.772 -442.892)" fill="#3b455a"/>
        </g>
      </g>
    </g>
    <g id="Group_3227" data-name="Group 3227" transform="translate(200.495 165.981)">
      <g id="Group_3225" data-name="Group 3225" transform="translate(0 17.865)">
        <path id="Path_1600" data-name="Path 1600" d="M591.863,427.3l-2.478.783-2.017-1.089-.448.31.36.567-1.933-.425-1.428.735-.309,2.115,1.092,1.919,2.132.084,2.246-1.182,3.439-.926Z" transform="translate(-583.609 -426.99)" fill="#c1796b"/>
      </g>
      <g id="Group_3226" data-name="Group 3226" transform="translate(6.146)">
        <path id="Path_1601" data-name="Path 1601" d="M605.988,380.283l11.547-2.708c1.036-.243,2.111-.3,3.147-.546,1.515-.367,1.93-.494,2.143-1.939.617-4.188-.167-8.532.465-12.657a40.1,40.1,0,0,1,4.54-.491c2.534.034,2.314,1.777,2.457,3.719.169,2.3.27,4.614.286,6.924.013,1.914.645,10.215-2.167,10.822-2.015.442-22.32,1.523-22.312,1.939C606.091,385.179,605.988,380.283,605.988,380.283Z" transform="translate(-605.988 -361.941)" fill="#474ebb"/>
      </g>
    </g>
    <g id="Group_3230" data-name="Group 3230" transform="translate(80.851 181.721)">
      <g id="Group_3228" data-name="Group 3228" transform="translate(14.25 9.839)">
        <path id="Path_1602" data-name="Path 1602" d="M200.708,455.1c.483-.151,4.069.749,3.832,1.063a6.572,6.572,0,0,1-.909.905c1.022.623,4.221,1.708,1.939,2.868-.989.5-3.622-.2-4.4-.873l-.053-.046-1.269-3.392A1.82,1.82,0,0,1,200.708,455.1Z" transform="translate(-199.844 -455.079)" fill="#c1796b"/>
      </g>
      <g id="Group_3229" data-name="Group 3229">
        <path id="Path_1603" data-name="Path 1603" d="M147.955,419.254l14.234,10.337.016.043,1.269,3.392.33.881c-7.666-.994-8.332-3.031-15.568-6.159Z" transform="translate(-147.955 -419.254)" fill="#8ec3cb"/>
      </g>
    </g>
  </g>
</svg>
