<svg xmlns="http://www.w3.org/2000/svg" width="242.848" height="167.99" viewBox="0 0 242.848 167.99">
  <g id="Group_3044" data-name="Group 3044" transform="translate(-183 -233.736)">
    <g id="shadow" transform="translate(183 360.935)">
      <g id="Group_2951" data-name="Group 2951" transform="translate(0 0)" opacity="0.12" style="mix-blend-mode: multiply;isolation: isolate">
        <path id="Path_1470" data-name="Path 1470" d="M414.494,851.8H217.063c-6.245,0-11.354,3.1-11.354,6.88h0c0,2.62,2.451,4.909,6.031,6.07H194.354c-6.245,0-11.354,3.1-11.354,6.879h0c0,3.784,5.109,6.88,11.354,6.88h6.058a5.63,5.63,0,0,0-2.718,4.451v2.752c0,3.784,5.109,6.88,11.354,6.88H403.54c6.245,0,11.354-3.1,11.354-6.88v-2.752c0-3.784-5.11-6.879-11.354-6.879l-13.224.153a6.29,6.29,0,0,0,3.74-1.449,5.414,5.414,0,0,0,1.068-6.419,4.687,4.687,0,0,0-4.007-2.9l23.376.093c6.245,0,11.354-3.1,11.354-6.879h0C425.848,854.893,420.739,851.8,414.494,851.8Z" transform="translate(-183 -851.797)" fill="#606060"/>
      </g>
    </g>
    <g id="object" transform="translate(186.978 233.736)">
      <g id="Group_3043" data-name="Group 3043">
        <g id="Group_2952" data-name="Group 2952" transform="translate(18.436 25.682)">
          <path id="Path_1471" data-name="Path 1471" d="M295.643,372.412l14.612,4.322,10.756-18.208,3.528,4.044-10.361,23.6-17.431-3.253-4.839-6.147Z" transform="translate(-291.908 -358.525)" fill="#aeccdc"/>
        </g>
        <g id="Group_2953" data-name="Group 2953" transform="translate(181.028 6.872)">
          <path id="Path_1472" data-name="Path 1472" d="M1103.818,299.313l-14.88-14.165.474-17.792-4.965-.23-2.494,17.437-.009,4.261,18.557,21.24,2.5-6.922Z" transform="translate(-1081.943 -267.125)" fill="#c8d6a1"/>
        </g>
        <g id="Group_2974" data-name="Group 2974" transform="translate(187.102 18.764)">
          <g id="Group_2964" data-name="Group 2964" transform="translate(5.737 57.26)">
            <g id="Group_2958" data-name="Group 2958" transform="translate(9.829 0.417)">
              <g id="Group_2955" data-name="Group 2955" transform="translate(19.219 67.373)">
                <g id="Group_2954" data-name="Group 2954">
                  <path id="Path_1473" data-name="Path 1473" d="M1286.586,934.79l.493,2.265-3.912,3.225-2.7-1.785,1.709-2.745,3.912-3.225Z" transform="translate(-1280.471 -932.525)" fill="#3a3029"/>
                </g>
              </g>
              <g id="Group_2957" data-name="Group 2957">
                <g id="Group_2956" data-name="Group 2956">
                  <path id="Path_1474" data-name="Path 1474" d="M1198.74,605.159l4.366,10.067.412,28.324,8.976,30.466-4.174,1.851L1190,640.492l-2.084-11.2-.829-23.6Z" transform="translate(-1187.088 -605.159)" fill="#cab5a1"/>
                </g>
              </g>
            </g>
            <g id="Group_2963" data-name="Group 2963">
              <g id="Group_2960" data-name="Group 2960">
                <g id="Group_2959" data-name="Group 2959">
                  <path id="Path_1475" data-name="Path 1475" d="M1139.673,605.808l-.343,29.684,5.594,38.273h4.3l2.717-35.315,5.886-35.315Z" transform="translate(-1139.33 -603.135)" fill="#cab5a1"/>
                </g>
              </g>
              <g id="Group_2962" data-name="Group 2962" transform="translate(2.893 70.117)">
                <g id="Group_2961" data-name="Group 2961">
                  <path id="Path_1476" data-name="Path 1476" d="M1160.365,943.835v2.325l-4.651,2.326-2.325-2.326,2.325-2.325Z" transform="translate(-1153.389 -943.835)" fill="#3a3029"/>
                </g>
              </g>
            </g>
          </g>
          <g id="Group_2966" data-name="Group 2966" transform="translate(0 19.315)">
            <g id="Group_2965" data-name="Group 2965">
              <path id="Path_1477" data-name="Path 1477" d="M1126.005,419.185l11.425-.423s6.835,6,10.367,21.581c3.6,15.868-.664,38.712-.664,38.712s-30.652-4.085-35.678-4.716l7.668-31.331Z" transform="translate(-1111.455 -418.762)" fill="#c8d6a1"/>
            </g>
          </g>
          <g id="Group_2971" data-name="Group 2971" transform="translate(5.288)">
            <g id="Group_2968" data-name="Group 2968" transform="translate(7.607 7.447)">
              <g id="Group_2967" data-name="Group 2967">
                <path id="Path_1478" data-name="Path 1478" d="M1179.219,375.376l4.01-.306a20.105,20.105,0,0,0-.145-3.2c1.121-.366,2.418-.923,2.639-2.081a3.319,3.319,0,0,0-.041-1.107l-.681-4.553a4.054,4.054,0,0,0-.437-1.52,3.405,3.405,0,0,0-2.356-1.343,8.286,8.286,0,0,0-6.745,1.483,3.63,3.63,0,0,0-1.167,1.468,4.922,4.922,0,0,0,.1,2.878l.627,2.627c.24,1.007.594,2.154,1.55,2.551.508.211,1.114.166,1.571.472C1178.951,373.282,1178.813,374.5,1179.219,375.376Z" transform="translate(-1174.116 -361.092)" fill="#eacdb0"/>
              </g>
            </g>
            <g id="Group_2970" data-name="Group 2970">
              <g id="Group_2969" data-name="Group 2969">
                <path id="Path_1479" data-name="Path 1479" d="M1137.152,331.247a12.888,12.888,0,0,1,.391-3.024c.391-1.617,2.323-2.306,3.984-2.386,3.589-.172,7.081-1.723,10.554-.4,1.985.759,4.667.988,6.456,2.037a5.341,5.341,0,0,1,1.79,1.847,8.054,8.054,0,0,1-.17,8.515,11.511,11.511,0,0,1-1.289,1.551c-.967,1-2.125,2.242-3.432,2.592,0-1.162,1.136-4.8.266-5.774-1.382-1.543-4.6-1.088-6.36-.756-1.925.363-3.664,1.681-5.57,1.928a7.162,7.162,0,0,1-4.247-1.265A5.435,5.435,0,0,1,1137.152,331.247Z" transform="translate(-1137.152 -324.909)" fill="#3a3029"/>
              </g>
            </g>
          </g>
          <g id="Group_2973" data-name="Group 2973" transform="translate(4.706 20.56)">
            <g id="Group_2972" data-name="Group 2972">
              <path id="Path_1480" data-name="Path 1480" d="M1147.316,425.4,1135.3,473.446l-.985,6.3,14.965,1.969s-.591-23.007-.394-26.074,2.416-9.7,2.757-16.85c.2-4.135,1.511-11.562.591-13.98Z" transform="translate(-1134.32 -424.811)" fill="#fff"/>
            </g>
          </g>
        </g>
        <g id="Group_2975" data-name="Group 2975" transform="translate(182.608)">
          <path id="Path_1481" data-name="Path 1481" d="M1094.974,240.811l1.748-3.621-3.123-3.454-3.979,5.363,1.776,1.548Z" transform="translate(-1089.62 -233.736)" fill="#eacdb0"/>
        </g>
        <g id="Group_2982" data-name="Group 2982" transform="translate(75.053 26.809)">
          <g id="Group_2977" data-name="Group 2977">
            <g id="Group_2976" data-name="Group 2976">
              <path id="Path_1482" data-name="Path 1482" d="M661.176,364.093c-11.375-.927-25.687,5.144-29.1,14.856-3.416-9.712-20.865-15.688-32.24-14.762-30.016,2.445-40.176,35.918-27.45,58.428,6.849,12.115,16.692,22.708,27.431,32.22,8.993,7.965,32.188,24.858,32.259,24.8.07.057,23.266-16.836,32.259-24.8,10.739-9.512,20.582-20.1,27.432-32.22C704.491,400.105,691.192,366.538,661.176,364.093Z" transform="translate(-567.01 -364)" fill="#b22759"/>
            </g>
          </g>
          <g id="Group_2979" data-name="Group 2979" transform="translate(45.523 46.486)" opacity="0.12" style="mix-blend-mode: multiply;isolation: isolate">
            <g id="Group_2978" data-name="Group 2978">
              <path id="Path_1483" data-name="Path 1483" d="M861.6,604.85a163.214,163.214,0,0,1-25.548,24.806c-9.094,7.044-19.75,13.181-31.478,15.232a41.143,41.143,0,0,1-16.37-.352c9.574,7.389,19.979,14.943,20.027,14.905.07.057,23.266-16.836,32.258-24.8,10.739-9.512,20.582-20.1,27.432-32.22a37.17,37.17,0,0,0,4.328-12.544A118.353,118.353,0,0,1,861.6,604.85Z" transform="translate(-788.207 -589.877)"/>
            </g>
          </g>
          <g id="Group_2981" data-name="Group 2981" transform="translate(9.599 20.512)">
            <g id="Group_2980" data-name="Group 2980">
              <path id="Path_1484" data-name="Path 1484" d="M722.47,495.1l-23.58.6-8.533-30.956a1.65,1.65,0,0,0-3.1,0l-18.256,53.885-1.057,3.121-12.414-35.472-1.991-5.689c-.4-1.143-2.286-1.6-2.933-.361l-9.023,17.234H615.2a1.511,1.511,0,1,0,0,3.021h27.382a1.609,1.609,0,0,0,1.386-.748l7.733-14.769,12.736,36.391,1.991,5.689a1.651,1.651,0,0,0,3.1,0l18.255-53.885.873-2.578,7.459,27.059a1.615,1.615,0,0,0,1.547,1.109l24.813-.629A1.511,1.511,0,1,0,722.47,495.1Z" transform="translate(-613.65 -463.666)" fill="#fff"/>
            </g>
          </g>
        </g>
        <g id="Group_2983" data-name="Group 2983" transform="translate(182.286 38.128)">
          <path id="Path_1485" data-name="Path 1485" d="M1118.925,419l-8.644,22.638H1089.29l-1.235,6.792,22.844,1.852,7.409-3.087,7.408-17.521Z" transform="translate(-1088.055 -419)" fill="#d2e0a9"/>
        </g>
        <g id="Group_2984" data-name="Group 2984" transform="translate(172.201 58.297)">
          <path id="Path_1486" data-name="Path 1486" d="M1050.374,519.47,1044.2,517l-5.145,3.293.823,2.264,9.683,1.386Z" transform="translate(-1039.055 -517)" fill="#eacdb0"/>
        </g>
        <g id="Group_3020" data-name="Group 3020" transform="translate(39.099 14.886)">
          <g id="Group_2995" data-name="Group 2995" transform="translate(86.19 30.954)">
            <g id="Group_2986" data-name="Group 2986">
              <g id="Group_2985" data-name="Group 2985">
                <path id="Path_1487" data-name="Path 1487" d="M838.024,472.691a13.585,13.585,0,1,1-10.7-15.959A13.585,13.585,0,0,1,838.024,472.691Z" transform="translate(-811.109 -456.472)" fill="#35383f"/>
              </g>
            </g>
            <g id="Group_2988" data-name="Group 2988" transform="translate(4.248 4.248)">
              <g id="Group_2987" data-name="Group 2987">
                <path id="Path_1488" data-name="Path 1488" d="M850.25,488.261a9.338,9.338,0,1,1-7.352-10.97A9.338,9.338,0,0,1,850.25,488.261Z" transform="translate(-831.749 -477.112)" fill="#e5ded6"/>
              </g>
            </g>
            <g id="Group_2990" data-name="Group 2990" transform="translate(1.071 18.789)">
              <g id="Group_2989" data-name="Group 2989" transform="translate(0 0)">
                <rect id="Rectangle_236" data-name="Rectangle 236" width="3.64" height="49.723" transform="matrix(0.981, 0.194, -0.194, 0.981, 9.635, 0)" fill="#e5ded6"/>
              </g>
            </g>
            <g id="Group_2992" data-name="Group 2992" transform="translate(10.253 10.704)">
              <g id="Group_2991" data-name="Group 2991">
                <path id="Path_1489" data-name="Path 1489" d="M867.259,512.3a3.2,3.2,0,1,1-2.516-3.755A3.2,3.2,0,0,1,867.259,512.3Z" transform="translate(-860.926 -508.482)" fill="#35383f"/>
              </g>
            </g>
            <g id="Group_2994" data-name="Group 2994" transform="translate(12.765 16.456)" opacity="0.13">
              <g id="Group_2993" data-name="Group 2993">
                <path id="Path_1490" data-name="Path 1490" d="M875.178,536.769l-2.045,10.355a16.463,16.463,0,0,0,3.266-.194l-.661-10.5Z" transform="translate(-873.133 -536.432)"/>
              </g>
            </g>
          </g>
          <g id="Group_2998" data-name="Group 2998" transform="translate(15.468 77.517)">
            <g id="Group_2997" data-name="Group 2997">
              <g id="Group_2996" data-name="Group 2996">
                <path id="Path_1491" data-name="Path 1491" d="M468.765,682.723a72.67,72.67,0,0,0-1.292,14.575c.03,10.108,1.762,21.417,9.917,30.274,8.631,9.374,25.248,13.911,38.1,9.7,12.27-4.017,19.374-13.8,23.964-23.115a84.747,84.747,0,0,0,5.111-13.2,57.785,57.785,0,0,0,1.794-7.169c.018-.112.042-.223.061-.335.544-3.166-5.889-4.272-6.434-1.1-.276,1.61-.674,3.2-1.091,4.786q-.68,2.581-1.522,5.123c-.162.491-.331.98-.5,1.468l-.045.13-.025.068c-.1.283-.207.566-.313.848q-.6,1.608-1.274,3.194a61.631,61.631,0,0,1-7.478,13.234c-.179.236-.361.47-.544.7.256-.329-.2.247-.325.4q-.664.8-1.372,1.578a39.081,39.081,0,0,1-2.838,2.81q-.706.63-1.454,1.229-.352.281-.713.555c-.16.121-.323.24-.484.36-.05.038-.159.114-.241.171a32.1,32.1,0,0,1-3.305,1.97q-.862.442-1.768.833c-.285.123-.576.238-.864.357.78-.323-.46.161-.661.229a28.945,28.945,0,0,1-4.173,1.061c-.145.026-.293.046-.437.074l-.051.01-.023,0c-.338.036-.673.082-1.013.115q-1.207.116-2.435.14c-.763.015-1.525-.008-2.292-.036l-.2-.012.2.017-.341-.027-.061-.005-.1-.008c-.509-.051-1.015-.1-1.523-.167a50.641,50.641,0,0,1-5.241-1.031l-.032-.008c-.162-.047-.324-.094-.485-.143q-.54-.164-1.074-.344-1.267-.428-2.489-.946c-.647-.275-1.266-.583-1.9-.88l-.04-.019-.038-.022c-.129-.074-.263-.144-.393-.216q-.582-.326-1.143-.675-.833-.517-1.618-1.08-.433-.31-.85-.634c-.143-.111-.91-.759-.726-.59a30.354,30.354,0,0,1-2.7-2.707q-.593-.682-1.133-1.387c-.1-.13-.589-.817-.4-.533-.186-.27-.371-.54-.548-.814a35.2,35.2,0,0,1-3.419-6.946c-.019-.052-.037-.1-.056-.155s-.052-.15-.068-.2c-.088-.274-.179-.548-.264-.823q-.3-.964-.549-1.933c-.32-1.233-.584-2.471-.8-3.71a57.548,57.548,0,0,1-.79-7.323q-.039-.841-.056-1.68c-.006-.29-.008-.581-.012-.87.012.78,0-.252,0-.441q.013-1.651.1-3.3.151-2.9.515-5.78c.18-1.435.424-2.854.688-4.271a11.241,11.241,0,0,1-2.949-.267A16.343,16.343,0,0,1,468.765,682.723Zm26.67,49.8c-.166-.044-.446-.129,0,0Zm-18.962-18.011Z" transform="translate(-467.472 -682.723)" fill="#4080bb"/>
              </g>
            </g>
          </g>
          <g id="Group_3006" data-name="Group 3006" transform="translate(3.494 0)">
            <g id="Group_3000" data-name="Group 3000" transform="translate(0 0.642)">
              <g id="Group_2999" data-name="Group 2999">
                <path id="Path_1492" data-name="Path 1492" d="M427.258,311.331l-10.737-2.121a1.461,1.461,0,0,0-1.692,1.134q-2.413,12.223-4.827,24.445l-.681,3.448a1.441,1.441,0,0,0,2.826.558l4.828-24.445.4-2.036,9.325,1.842A1.441,1.441,0,0,0,427.258,311.331Z" transform="translate(-409.289 -309.184)" fill="#e5ded6"/>
              </g>
            </g>
            <g id="Group_3005" data-name="Group 3005" transform="translate(12.777 0)">
              <g id="Group_3002" data-name="Group 3002" transform="translate(5.173 1.444)">
                <g id="Group_3001" data-name="Group 3001" transform="translate(0 0)">
                  <path id="Rectangle_237" data-name="Rectangle 237" d="M0,0H2.88a2.88,2.88,0,0,1,2.88,2.88v0A2.88,2.88,0,0,1,2.88,5.76H0a0,0,0,0,1,0,0V0A0,0,0,0,1,0,0Z" transform="translate(1.116 0) rotate(11.171)" fill="#35383f"/>
                </g>
              </g>
              <g id="Group_3004" data-name="Group 3004" transform="translate(0)">
                <g id="Group_3003" data-name="Group 3003">
                  <path id="Rectangle_238" data-name="Rectangle 238" d="M3.328,0h2.3a0,0,0,0,1,0,0V6.656a0,0,0,0,1,0,0h-2.3A3.328,3.328,0,0,1,0,3.328v0A3.328,3.328,0,0,1,3.328,0Z" transform="translate(1.29 0) rotate(11.171)" fill="#e5ded6"/>
                </g>
              </g>
            </g>
          </g>
          <g id="Group_3014" data-name="Group 3014" transform="translate(42.236 5.354)">
            <g id="Group_3008" data-name="Group 3008" transform="translate(5.595 2.744)">
              <g id="Group_3007" data-name="Group 3007">
                <path id="Path_1493" data-name="Path 1493" d="M626.4,345.45l10.737,2.121a1.461,1.461,0,0,1,1.134,1.692l-4.828,24.445-.681,3.448a1.441,1.441,0,0,1-2.825-.558l4.828-24.445q.2-1.018.4-2.036l-9.324-1.841A1.441,1.441,0,0,1,626.4,345.45Z" transform="translate(-624.72 -345.419)" fill="#e5ded6"/>
              </g>
            </g>
            <g id="Group_3013" data-name="Group 3013" transform="translate(0 0)">
              <g id="Group_3010" data-name="Group 3010" transform="translate(0 0)">
                <g id="Group_3009" data-name="Group 3009">
                  <path id="Rectangle_239" data-name="Rectangle 239" d="M0,0H2.88A2.88,2.88,0,0,1,5.76,2.88v0A2.88,2.88,0,0,1,2.88,5.76H0a0,0,0,0,1,0,0V0A0,0,0,0,1,0,0Z" transform="translate(5.651 6.767) rotate(-168.829)" fill="#35383f"/>
                </g>
              </g>
              <g id="Group_3012" data-name="Group 3012" transform="translate(5.125 0.59)">
                <g id="Group_3011" data-name="Group 3011" transform="translate(0 0)">
                  <path id="Rectangle_240" data-name="Rectangle 240" d="M3.328,0h2.3a0,0,0,0,1,0,0V6.656a0,0,0,0,1,0,0h-2.3A3.328,3.328,0,0,1,0,3.328v0A3.328,3.328,0,0,1,3.328,0Z" transform="matrix(-0.981, -0.194, 0.194, -0.981, 5.526, 7.622)" fill="#e5ded6"/>
                </g>
              </g>
            </g>
          </g>
          <g id="Group_3016" data-name="Group 3016" transform="translate(16.01 79.925)" opacity="0.13">
            <g id="Group_3015" data-name="Group 3015" transform="translate(0 0)">
              <path id="Path_1494" data-name="Path 1494" d="M476.781,696.368s-.3,2.109-.512,4.559l-6.166-3.975.47-2.532Z" transform="translate(-470.102 -694.42)"/>
            </g>
          </g>
          <g id="Group_3019" data-name="Group 3019" transform="translate(0 27.863)">
            <g id="Group_3018" data-name="Group 3018">
              <g id="Group_3017" data-name="Group 3017">
                <path id="Path_1495" data-name="Path 1495" d="M394.813,443.312a83.033,83.033,0,0,0-2.32,15.592c-.58,9.255-.018,19.58,5.269,27.545,5.595,8.429,17.171,12.286,26.582,8.2,8.986-3.9,14.632-12.984,18.458-21.6a99.642,99.642,0,0,0,4.428-12.175c.642-2.169,1.279-4.373,1.705-6.6.02-.1.043-.2.064-.308.576-2.909-3.944-3.806-4.521-.893-.293,1.48-.671,2.946-1.062,4.4q-.638,2.376-1.39,4.719c-.145.452-.294.9-.444,1.353-.2.6.116-.327-.062.183-.091.261-.181.522-.273.783q-.525,1.482-1.1,2.947a69.054,69.054,0,0,1-6.118,12.253c-.157.245-.318.487-.479.73.3-.456-.1.146-.206.3q-.521.746-1.072,1.47c-.691.907-1.419,1.785-2.19,2.624q-.541.589-1.11,1.151-.267.264-.541.521c-.121.114-.245.225-.367.338-.1.092-.5.431-.052.051a26.068,26.068,0,0,1-2.6,1.973q-.641.42-1.31.795c-.21.118-.425.228-.637.341.575-.309-.338.156-.485.221a18.45,18.45,0,0,1-3.038,1.047c-.1.026-.212.047-.316.076-.54.146.5-.077-.053.013-.243.039-.485.087-.729.123q-.867.128-1.744.171c-.545.027-1.087.02-1.632.008-.143,0-.559-.042,0,0-.118-.009-.237-.016-.354-.028-.36-.038-.718-.074-1.076-.125a27.4,27.4,0,0,1-3.675-.851c-.109-.032-.431-.153.065.025-.142-.051-.284-.1-.424-.154q-.376-.141-.745-.3-.878-.369-1.718-.822c-.445-.24-.868-.511-1.3-.772-.486-.294.4.3-.053-.036-.088-.066-.179-.127-.267-.191q-.4-.288-.775-.6-.563-.458-1.089-.96-.29-.276-.568-.565c-.111-.116-.787-.888-.365-.383a22.869,22.869,0,0,1-1.883-2.574q-.382-.613-.725-1.25c-.071-.132-.456-.908-.18-.334-.14-.293-.28-.585-.412-.882a33.705,33.705,0,0,1-2.024-6.3c-.025-.109-.048-.22-.071-.329.115.539.029.142,0,.006-.047-.249-.1-.5-.139-.748q-.156-.877-.277-1.76-.232-1.685-.351-3.383a66.308,66.308,0,0,1-.128-6.692q.023-.769.06-1.538c.013-.266.029-.531.043-.8-.038.714.016-.23.028-.4q.107-1.512.267-3.02.281-2.66.711-5.3c.334-2.055.775-4.079,1.212-6.112.021-.1.048-.2.074-.3a2.3,2.3,0,0,0-4.521-.893Z" transform="translate(-392.31 -441.454)" fill="#4080bb"/>
              </g>
            </g>
          </g>
        </g>
        <g id="Group_3025" data-name="Group 3025" transform="translate(11.237 87.541)">
          <g id="Group_3022" data-name="Group 3022" transform="translate(0.403 55.654)">
            <g id="Group_3021" data-name="Group 3021">
              <path id="Path_1496" data-name="Path 1496" d="M259.07,931.383l-.185,1.86,3.384,2.312,1.969-1.634-1.6-2.086-3.384-2.313Z" transform="translate(-258.885 -929.522)" fill="#514943"/>
            </g>
          </g>
          <g id="Group_3024" data-name="Group 3024">
            <g id="Group_3023" data-name="Group 3023">
              <path id="Path_1497" data-name="Path 1497" d="M257.488,659.745l-.561,5.65,5.105,19.4-4.645,31.2,3.466,1.186,9.074-30.466,1.432-8.861L271.27,659.1Z" transform="translate(-256.927 -659.099)" fill="#8c9498"/>
            </g>
          </g>
        </g>
        <g id="Group_3030" data-name="Group 3030" transform="translate(18.437 90.085)">
          <g id="Group_3027" data-name="Group 3027">
            <g id="Group_3026" data-name="Group 3026">
              <path id="Path_1498" data-name="Path 1498" d="M309.555,674.264l-1.426,52.745-3.291.368-4.319-33.224-8.606-22.7Z" transform="translate(-291.913 -671.459)" fill="#8c9498"/>
            </g>
          </g>
          <g id="Group_3029" data-name="Group 3029" transform="translate(12.898 55.108)">
            <g id="Group_3028" data-name="Group 3028">
              <path id="Path_1499" data-name="Path 1499" d="M354.584,939.625l.209,1.866,3.768,1.467,1.571-2.065-1.988-1.666Z" transform="translate(-354.584 -939.227)" fill="#514943"/>
            </g>
          </g>
        </g>
        <g id="Group_3032" data-name="Group 3032" transform="translate(0 39.008)">
          <g id="Group_3031" data-name="Group 3031">
            <path id="Path_1500" data-name="Path 1500" d="M212.51,433.219c.017-.794.064-1.586.148-2.373.485-4.537,3.452-6.252,7.472-7.461a7.121,7.121,0,0,1,6.6,2.243l.1-.086a7.979,7.979,0,0,1,.905,1.417c.038.066.057.1.057.1,1.132,2.047,3.378,6.708,7.33,17.044,6.345,16.6,11.482,42.519,7.466,49.1l-.136-.322c-1.382.507-9.8.633-10.668.689-5.045.323-10.08.866-15.14.908a55.452,55.452,0,0,1-7.642-.4c-1.3-.17-5.736-.351-6.5-1.562-.91-1.444,2.126-7.629,2.672-9.218,1.269-3.688,2.671-7.332,4.249-10.9,2.37-6.9,4.181-14.363,4.181-21.695C213.6,444.854,212.384,439.075,212.51,433.219Z" transform="translate(-202.328 -423.275)" fill="#aeccdc"/>
          </g>
        </g>
        <g id="Group_3033" data-name="Group 3033" transform="translate(6.509 39.145)">
          <path id="Path_1501" data-name="Path 1501" d="M245.552,423.941l-11.6,7.089.293,9.137,9.4,18.567,22.745-7.793L264,445.112l-15.828,4.567-4.815-16.9Z" transform="translate(-233.955 -423.941)" fill="#b3d2e3"/>
        </g>
        <g id="Group_3040" data-name="Group 3040" transform="translate(7.264 19.637)">
          <g id="Group_3035" data-name="Group 3035" transform="translate(11.147 1.176)">
            <g id="Group_3034" data-name="Group 3034">
              <path id="Path_1502" data-name="Path 1502" d="M291.787,339.619a6.687,6.687,0,0,1,6.155,4.02,5.886,5.886,0,0,0-3.943-8.77,6.815,6.815,0,0,0-2.02,4.74Z" transform="translate(-291.787 -334.868)" fill="#9e6652"/>
            </g>
          </g>
          <g id="Group_3037" data-name="Group 3037" transform="translate(5.058 3.506)">
            <g id="Group_3036" data-name="Group 3036">
              <path id="Path_1503" data-name="Path 1503" d="M274.09,349.43c-3.186-6.2-11.058-2.641-11.84,3.375-.445,3.421,2.223,7.289,5.524,8.6.229.565.779,2.147,1.339,2.4.606.279,2-.571,2.558-.884a.953.953,0,0,0,.4-.34,1.784,1.784,0,0,0-.117-1.049,5.707,5.707,0,0,0,1.26-.66,6.631,6.631,0,0,0,2.586-5.462A13.279,13.279,0,0,0,274.09,349.43Z" transform="translate(-262.202 -346.185)" fill="#eacdb0"/>
            </g>
          </g>
          <g id="Group_3039" data-name="Group 3039">
            <g id="Group_3038" data-name="Group 3038">
              <path id="Path_1504" data-name="Path 1504" d="M249.3,362.157a28.758,28.758,0,0,0,4.507-1.878c-.993.518-4.679-10.665-4.947-11.435a11.819,11.819,0,0,1-.015-6.907,37.2,37.2,0,0,1,2.667-6.472,5.531,5.531,0,0,0,.778-2.773,3.606,3.606,0,0,0-1.7-2.608,5.055,5.055,0,0,0-4.333-.733,11.826,11.826,0,0,0-7.511,6.053c-1.7,3.59-1.2,7.964-.226,11.7a24.79,24.79,0,0,1,.717,3.022,21.219,21.219,0,0,1,.039,3.322,14.535,14.535,0,0,0,.516,4.86,6.4,6.4,0,0,0,2.95,3.772C244.764,363.139,247.217,362.825,249.3,362.157Z" transform="translate(-237.623 -329.152)" fill="#9e6652"/>
            </g>
          </g>
        </g>
        <g id="Group_3041" data-name="Group 3041" transform="translate(37.089 58.297)">
          <path id="Path_1505" data-name="Path 1505" d="M382.542,520.313,385.98,517l5.157.067.124,3.139-7.309,3.547Z" transform="translate(-382.542 -517)" fill="#eacdb0"/>
        </g>
        <g id="Group_3042" data-name="Group 3042" transform="translate(47.073 21.252)">
          <path id="Path_1506" data-name="Path 1506" d="M432.6,344.861l3.6-3.333-1.852-3.91L432.5,337l-1.441,3.293,2,2.264Z" transform="translate(-431.055 -337)" fill="#eacdb0"/>
        </g>
      </g>
    </g>
  </g>
</svg>
