<svg xmlns="http://www.w3.org/2000/svg" width="454.22" height="379.787" viewBox="0 0 454.22 379.787">
  <g id="health" transform="translate(-712.012 -242.477)">
    <g id="Group_335" data-name="Group 335" transform="translate(740.7 242.477)">
      <g id="Group_334" data-name="Group 334" transform="translate(0 0)">
        <g id="Group_325" data-name="Group 325" transform="translate(1.426 54.327)">
          <g id="Group_299" data-name="Group 299" transform="translate(0 43.31)">
            <g id="Group_262" data-name="Group 262" transform="translate(0 10.348)">
              <g id="Group_245" data-name="Group 245" transform="translate(0.36 163.457)">
                <g id="Group_243" data-name="Group 243" transform="translate(0 13.795)">
                  <rect id="Rectangle_59" data-name="Rectangle 59" width="67.953" height="6.319" transform="translate(6.226 62.957)" fill="#326894"/>
                  <g id="Group_240" data-name="Group 240" transform="translate(0 0.69)">
                    <path id="Path_388" data-name="Path 388" d="M206.987,361.364a4.223,4.223,0,0,1-.037.48l-1.052,8.707-9.4,77.583a3.7,3.7,0,0,1-4.123,3.293,3.765,3.765,0,0,1-3.247-3.755,4.2,4.2,0,0,1,.037-.48l9.279-76.642,1.162-9.639a3.7,3.7,0,0,1,7.379.452Z" transform="translate(-189.13 -357.595)" fill="#4d8ab3"/>
                    <path id="Path_389" data-name="Path 389" d="M207.772,361.366a4.193,4.193,0,0,1-.037.48l-1.052,8.707H199.24l1.162-9.639a3.7,3.7,0,0,1,7.37.452Z" transform="translate(-189.914 -357.596)" fill="#326894"/>
                  </g>
                  <g id="Group_241" data-name="Group 241" transform="translate(37.43 0)">
                    <path id="Path_390" data-name="Path 390" d="M237.109,360.649v86.944a3.735,3.735,0,0,1-3.69,3.795,3.632,3.632,0,0,1-2.609-1.116,3.823,3.823,0,0,1-1.079-2.688V360.64a3.741,3.741,0,0,1,3.69-3.795,3.6,3.6,0,0,1,2.609,1.116A3.874,3.874,0,0,1,237.109,360.649Z" transform="translate(-229.712 -356.845)" fill="#4d8ab3"/>
                    <path id="Path_391" data-name="Path 391" d="M236.019,357.976a3.8,3.8,0,0,1,1.079,2.688v9.827H229.71v-9.83a3.741,3.741,0,0,1,3.69-3.795A3.563,3.563,0,0,1,236.019,357.976Z" transform="translate(-229.71 -356.847)" fill="#326894"/>
                  </g>
                  <g id="Group_242" data-name="Group 242" transform="translate(64.111 0.67)">
                    <path id="Path_392" data-name="Path 392" d="M276.487,447.651a3.693,3.693,0,0,1-7.364.47l-9.4-77.583-1.051-8.707a4.194,4.194,0,0,1-.037-.48,3.771,3.771,0,0,1,3.247-3.754A3.716,3.716,0,0,1,266,360.89l1.162,9.639,9.279,76.642a2.95,2.95,0,0,1,.041.481Z" transform="translate(-258.635 -357.573)" fill="#4d8ab3"/>
                    <path id="Path_393" data-name="Path 393" d="M267.182,370.54h-7.444l-1.051-8.707a4.2,4.2,0,0,1-.037-.48A3.771,3.771,0,0,1,261.9,357.6a3.716,3.716,0,0,1,4.123,3.293Z" transform="translate(-258.636 -357.573)" fill="#326894"/>
                  </g>
                </g>
                <g id="Group_244" data-name="Group 244" transform="translate(3.331 0)">
                  <path id="Path_394" data-name="Path 394" d="M278.1,349.684v2.463a7.79,7.79,0,0,1-7.794,7.794H200.535a7.79,7.79,0,0,1-7.794-7.794v-2.463a7.79,7.79,0,0,1,7.794-7.794h69.77a7.785,7.785,0,0,1,7.793,7.794Z" transform="translate(-192.741 -341.89)" fill="#994403"/>
                  <path id="Path_395" data-name="Path 395" d="M278.64,349.684v2.463a7.79,7.79,0,0,1-7.794,7.794H207.514a7.79,7.79,0,0,1-7.794-7.794v-2.463a7.79,7.79,0,0,1,7.794-7.794h63.332a7.785,7.785,0,0,1,7.794,7.794Z" transform="translate(-193.282 -341.89)" fill="#852e03"/>
                </g>
              </g>
              <path id="Path_396" data-name="Path 396" d="M204.928,181.19c-.876,1.789-1.761,3.588-2.546,5.313a38.749,38.749,0,0,0,0,9.362,26.624,26.624,0,0,1-.526,9.329,10.44,10.44,0,0,1-5.922,7.01c-1.955.747-4.289.8-5.8,2.223-1.715,1.614-1.6,4.326-.968,6.562A10.191,10.191,0,0,0,192,226.024c1.485,1.3,3.874,2.15,5.5,1.208a3.975,3.975,0,0,1,4.9,1.162c1.166,1.421,1.706,3.256,2.85,4.7a9.243,9.243,0,0,0,7.01,3.173c2.666.065,5.506-.316,7.287-1.423,3.81-2.389,8.559-3.976,12.462-1.734,2.055,1.18,3.68,3.063,5.9,3.911a7.253,7.253,0,0,0,5.876-.36c1.78-.941,2.463-2.952,3.579-4.492,2.048-2.822,7.01-.544,10.442-1.476a7.531,7.531,0,0,0,5.285-8.643c-.858-3.607-4.852-4.889-8.413-5.423-2.444-.369-3.45-3.479-4.012-5.8a25.811,25.811,0,0,1-.36-7.158c.212-4.879,2.435-16.262,1.028-17.793a23.62,23.62,0,0,0-4.51-3.284q-6.946-3.169-13.891-6.346c-4.215-1.927-8.634-3.893-13.292-3.763C214.991,172.573,208.267,174.392,204.928,181.19Z" transform="translate(-188.74 -165.286)" fill="#732d02"/>
              <g id="Group_247" data-name="Group 247" transform="translate(9.256 47.953)">
                <path id="Path_397" data-name="Path 397" d="M221.757,229.55S201.2,232.8,199.029,240.075s10.3,58.2,10.3,58.2l46.175-2.822s3.358-58.7-3.984-62.381S221.757,229.55,221.757,229.55Z" transform="translate(-198.774 -217.667)" fill="#ebf5ff"/>
                <g id="Group_246" data-name="Group 246" transform="translate(15.133 0)">
                  <path id="Path_398" data-name="Path 398" d="M240.952,230.57s-3,10.211-8.44,12.443-17.332-11.384-17.332-11.384c2.4-1.522,3.3-5.184,3.6-8.523a37.141,37.141,0,0,0-.037-6.438l16.511,3.173c-.424,5.11,1.079,7.794,2.656,9.205A6.03,6.03,0,0,0,240.952,230.57Z" transform="translate(-215.18 -216.667)" fill="#fbbd9a"/>
                  <path id="Path_399" data-name="Path 399" d="M238.207,229.059c-7.84,1.033-14.942-2.9-19.132-5.94a37.141,37.141,0,0,0-.037-6.438l16.511,3.173C235.117,224.954,236.63,227.647,238.207,229.059Z" transform="translate(-215.479 -216.668)" fill="#f0997f"/>
                </g>
              </g>
              <g id="Group_252" data-name="Group 252" transform="translate(10.131 120.532)">
                <g id="Group_249" data-name="Group 249" transform="translate(35.122 9.563)">
                  <g id="Group_248" data-name="Group 248" transform="translate(16.944 91.72)">
                    <path id="Path_400" data-name="Path 400" d="M288.85,436.658c-1.78,2.961-32.681-16.087-32.681-19.369,0-2.14,4.032-5.239,6.835-7.121,1.5-1.014,2.648-1.688,2.648-1.688l7.213-3.312,3.247,1.743c4.732,8.154,9.25,16.649,11.511,22.562C288.97,432.961,289.515,435.563,288.85,436.658Z" transform="translate(-256.17 -405.157)" fill="#d43226"/>
                    <path id="Path_401" data-name="Path 401" d="M288.208,429.461c-8.854.369-20.56-13.956-24.618-19.306,1.5-1.014,2.648-1.688,2.648-1.688l7.213-3.312L276.7,406.9C281.439,415.056,285.949,423.552,288.208,429.461Z" transform="translate(-256.746 -405.156)" fill="#f0997f"/>
                  </g>
                  <path id="Path_402" data-name="Path 402" d="M255.63,305.72s56.247,7.121,58.157,21.519S278.5,405.172,278.5,405.172l-13.375-3.486,17.452-56.8-44.782-19,8.919-20.163Z" transform="translate(-237.8 -305.72)" fill="#002a42"/>
                </g>
                <g id="Group_250" data-name="Group 250" transform="translate(38.396 102.927)">
                  <path id="Path_403" data-name="Path 403" d="M274.031,438.441c-1.78,2.961-32.681-16.087-32.681-19.369,0-2.14,4.032-5.239,6.835-7.121,1.5-1.014,2.648-1.688,2.648-1.688l7.213-3.312,3.247,1.743c4.732,8.154,9.25,16.649,11.512,22.562C274.15,434.739,274.695,437.343,274.031,438.441Z" transform="translate(-241.35 -406.941)" fill="#eb4a2a"/>
                  <path id="Path_404" data-name="Path 404" d="M273.388,431.245c-8.854.369-20.56-13.956-24.618-19.306,1.5-1.014,2.648-1.688,2.648-1.688l7.213-3.312,3.247,1.743C266.618,416.837,271.129,425.329,273.388,431.245Z" transform="translate(-241.926 -406.94)" fill="#fbbd9a"/>
                </g>
                <path id="Path_405" data-name="Path 405" d="M205.239,300.092s-19.49,38.538,14.8,42.7c24.914,3.026,41.426,2.417,41.941,3.8.848,2.223-16.207,56.036-16.207,56.036l16.8,5.313s34.766-74.668,32.869-81.171c-1.555-5.35-49.529-13.51-49.529-13.51,4.04-1.919,7.01-8.9,6.577-17.9Z" transform="translate(-199.723 -295.353)" fill="#06384f"/>
                <g id="Group_251" data-name="Group 251" transform="translate(5.216 1.399)">
                  <path id="Path_406" data-name="Path 406" d="M211.08,296.87s-11.179,24.6-2.233,34.58c10.543,11.761,56.653,7.97,59.864,12.13C271.285,346.91,250.9,401.3,250.9,401.3" transform="translate(-205.378 -296.87)" fill="none" stroke="#27788f" stroke-linecap="round" stroke-width="1"/>
                  <line id="Line_9" data-name="Line 9" x2="16.253" y2="4.954" transform="translate(42.193 103.613)" fill="none" stroke="#27788f" stroke-linecap="round" stroke-width="1"/>
                </g>
              </g>
              <g id="Group_256" data-name="Group 256" transform="translate(10.934 0)">
                <path id="Path_407" data-name="Path 407" d="M251.122,197.449c3.964-.449,7.443,1.534,7.77,4.427s-2.618,5.606-6.582,6.056-7.442-1.534-7.771-4.427S247.159,197.9,251.122,197.449Z" transform="translate(-204.002 -167.218)" fill="#f0997f"/>
                <g id="Group_253" data-name="Group 253" transform="translate(7.883 5.23)">
                  <path id="Path_408" data-name="Path 408" d="M209.14,195.116c0-13.677,8.689-24.766,20.357-24.766s21.132,11.087,21.132,24.766-5.968,25.448-16.954,25.873C222.607,221.414,209.14,208.786,209.14,195.116Z" transform="translate(-209.14 -170.35)" fill="#fbbd9a"/>
                  <path id="Path_409" data-name="Path 409" d="M210.37,198.5a24.63,24.63,0,0,0,12.867-13.541c3.035,3.422,7.462,5.359,11.954,6.2a63.483,63.483,0,0,0,13.421.563,8.115,8.115,0,0,1,2.712,4.676,27.537,27.537,0,0,0-1.265-12.111Q232.628,178.968,215.406,173C213.69,181.182,211.975,189.365,210.37,198.5Z" transform="translate(-209.236 -170.556)" fill="#f0997f"/>
                </g>
                <g id="Group_254" data-name="Group 254" transform="translate(2.454)">
                  <path id="Path_410" data-name="Path 410" d="M222.049,178.043c2.5,4.713,7.333,7.85,12.412,9.473s10.488,1.882,15.891,2.038a35.835,35.835,0,0,1,1.028,9.492,33,33,0,0,0,3-11.576c.046-1.033.046-2.085.018-3.192-.267-7.527-3.385-11.806-7.563-15.017a23.667,23.667,0,0,0-14.6-4.575c-5.211,0-8.523,1.18-10.506,3.241a7.955,7.955,0,0,0-1.623,2.49C219.255,172.408,220.2,174.578,222.049,178.043Z" transform="translate(-204.537 -164.678)" fill="#8c4206"/>
                  <path id="Path_411" data-name="Path 411" d="M203.388,199.841c-.175-6.687-.6-18.134,2.094-23.6,1.761-3.579,5.091-6.562,9.049-7.093s8.329,1.919,9.243,5.8a46.56,46.56,0,0,1-12.657,23.7C208.9,199.712,205.639,200.422,203.388,199.841Z" transform="translate(-203.254 -165.02)" fill="#8c4206"/>
                  <path id="Path_412" data-name="Path 412" d="M221.88,167.94a26.488,26.488,0,0,1,22.525,4.538,29.06,29.06,0,0,1,10.138,15.007c.046-1.033.046-2.085.018-3.192-.267-7.527-3.385-11.806-7.563-15.017a23.667,23.667,0,0,0-14.6-4.575C227.174,164.7,223.864,165.879,221.88,167.94Z" transform="translate(-204.699 -164.68)" fill="#a66317"/>
                </g>
                <path id="Path_413" data-name="Path 413" d="M200.716,202.353c.723-2.823,4.441-4.31,8.3-3.32s6.412,4.08,5.692,6.9-4.441,4.309-8.3,3.32S199.993,205.176,200.716,202.353Z" transform="translate(-200.594 -167.322)" fill="#fbbd9a"/>
                <g id="Group_255" data-name="Group 255" transform="translate(22.355 27.943)">
                  <path id="Path_414" data-name="Path 414" d="M231.967,202.7c.606,0,1.1.785,1.1,1.753s-.492,1.753-1.1,1.753-1.1-.785-1.1-1.753S231.362,202.7,231.967,202.7Z" transform="translate(-225.299 -195.574)" fill="#2f344d"/>
                  <path id="Path_415" data-name="Path 415" d="M248.517,202.71c.606,0,1.1.785,1.1,1.753s-.492,1.753-1.1,1.753-1.1-.785-1.1-1.753S247.912,202.71,248.517,202.71Z" transform="translate(-226.583 -195.574)" fill="#2f344d"/>
                  <path id="Path_416" data-name="Path 416" d="M245.13,195.717a7.668,7.668,0,0,1,6.411.775" transform="translate(-226.405 -195.001)" fill="none" stroke="#8c4206" stroke-linecap="round" stroke-width="1"/>
                  <path id="Path_417" data-name="Path 417" d="M232.44,195.5c-2.055-.913-5.83-.719-7.61,1.31" transform="translate(-224.83 -194.974)" fill="none" stroke="#8c4206" stroke-linecap="round" stroke-width="1"/>
                  <path id="Path_418" data-name="Path 418" d="M240.489,203.45a9.651,9.651,0,0,1-.474,5.636" transform="translate(-226.008 -195.632)" fill="none" stroke="#d45e4e" stroke-linecap="round" stroke-width="1"/>
                  <path id="Path_419" data-name="Path 419" d="M238.423,215.193c-2.435.48-6.844-.913-8.043-2.943" transform="translate(-225.261 -196.314)" fill="none" stroke="#d45e4e" stroke-linecap="round" stroke-width="1"/>
                </g>
              </g>
              <g id="Group_259" data-name="Group 259" transform="translate(47.373 60.362)">
                <g id="Group_258" data-name="Group 258" transform="translate(7.343 1.042)">
                  <path id="Path_420" data-name="Path 420" d="M248.61,238.062l8.237-4.972s6.946.591,11.65,9.233c4.676,8.6,13.485,36.388,16.262,37.615s36.619,1.66,36.619,1.66l.461,9.916s-41.452,6.577-46.4,3.856-20.95-34.774-20.95-34.774Z" transform="translate(-248.102 -231.393)" fill="#fbbd9a"/>
                  <path id="Path_421" data-name="Path 421" d="M248.06,236.8l1.587-5.553s9.092.387,13.743,4.032,8.459,13.55,8.459,13.55l-11.825,19.093Z" transform="translate(-248.06 -231.25)" fill="#de3b26"/>
                  <path id="Path_422" data-name="Path 422" d="M263.27,277.62s12.7-10.968,14.657-13.707c.969-1.356,7.84,14.61,6.678,16.566-1.854,3.118-13.43,10.608-14.072,10.174S263.27,277.62,263.27,277.62Z" transform="translate(-249.241 -233.778)" fill="#163649"/>
                  <path id="Path_423" data-name="Path 423" d="M259.6,266.322q5.742-9.118,11.474-18.227a2.9,2.9,0,0,1,.765-.9c.949-.636,2.334.148,2.721,1.217a5.657,5.657,0,0,1-.184,3.376,2.421,2.421,0,0,1,2.482,2.232,6.136,6.136,0,0,1-.959,3.542,33.061,33.061,0,0,1-16.492,14.989C259.087,270.463,258.451,268.148,259.6,266.322Z" transform="translate(-248.904 -232.469)" fill="#b82621"/>
                  <g id="Group_257" data-name="Group 257" transform="translate(68.045 41.268)">
                    <path id="Path_424" data-name="Path 424" d="M321.83,286.478c4.743-3.33,13.91-9.934,14.6-10.247.812-.369,6.383-.4,9.417.516a10.437,10.437,0,0,1,6.957,6c.3.84.387,1.956-.35,2.445a1.576,1.576,0,0,1-1.642-.083,6.169,6.169,0,0,1-1.265-1.19,9.185,9.185,0,0,0-7.194-3.256c3.948.6,6.457,3.035,7.638,6.872.231.765.323,1.734-.295,2.233a1.543,1.543,0,0,1-1.753-.055,6.024,6.024,0,0,1-1.282-1.365,13.447,13.447,0,0,0-5.553-4.16,9.841,9.841,0,0,1,5.755,7.49,2.678,2.678,0,0,1-.083,1.43,1.107,1.107,0,0,1-1.125.719,1.681,1.681,0,0,1-.885-.636c-1.642-1.854-2.933-3.827-5.119-5.156,1.992,2.656,3.672,6.974,3.256,8.1-.129.341-.978.931-1.927-.01-1.079-1.079-1.836-2.925-3.514-4.981a12.372,12.372,0,0,1-11.687,3.745C324.422,292.04,323.093,289.189,321.83,286.478Z" transform="translate(-321.83 -275.99)" fill="#fbbd9a"/>
                    <path id="Path_425" data-name="Path 425" d="M331.16,282.509a96.863,96.863,0,0,1,10.284-3.071,4.087,4.087,0,0,1,1.411-.166,1.448,1.448,0,0,1,1.153.729,1.4,1.4,0,0,1-.212,1.383,3.715,3.715,0,0,1-1.125.941,47.406,47.406,0,0,1-4.664,2.472,6.8,6.8,0,0,1-4.5,5.46" transform="translate(-322.554 -276.246)" fill="#fbbd9a" stroke="#d45e4e" stroke-linecap="round" stroke-width="1"/>
                  </g>
                </g>
                <path id="Path_426" data-name="Path 426" d="M240.119,230.268c1.976,1.716,3.256,11.384,4.269,17.525,1.522,9.205,9.27,49.228,9.731,52.06.821,5,16.649,4.658,17.286,2.048.12-.48-4.621-2.688-5.376-5.875-.674-2.859-5.929-58.581-8.468-61.514C254.212,230.636,239.482,229.715,240.119,230.268Z" transform="translate(-240.099 -230.121)" fill="#eb4a2a"/>
              </g>
              <g id="Group_261" data-name="Group 261" transform="translate(3.68 60.506)">
                <path id="Path_427" data-name="Path 427" d="M214.918,230.28c1.651.591,6.835,11.6,9.3,21.685,5.147,21.058,2.085,52.327,0,56.459s-22.285,5.95-25.716,4.852c-1.992-.636-4.16-63.672-2.786-71.587C196.636,236.413,214.42,230.1,214.918,230.28Z" transform="translate(-192.928 -230.276)" fill="#eb4a2a"/>
                <path id="Path_428" data-name="Path 428" d="M249.3,306.23c4.261-1.559,16.594-4.806,18.3-4.63a6.371,6.371,0,0,1,4.575,2.233,9.756,9.756,0,0,1,1.356,3.229l1.581,5.534a4.884,4.884,0,0,1,.277,1.983,1.5,1.5,0,0,1-1.18,1.374c-.885.073-1.439-.987-1.761-1.882-.83-2.3-1.66-4.593-2.482-6.844.544,2.832,1.079,5.672,1.623,8.5a4.88,4.88,0,0,1,.1,2.029,1.511,1.511,0,0,1-1.31,1.273c-.941-.017-1.393-1.227-1.6-2.223a61.251,61.251,0,0,0-1.678-6.632,18.928,18.928,0,0,1,.406,9.731,2.866,2.866,0,0,1-.591,1.356.931.931,0,0,1-1.273.148,1.631,1.631,0,0,1-.36-1.052l-.858-8.587c.277,3.016.544,6.125-.3,9.012a2.949,2.949,0,0,1-.729,1.383,1.06,1.06,0,0,1-1.374.129,1.913,1.913,0,0,1-.443-1.423c-.065-1.8-.129-3.6-.138-5.7a10.168,10.168,0,0,1-6.1,3.45,15.6,15.6,0,0,1-7.023-.9C248.513,314.375,248.707,311.017,249.3,306.23Z" transform="translate(-197.043 -235.811)" fill="#fbbd9a"/>
                <path id="Path_429" data-name="Path 429" d="M213.437,249.515c-1.291-5.968-6.641-15.644-11-13.642-2.5,1.153-9.7,3.557-9.7,19.343,0,21.335,2.8,49.366,9.7,54.062,3.505,2.388,41.839,4.731,41.839,4.731l2.8-13.734s-28.253-5.239-29.553-9.113C215.688,285.695,216.869,265.393,213.437,249.515Z" transform="translate(-192.73 -230.69)" fill="#eb4a2a"/>
                <g id="Group_260" data-name="Group 260" transform="translate(4.253 15.555)">
                  <path id="Path_430" data-name="Path 430" d="M211.56,247.14c4.743,16.031,5.737,43.307,6.438,44.948.636,1.494,4.243,2.122,7.075,3.09" transform="translate(-198.444 -247.14)" fill="none" stroke="#b82621" stroke-linecap="round" stroke-width="1"/>
                  <path id="Path_431" data-name="Path 431" d="M215.871,316.912c-5.257-.526-11.788-1.549-13.245-2.638-1.716-1.282-3.81-7.555-5.285-11.834" transform="translate(-197.341 -251.432)" fill="none" stroke="#b82621" stroke-linecap="round" stroke-width="1"/>
                  <path id="Path_432" data-name="Path 432" d="M216.6,274.957c1.891-2.372,2.666-6.3,2.822-11.087" transform="translate(-198.836 -248.438)" fill="none" stroke="#b82621" stroke-linecap="round" stroke-width="1"/>
                </g>
              </g>
            </g>
            <g id="Group_298" data-name="Group 298" transform="translate(87.369 0)">
              <g id="Group_295" data-name="Group 295" transform="translate(36.035)">
                <g id="Group_268" data-name="Group 268" transform="translate(36.059 173.805)">
                  <g id="Group_266" data-name="Group 266" transform="translate(0 13.808)">
                    <rect id="Rectangle_60" data-name="Rectangle 60" width="67.953" height="6.152" transform="translate(6.217 61.302)" fill="#326894"/>
                    <g id="Group_263" data-name="Group 263" transform="translate(0 0.64)">
                      <path id="Path_433" data-name="Path 433" d="M379.477,361.241a4.1,4.1,0,0,1-.037.474l-1.052,8.477-9.4,75.548a3.7,3.7,0,0,1-7.37-.443,4.038,4.038,0,0,1,.037-.47l9.276-74.647,1.162-9.39a3.7,3.7,0,0,1,7.379.452Z" transform="translate(-361.62 -357.555)" fill="#4d8ab3"/>
                      <path id="Path_434" data-name="Path 434" d="M380.262,361.244a4.058,4.058,0,0,1-.037.474l-1.052,8.476H371.73l1.162-9.39a3.7,3.7,0,0,1,7.37.443Z" transform="translate(-362.404 -357.558)" fill="#326894"/>
                    </g>
                    <g id="Group_264" data-name="Group 264" transform="translate(37.43 0)">
                      <path id="Path_435" data-name="Path 435" d="M409.589,360.55v84.676a3.69,3.69,0,1,1-7.379,0V360.55a3.69,3.69,0,1,1,7.379,0Z" transform="translate(-402.2 -356.86)" fill="#4d8ab3"/>
                      <path id="Path_436" data-name="Path 436" d="M408.509,357.94a3.662,3.662,0,0,1,1.079,2.609v9.583H402.2V360.55a3.7,3.7,0,0,1,6.309-2.609Z" transform="translate(-402.2 -356.861)" fill="#326894"/>
                    </g>
                    <g id="Group_265" data-name="Group 265" transform="translate(64.114 0.637)">
                      <path id="Path_437" data-name="Path 437" d="M448.978,445.288a3.694,3.694,0,0,1-7.361.461l-9.4-75.553-1.052-8.476a3.98,3.98,0,0,1-.037-.474,3.7,3.7,0,0,1,7.37-.443l1.162,9.39,9.279,74.649A2.393,2.393,0,0,1,448.978,445.288Z" transform="translate(-431.129 -357.551)" fill="#4d8ab3"/>
                      <path id="Path_438" data-name="Path 438" d="M439.672,370.186h-7.444l-1.052-8.477a4.085,4.085,0,0,1-.037-.474,3.7,3.7,0,0,1,7.37-.443Z" transform="translate(-431.129 -357.55)" fill="#326894"/>
                    </g>
                  </g>
                  <g id="Group_267" data-name="Group 267" transform="translate(3.33 0)">
                    <path id="Path_439" data-name="Path 439" d="M450.588,349.684v2.463a7.789,7.789,0,0,1-7.793,7.794h-69.77a7.79,7.79,0,0,1-7.794-7.794v-2.463a7.79,7.79,0,0,1,7.794-7.794h69.77a7.784,7.784,0,0,1,7.793,7.794Z" transform="translate(-365.23 -341.89)" fill="#994403"/>
                    <path id="Path_440" data-name="Path 440" d="M451.129,349.684v2.463a7.789,7.789,0,0,1-7.793,7.794H380.011a7.79,7.79,0,0,1-7.794-7.794v-2.463a7.79,7.79,0,0,1,7.794-7.794h63.325a7.784,7.784,0,0,1,7.793,7.794Z" transform="translate(-365.771 -341.89)" fill="#852e03"/>
                  </g>
                </g>
                <g id="Group_272" data-name="Group 272" transform="translate(15.658 54.064)">
                  <path id="Path_441" data-name="Path 441" d="M357.209,228.193c1.4-2.3.037-5.285.48-7.942A3.136,3.136,0,0,1,358.7,218.3a1.6,1.6,0,0,1,2.056-.01c.655.636.433,1.706.425,2.62-.018,1.642.765,3.162,1.107,4.769.83,3.893-1.236,7.093-3.21,10.451a19.22,19.22,0,0,1-7.906,3.127c-1.31.129-8.016-3.569-10.636-11.521-1.319-3.984-1.162-5.636-.719-6.18a1.432,1.432,0,0,1,1.872-.378,2.114,2.114,0,0,1,.636,1.07c.84,2.389,1.67,4.778,2.49,7.259a15.362,15.362,0,0,1-4.787-11.945c.046-.848.3-1.872,1.116-2.122a1.527,1.527,0,0,1,1.485.461,4.645,4.645,0,0,1,.858,1.383c1.162,2.518,2.334,5.027,3.966,8.016a11.627,11.627,0,0,1-3.173-11.207c.176-.664.572-1.439,1.265-1.448s1.116.765,1.365,1.429q1.771,4.743,3.542,9.5a13.451,13.451,0,0,1-1.992-8.966c.148-1.125.719-2.482,1.863-2.53a1.882,1.882,0,0,1,1.587.969,6.282,6.282,0,0,1,.636,1.836C353.437,218.5,355.042,221.93,357.209,228.193Z" transform="translate(-339.501 -212.074)" fill="#fdbd9b"/>
                  <path id="Path_442" data-name="Path 442" d="M340.62,222.022c1.052-.286,1.789.083,2.2,1.6.572,2.15,2.093,7.13,3.662,8.237" transform="translate(-339.589 -212.839)" fill="none" stroke="#b0514a" stroke-linecap="round" stroke-width="0.5"/>
                  <path id="Path_443" data-name="Path 443" d="M360.173,236.02l3.865,9.013-10.22,6.189-4.547-12.028Z" transform="translate(-340.26 -213.933)" fill="#fdbd9b"/>
                  <g id="Group_271" data-name="Group 271" transform="translate(3.695 3.594)">
                    <g id="Group_269" data-name="Group 269" transform="translate(0 0.083)">
                      <path id="Path_444" data-name="Path 444" d="M359.3,223.864c-.737-4.123-3.846-7.14-7.4-7.518l-.055-.286s-1.854.332-2.472.474c-4.04.9-6.539,5.433-5.709,10.119s4.751,8.064,8.854,7.518c.627-.083,2.482-.415,2.482-.415l-.055-.286C358.157,231.9,360.039,228,359.3,223.864Z" transform="translate(-343.508 -216.06)" fill="#316382"/>
                    </g>
                    <path id="Path_445" data-name="Path 445" d="M351.847,216.081c4.313-.769,8.517,2.571,9.388,7.461s-1.916,9.477-6.23,10.247-8.517-2.571-9.389-7.461S347.535,216.85,351.847,216.081Z" transform="translate(-343.659 -215.971)" fill="#407c91"/>
                    <g id="Group_270" data-name="Group 270" transform="translate(3.617 2.074)">
                      <path id="Path_446" data-name="Path 446" d="M359.581,224.04c-.674-3.754-3.911-6.325-7.231-5.737a1.187,1.187,0,0,0-.175.037c-3.219.674-5.285,4.15-4.621,7.84s3.795,6.245,7.057,5.765a1.161,1.161,0,0,0,.175-.028C358.093,231.336,360.251,227.8,359.581,224.04Z" transform="translate(-347.429 -218.219)" fill="#ebf5ff"/>
                    </g>
                  </g>
                  <path id="Path_447" data-name="Path 447" d="M391.343,233.007l-6.291-4.787a16.794,16.794,0,0,0-6.29,7.185c-2.186,4.861-5.083,21.086-5.083,21.086l-11.746-19.518L346.96,247.6s16.6,42.024,26.6,42.533,17.036-8.753,17.036-8.753Z" transform="translate(-340.081 -213.327)" fill="#fff"/>
                </g>
                <g id="Group_278" data-name="Group 278" transform="translate(0 134.751)">
                  <g id="Group_274" data-name="Group 274" transform="translate(0 119.647)">
                    <path id="Path_448" data-name="Path 448" d="M341.32,430.211l1.91,12.037,7.877,3.2,9.049-4.325-1.642-11.859Z" transform="translate(-323.985 -429.265)" fill="#fbbd9a"/>
                    <g id="Group_273" data-name="Group 273" transform="translate(0 10.787)">
                      <path id="Path_449" data-name="Path 449" d="M363.788,457.922l-40.834-.59a10.386,10.386,0,0,1-.387-2.075,7.35,7.35,0,0,1,2.53-6.66c3.431-2.666,8.883-3.035,12.425-4.409a7.891,7.891,0,0,0,3.4-2.915l5.811.332s.48,3.241,2.638,3.044,9.288-3.69,9.288-3.69a35.917,35.917,0,0,1,5.064,14.3A14.658,14.658,0,0,1,363.788,457.922Z" transform="translate(-322.527 -440.959)" fill="#502202"/>
                      <path id="Path_450" data-name="Path 450" d="M363.792,459.126l-40.835-.591a10.381,10.381,0,0,1-.387-2.075h41.147a14.267,14.267,0,0,1,.074,2.666Z" transform="translate(-322.53 -442.162)" fill="#855321"/>
                    </g>
                  </g>
                  <g id="Group_277" data-name="Group 277" transform="translate(10.489 0)">
                    <g id="Group_276" data-name="Group 276" transform="translate(38.342 119.647)">
                      <path id="Path_451" data-name="Path 451" d="M394.26,430.211l1.909,12.037,7.877,3.2,9.048-4.325-1.641-11.859Z" transform="translate(-376.925 -429.265)" fill="#fbbd9a"/>
                      <g id="Group_275" data-name="Group 275" transform="translate(0 10.787)">
                        <path id="Path_452" data-name="Path 452" d="M416.728,457.922l-40.835-.59a10.378,10.378,0,0,1-.387-2.075,7.35,7.35,0,0,1,2.53-6.66c3.431-2.666,8.883-3.035,12.425-4.409a7.9,7.9,0,0,0,3.4-2.915l5.811.332s.48,3.241,2.638,3.044,9.288-3.69,9.288-3.69a35.914,35.914,0,0,1,5.063,14.3A14.658,14.658,0,0,1,416.728,457.922Z" transform="translate(-375.467 -440.959)" fill="#502202"/>
                        <path id="Path_453" data-name="Path 453" d="M416.732,459.126l-40.834-.591a10.387,10.387,0,0,1-.387-2.075h41.148A14.284,14.284,0,0,1,416.732,459.126Z" transform="translate(-375.47 -442.162)" fill="#855321"/>
                      </g>
                    </g>
                    <path id="Path_454" data-name="Path 454" d="M387.177,301.29l-6.687,10.839S342.2,317.958,336,327.339c-5.719,8.652,2.029,96.353,2.029,96.353h26.3s-2.011-64.779,0-70.775,62.3-5.656,65.766-13.791,4.612-36.682,4.612-36.682" transform="translate(-333.899 -299.685)" fill="#112c45"/>
                    <path id="Path_455" data-name="Path 455" d="M438.988,313.662s1.485,23.475-6.227,29.093c-6.7,4.879-23.724,6.152-23.724,6.152l3.284,73.016-25.144,1.642s-12.491-85.223-11.9-93.392,24.776-14.084,23.124-15.247c0,0-18.642-6.324-11.733-13.282.158-.158.332-.323.508-.48,1.6-1.423,21.243.046,21.243.046l18.1-1.66,7.167,8.126Z" transform="translate(-337.109 -299.55)" fill="#163a4a"/>
                  </g>
                </g>
                <path id="Path_456" data-name="Path 456" d="M439.009,321.1c-.158,1.153-.332,2.389-.516,3.644-3.1-3.939-8.108-9.7-12.526-12.13-9.16-5.036-38.436-8.477-38.436-8.477l.111-2.5c.158-.158.332-.322.508-.48,1.6-1.423,21.242.046,21.242.046l18.1-1.66,7.167,8.126Z" transform="translate(-327.572 -164.799)" fill="#112c45"/>
                <g id="Group_287" data-name="Group 287" transform="translate(55.016)">
                  <g id="Group_279" data-name="Group 279" transform="translate(14.831 47.218)">
                    <path id="Path_457" data-name="Path 457" d="M427.711,219.409s-10.782,13.928-17.5,13.218-11.964-8.143-11.964-8.143,2.693-1,3.855-5.4c.682-2.537.84-6.208-.323-11.474l19.96-2.961a27.646,27.646,0,0,0,.747,6.918C423.247,214.631,424.741,217.893,427.711,219.409Z" transform="translate(-398.25 -204.653)" fill="#fdbd9b"/>
                    <path id="Path_458" data-name="Path 458" d="M402.4,219.1c.682-2.537.84-6.208-.323-11.474l19.96-2.961a27.641,27.641,0,0,0,.747,6.918A33.893,33.893,0,0,1,402.4,219.1Z" transform="translate(-398.547 -204.653)" fill="#f0997f"/>
                  </g>
                  <g id="Group_281" data-name="Group 281" transform="translate(0 34.184)">
                    <path id="Path_459" data-name="Path 459" d="M382.194,194.709c.305-2.7,3.55-4.546,7.245-4.128s6.441,2.946,6.135,5.644-3.548,4.545-7.243,4.126S381.891,197.406,382.194,194.709Z" transform="translate(-382.171 -190.522)" fill="#f0997f"/>
                    <g id="Group_280" data-name="Group 280" transform="translate(3.504 3.226)">
                      <path id="Path_460" data-name="Path 460" d="M390.075,195.7v-.074a1.606,1.606,0,0,0-1.6-1.6h-.895a1.606,1.606,0,0,0-1.6,1.6v.074a1.606,1.606,0,0,0,1.6,1.6h.895A1.606,1.606,0,0,0,390.075,195.7Z" transform="translate(-385.97 -194.02)" fill="#4b8394"/>
                      <rect id="Rectangle_61" data-name="Rectangle 61" width="1.346" height="3.69" transform="translate(0 1.642)" fill="#4b8394"/>
                    </g>
                  </g>
                  <g id="Group_282" data-name="Group 282" transform="translate(5.276 8.303)">
                    <path id="Path_461" data-name="Path 461" d="M427.734,185.549c0-12.747-8.818-23.085-19.7-23.085s-19.7,6.808-19.7,23.085c0,12.747,4.944,23.807,16.658,24.582C415.845,210.841,427.734,198.305,427.734,185.549Z" transform="translate(-387.926 -162.464)" fill="#fdbd9b"/>
                    <path id="Path_462" data-name="Path 462" d="M425.376,191.953a27.711,27.711,0,0,1-7.589-12.83,6.008,6.008,0,0,1-5.285-.8,14.658,14.658,0,0,1-12.379-.712,10.313,10.313,0,0,1-9.178-.286,19.573,19.573,0,0,0-3.053,6.263q.413-6.586.848-13.181,15.593-2.2,31.323-3.063a3.424,3.424,0,0,1,1.753.212,3.385,3.385,0,0,1,1.384,2.177C425.413,177.02,426.539,184.639,425.376,191.953Z" transform="translate(-387.892 -162.837)" fill="#f0997f"/>
                  </g>
                  <g id="Group_283" data-name="Group 283" transform="translate(3.698)">
                    <path id="Path_463" data-name="Path 463" d="M430.253,167.924c-.433,6.549-.858,15-1.291,21.464-.609,2.223-2.518,2.14-5.111,2.97a64.129,64.129,0,0,1-4.777-17.488,12.7,12.7,0,0,1-7.822-.516,16.689,16.689,0,0,1-12.185-.028,14.062,14.062,0,0,1-9.057.166,56.221,56.221,0,0,0-1.854,11.542c-.369-3.146-1.587-12.877-1.892-19.545a22.6,22.6,0,0,1,.231-6.134c1.237-3.625,5.24-2.451,6.31-1.208a6,6,0,0,1,4.067-3.395,6.6,6.6,0,0,1,5.388,1.282,6.878,6.878,0,0,1,5.783-3.551,5.727,5.727,0,0,1,5.543,3.542,12.072,12.072,0,0,1,3.479-1.4,5.071,5.071,0,0,1,3.637.563,3.919,3.919,0,0,1,1.273,1.356,5.592,5.592,0,0,1,.711,2.075,3.679,3.679,0,0,1,4.6-.858,5.993,5.993,0,0,1,2.822,4.077,17.422,17.422,0,0,1,.143,5.087Z" transform="translate(-386.182 -153.463)" fill="#502202"/>
                    <path id="Path_464" data-name="Path 464" d="M421.968,157.535a6.8,6.8,0,0,0-4.19-.406,6.253,6.253,0,0,0-4.206,3.229,5.748,5.748,0,0,0-5.506-3.637c-2.352.12-4.529,1.872-5.608,4.621a6.088,6.088,0,0,0-5.257-2.075,5.8,5.8,0,0,0-4.612,3.431,2.623,2.623,0,0,0-2.87-.581,5.075,5.075,0,0,0-2.306,2.029,11.212,11.212,0,0,0-1.161,2.324,22.533,22.533,0,0,1,.231-6.134c1.236-3.625,5.239-2.451,6.309-1.208a6,6,0,0,1,4.067-3.395,6.6,6.6,0,0,1,5.387,1.282,6.878,6.878,0,0,1,5.783-3.551,5.728,5.728,0,0,1,5.543,3.542,12.075,12.075,0,0,1,3.478-1.4,5.071,5.071,0,0,1,3.637.563A3.969,3.969,0,0,1,421.968,157.535Z" transform="translate(-386.18 -153.46)" fill="#6b4019"/>
                  </g>
                  <g id="Group_284" data-name="Group 284" transform="translate(8.664 30.244)">
                    <path id="Path_465" data-name="Path 465" d="M396.573,186.416a6.409,6.409,0,0,0-5.008.913" transform="translate(-391.565 -186.25)" fill="none" stroke="#502202" stroke-linecap="round" stroke-width="1"/>
                    <path id="Path_466" data-name="Path 466" d="M411.1,186.75a6.069,6.069,0,0,1,5.755.563" transform="translate(-393.081 -186.252)" fill="none" stroke="#502202" stroke-linecap="round" stroke-width="1"/>
                    <path id="Path_467" data-name="Path 467" d="M402.54,194.43a38.456,38.456,0,0,0,.535,5.442" transform="translate(-392.416 -186.885)" fill="none" stroke="#b0514a" stroke-linecap="round" stroke-width="1"/>
                    <path id="Path_468" data-name="Path 468" d="M405.33,205.641a8.59,8.59,0,0,0,6.079-2.251" transform="translate(-392.633 -187.58)" fill="none" stroke="#b0514a" stroke-linecap="round" stroke-width="1"/>
                    <path id="Path_469" data-name="Path 469" d="M411.8,193.991c.553-.1,1.112.413,1.24,1.139a1.213,1.213,0,0,1-.775,1.495c-.553.1-1.112-.413-1.24-1.14A1.211,1.211,0,0,1,411.8,193.991Z" transform="translate(-393.067 -186.85)" fill="#2d3a5e"/>
                    <path id="Path_470" data-name="Path 470" d="M395.062,194.22c.553-.1,1.111.413,1.24,1.139a1.214,1.214,0,0,1-.776,1.495c-.553.1-1.112-.413-1.241-1.14A1.211,1.211,0,0,1,395.062,194.22Z" transform="translate(-391.768 -186.868)" fill="#2d3a5e"/>
                  </g>
                  <g id="Group_286" data-name="Group 286" transform="translate(37.355 34.154)">
                    <path id="Path_471" data-name="Path 471" d="M428.7,190.577c3.684-.508,6.971,1.26,7.342,3.953s-2.315,5.283-6,5.791-6.97-1.261-7.341-3.953S425.016,191.084,428.7,190.577Z" transform="translate(-422.67 -190.49)" fill="#fdbd9b"/>
                    <g id="Group_285" data-name="Group 285" transform="translate(5.821 3.256)">
                      <path id="Path_472" data-name="Path 472" d="M428.98,195.7v-.074a1.606,1.606,0,0,1,1.6-1.6h.895a1.606,1.606,0,0,1,1.6,1.6v.074a1.606,1.606,0,0,1-1.6,1.6h-.895A1.606,1.606,0,0,1,428.98,195.7Z" transform="translate(-428.98 -194.02)" fill="#4b8394"/>
                      <rect id="Rectangle_62" data-name="Rectangle 62" width="1.346" height="3.69" transform="translate(2.758 1.642)" fill="#4b8394"/>
                    </g>
                  </g>
                </g>
                <g id="Group_288" data-name="Group 288" transform="translate(60.579 58.755)">
                  <path id="Path_473" data-name="Path 473" d="M424.478,217.34s-10.93,6.6-12.83,8.975a14.294,14.294,0,0,0-2.482,5.627s-2.62-5.525-3.21-5.986-5.174-4.806-5.174-4.806l-5.376,4.077-7.2,3.745.3,69.2,48.72,3.3,1.255-75.092Z" transform="translate(-388.203 -217.174)" fill="#69c5c9"/>
                  <path id="Path_474" data-name="Path 474" d="M410.466,233.61c-2.306,19.407,1.7,53.323-4.806,66.5" transform="translate(-389.558 -218.436)" fill="none" stroke="#3e7c8a" stroke-linecap="round" stroke-width="0.5"/>
                  <path id="Path_475" data-name="Path 475" d="M411.89,229.05a10.091,10.091,0,0,1,2.712-4.575c1.891-1.512,11.64-7.25,11.9-7.314s5.045,3.275,5.045,3.275L424.315,230.7s-7.416-5.211-9.15-4.769C413.5,226.362,411.89,229.05,411.89,229.05Z" transform="translate(-390.041 -217.16)" fill="#9bebe7"/>
                  <path id="Path_476" data-name="Path 476" d="M408.406,229.316a10.8,10.8,0,0,0-1.55-3.376c-1.144-1.411-4.925-5.488-5.312-5.461s-4.225,2.324-4.907,3.716-.3,7.979-.3,7.979,6.476-6.162,9-5.461C407.023,227.186,408.406,229.316,408.406,229.316Z" transform="translate(-388.826 -217.417)" fill="#9bebe7"/>
                </g>
                <g id="Group_289" data-name="Group 289" transform="translate(90.123 59.724)">
                  <path id="Path_477" data-name="Path 477" d="M431.206,219.41s-8.459,7.951-9.732,16.022-.783,50.538,7.048,64.669c6.788,12.259,7.431,51.3,7.431,69.429l23.76-8.191s-.1-32.515-7.776-62.621c-5.949-23.337-.237-65.979-3.644-70.148C445.927,225.655,431.206,219.41,431.206,219.41Z" transform="translate(-420.287 -218.304)" fill="#fff"/>
                  <path id="Path_478" data-name="Path 478" d="M421.125,264.634s-1.965-22.432-.065-29.655,7.4-16.4,8.883-16.723c2.451-.526,7.942,3.727,7.942,3.727a54.169,54.169,0,0,0-5.755,19.361c-.12,1.051-8.836,4.269-8.836,4.269s6.808,4.981,6.715,5.47C429.906,251.591,421.125,264.634,421.125,264.634Z" transform="translate(-420.232 -218.211)" fill="#dae8f7"/>
                </g>
                <g id="Group_292" data-name="Group 292" transform="translate(66.184 64.664)">
                  <g id="Group_290" data-name="Group 290" transform="translate(0 70.825)">
                    <path id="Path_479" data-name="Path 479" d="M403.513,303.75c5.1,0,9.233,2.573,9.233,5.747s-4.134,5.746-9.233,5.746-9.233-2.573-9.233-5.746S398.414,303.75,403.513,303.75Z" transform="translate(-394.28 -300.614)" fill="#407c91"/>
                    <path id="Path_480" data-name="Path 480" d="M416.5,301.7l-9.408-1.245a4.531,4.531,0,0,0-2.509.148,3.386,3.386,0,0,0-1.642,2.97c1.568.138,3.136.267,4.723.526a30.939,30.939,0,0,1-6.918,6.872,7.6,7.6,0,0,0-1.651,1.411,2.237,2.237,0,0,0-.474,2.038,2.134,2.134,0,0,0,1.632,1.282,18.151,18.151,0,0,0,2.287.065,2.5,2.5,0,0,0,1.208,2.722,3,3,0,0,0,3.136-.406,3.333,3.333,0,0,0,2.426,1.706,7.437,7.437,0,0,0,2.98-.474,3.937,3.937,0,0,0,3,1.344,4.98,4.98,0,0,0,3.154-1.374,24.258,24.258,0,0,0,6.282-8.828A67.334,67.334,0,0,1,416.5,301.7Z" transform="translate(-394.612 -300.348)" fill="#fbbd9a"/>
                  </g>
                  <g id="Group_291" data-name="Group 291" transform="translate(17.71 0)">
                    <path id="Path_481" data-name="Path 481" d="M432.859,237.442c-.231-4.455,2.029-12.84,5.239-13.716,5-1.356,13.494,6.152,15.727,12.13s8.975,42.605,7.084,47.592c-2.592,6.808-36.822,25.116-36.822,25.116l-10.608-15.5s23.733-12.877,25.144-16.972C439.5,273.528,433.4,247.893,432.859,237.442Z" transform="translate(-413.48 -223.566)" fill="#fff"/>
                    <path id="Path_482" data-name="Path 482" d="M445.311,230.29s-3.828,5.008-3.828,14.029,2.214,30.384,1.7,31.167-17.239,11.632-17.239,11.632" transform="translate(-414.447 -224.088)" fill="none" stroke="#b8c8e3" stroke-linecap="round" stroke-width="1"/>
                    <path id="Path_483" data-name="Path 483" d="M442.661,259.4a23.449,23.449,0,0,1-5.055-10.156" transform="translate(-415.352 -225.558)" fill="none" stroke="#b8c8e3" stroke-linecap="round" stroke-width="1"/>
                    <path id="Path_484" data-name="Path 484" d="M433.24,310.776c5.433-2.961,13.292-7.583,18.025-11.356" transform="translate(-415.013 -229.453)" fill="none" stroke="#b8c8e3" stroke-linecap="round" stroke-width="1"/>
                  </g>
                </g>
                <g id="Group_294" data-name="Group 294" transform="translate(40.911 61.808)">
                  <path id="Path_485" data-name="Path 485" d="M397.762,221.12a66.3,66.3,0,0,0-1.439,15.155c0,16.142-2.1,61.026-10.6,67.658-6.678,5.211-15.045,4.879-18.845,4.879,0,0,7.906-4.206,10.857-9.085,3.284-5.423,3.837-22.663,4.269-31.647.461-9.519,1.319-35.752,2.407-38.04C386.776,225.1,397.762,221.12,397.762,221.12Z" transform="translate(-366.88 -220.521)" fill="#fff"/>
                  <path id="Path_486" data-name="Path 486" d="M396.561,266.184s1.928-15.192,1.928-25.753a94.506,94.506,0,0,1,1.946-19.961s-6.715,2.134-7.453,3.219-4.215,7.333-6,19.167c-.295,1.956,7.636,3.569,7.636,3.569s-6.114,4.751-6.114,5.94C388.52,254.672,396.561,266.184,396.561,266.184Z" transform="translate(-368.439 -220.47)" fill="#dae8f7"/>
                  <g id="Group_293" data-name="Group 293" transform="translate(13.513 14.214)">
                    <path id="Path_487" data-name="Path 487" d="M385.2,235.88a385.027,385.027,0,0,1-3.459,53.471" transform="translate(-381.546 -235.88)" fill="none" stroke="#b8c8e3" stroke-linecap="round" stroke-width="1"/>
                    <path id="Path_488" data-name="Path 488" d="M381.53,245.88c.664,3.69,2.269,7.333,3.256,8.449" transform="translate(-381.53 -236.656)" fill="none" stroke="#b8c8e3" stroke-linecap="round" stroke-width="1"/>
                  </g>
                </g>
              </g>
              <g id="Group_297" data-name="Group 297" transform="translate(0 42.641)">
                <path id="Path_489" data-name="Path 489" d="M386.67,199.736s1.265,29.691,19.066,30.827c15.026.959,23.364-17.507,23.364-30.872" transform="translate(-291.47 -199.69)" fill="none" stroke="#163649" stroke-width="1"/>
                <g id="Group_296" data-name="Group 296" transform="translate(0 31.242)">
                  <path id="Path_490" data-name="Path 490" d="M398.891,233.56s-10.948,40.013-41.323,47.245c-37.173,8.854-73.6-1.1-73.6-1.1" transform="translate(-283.5 -233.56)" fill="none" stroke="#163649" stroke-linecap="round" stroke-width="1"/>
                  <path id="Path_491" data-name="Path 491" d="M349.8,234.79s4.2,24.259-14.61,36.822c-16.658,11.134-51.22,7.693-51.22,7.693" transform="translate(-283.5 -233.656)" fill="none" stroke="#163649" stroke-linecap="round" stroke-width="1"/>
                  <path id="Path_492" data-name="Path 492" d="M386.307,307.785s-68.128.138-102.847-24.191" transform="translate(-283.46 -237.444)" fill="none" stroke="#163649" stroke-linecap="round" stroke-width="1"/>
                </g>
              </g>
            </g>
          </g>
          <g id="Group_324" data-name="Group 324" transform="translate(255.06 0)">
            <path id="Path_493" data-name="Path 493" d="M549.587,123.232a15.811,15.811,0,0,1,30.116-7.6c2.638,5.645,1.734,12.259.461,18.365s-2.841,12.427-1.392,18.485c1.227,5.1,4.52,9.6,5.174,14.8a15.549,15.549,0,0,1-11.124,16.409c-3.948,1.028-9.049-.237-10.3-4.123-1.162-3.6,1.494-7.425.96-11.161-.452-3.136-3-5.46-5.11-7.822C550.619,151.863,550.509,139.291,549.587,123.232Z" transform="translate(-471.801 -106.497)" fill="#381b07"/>
            <g id="Group_301" data-name="Group 301" transform="translate(0 71.524)">
              <path id="Path_494" data-name="Path 494" d="M475.636,221.486c-3.533-4.032-6.116-11.29-6.116-13.734,0-2.887-.461-5.85.553-8.551a21.438,21.438,0,0,1,2.135-3.911c.913-1.429,1.818-2.859,2.731-4.289a2.885,2.885,0,0,1,1.485-1.4c1.134-.3,2.177.978,2.121,2.158s-.84,2.168-2.176,3.21a12.723,12.723,0,0,1,3.109-5.765,1.716,1.716,0,0,1,1.5-.719c.931.221.9,1.549.655,2.472-.627,2.316-1.245,4.63-1.744,6.623,1.976,3.763,1.8,8.227,1.837,12.47s.452,8.836,3.256,12.028C482.29,223.257,479.114,218.553,475.636,221.486Z" transform="translate(-465.582 -184.398)" fill="#db8e62"/>
              <path id="Path_495" data-name="Path 495" d="M475.72,222.819s9.362,31.989,16.437,32.643c8.56.8,15.515-7.115,15.515-7.115l5.589-28.649-12.674-7.589L493.6,235.066l-9.98-11.281Z" transform="translate(-466.072 -186.227)" fill="#db8e62"/>
              <path id="Path_496" data-name="Path 496" d="M519.668,222.3c-6.974-2.638-13.974-5.218-20.938-7.9,1.9-9.1,4.538-20.016,6.844-23.5a15.477,15.477,0,0,1,11.29-6.853l3.182,9.417-.378,28.64Z" transform="translate(-467.857 -184.05)" fill="#1d9fb3"/>
              <g id="Group_300" data-name="Group 300" transform="translate(0 4.086)">
                <path id="Path_497" data-name="Path 497" d="M510.642,241.176l-20.385-52.7-25,6.483,23.134,58.676Z" transform="translate(-465.26 -188.48)" fill="#b23f37"/>
                <path id="Path_498" data-name="Path 498" d="M507.519,238.524l-18.365-46.9-20.386,5.525,20.08,51.322Z" transform="translate(-465.532 -188.723)" fill="#ebf5ff"/>
                <path id="Path_499" data-name="Path 499" d="M483.083,190.24l1.274,3.4-8,2.222-1.43-3.479Z" transform="translate(-466.01 -188.616)" fill="#678ca8"/>
              </g>
            </g>
            <g id="Group_304" data-name="Group 304" transform="translate(33.335 143.591)">
              <g id="Group_303" data-name="Group 303" transform="translate(0 139.19)">
                <g id="Group_302" data-name="Group 302" transform="translate(0 16.51)">
                  <path id="Path_500" data-name="Path 500" d="M501.4,450.47c.074,3.459,36.351,2.288,37.985-.563,1.061-1.863-.9-6.549-2.389-9.583-.79-1.633-1.458-2.786-1.458-2.786l-4.612-6.457-3.68-.1c-8.164,4.713-16.3,9.842-21.206,13.854C503.143,447.214,501.372,449.188,501.4,450.47Z" transform="translate(-501.399 -430.98)" fill="#136d94"/>
                  <path id="Path_501" data-name="Path 501" d="M506.43,444.844c7.5,4.723,24.776-1.882,30.955-4.51-.791-1.633-1.457-2.786-1.457-2.786l-4.612-6.457-3.68-.1C519.473,435.7,511.327,440.832,506.43,444.844Z" transform="translate(-501.79 -430.981)" fill="#db8e62"/>
                </g>
                <path id="Path_502" data-name="Path 502" d="M518.5,415.367l1.281,14.14.461,5.073.323,3.487,14.675-1.54.12-2.463v-.009l.12-2.584.812-16.713.079-1.679-8.937,1.144Z" transform="translate(-502.726 -413.081)" fill="#db8e62"/>
                <path id="Path_503" data-name="Path 503" d="M518.5,415.464l1.281,14.14,7.342.913h.01l6.189.784,2.158.266.811-16.709-8.854-.535Z" transform="translate(-502.726 -413.177)" fill="#cf6e4a"/>
              </g>
              <path id="Path_504" data-name="Path 504" d="M506.815,262.18s-6.309,17.452-5.065,42.264,11.706,111.342,11.706,111.342l26.067-1.227-4.464-111.7-6.291-34.59" transform="translate(-501.413 -262.18)" fill="#1d9fb3"/>
            </g>
            <g id="Group_307" data-name="Group 307" transform="translate(35.001 137.972)">
              <g id="Group_306" data-name="Group 306" transform="translate(53.696 131.231)">
                <g id="Group_305" data-name="Group 305" transform="translate(9.23 15.33)">
                  <path id="Path_505" data-name="Path 505" d="M572.057,448.879c2.3,2.583,29.148-21.842,28.548-25.061-.4-2.1-4.925-4.4-8.034-5.737-1.66-.719-2.915-1.172-2.915-1.172l-7.7-1.919-2.869,2.306c-3.154,8.883-6.023,18.07-7.148,24.3C571.264,445.263,571.209,447.92,572.057,448.879Z" transform="translate(-571.426 -414.98)" fill="#136d94"/>
                  <path id="Path_506" data-name="Path 506" d="M571.98,441.582c8.775-1.273,17.636-17.507,20.634-23.512-1.66-.719-2.915-1.172-2.915-1.172L582,414.98l-2.869,2.306C575.974,426.169,573.1,435.347,571.98,441.582Z" transform="translate(-571.47 -414.98)" fill="#db8e62"/>
                </g>
                <path id="Path_507" data-name="Path 507" d="M561.42,411.7l6.1,5.967,7.684,7.517,2.508,2.444,10.175-10.681-1.513-1.965-4.4-5.7-8.432-10.92Z" transform="translate(-561.42 -398.36)" fill="#db8e62"/>
                <path id="Path_508" data-name="Path 508" d="M561.42,411.7l6.1,5.967,14.454-8.384-8.432-10.921Z" transform="translate(-561.42 -398.36)" fill="#cf6e4a"/>
              </g>
              <path id="Path_509" data-name="Path 509" d="M503.478,278.107c2.537,7.047,21.64,19.462,21.64,19.462s-.184,49.191.526,61.585,26.4,52.872,26.4,52.872l24.074-21.372s-18.657-31.2-19.942-38.538,6.789-45.9,6.789-61.6a60.609,60.609,0,0,0-.711-8.864,110.564,110.564,0,0,0-4.289-17.7c-1.54-4.75-2.841-7.868-2.841-7.868a237.347,237.347,0,0,0-26.141,5.553c-11.955,3.34-23.863,8.163-25.679,14.316A3.472,3.472,0,0,0,503.478,278.107Z" transform="translate(-503.206 -256.087)" fill="#25b2c2"/>
              <path id="Path_510" data-name="Path 510" d="M503.478,278.575a155.1,155.1,0,0,0,19.822,9.888,29.826,29.826,0,0,1,1.439-3.4c.6,1.3,1.208,2.583,1.947,4.348,11.77-2.952,23.65-5.455,35.576-7.278a110.584,110.584,0,0,0-4.289-17.7q-14.472-1.356-28.982-2.316c-11.954,3.339-23.863,8.163-25.679,14.316A3.4,3.4,0,0,0,503.478,278.575Z" transform="translate(-503.207 -256.555)" fill="#1d9fb3"/>
            </g>
            <path id="Path_511" data-name="Path 511" d="M569.982,191.317c-.913-5.534-21.861-12.649-28.982-12-15.294,1.393-26.371,4.169-29.858,6.355s-6.669,22.61-6.669,28.3c0,6.733,2.316,19.952,1.7,25.282-1.2,10.34-7.472,32.238-7.472,32.238l23.051,8.08,2.859-5.036,2.609,6.383,38.1-8.736s-2.915-30.337-2.915-35.659C562.409,231.423,571.162,198.456,569.982,191.317Z" transform="translate(-467.855 -112.155)" fill="#27b8c1"/>
            <g id="Group_309" data-name="Group 309" transform="translate(56.718 82.778)">
              <path id="Path_512" data-name="Path 512" d="M536.574,196.25c-7.656,39.875-8.081,51.295-9.824,79.308" transform="translate(-526.75 -196.25)" fill="none" stroke="#51dbdb" stroke-linecap="round" stroke-width="1"/>
              <g id="Group_308" data-name="Group 308" transform="translate(2.592 6.614)">
                <path id="Path_513" data-name="Path 513" d="M538.392,203.42a1.282,1.282,0,1,1-1.282,1.282A1.282,1.282,0,0,1,538.392,203.42Z" transform="translate(-530.146 -203.42)" fill="#136d94"/>
                <path id="Path_514" data-name="Path 514" d="M534.911,222.33a1.282,1.282,0,1,1-1.281,1.282A1.283,1.283,0,0,1,534.911,222.33Z" transform="translate(-529.876 -204.888)" fill="#136d94"/>
                <path id="Path_515" data-name="Path 515" d="M532.232,242.26a1.282,1.282,0,1,1-1.282,1.282A1.282,1.282,0,0,1,532.232,242.26Z" transform="translate(-529.668 -206.435)" fill="#136d94"/>
                <path id="Path_516" data-name="Path 516" d="M530.842,265.11a1.281,1.281,0,1,1-.907.375A1.282,1.282,0,0,1,530.842,265.11Z" transform="translate(-529.56 -208.208)" fill="#136d94"/>
              </g>
            </g>
            <g id="Group_316" data-name="Group 316" transform="translate(22.082 73.401)">
              <g id="Group_315" data-name="Group 315" transform="translate(0 22.142)">
                <g id="Group_311" data-name="Group 311" transform="translate(0 0.176)">
                  <path id="Path_517" data-name="Path 517" d="M489.2,222.02l3.818.3.295.028,25.606-6.725a2.807,2.807,0,0,0,1.632-3.542,2.9,2.9,0,0,0-3.7-1.623L492.424,219.1l-.249.221Z" transform="translate(-489.2 -210.278)" fill="#136d94"/>
                  <g id="Group_310" data-name="Group 310" transform="translate(0 9.041)">
                    <path id="Path_518" data-name="Path 518" d="M489.2,222.784l1.051.083,2.767.221a1.782,1.782,0,0,1-.249-.212,1.265,1.265,0,0,1-.378-1.236c.055-.184.166-.378.092-.553a.884.884,0,0,0-.166-.2.918.918,0,0,1-.148-.8l-2.186,1.992Z" transform="translate(-489.2 -220.082)" fill="#d68a5a"/>
                    <path id="Path_519" data-name="Path 519" d="M489.2,222.95l1.051.083a1.027,1.027,0,0,1-.231-.415,1.04,1.04,0,0,1-.037-.378Z" transform="translate(-489.2 -220.249)" fill="#24151a"/>
                  </g>
                </g>
                <g id="Group_313" data-name="Group 313" transform="translate(6.798)">
                  <path id="Path_520" data-name="Path 520" d="M520.027,227.7c-2.519-4.664-5.027-9.334-7.711-14.011a25.394,25.394,0,0,0-6.521-3.6,18.147,18.147,0,0,0-7.407,4.713c-.516.544-1.061,1.31-.821,2.038a1.186,1.186,0,0,0,1.245.757,3.551,3.551,0,0,0,1.448-.581c1.393-.812,2.786-1.633,4.4-2.417a11.8,11.8,0,0,1,1.245,1.172,10.552,10.552,0,0,0-3,.35,47.422,47.422,0,0,0-5.267,2.905,1.929,1.929,0,0,0-1.061,1.319,1.225,1.225,0,0,0,.655,1.162,2.293,2.293,0,0,0,1.291.184,8.521,8.521,0,0,0,4.52-1.688,5.93,5.93,0,0,1,1.476.572,7.5,7.5,0,0,0-2.029.581,2.821,2.821,0,0,0-1.328,4,1.068,1.068,0,0,0-.553,1.051,2.967,2.967,0,0,0,.387,1.19,23.776,23.776,0,0,0,1.3,2.26,4.141,4.141,0,0,0,1.68,1.632,1.66,1.66,0,0,0,2.11-.8,9.415,9.415,0,0,0,8.911,4.842A28.612,28.612,0,0,0,520.027,227.7Z" transform="translate(-496.571 -210.09)" fill="#db8e62"/>
                  <g id="Group_312" data-name="Group 312" transform="translate(4.713 5.608)">
                    <path id="Path_521" data-name="Path 521" d="M509.858,216.779a10.076,10.076,0,0,0-2.869-.609" transform="translate(-502.091 -216.17)" fill="none" stroke="#a8473e" stroke-linecap="round" stroke-width="0.5"/>
                    <path id="Path_522" data-name="Path 522" d="M507.878,221.2a10.547,10.547,0,0,0-2.518.073" transform="translate(-501.965 -216.556)" fill="none" stroke="#a8473e" stroke-linecap="round" stroke-width="0.5"/>
                    <path id="Path_523" data-name="Path 523" d="M501.68,226.044a9.128,9.128,0,0,1,4.861-.931" transform="translate(-501.68 -216.864)" fill="none" stroke="#a8473e" stroke-linecap="round" stroke-width="0.5"/>
                    <path id="Path_524" data-name="Path 524" d="M506.363,231.707a9.791,9.791,0,0,1-1.028-2.767" transform="translate(-501.963 -217.161)" fill="none" stroke="#a8473e" stroke-linecap="round" stroke-width="0.5"/>
                    <path id="Path_525" data-name="Path 525" d="M505.52,230.57a8.326,8.326,0,0,1-1.66.129" transform="translate(-501.849 -217.288)" fill="none" stroke="#a8473e" stroke-linecap="round" stroke-width="0.5"/>
                  </g>
                </g>
                <g id="Group_314" data-name="Group 314" transform="translate(23.669 3.634)">
                  <path id="Path_526" data-name="Path 526" d="M514.86,234.452s31.878,27.037,40.484,23.992c3.422-1.218,6.816-11.142,9.279-20.385,2.268-8.5,3.745-16.4,3.745-16.4l-18.058-7.628s-1.208,8.191-2.426,14.851c-.8,4.492-1.614,8.283-2.047,8.393-1.844.516-25.246-9.9-25.246-9.9Z" transform="translate(-514.86 -214.03)" fill="#db8e62"/>
                  <path id="Path_527" data-name="Path 527" d="M550.66,228.891c4.308,2.822,11.078,6.982,16.732,9.178,2.269-8.5,3.745-16.4,3.745-16.4l-18.06-7.628S551.877,222.23,550.66,228.891Z" transform="translate(-517.639 -214.03)" fill="#cf6e4a"/>
                </g>
              </g>
              <path id="Path_528" data-name="Path 528" d="M571.032,229.11A134.319,134.319,0,0,1,549.3,223.6c1.07-8.873,3.569-24.923,5.6-29.867,1.439-3.505,7.093-9.666,13.467-7s8.818,6.872,8.143,17.968C576.258,208.651,572.507,221.076,571.032,229.11Z" transform="translate(-493.864 -186.085)" fill="#32c9cf"/>
            </g>
            <g id="Group_323" data-name="Group 323" transform="translate(44.198 4.592)">
              <g id="Group_319" data-name="Group 319" transform="translate(15.275 47.416)">
                <g id="Group_317" data-name="Group 317" transform="translate(1.239 0)">
                  <path id="Path_529" data-name="Path 529" d="M531.08,182.085s1.854,8.393,5.433,10.847S553.641,180.3,553.641,180.3c-2.334-2.177-2.9-6.448-2.868-10.229a43.826,43.826,0,0,1,.673-7.176l-16.511,4.769a33.1,33.1,0,0,1-.684,9.132C533.127,181.375,531.08,182.085,531.08,182.085Z" transform="translate(-531.08 -162.89)" fill="#db8e62"/>
                  <path id="Path_530" data-name="Path 530" d="M534.53,176.791c7.61,1.614,13.43-3.229,16.511-6.725a43.828,43.828,0,0,1,.674-7.176L535.2,167.659A32.816,32.816,0,0,1,534.53,176.791Z" transform="translate(-531.348 -162.89)" fill="#cf6e4a"/>
                </g>
                <g id="Group_318" data-name="Group 318" transform="translate(0 12.674)">
                  <path id="Path_531" data-name="Path 531" d="M537.628,194.295c-.212-.037.848-5.7,1.384-6.189s13.55-11.889,14.325-11.463c1.134.609,3,4.225,3,4.225a47.72,47.72,0,0,1-7.721,7.721C545.155,191.4,539.62,194.635,537.628,194.295Z" transform="translate(-530.347 -176.63)" fill="#136d94"/>
                  <path id="Path_532" data-name="Path 532" d="M537.017,194.438c.286-.286-.295-5.9-.627-6.42-1.079-1.706-2.905-6.152-2.905-9.178,0,0-3.284,1.245-3.69,1.965s1.384,6.051,2.758,8.587C534.887,193.663,536.786,194.668,537.017,194.438Z" transform="translate(-529.737 -176.802)" fill="#136d94"/>
                </g>
              </g>
              <path id="Path_533" data-name="Path 533" d="M513.2,152.857c.312-2.754,3.622-4.639,7.394-4.211s6.575,3,6.263,5.759-3.622,4.639-7.393,4.211S512.889,155.612,513.2,152.857Z" transform="translate(-513.177 -114.365)" fill="#cf6e4a"/>
              <g id="Group_320" data-name="Group 320" transform="translate(5.782 7.817)">
                <path id="Path_534" data-name="Path 534" d="M559.629,143.509c0-13.006-8.994-23.549-20.09-23.549s-20.089,10.546-20.089,23.549,5.543,25.938,16.788,25.476C547.318,168.524,559.629,156.516,559.629,143.509Z" transform="translate(-519.446 -119.96)" fill="#db8e62"/>
                <path id="Path_535" data-name="Path 535" d="M555.174,149.153c-2.334-2.537-3.81-7.324-4.17-9.362a10.988,10.988,0,0,1-6.29-5.672c-3.4,3.4-16.336,5.322-20.652,4.2-3.071,3.795-3.162,5.672-4.252,10.515a52.944,52.944,0,0,1,.913-17.756,190.305,190.305,0,0,0,23.677-9.427c1.31-.627,2.878-1.265,4.132-.526a4.871,4.871,0,0,1,1.633,2.223,28.224,28.224,0,0,0,7.249,9.215c.785.655,1.68,1.393,1.716,2.407a3.646,3.646,0,0,1-.647,1.854C557.041,139.487,557.286,145.9,555.174,149.153Z" transform="translate(-519.446 -120.025)" fill="#cf6e4a"/>
              </g>
              <g id="Group_321" data-name="Group 321" transform="translate(2.372 0)">
                <path id="Path_536" data-name="Path 536" d="M515.75,134.885c-.065,4.925,3.948,15.155,3.948,15.155s.028-8.421,3.865-13.891c7.942,0,16.741-.369,21.612-4.889a10.783,10.783,0,0,0,6.761,6.641c-.093,4.464,1.956,8.642,3.241,12.4,2.5-1.522,4.381-.876,6.42-3.284,1.18-4.363,2.435-11.179,2.075-15.395a21.22,21.22,0,0,0-3.062-9.676A15.037,15.037,0,0,0,559.134,120c-2.841-3.146-7.324-4.981-11.429-3.957a13.131,13.131,0,0,0-9.27-4.538A18.432,18.432,0,0,0,528.4,114.15c-5.95,3.385-10.6,8.624-12.12,15.911A25.317,25.317,0,0,0,515.75,134.885Z" transform="translate(-515.749 -111.488)" fill="#412408"/>
                <path id="Path_537" data-name="Path 537" d="M515.75,134.885a19.376,19.376,0,0,1,.6-1.882,26.778,26.778,0,0,1,5.1-8.1c3.2-3.671,7.176-6.835,11.871-8.143s10.146-.48,13.651,2.905a13.539,13.539,0,0,1,13.624,2.269,15.059,15.059,0,0,0-1.476-1.946c-2.841-3.146-7.324-4.981-11.429-3.957a13.131,13.131,0,0,0-9.27-4.538,18.433,18.433,0,0,0-10.035,2.648c-5.949,3.385-10.6,8.624-12.12,15.911A26.293,26.293,0,0,0,515.75,134.885Z" transform="translate(-515.749 -111.488)" fill="#664216"/>
              </g>
              <path id="Path_538" data-name="Path 538" d="M561.217,148.853c3.677-.942,7.214.474,7.9,3.157s-1.739,5.625-5.412,6.562-7.214-.474-7.906-3.158S557.539,149.794,561.217,148.853Z" transform="translate(-516.475 -114.363)" fill="#db8e62"/>
              <g id="Group_322" data-name="Group 322" transform="translate(8.557 31.229)">
                <path id="Path_539" data-name="Path 539" d="M542.636,153.41c.483,0,.876.627.876,1.4s-.4,1.4-.876,1.4-.876-.627-.876-1.4S542.152,153.41,542.636,153.41Z" transform="translate(-523.952 -145.968)" fill="#411f00"/>
                <path id="Path_540" data-name="Path 540" d="M525.186,153.41c.484,0,.876.627.876,1.4s-.4,1.4-.876,1.4-.876-.627-.876-1.4S524.7,153.41,525.186,153.41Z" transform="translate(-522.598 -145.968)" fill="#411f00"/>
                <path id="Path_541" data-name="Path 541" d="M527.629,145.69a6.533,6.533,0,0,0-5.174.415" transform="translate(-522.455 -145.341)" fill="none" stroke="#412408" stroke-linecap="round" stroke-width="1"/>
                <path id="Path_542" data-name="Path 542" d="M541.23,146.471a6.185,6.185,0,0,1,5.866.572" transform="translate(-523.912 -145.392)" fill="none" stroke="#412408" stroke-linecap="round" stroke-width="1"/>
                <path id="Path_543" data-name="Path 543" d="M531.781,156.09a17.055,17.055,0,0,0,.018,3.939" transform="translate(-523.17 -146.176)" fill="none" stroke="#a8473e" stroke-linecap="round" stroke-width="1"/>
                <path id="Path_544" data-name="Path 544" d="M532.86,164.449c2.444.968,5,.443,6.318-1.559" transform="translate(-523.262 -146.703)" fill="none" stroke="#a8473e" stroke-linecap="round" stroke-width="1"/>
              </g>
            </g>
          </g>
        </g>
        <g id="Group_333" data-name="Group 333" transform="translate(0 0)">
          <g id="Group_327" data-name="Group 327" transform="translate(0 9.633)">
            <circle id="Ellipse_13" data-name="Ellipse 13" cx="33.843" cy="33.843" r="33.843" transform="translate(0 2.935) rotate(-2.485)" fill="#ffa8b1"/>
            <g id="Group_326" data-name="Group 326" transform="translate(10.724 18.787)">
              <path id="Path_545" data-name="Path 545" d="M201.393,83.53c7.407-13.8,22.057,4.723,22.057,4.723s14.675-15.828,22.057-5.543c7.669,10.673-22.057,35.531-22.057,35.531S195.093,95.272,201.393,83.53Z" transform="translate(-198.949 -78.421)" fill="#b82621"/>
              <path id="Path_546" data-name="Path 546" d="M198.82,99.286l10.266.111,3.192-12.491,6.577,23.742,5.2-28.76,5.654,25.9,3.376-18.78L236.7,98.86l11.226.3" transform="translate(-198.82 -78.69)" fill="none" stroke="#fff" stroke-linecap="round" stroke-width="1"/>
            </g>
          </g>
          <g id="Group_329" data-name="Group 329" transform="translate(94.366 63.064)">
            <circle id="Ellipse_14" data-name="Ellipse 14" cx="34.59" cy="34.59" r="34.59" transform="translate(0 0)" fill="#ffa8b1"/>
            <g id="Group_328" data-name="Group 328" transform="translate(10.848 16.504)">
              <path id="Path_547" data-name="Path 547" d="M343.459,153.49l-26.473,15.164a10.5,10.5,0,0,1-10.442-18.227l26.473-15.164a10.5,10.5,0,0,1,10.442,18.227Z" transform="translate(-301.261 -133.873)" fill="#fff"/>
              <path id="Path_548" data-name="Path 548" d="M345.017,153.489l-13.245,7.582L321.33,142.844l13.245-7.582a10.5,10.5,0,0,1,10.442,18.227Z" transform="translate(-302.818 -133.872)" fill="#b82621"/>
            </g>
          </g>
          <g id="Group_332" data-name="Group 332" transform="translate(183.083 0)">
            <path id="Path_549" data-name="Path 549" d="M419.523,47.61A33.843,33.843,0,1,1,385.68,81.453,33.843,33.843,0,0,1,419.523,47.61Z" transform="translate(-385.68 -47.61)" fill="#ffa8b1"/>
            <g id="Group_331" data-name="Group 331" transform="translate(16.584 11.954)">
              <path id="Path_550" data-name="Path 550" d="M438.167,65.477v23.2a16.8,16.8,0,0,1-7.657,14.067l-9.592,5.6-8.8-5.709a16.839,16.839,0,0,1-8.459-14.565V65.477L420.8,60.57l.12.037Z" transform="translate(-403.659 -60.57)" fill="#fff"/>
              <path id="Path_551" data-name="Path 551" d="M439.619,65.48v23.2a16.8,16.8,0,0,1-7.657,14.067l-9.592,5.6V60.61Z" transform="translate(-405.111 -60.573)" fill="#f2e4e5"/>
              <g id="Group_330" data-name="Group 330" transform="translate(4.143 10.774)">
                <rect id="Rectangle_63" data-name="Rectangle 63" width="7.96" height="26.215" transform="translate(9.131)" fill="#b82621"/>
                <rect id="Rectangle_64" data-name="Rectangle 64" width="26.215" height="7.96" transform="translate(0 9.13)" fill="#b82621"/>
              </g>
            </g>
          </g>
        </g>
      </g>
    </g>
    <line id="Line_10" data-name="Line 10" x2="454.22" transform="translate(712.012 621.525)" fill="none" stroke="#707070" stroke-width="1"/>
  </g>
</svg>
