<svg xmlns="http://www.w3.org/2000/svg" width="476.286" height="367.957" viewBox="0 0 476.286 367.957">
  <g id="life" transform="translate(-290.054 -160.469)">
    <g id="Group_180" data-name="Group 180" transform="translate(438.187 160.469)">
      <g id="Group_177" data-name="Group 177" transform="translate(42.233 47.942)">
        <path id="Path_170" data-name="Path 170" d="M1593.333,428.644s13.475,6.375,16.536,5.571,14.693-2.857,16.327-2.134c0,0,1.853,2.954.455,4.9s-12.713,7.2-16.8,7.391-19.6-2.621-22.9-5.193Z" transform="translate(-1586.952 -428.644)" fill="#e8945b"/>
        <path id="Path_171" data-name="Path 171" d="M1718.51,438.473s5.2-2.157,6.9.253,2.665,4.851,2.455,6.085-3.722,1.778-5.123.819a34.12,34.12,0,0,0-4.877-2.3Z" transform="translate(-1679.676 -434.977)" fill="#e8945b"/>
      </g>
      <path id="Path_172" data-name="Path 172" d="M1798.11,1467.753a21.927,21.927,0,0,0-2.93,10.025,2.157,2.157,0,0,0,2.163,2.174h17.881a2.659,2.659,0,0,0,2.582-3.306c-.833-3.274-2.614-8.222-6.186-11.225C1805.919,1460.633,1798.11,1467.753,1798.11,1467.753Z" transform="translate(-1692.207 -1113.876)" fill="#163560"/>
      <path id="Path_173" data-name="Path 173" d="M1608.827,1448.209s-1.03,16.579-4.236,16.817c-.427.032-16.269.032-16.269.032H1567.89s.344-4.989,6.257-6.019,15.805-5.185,19.386-13C1597.3,1437.818,1608.827,1448.209,1608.827,1448.209Z" transform="translate(-1531.219 -1099.079)" fill="#163560"/>
      <g id="Group_178" data-name="Group 178" transform="translate(46.392 159.324)">
        <path id="Path_174" data-name="Path 174" d="M1641,897.864c-.713,9.21-.808,16.48.137,19.927,4.217,15.42-7.6,85.044-7.6,85.044-8.711,4.167-21.084-.044-21.084-.044.752-9.645-3.834-95.987-8.1-148.652-1.786-22.113-3.126-37.584-3.126-37.584l52.191-6.076S1643.472,865.877,1641,897.864Z" transform="translate(-1601.222 -810.477)" fill="#2b478b"/>
        <path id="Path_175" data-name="Path 175" d="M1653.411,810.477s-9.943,55.4-12.414,87.386l-36.648-43.726c-1.786-22.113-3.126-37.584-3.126-37.584Z" transform="translate(-1601.222 -810.477)" fill="#233862"/>
      </g>
      <path id="Path_176" data-name="Path 176" d="M1692.37,833.855s26.418,153.83,30.966,183.616a33.365,33.365,0,0,0,20-1.518s1.307-71.481-2.152-93.015,1.842-88.1-3.732-94.292S1692.37,833.855,1692.37,833.855Z" transform="translate(-1619.391 -662.717)" fill="#2b478b"/>
      <path id="Path_177" data-name="Path 177" d="M1698.392,398.683s-2.026,13.671-1.14,17.754,14.47,6.3,20.151,2.93,3.973-4.627,3.973-4.627-.867-15.65-1.663-16.767S1698.392,398.683,1698.392,398.683Z" transform="translate(-1622.688 -358.721)" fill="#ffb27d"/>
      <path id="Path_178" data-name="Path 178" d="M1581.241,519.4c1.8-17.175,1.337-30.095-.357-39.822-4.961-28.535-20.505-29.486-20.505-29.3,0,3.84-8.261,7.385-14.924,6.948-5.617-.368-9.26-4.637-9.26-6.948,0-.019-.1-.017-.293,0a98.535,98.535,0,0,0-14.414,1.226c-4.568.792-8.941,2.086-10.993,4.224-1.06,1.1-4.839,4.192-9.694,8.395-12.365,10.692-31.7,28.59-30.845,39.258,0,0,23.9,17.55,39.044,6.549-.824,28.56-6.009,58.811-4.738,58.789,0,0,8.443,7.311,34.092,7.311,14.024,0,24.166-1.2,31.2-2.591,9.583-1.891,13.4-4.125,13.4-4.125C1585.1,569.278,1580.623,525.331,1581.241,519.4Z" transform="translate(-1461.835 -396.014)" fill="#f99746"/>
      <path id="Path_179" data-name="Path 179" d="M1726.25,624.179s-3.816,2.234-13.4,4.125c-13.252-5.869-39.556-21.04-40.583-46.513-1.364-33.886,40.005-54.063,40.005-54.063s5.55,3.084,11.91,6.721c1.694,9.723,2.155,22.65.357,39.822C1723.914,580.2,1728.38,624.147,1726.25,624.179Z" transform="translate(-1605.121 -450.883)" fill="#ed7d2b"/>
      <path id="Path_180" data-name="Path 180" d="M1700.97,406.565s5.269,7.426,10.838,7.492,11.257-7.376,11.257-7.376Z" transform="translate(-1625.478 -365.063)" fill="#e8945b"/>
      <path id="Path_181" data-name="Path 181" d="M1691.786,333.414a35.708,35.708,0,0,0,7.383,3.78,9.123,9.123,0,0,0,6.314.134,83.716,83.716,0,0,0,8.908-3.428c2.789-1.691,2.613-5.114,2.752-9.873.172-5.632.739-10.058.11-13.305-.748-3.881-3.209-6.1-10.105-6.694-12.658-1.1-17.931,2.071-18.152,6.315-.057,1.14-.11,2.226-.147,3.256C1688.341,326.834,1689.386,331.527,1691.786,333.414Z" transform="translate(-1616.806 -292.282)" fill="#ffb27d"/>
      <path id="Path_182" data-name="Path 182" d="M1680.52,283.917a5.318,5.318,0,0,1,5.968-1.857c3.9,1.2,4.294,4.528,10.953,3.995s8.255-3.684,9.454-2.108,1.892,10.883,1.892,10.883,13.384-30.522-13.746-30.522c0,0-27.957-1.689-14.521,29.337Z" transform="translate(-1608.409 -264.29)" fill="#2c3a64"/>
      <path id="Path_183" data-name="Path 183" d="M1520.4,430.671l.036.021C1520.4,430.708,1520.4,430.671,1520.4,430.671Z" transform="translate(-1497.581 -382.137)" fill="#ffb27d"/>
      <path id="Path_184" data-name="Path 184" d="M1602.964,658.153a15.265,15.265,0,0,1-8.743,2.8s-5.3-5.838-9.76-11.484c-2.89-3.656-5.427-7.233-5.952-9.092-1.332-4.725-26.251-6.056-29.3-9.385s12.381-11.68,12.381-11.68,25.3,3.869,29.1,8.838c1.513,1.98,3.766,7.134,5.931,12.626C1599.891,649.08,1602.964,658.153,1602.964,658.153Z" transform="translate(-1517.701 -515.748)" fill="#e8945b"/>
      <path id="Path_185" data-name="Path 185" d="M1613.08,492.764s4.795-9.308,7.163-9.038-5.443,19.268-6.153,28.5S1613.08,492.764,1613.08,492.764Z" transform="translate(-1563.229 -419.712)" fill="#ed7d2b"/>
      <path id="Path_186" data-name="Path 186" d="M1536.656,647.646a140.384,140.384,0,0,1-8.186,16.322c-.037.064-.059.1-.059.1h-.079c-.806-.008-7.752-.158-8.431-2.948,0,0-.223-9.652.158-17.318a40.578,40.578,0,0,1,.95-8.054S1483.34,635.5,1484,624.84s20.353-16.293,31.678-10.771c0,0,15.012,5.454,22.914,12.661C1542.478,630.272,1540.086,639.338,1536.656,647.646Z" transform="translate(-1471.799 -510.513)" fill="#ffb27d"/>
      <path id="Path_187" data-name="Path 187" d="M1478.115,605s-5.015,7.372-3.839,14.25,15.486,10.553,25.5,10.991c0,0,28.641-6.564,24.2-17.978C1522.964,609.667,1478.115,605,1478.115,605Z" transform="translate(-1464.787 -505.612)" fill="#2b478b"/>
      <g id="Group_179" data-name="Group 179" transform="translate(0 3.334)">
        <path id="Path_188" data-name="Path 188" d="M1465.906,281.181s-4.549-9.311-15.536-3.618-.291,27.144-6.057,32.505,2.09,8.87.919,12.716,2.173,8.217,9.862,7.7,15.786-.1,19.259-6.826,2.685-21.528,1.342-23.609S1465.906,281.181,1465.906,281.181Z" transform="translate(-1442.176 -275.72)" fill="#aa443e"/>
        <path id="Path_189" data-name="Path 189" d="M1539.2,412.606l-18.682-11.275c.1-.041.481-.605,1.878-4.646a22.567,22.567,0,0,0,1.066-4.4c.015-.119.031-.233.041-.347a12.055,12.055,0,0,0,.051-2.716l4.093,1.479,7.57,2.742a9.368,9.368,0,0,0,.59,4.2,3.37,3.37,0,0,0,2.882,2.267Z" transform="translate(-1497.667 -356.111)" fill="#ffb27d"/>
        <path id="Path_190" data-name="Path 190" d="M1542.464,401.231a14.035,14.035,0,0,1-12.345-5.355c-.135-.176-.2-.274-.2-.274l.243-.073c.6-.176,2.209-.662,4.145-1.236l7.57,2.742A9.368,9.368,0,0,0,1542.464,401.231Z" transform="translate(-1504.324 -359.705)" fill="#ed985f"/>
        <path id="Path_191" data-name="Path 191" d="M1532.847,345.084s-16.253,1.786-16.586-9.205-2.736-16.019,8.51-17,13.9,3.071,14.565,6.79C1541.4,337.286,1537.425,344.591,1532.847,345.084Z" transform="translate(-1494.337 -306.185)" fill="#ffb27d"/>
        <path id="Path_192" data-name="Path 192" d="M1508.159,301.031c-5.751-1.456-3.553,8.734-5.005,8.036-1.626-.781-4.42-.769-3.979,1.194a37.815,37.815,0,0,0,1.409,3.891c.332,1.225,0,3.652-1.34,3.164s-13.776-14.692-4.99-25.755,34.969-4.247,26.723,7.324C1519.523,300.921,1512.253,302.067,1508.159,301.031Z" transform="translate(-1476.857 -282.967)" fill="#aa443e"/>
        <path id="Path_193" data-name="Path 193" d="M1522.251,479.68a27.987,27.987,0,0,1-12.573,2.469c-4.9-.074-15.3-2.2-21.989-4.617-3.811-1.372-6.415-2.839-6.1-4.07.45-1.775,3.716-15.4,6.731-28,2.758-11.527,5.306-22.2,5.306-22.2s7.612,5.408,12.048,3.5,3.866-4.067,3.866-4.067a54.033,54.033,0,0,1,6.645-.475c2.263.266,10.258,3.18,10.258,3.18s1.05,2.953-1.735,7.561c-2.308,3.817-4.553,4.558-4.553,4.558S1526.686,458.109,1522.251,479.68Z" transform="translate(-1470.073 -379.462)" fill="#739af0"/>
        <path id="Path_194" data-name="Path 194" d="M1535.371,555.495s4.694-.877,6.53.326,2.376,3.083,1.057,3.851c-4.143,2.409-8.343-.255-8.343-.255Z" transform="translate(-1507.653 -473.665)" fill="#ffb27d"/>
        <path id="Path_195" data-name="Path 195" d="M1487.69,527.7c-3.811-1.372-6.415-2.839-6.1-4.07.45-1.774,3.716-15.4,6.731-28,.891-1.634,1.457-2.613,1.457-2.613S1495.5,519.182,1487.69,527.7Z" transform="translate(-1470.073 -429.629)" fill="#4a82d3"/>
        <path id="Path_196" data-name="Path 196" d="M1474.109,430.887s-14.458,3.061-20.16,25.538a6.818,6.818,0,0,0,1.541,6.23c2.623,2.906,8.4,7.155,21.844,8.719,1.467.17,1.663-3.552,1.663-3.552-.147.3-9.131-5.805-12.955-9.085a2.11,2.11,0,0,1-.163-2.6,61.169,61.169,0,0,0,4.188-7.128C1471.132,446.456,1478.156,432.046,1474.109,430.887Z" transform="translate(-1450.37 -385.624)" fill="#ffb27d"/>
        <path id="Path_197" data-name="Path 197" d="M1485.457,425.847s-8.5.605-15.433,9.847c0,0,2.346,8.5,13.357,10.771C1483.382,446.464,1490.169,431.157,1485.457,425.847Z" transform="translate(-1461.903 -382.054)" fill="#739af0"/>
      </g>
      <path id="Path_198" data-name="Path 198" d="M1623.672,725.068a140.4,140.4,0,0,1-8.187,16.323c-.045.032-.09.064-.136.1-.807-.008-7.752-.158-8.432-2.948,0,0-.223-9.652.159-17.319C1608.189,722.282,1612.45,725.446,1623.672,725.068Z" transform="translate(-1558.818 -587.934)" fill="#ebf2f9"/>
      <path id="Path_199" data-name="Path 199" d="M1689.54,710.273a15.266,15.266,0,0,1-8.744,2.8s-5.3-5.838-9.76-11.484c5.023-2.171,10.328-6.956,12.158-8.692C1686.467,701.2,1689.54,710.273,1689.54,710.273Z" transform="translate(-1604.276 -567.869)" fill="#ebf2f9"/>
      <path id="Path_200" data-name="Path 200" d="M1618.18,792.11a1.6,1.6,0,0,1-1.9,1.267,73.7,73.7,0,0,1-7.405-1.8c-2.214-.806-6.459-3.315-8.673-4.119-.761-.277-2.59-1.015-3.773-1.5a1.321,1.321,0,0,1-.771-1.592,27.979,27.979,0,0,1,2.233-5.571,2.029,2.029,0,0,1,.923-.82,8.6,8.6,0,0,0,5.381,1.944,11.772,11.772,0,0,0,4.854-1.021c.15.308,3.168,6.4,5.306,7.174C1616.287,786.78,1618.806,788.617,1618.18,792.11Z" transform="translate(-1550.853 -628.138)" fill="#aa443e"/>
      <path id="Path_201" data-name="Path 201" d="M1722.587,741.274a1.6,1.6,0,0,1-.706,2.17,73.654,73.654,0,0,1-6.927,3.176c-2.237.739-7.127,1.4-9.36,2.139-.768.253-2.662.807-3.889,1.162a1.319,1.319,0,0,1-1.592-.772,27.97,27.97,0,0,1-1.7-5.758,2.042,2.042,0,0,1,.219-1.216,8.591,8.591,0,0,0,5.429-1.806,11.77,11.77,0,0,0,3.178-3.809c.309.149,6.45,3.059,8.61,2.346C1717.8,738.264,1720.915,738.146,1722.587,741.274Z" transform="translate(-1623.66 -598.797)" fill="#aa443e"/>
      <path id="Path_202" data-name="Path 202" d="M1519.43,636.128s-1.084,6.282-5.169,9.174c0,0-16.588-2.282-32.032-6.189-11.353-2.871-22.09-6.618-25.161-10.984-7.255-10.3,3.795-22.828,3.795-22.828s21.3,10.276,44.355,22.869C1509.935,630.748,1514.726,633.425,1519.43,636.128Z" transform="translate(-1450.977 -505.828)" fill="#f99746"/>
      <path id="Path_203" data-name="Path 203" d="M1566.611,742.427s-4.927.4-6.791,2.264-4.689,7.286-2.677,9.436,11.6-2.562,11.865-3.335S1566.611,742.427,1566.611,742.427Z" transform="translate(-1523.117 -602.953)" fill="#ffb27d"/>
      <path id="Path_204" data-name="Path 204" d="M1586.518,691.657s-1.084,6.282-5.169,9.174c0,0-16.589-2.282-32.033-6.189,7.26-6.312,16.746-9.454,22.988-10.943C1577.022,686.277,1581.813,688.954,1586.518,691.657Z" transform="translate(-1518.063 -561.356)" fill="#ed7d2b"/>
      <path id="Path_205" data-name="Path 205" d="M1669.278,458.836c-3.315-7.877-25.127-8.178-25.127-8.178-11.1,29.118-13.763,48.215-16.7,60.488a6.239,6.239,0,0,0-1.326,0s-15.587,6.082-38.757,22.908c0,0-2.423,6.644,1.927,12.083,0,0,39.923-8.811,51.074-15.347h.018c.112-.071.222-.143.333-.214q.254-.158.486-.311C1677.467,506.707,1674.022,470.106,1669.278,458.836Z" transform="translate(-1544.54 -396.294)" fill="#f99746"/>
    </g>
    <g id="Group_182" data-name="Group 182" transform="translate(345.515 218.784)">
      <path id="Path_206" data-name="Path 206" d="M1532.055,957.647a15.349,15.349,0,0,1,9.619,16.76s-1.033,5.232-4.256,2.912-1.711-1.893-6.314-5.069-7.6-8.177-7.082-12.15Z" transform="translate(-1407.436 -813.709)" fill="#ffb27d"/>
      <path id="Path_207" data-name="Path 207" d="M1385.8,747.8l-6.631,8.044a1.328,1.328,0,0,1-1.273.458c-6.216-1.141-27.605-14.928-34.61-20.555a20.947,20.947,0,0,1-1.733-1.515c-2.613-2.661-11.62-15.794-18.014-27.491-3.681-6.736-6.494-13-6.718-16.5-.8-12.521,5.789-30.03,5.789-30.03,19.482,6.78,21.533,22.333,21.533,22.333l10.8,40.2,30.593,22.866a1.524,1.524,0,0,1,.262,2.193Z" transform="translate(-1260.671 -603.038)" fill="#739af0"/>
      <path id="Path_208" data-name="Path 208" d="M1358.922,804.224a20.783,20.783,0,0,1-1.733-1.515c-2.614-2.661-11.621-15.794-18.015-27.491-.828-7.068-.26-13.7,2.653-18.334C1341.831,756.884,1358.391,786.027,1358.922,804.224Z" transform="translate(-1276.304 -671.509)" fill="#4a82d3"/>
      <path id="Path_209" data-name="Path 209" d="M1305.1,1299.817l-3.312,13.811-2.049,8.548-6.825,28.456a22.887,22.887,0,0,1-11.911,0,103.81,103.81,0,0,1-2.313-21.161,71.017,71.017,0,0,1,2.324-19.324,44.387,44.387,0,0,1,2.844-7.557C1293.489,1282.925,1305.1,1299.817,1305.1,1299.817Z" transform="translate(-1233.706 -1051.287)" fill="#ffb27d"/>
      <path id="Path_210" data-name="Path 210" d="M1310.543,1490.911h-32.067a27.257,27.257,0,0,1,.905-9.494,16.372,16.372,0,0,1,.762-2.038s7.16,1.623,13.332,0c0,0,5.8,4.944,9.313,6.459S1310.171,1486.531,1310.543,1490.911Z" transform="translate(-1233.493 -1183.252)" fill="#2b478b"/>
      <path id="Path_211" data-name="Path 211" d="M1301.79,1350.342l-2.049,8.549a49.427,49.427,0,0,1-21.048,7.294,71.037,71.037,0,0,1,2.323-19.324c2.949-1.5,5.952-2.279,8.508-1.833C1295.89,1346.136,1299.675,1348.465,1301.79,1350.342Z" transform="translate(-1233.708 -1088.001)" fill="#e8945b"/>
      <path id="Path_212" data-name="Path 212" d="M1293.888,1495.866h-15.412a27.259,27.259,0,0,1,.905-9.494C1283.252,1487.574,1291.124,1490.6,1293.888,1495.866Z" transform="translate(-1233.493 -1188.203)" fill="#1f396d"/>
      <path id="Path_213" data-name="Path 213" d="M1217.47,1299.817l-3.313,13.811-2.05,8.548-6.824,28.456a22.887,22.887,0,0,1-11.911,0,103.8,103.8,0,0,1-2.313-21.161,71.02,71.02,0,0,1,2.323-19.324,44.379,44.379,0,0,1,2.845-7.557C1205.852,1282.925,1217.47,1299.817,1217.47,1299.817Z" transform="translate(-1171.638 -1051.287)" fill="#ffb27d"/>
      <path id="Path_214" data-name="Path 214" d="M1192.509,1479.38s7.159,1.625,13.333,0c0,0,5.8,4.945,9.312,6.46s7.385.692,7.754,5.073h-32.067S1190.172,1484.512,1192.509,1479.38Z" transform="translate(-1171.423 -1183.251)" fill="#2b478b"/>
      <path id="Path_215" data-name="Path 215" d="M1214.16,1350.342l-2.05,8.549a49.412,49.412,0,0,1-21.048,7.294,71.018,71.018,0,0,1,2.323-19.324c2.949-1.5,5.952-2.279,8.507-1.833C1208.26,1346.136,1212.038,1348.465,1214.16,1350.342Z" transform="translate(-1171.639 -1088.001)" fill="#e8945b"/>
      <path id="Path_216" data-name="Path 216" d="M1222.7,1067.738a6.534,6.534,0,0,1-6.309,4.831H1164.97a6.643,6.643,0,0,1-6.625-7.151c.54-7,2.468-18.441,3.31-26.166a34.689,34.689,0,0,0,.307-7.117c-5.19-34.341-9.546-74.791-9.017-82.523.074-1.089.127-1.651.127-1.651s3.745-.317,9.441-.537c16.559-.654,49.612-.54,55.1,10.288,5.595,11.03,8.973,84.271,8.973,84.271C1227.409,1048.818,1224.518,1060.991,1222.7,1067.738Z" transform="translate(-1144.614 -806.307)" fill="#c65447"/>
      <path id="Path_217" data-name="Path 217" d="M1161.661,1039.779a34.708,34.708,0,0,0,.307-7.118c-5.19-34.34-9.547-74.791-9.018-82.523.074-1.088.127-1.65.127-1.65s3.745-.317,9.441-.537c8.566,5.045,14.141,13.642,14.141,13.642S1174.934,1025.856,1161.661,1039.779Z" transform="translate(-1144.615 -806.842)" fill="#b2443b"/>
      <path id="Path_218" data-name="Path 218" d="M1276.594,464.4c-4.107-1.03-6.494,2.21-6.494,6.019a6.9,6.9,0,0,0,6.9,6.9c3.811,0,6.9-4.415,6.9-8.226S1280.293,465.325,1276.594,464.4Z" transform="translate(-1227.626 -464.207)" fill="#b2443b"/>
      <path id="Path_219" data-name="Path 219" d="M1260.476,516.407s-21.4-19.271-2.027-32.914c0,0,5.781-1.54,8.719-.99,0,0,10.533-3.081,16.69,4.071s8.839,12.323,3.558,18.7S1260.476,516.407,1260.476,516.407Z" transform="translate(-1213.623 -476.697)" fill="#c65447"/>
      <path id="Path_220" data-name="Path 220" d="M1173.571,989.923a15.349,15.349,0,0,1-4.872,18.7s-4.4,3.01-5.077-.9.1-2.55-.959-8.038.3-11.163,3.453-13.633Z" transform="translate(-1151.275 -833.826)" fill="#ffb27d"/>
      <path id="Path_221" data-name="Path 221" d="M1285.414,587.971s-.263,2.885-.753,6.785c-.238,1.906-.53,4.054-.871,6.226-.244,1.559-.515,3.132-.811,4.636l-6.625,22.374L1260.8,602.818s3.656-3.024,8.61-19.417c.047-.174.079-.269.079-.269Z" transform="translate(-1221.032 -548.441)" fill="#ffb27d"/>
      <path id="Path_222" data-name="Path 222" d="M1209.758,746.154c.2,2.514-.435,2.971-.435,2.971s-9.566,3.467-33.622,2.268q-3.9-.2-7.345-.4c-15.5-.914-23.794-1.87-23.794-1.87s-12.7-29.308,11.158-65.417a115.7,115.7,0,0,1,9.566-12.476c3.863-4.407,4.716-10.3,6.177-15.905.418-1.606-.792-1.961-.188-3.476,0,0,4.351-1.23,4.8-1.23,2.471,2.176,5.73,6.409,13.82,7.245,5.469.57,7.611-2.511,8.389-4.356a66.332,66.332,0,0,1,6.019,2.9c14.658,7.037,16,20.685,16,20.685S1206.835,721.4,1206,726.929C1205.624,729.38,1208.713,733.207,1209.758,746.154Z" transform="translate(-1136.315 -596.242)" fill="#739af0"/>
      <path id="Path_223" data-name="Path 223" d="M1304.744,594.757c-.238,1.906-1.045,7.121-1.388,9.291-16.473-6.422-14.316-18.938-13.866-20.646.046-.174.079-.269.079-.269S1298.282,589.321,1304.744,594.757Z" transform="translate(-1241.115 -548.442)" fill="#e8945b"/>
      <g id="Group_181" data-name="Group 181" transform="translate(47.568 16.518)">
        <path id="Path_224" data-name="Path 224" d="M1307.145,552.849s-19.025.611-19.223-11.246-2.787-19.758,9.352-20.65,14.572,3.593,15.6,7.533S1312.1,552.385,1307.145,552.849Z" transform="translate(-1287.559 -520.838)" fill="#ffb27d"/>
      </g>
      <path id="Path_225" data-name="Path 225" d="M1301.184,510.062s-1.195,19.791-24.388,17.668C1276.8,527.73,1277.29,500.322,1301.184,510.062Z" transform="translate(-1232.367 -495.203)" fill="#c65447"/>
      <path id="Path_226" data-name="Path 226" d="M1345.19,521.892s6.5,8.044,9.447,10.613C1354.63,532.5,1361.861,522.128,1345.19,521.892Z" transform="translate(-1280.808 -505.065)" fill="#c65447"/>
      <path id="Path_227" data-name="Path 227" d="M1345.19,521.892s5.839,9.861,8.791,12.427C1353.98,534.319,1361.871,522.128,1345.19,521.892Z" transform="translate(-1280.808 -505.065)" fill="#c65447"/>
      <path id="Path_228" data-name="Path 228" d="M1168.353,831.333c-15.5-.914-23.794-1.87-23.794-1.87s-12.7-29.308,11.158-65.417C1160.552,775.3,1171.94,805.389,1168.353,831.333Z" transform="translate(-1136.314 -676.58)" fill="#4a82d3"/>
      <path id="Path_229" data-name="Path 229" d="M1164.245,650.618s-18.405,3.777-26.6,13.272c-6.283,7.276-13.157,42.846-13.157,48.726,0,5.617,6.457,35.48,10.488,41.205a1.332,1.332,0,0,0,1.23.566l10.365-1.1a1.523,1.523,0,0,0,1.346-1.748l-5.824-37.75,20.443-36.257S1174.581,663.246,1164.245,650.618Z" transform="translate(-1124.483 -596.241)" fill="#739af0"/>
    </g>
    <g id="Group_183" data-name="Group 183" transform="translate(401.548 292.912)">
      <path id="Path_230" data-name="Path 230" d="M1503.616,1481.222a7.948,7.948,0,0,0,5.014,3.8,8.647,8.647,0,0,1,5.2,3.195,2.029,2.029,0,0,1-1.63,3.23h-17.535a2.522,2.522,0,0,1-2.51-2.772c.131-1.3.268-2.811.327-3.972.13-2.534,2.666-4.571,2.666-4.571Z" transform="translate(-1440.931 -1257.904)" fill="#2c3a64"/>
      <path id="Path_231" data-name="Path 231" d="M1458.985,1192.06c.731,13.334-1.087,43.637-1.087,43.637s-1.222,3.379-8.943,4.186a23.121,23.121,0,0,1-7.859-.642q-2.336-10.761-4.325-20.54c-9.531-46.762-13.249-75.647-13.249-75.647l37.625-8.745s-1.649,26.4-2.134,44.4C1458.866,1184.331,1458.826,1189.138,1458.985,1192.06Z" transform="translate(-1392.328 -1012.967)" fill="#35488b"/>
      <path id="Path_232" data-name="Path 232" d="M1461.147,1134.31s-1.649,26.4-2.134,44.4l-22.242,39.99c-9.531-46.762-13.249-75.646-13.249-75.646Z" transform="translate(-1392.328 -1012.967)" fill="#2c3a64"/>
      <path id="Path_233" data-name="Path 233" d="M1347.568,919.246s-14.559-6.627-25.573-.829-4.28,53.648,11.47,58.289h0S1362.972,986.137,1347.568,919.246Z" transform="translate(-1316.571 -858.365)" fill="#35488b"/>
      <path id="Path_234" data-name="Path 234" d="M1540.849,980.594a1.663,1.663,0,0,0-.143-.185,24.433,24.433,0,0,1-1.364-2.868h0c2.93-14.335.958-22.627.958-22.627.348-4.175,2.841-33.334-2.9-46.843-2.772-6.518-7.407-6.53-7.407-6.53s1.088,10.414.37,16.011c-.659,5.138,4.24,53.292,5.048,61.163h-.027l.232,8,2.349-.554a1.672,1.672,0,0,0,.294-.1h0a1.676,1.676,0,0,0,.713-.626l1.9-3a1.693,1.693,0,0,0-.024-1.836Zm-4.468-1.3.1-.059-.049.065c0,.009-.026.006-.05,0Z" transform="translate(-1467.743 -848.098)" fill="#e8945b"/>
      <path id="Path_235" data-name="Path 235" d="M1398.967,1481.222a7.945,7.945,0,0,0,5.014,3.8,8.649,8.649,0,0,1,5.2,3.2,2.029,2.029,0,0,1-1.629,3.23h-17.535a2.523,2.523,0,0,1-2.51-2.772c.131-1.3.268-2.811.327-3.972.13-2.534,2.666-4.571,2.666-4.571Z" transform="translate(-1366.809 -1257.904)" fill="#2c3a64"/>
      <path id="Path_236" data-name="Path 236" d="M1417.316,718.326c-3.75,0-8.461,1.615-10.989,4.072-2.685,2.613-5.479,2.743-7.467,5.823-2.074,3.211-3.359,6.548-2.317,11.065,1.138,4.935.907,9.709,4.007,13.333,1.535,1.793,4.034,2,5.781,3.643,3.2,3.025,6.839,3.983,10.989,3.983,7.824,0,12.693-4.635,16.7-10.41,3.208-4.628,2.573-7.746,3.326-11.7C1439.706,725.671,1429.315,718.326,1417.316,718.326Z" transform="translate(-1372.955 -718.326)" fill="#35488b"/>
      <path id="Path_237" data-name="Path 237" d="M1462.824,840.116l-14.956,7.643-3-10.375a31.8,31.8,0,0,0,2.767-9.472,39.491,39.491,0,0,0,.31-8.541l12.185,6.24a23.144,23.144,0,0,0-.486,2.789,20.286,20.286,0,0,0,.214,6.516A9.027,9.027,0,0,0,1462.824,840.116Z" transform="translate(-1407.448 -789.896)" fill="#ffb27d"/>
      <path id="Path_238" data-name="Path 238" d="M1382.045,1145.875s-2.842,37.689-2.209,97.755a23.145,23.145,0,0,0,7.567,2.217c7.725.769,9.606-2.3,9.606-2.3s7.9-29.315,9.874-42.524c1.822-12.177,13.781-56.12,13.781-56.12Z" transform="translate(-1361.318 -1020.472)" fill="#35488b"/>
      <path id="Path_239" data-name="Path 239" d="M1400.462,884.9a47.9,47.9,0,0,0-11.785-3.344c.065,2.15-.5,4.174-4.271,4.668-5.02.654-9.508-2.772-11.781-5.1h0s-3.54.38-7.666,1.283a48.067,48.067,0,0,0-6.266,1.774,13.3,13.3,0,0,0-5.605,3.355h0c-3.862,4.74-10.217,19.014-10.217,19.014s10.577,3.921,13.246,6.209l.061.511,1.656,13.747L1352.9,954.4a4.08,4.08,0,0,0-.066.713,4.038,4.038,0,0,0,3.088,3.92s.424.07,1.2.178c5.227.734,26.446,3.266,43.083-1.251a8.078,8.078,0,0,0,5.9-8.455L1403.4,915.47c1.448-.249,3.118-.512,4.476-.664a8.44,8.44,0,0,1,2.414-.052S1408.406,888.18,1400.462,884.9Z" transform="translate(-1335.199 -833.635)" fill="#f99746"/>
      <path id="Path_240" data-name="Path 240" d="M1393.266,1012.579c-.211,9.554-6.471,20.78-11.938,23.8-.781-.107-1.2-.178-1.2-.178a4.039,4.039,0,0,1-3.088-3.919,4.132,4.132,0,0,1,.066-.713l4.931-27.382-1.656-13.747.123-.368S1393.639,995.7,1393.266,1012.579Z" transform="translate(-1359.398 -910.806)" fill="#ed7d2b"/>
      <path id="Path_241" data-name="Path 241" d="M1551.021,963.606c-1.392.158-4.484.664-4.484.664l-1.566-14.255S1550.2,960.061,1551.021,963.606Z" transform="translate(-1478.346 -882.43)" fill="#ed7d2b"/>
      <path id="Path_242" data-name="Path 242" d="M1380.28,952.627l1.281-7.112c21.687-31.376,23.327-37,13.575-51.092a20.788,20.788,0,0,0-9.945-7.128,48.081,48.081,0,0,1,6.265-1.774,23.538,23.538,0,0,1,5.419,3.188C1426.634,914.478,1380.28,952.627,1380.28,952.627Z" transform="translate(-1361.696 -836.75)" fill="#35488b"/>
      <path id="Path_243" data-name="Path 243" d="M1374.448,972.352c-8.491.587-9.666,9.288-9.666,9.288s-14.25,1.293-16.356,2.229c0,0,1.156-3.128,3.212-7.855-1.858-1.827-7.964-4.544-12.007-5.793-3.084,7.866-4.269,15.654-2.54,23.162a1.823,1.823,0,0,0,1.693,1.4c4.536.211,19.521.136,30.491-8.949l.193-.052c2.626-.158,5.093-2.765,6.039-6.2s1.023-2.381,1.749-4.8S1374.448,972.352,1374.448,972.352Z" transform="translate(-1330.543 -896.742)" fill="#ffb27d"/>
      <path id="Path_244" data-name="Path 244" d="M1466.58,855.659c-6.928-.185-12.22-7.009-12.22-7.009l12.009.489A20.269,20.269,0,0,0,1466.58,855.659Z" transform="translate(-1414.166 -810.634)" fill="#e8945b"/>
      <path id="Path_245" data-name="Path 245" d="M1460.52,793.709s-15.31,1.866-15.636-8.92,6.055-17.773,10.314-17.693c8.493.158,9.894,3.592,10.879,7.165S1467.568,792.947,1460.52,793.709Z" transform="translate(-1407.445 -752.868)" fill="#ffb27d"/>
      <path id="Path_246" data-name="Path 246" d="M1484.47,834.8s.334,1.346,3.687,1.1c0,0,2.815-.208,2.712-1.688A9.063,9.063,0,0,0,1484.47,834.8Z" transform="translate(-1435.497 -800.18)" fill="#fff"/>
      <path id="Path_247" data-name="Path 247" d="M1450.729,765.916s-13.083-.008-10.077,8.975c1.894,5.661-4.406,6.542-4.406,6.542l-3.031-9.074,1.9-7.069Z" transform="translate(-1399.191 -751.59)" fill="#35488b"/>
    </g>
    <g id="Group_185" data-name="Group 185" transform="translate(529.427 199.234)">
      <path id="Path_248" data-name="Path 248" d="M1856.4,593.2c-3.26-5.414-5.283-29.582-7.636-36.055-1.486-4.092-5.469-8.982-5.048-9.285-4.237-2.5-15.7-3.7-15.7-3.7v.025c-.447-.094-.893-.186-1.32-.272-1.374-.277-2.671-1.079-2.826-2.471,0-.069-.014-.142-.021-.211a43.7,43.7,0,0,1-.191-4.98.275.275,0,0,1,0-.063c.038-2.48.226-4.32.226-4.32l-.046-.006-14.86-2.388c-.2,4.639-.475,8.093-.756,10.669a4.074,4.074,0,0,1-3.8,3.625c-.3.016-.6.034-.9.055h0s-9.583-.373-13.244.746a5.949,5.949,0,0,0-.932.386c.223.233-35.278,35.813-34.362,39.935s16.493,27.52,22.142,31.832h5.653s-12.53-28.576-12.692-30.892c-.237-3.391,31.506-22.371,31.506-25.832,0-1.259,8.85-1.639,14.638-1.594,6.129.047,17.672-3.154,17.672-3.154s4.989,37.811,11.3,49.023c4.973,8.844,26.939,31.5,26.939,31.5l4.633-4.109S1864.293,606.316,1856.4,593.2Z" transform="translate(-1754.966 -490.885)" fill="#ffb27d"/>
      <path id="Path_249" data-name="Path 249" d="M1837.067,969.426c2.681,26.41-.567,60.993-.567,60.993h-9.1c-13.742-36.142-14.155-58.816-14.938-67.33-.426-4.639-6.689-23.182-12.312-41.017-4.7-14.889-8.943-29.292-8.972-34.688-.061-12.365,12.258-32.2,12.258-32.2s17.7,6.828,28.626,13.575c3.643,2.253,6.438,4.454,7.391,6.322,2.535,4.966,4.41,40.418-2.331,62.074-4.057,13.039-1.979,19.725-1.979,19.725A110.618,110.618,0,0,1,1837.067,969.426Z" transform="translate(-1780.617 -721.587)" fill="#c65447"/>
      <path id="Path_250" data-name="Path 250" d="M1837.121,937.159c-4.057,13.039-1.98,19.726-1.98,19.726a110.356,110.356,0,0,1,1.923,12.541l-36.916-47.354c-4.7-14.889-8.943-29.292-8.972-34.688-.061-12.365,12.258-32.2,12.258-32.2s17.7,6.828,28.626,13.574c3.643,2.253,6.437,4.455,7.391,6.323C1841.984,880.051,1843.861,915.5,1837.121,937.159Z" transform="translate(-1780.616 -721.586)" fill="#b2443b"/>
      <path id="Path_251" data-name="Path 251" d="M1857.39,1455.91s-.516,5.936-1.279,7.156-3.969,5.343-7.632,6.717-14.145.662-14.958,4.47h36.94s.508-5.709-.916-9.465-3.053-8.879-3.053-8.879Z" transform="translate(-1810.606 -1147.078)" fill="#2b478b"/>
      <path id="Path_252" data-name="Path 252" d="M2102.089,1447.754a76.64,76.64,0,0,1,5.148,7.884c1.018,2.239,7.733,11.721,6.92,11.8s-18.725,0-18.725,0-1.832-4.47-1.628-7.524-2.442-8.848-1.933-12.158S2102.089,1447.754,2102.089,1447.754Z" transform="translate(-1993.548 -1140.258)" fill="#2b478b"/>
      <path id="Path_253" data-name="Path 253" d="M1966.938,1025.012h-10.216s-39.843-57.6-41.214-72.244c-1.712-18.314-14.51-90.6-14.51-90.6l40.873-12.725s3.571,9.187,6.567,18.449c1.3,4.039,2.5,8.093,3.239,11.4,1.636,7.312-2.971,34.941-6.115,54.583-1.554,9.675-2.75,17.414-2.672,19.832C1943.124,961.031,1956.556,961.981,1966.938,1025.012Z" transform="translate(-1858.398 -717.513)" fill="#c65447"/>
      <path id="Path_254" data-name="Path 254" d="M1939.232,543.218c-.022.369-.044.729-.07,1.076Q1939.2,543.773,1939.232,543.218Z" transform="translate(-1885.432 -500.62)" fill="#2b478b"/>
      <path id="Path_255" data-name="Path 255" d="M1939.544,537.99c-.021.4-.043.779-.065,1.156C1939.5,538.769,1939.52,538.384,1939.544,537.99Z" transform="translate(-1885.656 -496.916)" fill="#2b478b"/>
      <path id="Path_256" data-name="Path 256" d="M1940.019,529.474q-.018.435-.04.855.019-.419.038-.855Z" transform="translate(-1886.01 -490.885)" fill="#2b478b"/>
      <path id="Path_257" data-name="Path 257" d="M1895.939,670.014c1.331,4-17.9,6.345-39.243,6.063a69.7,69.7,0,0,1-16.255-2.011c-9.77-2.526-15.145-7.124-10.855-12,1.22-1.386,14.748-20.75,14.748-20.75.8-1.733-.067-7.414-4.2-20.908-1.69-5.519.513-8.953,1.3-11.143a.008.008,0,0,1,0,0,2.209,2.209,0,0,0,.084-1.87,45.954,45.954,0,0,0-6.931-8.728,68.571,68.571,0,0,0-5.8-5.282s7.92-8.632,12.35-10.85c4.563,4.783,14.457,13.352,26.884,13.449,10.722.079,21.138-5.958,27.482-10.54a4.416,4.416,0,0,1,1.128.89c3.96,4.649,5.092,13.037,5.092,13.037s-12.75,7.037-12.523,9.328c.633,6.313,1.229,8.157.95,10.414v.022a15.325,15.325,0,0,1-.659,2.745c-2.175,6.831-6.883,17.381-5.708,20.934C1884.091,643.732,1894.022,664.264,1895.939,670.014Z" transform="translate(-1806.76 -528.465)" fill="#2b478b"/>
      <path id="Path_258" data-name="Path 258" d="M1876.029,580.783c.207-.062.43-.122.669-.173-.237.055-.466.114-.672.176Z" transform="translate(-1840.712 -527.104)" fill="#ffb27d"/>
      <path id="Path_259" data-name="Path 259" d="M1993.51,575.322a3.527,3.527,0,0,0,1.143.756A3.509,3.509,0,0,1,1993.51,575.322Z" transform="translate(-1923.923 -523.359)" fill="#ffb27d"/>
      <path id="Path_260" data-name="Path 260" d="M1997.42,577.915a5.188,5.188,0,0,0,.491.178A4.215,4.215,0,0,1,1997.42,577.915Z" transform="translate(-1926.697 -525.195)" fill="#ffb27d"/>
      <path id="Path_261" data-name="Path 261" d="M2160.836,879.81s7.811,2.022,8.879,3.113,4.13,9.561,3.053,9.639c-5.6.408-8.548-2.6-8.548-2.6-3.384-3.722-8.439-4.318-8.189-7.044S2160.836,879.81,2160.836,879.81Z" transform="translate(-2039.035 -739.027)" fill="#ffb27d"/>
      <path id="Path_262" data-name="Path 262" d="M1817.194,828.565s-5.655,7.143-5.655,8.441,1.145,6.716,2.518,6.792,1.832-4.426,2.9-5.266,4.885-2.418,5.419-3.881.471-6.087.471-6.087Z" transform="translate(-1795.039 -702.73)" fill="#ffb27d"/>
      <path id="Path_263" data-name="Path 263" d="M1937.69,539.354c7.02-.9,15.566-7.821,15.566-7.821-4.99-2.706-9.316-2.967-12.676-2.037a12.607,12.607,0,0,0-2.24.85Z" transform="translate(-1884.39 -490.555)" fill="#e8945b"/>
      <g id="Group_184" data-name="Group 184" transform="translate(48.707 13.414)">
        <path id="Path_264" data-name="Path 264" d="M1923.991,471.75s17.363,5.794,20.8-5.074,8-17.44-2.938-21.6-14.418-.7-16.451,2.651S1919.564,469.962,1923.991,471.75Z" transform="translate(-1921.939 -443.17)" fill="#ffb27d"/>
        <path id="Path_265" data-name="Path 265" d="M1935.091,519.7s-.641,1.261-3.918.244c0,0-2.753-.853-2.31-2.3A9.251,9.251,0,0,1,1935.091,519.7Z" transform="translate(-1926.809 -495.903)" fill="#fff"/>
      </g>
      <path id="Path_266" data-name="Path 266" d="M1974.833,413.66c-1.945-2.5,4.439-7.651-8.53-13.844-9.838-4.7-12.887,2.419-13.786,6.131-5.85-3.339-15.4-12.956-21.488-6.691-7.291,7.5.617,14.1.617,14.1,2.766,2.014,4.108,1.457,8.151,2.345s1.46,5.566,1.776,7.144a5.059,5.059,0,0,0,6.811,3.156c3.739-1.611,3.309,4.548-.246,5.815-1.013.361-2.064,6.024-.6,6.263,1.234.2,5.69.242,6.142-3.393.269-2.158,3.01-3.285,5.918-5.515,2.012,1.913,4.841,2.89,6.4,2.666,2.3-.329,2.322-2.172,7.243-5.456S1976.773,416.158,1974.833,413.66Z" transform="translate(-1877.482 -397.182)" fill="#c65447"/>
      <path id="Path_267" data-name="Path 267" d="M1840.437,816.814c-9.768-2.527-15.146-7.128-10.854-12,1.219-1.384,14.748-20.75,14.748-20.75S1847.953,805.931,1840.437,816.814Z" transform="translate(-1806.759 -671.214)" fill="#233862"/>
    </g>
    <g id="Group_187" data-name="Group 187" transform="translate(599.619 206.347)">
      <g id="Group_186" data-name="Group 186" transform="translate(3.147 152.16)">
        <path id="Path_268" data-name="Path 268" d="M2030.052,1111.12l-1.462-156.643s-1.267-11.281-11.1-11.281c-10.5,0-11.105,11.281-11.105,11.281a1.194,1.194,0,0,0,1.229.975,1.271,1.271,0,0,0,1.314-.975s.465-8.7,8.562-8.7c7.587,0,8.563,8.7,8.563,8.7V1111.12Z" transform="translate(-2006.38 -943.195)" fill="#233862"/>
        <path id="Path_269" data-name="Path 269" d="M2069.17,1499.719h6.532l-.582-6.83s.056-.95-1.268-1c-1.226-.05-3.648-.225-3.88.516C2069.772,1493.058,2069.17,1499.719,2069.17,1499.719Z" transform="translate(-2050.855 -1331.794)" fill="#233862"/>
      </g>
      <path id="Path_270" data-name="Path 270" d="M2009.769,914.737l-.446,2.24a14.355,14.355,0,0,0-13.665,11.826s-.7,4.939,2.859,3.881,3.009-3.574,8.047-4.955,8.327-2.438,9.092-6.108l.825-4.084Z" transform="translate(-1995.602 -770.878)" fill="#ffb27d"/>
      <path id="Path_271" data-name="Path 271" d="M2081.35,581.784s-2.93,11.526-5.456,22.064c-1.018,4.245-1.969,8.327-2.64,11.432-.685,3.191-1.074,5.35-.924,5.59,2.2,3.564-1.817,25.311-4.99,33.207-.279.7-.666,1.52-1.129,2.431-4.438,8.7-16.259,25.784-16.259,25.784a14.759,14.759,0,0,1-5.515-.475,7.254,7.254,0,0,1-3.062-2.914c1.057-1.7,5.333-21.8,10.836-33.066,2.354-4.821,5.822-49.542,10.381-55.564C2066.4,585.254,2081.35,581.784,2081.35,581.784Z" transform="translate(-2028.022 -535.048)" fill="#f99746"/>
      <path id="Path_272" data-name="Path 272" d="M2129.336,692.19c2.2,3.564-1.816,25.311-4.99,33.207-.279.7-.667,1.521-1.129,2.431-4.242-18.77,2.789-45.353,2.789-45.353C2127.76,683.171,2129.185,691.951,2129.336,692.19Z" transform="translate(-2085.024 -606.369)" fill="#ed7d2b"/>
      <path id="Path_273" data-name="Path 273" d="M2158.714,1447.555s1.128,16.985-2.079,17.223c-.427.032-16.269.032-16.269.032h-20.433s.343-4.989,6.256-6.019,15.805-5.184,19.386-13C2149.337,1437.576,2158.714,1447.555,2158.714,1447.555Z" transform="translate(-2083.662 -1144.725)" fill="#0f2949"/>
      <path id="Path_274" data-name="Path 274" d="M2264.074,1447.555s1.128,16.985-2.079,17.223c-.428.032-16.269.032-16.269.032h-20.433s.344-4.989,6.256-6.019,15.805-5.184,19.386-13C2254.7,1437.576,2264.074,1447.555,2264.074,1447.555Z" transform="translate(-2158.289 -1144.725)" fill="#163560"/>
      <path id="Path_275" data-name="Path 275" d="M2171.116,1010.126c.5,7.182,1.528,16.418,1.164,24.743-.511,11.642-.88,21.458-.88,21.458-7.675,2.613-21.757-.554-21.757-.554s-4.994-29.419-9.107-52.9c-1.847-10.522-3.377-19.625-3.95-23.923-1.85-13.893,1.971-87.763,1.971-87.763s20.767-13.311,29.348-6.448,13.859,13.566.034,88.733C2166.888,979.168,2169.992,994.042,2171.116,1010.126Z" transform="translate(-2095.1 -748.236)" fill="#2b478b"/>
      <path id="Path_276" data-name="Path 276" d="M2171.116,1010.126c.5,7.182,1.43,18.677,1.064,27-7.219-7.64-21.448-23.759-31.648-34.259-1.846-10.522-3.376-19.624-3.95-23.923-1.851-13.894,1.971-87.764,1.971-87.764s20.766-13.311,29.348-6.447,13.859,13.566.034,88.733C2166.887,979.168,2169.992,994.042,2171.116,1010.126Z" transform="translate(-2095.099 -748.236)" fill="#233862"/>
      <path id="Path_277" data-name="Path 277" d="M2208.91,892.024s1.865,73.946,4.779,87.657,18.124,76.473,18.124,76.473,14.255,1.3,21.708-1.893c0,0-.476-29.065-3-46.145-2.362-15.954-6.6-30.541-5.99-36.306,8.008-76.006,2.227-82.286-6.854-88.469S2208.91,892.024,2208.91,892.024Z" transform="translate(-2146.684 -747.574)" fill="#2b478b"/>
      <path id="Path_278" data-name="Path 278" d="M2302.4,930.16a14.354,14.354,0,0,0,4.556,17.488s4.119,2.816,4.752-.844-.1-2.385.9-7.517-.277-10.439-3.23-12.751Z" transform="translate(-2211.998 -779.237)" fill="#ffb27d"/>
      <path id="Path_279" data-name="Path 279" d="M2162.78,507.654s5.7,8.667,4.565,16.754l8.437,20.328L2191,521.465a53.428,53.428,0,0,1-11.042-20.685Z" transform="translate(-2114.01 -477.673)" fill="#ffb27d"/>
      <path id="Path_280" data-name="Path 280" d="M2136.965,468.307s20.763.9,21.141-11.563,5.988-20.756-9.542-21.851c-12.771-.9-17.017,4.425-18.154,8.553S2129.267,467.64,2136.965,468.307Z" transform="translate(-2090.699 -430.934)" fill="#ffb27d"/>
      <path id="Path_281" data-name="Path 281" d="M2168.483,675.883c-4.461.415-10.6.93-18.057,1.4q-2.232.139-4.618.274c-22.5,1.259-31.441-2.384-31.441-2.384s-.6-.481-.407-3.123c.977-13.606,3.867-17.624,3.518-20.21-.783-5.812-14.881-53.234-14.881-53.234s-.272-14.98,16.388-22.011a39.526,39.526,0,0,1,5.7-1.9c.73,1.939,2.73,5.177,7.846,4.58a26.742,26.742,0,0,0,15.257-7.627c.418,0,.584.014.584.014a45.646,45.646,0,0,1,1.4,4.943c1.366,5.888,2.165,12.082,5.782,16.711a126.666,126.666,0,0,1,9.222,13.491,112.27,112.27,0,0,1,5.617,10.782C2185.138,650.191,2173.734,675.39,2168.483,675.883Z" transform="translate(-2071.386 -527.871)" fill="#f99746"/>
      <path id="Path_282" data-name="Path 282" d="M2284.1,758.046c-4.461.415-10.6.929-18.057,1.4-2.172-36.62,12.751-71.793,12.751-71.793a13.205,13.205,0,0,1,1.6,1.323c2.6,2.525,4.411,6.272,5.617,10.783C2290.452,716.359,2286.729,743.34,2284.1,758.046Z" transform="translate(-2187 -610.034)" fill="#ed7d2b"/>
      <path id="Path_283" data-name="Path 283" d="M2128.389,506.711s-4.039,16.035,2.817,18.294,25.069.449,25.062-19.211c0,0-9.555,5.7-14.121,5.555s-7.511-2.778-11.73-.721C2130.417,510.63,2128.872,510.526,2128.389,506.711Z" transform="translate(-2088.815 -481.226)" fill="#c8d9e8"/>
      <path id="Path_284" data-name="Path 284" d="M2248.2,571.69s14.514.326,22.182,10.3c5.876,7.645,12.087,48.667,12.087,54.844s-6.615,40.265-10.319,43.969a13.964,13.964,0,0,1-5.6,0,11.316,11.316,0,0,1-5.4-2.62S2263,640.234,2263,636.674c0-5.154-16.113-36.7-16.113-36.7S2238.535,584.959,2248.2,571.69Z" transform="translate(-2171.213 -527.899)" fill="#f99746"/>
      <path id="Path_285" data-name="Path 285" d="M2169.541,429.4a3.6,3.6,0,0,0-1.917-1.94c-11.694-5.093-20.237.479-20.237.479,7.167-9.621,24.465-7.6,28.108,1.076,5.95,14.169-4.934,17.12-4.934,17.12s-10.865-4.566-4.572-10.29a10.242,10.242,0,0,0,3.426-5.05h0A5.017,5.017,0,0,0,2169.541,429.4Z" transform="translate(-2103.107 -421.568)" fill="#c8d9e8"/>
      <path id="Path_286" data-name="Path 286" d="M2144,532.5s-.381,1.362-3.794,1.006c0,0-2.866-.3-2.714-1.807A9.251,9.251,0,0,1,2144,532.5Z" transform="translate(-2096.093 -499.391)" fill="#fff"/>
    </g>
    <path id="Path_287" data-name="Path 287" d="M.678,0h474.93c.374,0,.677.421.677.941h0c0,.52-.3.941-.677.941H.678C.3,1.882,0,1.461,0,.941H0C0,.422.3,0,.678,0Z" transform="translate(290.054 526.544)" fill="#2e3552"/>
  </g>
</svg>
