<svg xmlns="http://www.w3.org/2000/svg" width="287.18" height="99.472" viewBox="0 0 287.18 99.472">
  <g id="Group_3907" data-name="Group 3907" transform="translate(-1385.746 -406.387)">
    <g id="Group_2821" data-name="Group 2821" transform="translate(810.113 -149.361)">
      <path id="Path_1286" data-name="Path 1286" d="M842.608,629.293l-17.175.291a21.453,21.453,0,0,0-42.9.628,22.049,22.049,0,0,0,.236,3.209l-1.771.161-117.086,1.227-.1-.009a21.865,21.865,0,1,0-42.891-6,22.369,22.369,0,0,0,.123,2.32l-3.414-.293H592.19l3.066-12.259-3.37-1.227.3-8.888c7.653-7.893,17.38-13.578,28.507-17.776l31.877-7.972,1.106.784a250.577,250.577,0,0,1,47.015-23.158l.782-2.1c36.481-3.315,72.261-3.469,107.109.57l3.066,1.839-2.146,2.76,18.048,15.367,1.568,1.337s9.5.43,9.5,6.589l.3,20.995.392.1,3.747.969-.46,20.539Z" transform="translate(0 0)" fill="#ff6f00"/>
      <path id="Path_1287" data-name="Path 1287" d="M714.525,586.917l-.152-12.567q-.611-5.594-5.518-5.67l-15.325.154S699.815,584.62,714.525,586.917Z" transform="translate(122.258 15.554)" fill="#f23503"/>
      <path id="Path_1288" data-name="Path 1288" d="M677.937,560.323c-21.552,3.542-39.4,15.283-52.975,26.518-1.168.8-1.353,2.029,0,2.22l119.077-5.13q7.055-1.986,8.888-7.051l2.758-11.34c.676-10.8-68.419-6.749-77.748-5.216Z" transform="translate(38.646 3.063)" fill="#69e3f6"/>
      <path id="Path_1289" data-name="Path 1289" d="M631.391,629.674l.016-.341c0-.077.322-7.827-2.137-14.31-1.87-4.939-7-10.278-7.049-10.333l-.1-.1.007-.136c.04-.927.02-5.238,0-9.04-.013-3.254-.026-6.062,0-6.666l0-.137.106-.092c.291-.258,29.306-25.46,56.555-29.361l.009,0c.137-.013,13.765-1.524,26.434-2,14.675-.553,49.506-1.115,56.046,5.571a3.51,3.51,0,0,1,1.123,2.723l-2.06,13.124c0,.542-.057,14.5-3.128,19.973-3.212,5.723-12.538,16.79-19.57,23.222-7.21,6.6-23.141,6.97-23.812,6.983Zm-8.609-25.332c.738.782,5.293,5.705,7.1,10.452a41.909,41.909,0,0,1,2.185,14.226l81.764-.916c.161,0,16.36-.379,23.385-6.811,6.992-6.395,16.259-17.387,19.444-23.061,2.992-5.331,3.049-19.563,3.049-19.706l2.062-13.146a2.863,2.863,0,0,0-.943-2.2c-6.364-6.5-40.981-5.928-55.566-5.377-12.549.471-26.048,1.961-26.376,2-26.227,3.756-54.154,27.431-56.108,29.112-.018.822,0,3.586.009,6.5C622.8,599.06,622.816,603.17,622.782,604.342Z" transform="translate(36.364 1.323)" fill="#cc4425"/>
      <path id="Path_1290" data-name="Path 1290" d="M656.389,586.038l3.692-27.356,6.35-.316-2.076,27.2Z" transform="translate(77.584 3.148)" fill="#263238"/>
      <path id="Path_1291" data-name="Path 1291" d="M656.251,628.332l-.643-.046c.011-.141,1.084-14.135,2.447-25.656,1.37-11.549,2.28-14.215,2.32-14.323l4.271-31.192.641.086L661,588.459c-.026.09-.947,2.817-2.3,14.246C657.335,614.212,656.262,628.2,656.251,628.332Z" transform="translate(76.645 1.644)" fill="#cc4425"/>
      <path id="Path_1292" data-name="Path 1292" d="M709.241,574.986s-10.54,2.895-14.677-2.927a18.6,18.6,0,0,1-3.205-12.3Z" transform="translate(119.539 4.82)" fill="#69e3f6"/>
      <rect id="Rectangle_212" data-name="Rectangle 212" width="101.148" height="2.45" transform="translate(673.219 616.678) rotate(-2.348)" fill="#263238"/>
      <path id="Path_1293" data-name="Path 1293" d="M695.248,586.273l-.637-.115c.7-3.833,2.668-5.963,6.007-6.52l14.743-.46.022.648-14.7.454C697.644,580.788,695.9,582.694,695.248,586.273Z" transform="translate(123.559 28.181)" fill="#cc4425"/>
      <path id="Path_1294" data-name="Path 1294" d="M676.049,583.363l5.309-24.4,2.218.376L678.45,583.26Z" transform="translate(101.232 3.863)" fill="#263238"/>
      <g id="_140010440" data-name=" 140010440" transform="translate(622.571 610.203)">
        <path id="Path_1295" data-name="Path 1295" d="M625.531,580.469a19.714,19.714,0,1,1-19.715,19.713A19.714,19.714,0,0,1,625.531,580.469Z" transform="translate(-605.816 -580.469)" fill="#263238"/>
      </g>
      <g id="_140009648" data-name=" 140009648" transform="translate(628.109 615.739)">
        <path id="Path_1296" data-name="Path 1296" d="M622.507,611.337a14.177,14.177,0,1,1,14.175-14.177A14.191,14.191,0,0,1,622.507,611.337Zm0-28.033a13.857,13.857,0,1,0,13.856,13.856A13.872,13.872,0,0,0,622.507,583.3Z" transform="translate(-608.33 -582.982)" fill="#fbe9e7"/>
      </g>
      <g id="_140010608" data-name=" 140010608" transform="translate(626.759 614.389)">
        <path id="Path_1297" data-name="Path 1297" d="M623.245,613.424A15.528,15.528,0,1,1,638.772,597.9,15.545,15.545,0,0,1,623.245,613.424Zm0-30.731a15.2,15.2,0,1,0,15.206,15.2A15.221,15.221,0,0,0,623.245,582.693Z" transform="translate(-607.717 -582.369)" fill="#fbe9e7"/>
      </g>
      <g id="Group_2813" data-name="Group 2813" transform="translate(638.874 615.814)">
        <g id="_140010392" data-name=" 140010392" transform="translate(4.859)">
          <path id="Path_1298" data-name="Path 1298" d="M615.423,611.225V583.016l.178.018a14.243,14.243,0,0,1,1.538.264l.125.026v27.59l-.125.028a14.773,14.773,0,0,1-1.538.262Zm.319-27.848v27.482c.41-.049.808-.119,1.2-.2V583.582C616.551,583.5,616.152,583.428,615.742,583.377Z" transform="translate(-615.423 -583.016)" fill="#fbe9e7"/>
        </g>
        <g id="_140010224" data-name=" 140010224" transform="translate(0 0.009)">
          <path id="Path_1299" data-name="Path 1299" d="M615.059,611.207l-.181-.02a14.934,14.934,0,0,1-1.538-.277l-.124-.029V583.348l.124-.029a14.606,14.606,0,0,1,1.538-.278l.181-.022Zm-1.52-.584c.4.09.8.165,1.2.218V583.39c-.408.055-.811.128-1.2.214Z" transform="translate(-613.217 -583.02)" fill="#fbe9e7"/>
        </g>
      </g>
      <g id="Group_2814" data-name="Group 2814" transform="translate(628.118 626.568)">
        <g id="_140009744" data-name=" 140009744" transform="translate(0 4.857)">
          <path id="Path_1300" data-name="Path 1300" d="M636.235,591.945H608.647l-.029-.126a13.107,13.107,0,0,1-.262-1.535l-.022-.181h28.211l-.02.181a14.094,14.094,0,0,1-.26,1.535Zm-27.328-.322h27.07c.084-.388.154-.789.207-1.2H608.7C608.748,590.834,608.821,591.233,608.907,591.623Z" transform="translate(-608.334 -590.103)" fill="#fbe9e7"/>
        </g>
        <g id="_140010104" data-name=" 140010104" transform="translate(0.013)">
          <path id="Path_1301" data-name="Path 1301" d="M636.527,589.74H608.34l.022-.179a14.492,14.492,0,0,1,.275-1.538l.029-.126H636.2l.031.126a13.109,13.109,0,0,1,.275,1.538Zm-27.821-.32h27.454c-.053-.4-.126-.8-.218-1.2H608.924C608.836,588.614,608.761,589.013,608.706,589.42Z" transform="translate(-608.34 -587.898)" fill="#fbe9e7"/>
        </g>
      </g>
      <g id="Group_2815" data-name="Group 2815" transform="translate(630.122 617.814)">
        <g id="_140009792" data-name=" 140009792" transform="translate(3.194 3.194)">
          <path id="Path_1302" data-name="Path 1302" d="M612.221,606.406l-.11-.068a14.11,14.11,0,0,1-1.275-.9l-.141-.112,19.949-19.949.112.143a14.045,14.045,0,0,1,.9,1.271l.066.108Zm-1.042-1.115c.322.253.659.487.993.7l19.145-19.142c-.214-.33-.449-.665-.7-.991Z" transform="translate(-610.694 -585.374)" fill="#fbe9e7"/>
        </g>
        <g id="_140009864" data-name=" 140009864">
          <path id="Path_1303" data-name="Path 1303" d="M610.314,604.928l-.11-.143a14.085,14.085,0,0,1-.892-1.284l-.068-.108,19.468-19.468.11.068a14.828,14.828,0,0,1,1.282.89l.143.115-.128.13Zm-.659-1.489c.211.341.445.676.689,1l19.416-19.413c-.328-.247-.663-.48-1-.694Z" transform="translate(-609.244 -583.924)" fill="#fbe9e7"/>
        </g>
      </g>
      <g id="Group_2816" data-name="Group 2816" transform="translate(630.122 617.814)">
        <g id="_140009360" data-name=" 140009360" transform="translate(0 3.194)">
          <path id="Path_1304" data-name="Path 1304" d="M628.754,606.406l-19.51-19.51.07-.108a14.359,14.359,0,0,1,.9-1.271l.112-.143,19.951,19.949-.141.112a14.768,14.768,0,0,1-1.275.9Zm-19.1-19.554,19.14,19.142c.337-.216.672-.449.994-.7l-19.433-19.431C610.1,586.191,609.865,586.524,609.658,586.852Z" transform="translate(-609.244 -585.374)" fill="#fbe9e7"/>
        </g>
        <g id="_140009288" data-name=" 140009288" transform="translate(3.223)">
          <path id="Path_1305" data-name="Path 1305" d="M630.638,604.928l-.132-.13-19.8-19.8.143-.115a14.575,14.575,0,0,1,1.284-.89l.108-.068,19.466,19.468-.066.108a14.562,14.562,0,0,1-.89,1.284Zm-19.444-19.9,19.413,19.413q.37-.489.694-1l-19.1-19.1C611.857,584.547,611.52,584.781,611.194,585.028Z" transform="translate(-610.707 -583.924)" fill="#fbe9e7"/>
        </g>
      </g>
      <g id="_140009432" data-name=" 140009432" transform="translate(636.206 623.836)">
        <path id="Path_1306" data-name="Path 1306" d="M618.086,586.658a6.081,6.081,0,1,1-6.08,6.08A6.08,6.08,0,0,1,618.086,586.658Z" transform="translate(-612.006 -586.658)" fill="#fbe9e7"/>
      </g>
      <g id="_140009240" data-name=" 140009240" transform="translate(639.912 627.542)">
        <path id="Path_1307" data-name="Path 1307" d="M616.063,593.089a2.375,2.375,0,1,1,2.375-2.375A2.376,2.376,0,0,1,616.063,593.089Zm0-4.428a2.054,2.054,0,1,0,2.051,2.053A2.055,2.055,0,0,0,616.063,588.662Z" transform="translate(-613.688 -588.34)" fill="#fbe9e7"/>
      </g>
      <g id="_140015768" data-name=" 140015768" transform="translate(784.11 610.203)">
        <path id="Path_1308" data-name="Path 1308" d="M698.864,580.469a19.714,19.714,0,1,1-19.715,19.713A19.714,19.714,0,0,1,698.864,580.469Z" transform="translate(-679.149 -580.469)" fill="#263238"/>
      </g>
      <g id="_140015048" data-name=" 140015048" transform="translate(789.645 615.739)">
        <path id="Path_1309" data-name="Path 1309" d="M695.842,611.337a14.177,14.177,0,1,1,14.175-14.177A14.193,14.193,0,0,1,695.842,611.337Zm0-28.033A13.857,13.857,0,1,0,709.7,597.159,13.874,13.874,0,0,0,695.842,583.3Z" transform="translate(-681.662 -582.982)" fill="#fbe9e7"/>
      </g>
      <g id="_140015648" data-name=" 140015648" transform="translate(788.295 614.389)">
        <path id="Path_1310" data-name="Path 1310" d="M696.579,613.424A15.528,15.528,0,1,1,712.1,597.9,15.545,15.545,0,0,1,696.579,613.424Zm0-30.731a15.2,15.2,0,1,0,15.206,15.2A15.224,15.224,0,0,0,696.579,582.693Z" transform="translate(-681.049 -582.369)" fill="#fbe9e7"/>
      </g>
      <g id="Group_2817" data-name="Group 2817" transform="translate(800.415 615.814)">
        <g id="_140015912" data-name=" 140015912" transform="translate(4.855)">
          <path id="Path_1311" data-name="Path 1311" d="M688.755,611.225V583.016l.181.018a13.926,13.926,0,0,1,1.535.264l.126.026v27.59l-.126.028a14.436,14.436,0,0,1-1.535.262Zm.322-27.848v27.482c.412-.049.813-.119,1.2-.2V583.582C689.889,583.5,689.486,583.428,689.077,583.377Z" transform="translate(-688.755 -583.016)" fill="#fbe9e7"/>
        </g>
        <g id="_140015480" data-name=" 140015480" transform="translate(0 0.009)">
          <path id="Path_1312" data-name="Path 1312" d="M688.393,611.207l-.181-.02a15.087,15.087,0,0,1-1.54-.277l-.121-.029V583.348l.121-.029a14.915,14.915,0,0,1,1.538-.278l.183-.022Zm-1.524-.584c.4.09.8.165,1.2.218V583.39c-.405.055-.808.125-1.2.214Z" transform="translate(-686.551 -583.02)" fill="#fbe9e7"/>
        </g>
      </g>
      <g id="Group_2818" data-name="Group 2818" transform="translate(789.656 626.568)">
        <g id="_140015264" data-name=" 140015264" transform="translate(0 4.857)">
          <path id="Path_1313" data-name="Path 1313" d="M709.566,591.945H681.978l-.029-.126a14.677,14.677,0,0,1-.262-1.535l-.02-.181h28.211l-.02.181a14.168,14.168,0,0,1-.262,1.535Zm-27.328-.322h27.07c.086-.39.156-.789.207-1.2H682.03C682.081,590.834,682.152,591.235,682.238,591.623Z" transform="translate(-681.667 -590.103)" fill="#fbe9e7"/>
        </g>
        <g id="_140015840" data-name=" 140015840" transform="translate(0.011)">
          <path id="Path_1314" data-name="Path 1314" d="M709.861,589.74H681.672l.024-.179a13.664,13.664,0,0,1,.275-1.538L682,587.9h27.533l.029.126a13.9,13.9,0,0,1,.275,1.538Zm-27.822-.32H709.5c-.06-.407-.13-.806-.22-1.2H682.258C682.167,588.618,682.093,589.019,682.04,589.42Z" transform="translate(-681.672 -587.898)" fill="#fbe9e7"/>
        </g>
      </g>
      <g id="Group_2819" data-name="Group 2819" transform="translate(791.661 617.814)">
        <g id="_140014616" data-name=" 140014616" transform="translate(3.194 3.194)">
          <path id="Path_1315" data-name="Path 1315" d="M685.551,606.406l-.11-.068a13.57,13.57,0,0,1-1.271-.9l-.143-.112,19.949-19.949.115.143a14.771,14.771,0,0,1,.9,1.271l.068.108-.09.09Zm-1.038-1.11c.322.244.652.482.989.7l19.147-19.142c-.218-.337-.451-.67-.7-.991Z" transform="translate(-684.027 -585.374)" fill="#fbe9e7"/>
        </g>
        <g id="_140014832" data-name=" 140014832">
          <path id="Path_1316" data-name="Path 1316" d="M683.652,604.928l-.115-.143a14.111,14.111,0,0,1-.892-1.284l-.068-.108,19.468-19.468.11.068a14.9,14.9,0,0,1,1.28.892l.143.112-.128.13Zm-.663-1.489c.211.341.447.676.692,1l19.411-19.413c-.322-.242-.654-.476-1-.694Z" transform="translate(-682.577 -583.924)" fill="#fbe9e7"/>
        </g>
      </g>
      <g id="Group_2820" data-name="Group 2820" transform="translate(791.661 617.814)">
        <g id="_140014712" data-name=" 140014712" transform="translate(0 3.194)">
          <path id="Path_1317" data-name="Path 1317" d="M702.085,606.406,682.577,586.9l.068-.108a13.905,13.905,0,0,1,.905-1.271l.11-.143,19.949,19.949-.143.112a14.092,14.092,0,0,1-1.273.9Zm-19.1-19.554,19.142,19.142c.335-.216.67-.449.991-.7l-19.433-19.431C683.44,586.182,683.2,586.515,682.989,586.852Z" transform="translate(-682.577 -585.374)" fill="#fbe9e7"/>
        </g>
        <g id="_140014544" data-name=" 140014544" transform="translate(3.223)">
          <path id="Path_1318" data-name="Path 1318" d="M703.971,604.928l-.13-.13L684.04,585l.143-.115a14.584,14.584,0,0,1,1.284-.89l.108-.068,19.468,19.468-.068.108a14.5,14.5,0,0,1-.89,1.284Zm-19.442-19.9,19.411,19.413q.37-.489.694-1l-19.1-19.1C685.192,584.547,684.853,584.781,684.529,585.028Z" transform="translate(-684.04 -583.924)" fill="#fbe9e7"/>
        </g>
      </g>
      <g id="_140014280" data-name=" 140014280" transform="translate(797.743 623.836)">
        <path id="Path_1319" data-name="Path 1319" d="M691.42,586.658a6.081,6.081,0,1,1-6.082,6.08A6.08,6.08,0,0,1,691.42,586.658Z" transform="translate(-685.338 -586.658)" fill="#fbe9e7"/>
      </g>
      <g id="_140013848" data-name=" 140013848" transform="translate(801.45 627.542)">
        <path id="Path_1320" data-name="Path 1320" d="M689.4,593.089a2.375,2.375,0,1,1,2.375-2.375A2.376,2.376,0,0,1,689.4,593.089Zm0-4.428a2.054,2.054,0,1,0,2.053,2.053A2.057,2.057,0,0,0,689.4,588.662Z" transform="translate(-687.021 -588.34)" fill="#fbe9e7"/>
      </g>
      <path id="Path_1321" data-name="Path 1321" d="M681.771,572.233c3.555,0,6.439.756,6.439,1.685s-2.884,1.687-6.439,1.687-6.434-.756-6.434-1.687S678.218,572.233,681.771,572.233Z" transform="translate(100.376 19.828)" fill="#263238"/>
      <path id="Path_1322" data-name="Path 1322" d="M655.75,573.226c3.557,0,6.436.753,6.436,1.683s-2.879,1.687-6.436,1.687-6.435-.756-6.435-1.687S652.2,573.226,655.75,573.226Z" transform="translate(69.076 21.022)" fill="#263238"/>
      <path id="Path_1323" data-name="Path 1323" d="M670.557,558.3l-3.6-.471a250.74,250.74,0,0,0-47.019,23.158l6.022,2.447C642.125,571.588,656.842,563.6,670.557,558.3Z" transform="translate(33.739 2.5)" fill="#69e3f6"/>
      <path id="Path_1324" data-name="Path 1324" d="M617.121,572.1c-9.441,3.866-17.786,8.9-24.595,15.563.348.044,12.666,1.529,17.05-1.947,4.443-3.525,12.109-8.888,13.64-11.034C624.023,573.556,620.569,572.679,617.121,572.1Z" transform="translate(0.771 19.673)" fill="#f23503"/>
      <path id="Path_1325" data-name="Path 1325" d="M601.462,582.821h-9.507l-.068,1.985,3.37,1.227-3.066,12.261h9.827l.055-.125s.967-3.613,2.615-9.763S601.462,582.821,601.462,582.821Z" transform="translate(0 32.546)" fill="#263238"/>
    </g>
    <path id="Path_1364" data-name="Path 1364" d="M368.591,203.416H99.049c-4.87,0-8.819-2.408-8.819-5.378v-.211H377.41v.211C377.41,201.008,373.462,203.416,368.591,203.416Z" transform="translate(1295.516 302.443)" fill="#177d7f"/>
  </g>
</svg>
