<svg xmlns="http://www.w3.org/2000/svg" width="319.066" height="225.88" viewBox="0 0 319.066 225.88">
  <g id="Group_3347" data-name="Group 3347" transform="translate(0 -73.592)">
    <g id="Background_Complete" data-name="Background Complete" transform="translate(0 73.592)">
      <g id="Group_3319" data-name="Group 3319" transform="translate(0 197.059)">
        <rect id="Rectangle_252" data-name="Rectangle 252" width="319.066" height="0.16" fill="#ebebeb"/>
        <rect id="Rectangle_253" data-name="Rectangle 253" width="21.136" height="0.16" transform="translate(265.961 10.271)" fill="#ebebeb"/>
        <rect id="Rectangle_254" data-name="Rectangle 254" width="5.547" height="0.16" transform="translate(205.815 12.003)" fill="#ebebeb"/>
        <rect id="Rectangle_255" data-name="Rectangle 255" width="12.247" height="0.16" transform="translate(253.074 4.345)" fill="#ebebeb"/>
        <rect id="Rectangle_256" data-name="Rectangle 256" width="27.563" height="0.16" transform="translate(33.476 5.418)" fill="#ebebeb"/>
        <rect id="Rectangle_257" data-name="Rectangle 257" width="4.041" height="0.16" transform="translate(66.72 5.418)" fill="#ebebeb"/>
        <rect id="Rectangle_258" data-name="Rectangle 258" width="59.778" height="0.16" transform="translate(83.896 8.112)" fill="#ebebeb"/>
      </g>
      <g id="Group_3324" data-name="Group 3324" transform="translate(27.552)">
        <circle id="Ellipse_27" data-name="Ellipse 27" cx="26.512" cy="26.512" r="26.512" transform="translate(148.981 47.667) rotate(-45)" fill="#f5f5f5"/>
        <path id="Path_1676" data-name="Path 1676" d="M387.651,129.728a4.314,4.314,0,0,0-5.558-4.136,9.137,9.137,0,0,0-10.732-10.313,7.992,7.992,0,0,0-14.821,4.04c-.045,0-.089-.006-.133-.006a7.367,7.367,0,1,0,0,14.733H383.46l-.006-.006A4.316,4.316,0,0,0,387.651,129.728Z" transform="translate(-153.858 -87.287)" fill="#ebebeb"/>
        <path id="Path_1677" data-name="Path 1677" d="M280.718,166.969a4.314,4.314,0,0,0-5.558-4.136,9.14,9.14,0,0,0-10.732-10.313,7.992,7.992,0,0,0-14.821,4.04c-.045,0-.088-.006-.133-.006a7.367,7.367,0,1,0,0,14.733h27.053l-.005-.006A4.315,4.315,0,0,0,280.718,166.969Z" transform="translate(-115.163 -100.764)" fill="#ebebeb"/>
        <path id="Path_1678" data-name="Path 1678" d="M94.059,179.774a4.315,4.315,0,0,0-5.559-4.135,9.142,9.142,0,0,0-10.732-10.313,7.992,7.992,0,0,0-14.821,4.041c-.045,0-.089-.006-.133-.006a7.367,7.367,0,1,0,0,14.733H89.867l-.006-.006A4.316,4.316,0,0,0,94.059,179.774Z" transform="translate(-47.616 -105.398)" fill="#ebebeb"/>
        <path id="Path_1679" data-name="Path 1679" d="M392.4,216.167a2.609,2.609,0,0,0-3.36-2.5,5.525,5.525,0,0,0-6.487-6.233,4.83,4.83,0,0,0-8.957,2.442c-.027,0-.054,0-.081,0a4.452,4.452,0,1,0,0,8.9h16.352l0,0A2.608,2.608,0,0,0,392.4,216.167Z" transform="translate(-161.105 -121.185)" fill="#ebebeb"/>
        <path id="Path_1680" data-name="Path 1680" d="M145.2,84.646a2.609,2.609,0,0,0-3.36-2.5,5.525,5.525,0,0,0-6.487-6.233,4.831,4.831,0,0,0-8.958,2.442c-.027,0-.053,0-.08,0a4.453,4.453,0,0,0,0,8.905h16.352l0,0A2.608,2.608,0,0,0,145.2,84.646Z" transform="translate(-71.649 -73.592)" fill="#ebebeb"/>
        <path id="Path_1681" data-name="Path 1681" d="M89.857,243.413,107.139,321.9l3.141-1.473L92.13,242.969Z" transform="translate(-60.068 -134.884)" fill="#ebebeb"/>
        <g id="Group_3322" data-name="Group 3322" transform="translate(205.142 0.284)">
          <g id="Group_3320" data-name="Group 3320" transform="translate(8.161 33.415)">
            <path id="Path_1682" data-name="Path 1682" d="M392.333,279.346S381.652,205.592,405.7,129.311l-3.774-2.911s-28.182,57.688-24.079,155.015Z" transform="translate(-377.438 -126.4)" fill="#e6e6e6"/>
          </g>
          <g id="Group_3321" data-name="Group 3321">
            <path id="Path_1683" data-name="Path 1683" d="M426.84,98.586c8.817-5.778,21.869,3.418,23.659,17.785a27.279,27.279,0,0,0-4.048-1.924c-.683-3.613-1.342-6.813-1.342-6.813l.469,6.488c-.775-.278-1.622-.549-2.538-.8l-.61-3.493-.288,3.26a31.331,31.331,0,0,0-3.791-.671l-1.646-10.188-.854,10.011a26.808,26.808,0,0,0-3.912.174l-1.009-6.933-.009,7.07a25.4,25.4,0,0,0-3.306.763l-1.207-10.341s.035,5.815-.031,10.745a27.135,27.135,0,0,0-8.515,5.009l-.093-1.273S418.793,103.86,426.84,98.586Z" transform="translate(-383.872 -82.287)" fill="#e0e0e0"/>
            <path id="Path_1684" data-name="Path 1684" d="M397.3,90.276c-7-7.882-22-2.42-27.486,10.98a27.28,27.28,0,0,1,4.41-.8c1.6-3.309,3.076-6.226,3.076-6.226l-2.149,6.14c.821-.066,1.71-.107,2.659-.107l1.5-3.212-.574,3.223a31.419,31.419,0,0,1,3.834.343l4.253-9.4-1.794,9.887a26.911,26.911,0,0,1,3.732,1.19l2.786-6.428-1.84,6.826a25.451,25.451,0,0,1,2.992,1.6l3.869-9.665s-1.555,5.6-2.78,10.379a27.14,27.14,0,0,1,6.908,7.062l.422-1.2S403.693,97.47,397.3,90.276Z" transform="translate(-366.519 -78.594)" fill="#e0e0e0"/>
            <path id="Path_1685" data-name="Path 1685" d="M399.524,119.765c7.018-6.852,12.29-.888,12.29-.888a15.313,15.313,0,0,0-7.035,4.523l-.95-1.237.152,2.112c-.489.563-.958,1.15-1.41,1.753l-1.608-3.658.686,4.952c-.646.948-1.248,1.92-1.8,2.889l-.708-3.629.054,4.809c-.585,1.085-1.11,2.148-1.574,3.15l-.764-6.654-.1,8.605c-1.123,2.654-1.706,4.52-1.706,4.52S392.506,126.616,399.524,119.765Z" transform="translate(-375.487 -89.392)" fill="#e0e0e0"/>
            <path id="Path_1686" data-name="Path 1686" d="M427.856,138.876l-1.45.835c-.212-1.114-.456-2.286-.735-3.473l.988-1.8-1.24.766q-.148-.592-.309-1.18l1.263-3.535-1.891,1.408c-1.021-3.186-2.325-5.99-3.954-7.329,0,0,16.1,5.143,7,22.5,0,0-.29-2.748-.939-6.354Z" transform="translate(-384.87 -92.32)" fill="#e0e0e0"/>
            <path id="Path_1687" data-name="Path 1687" d="M391.8,119.99l-2.574-4.847,1.059,5.05q-.383.063-.779.141l-3.336-4.154.822,4.783a29.688,29.688,0,0,0-3.351,1.235,38.1,38.1,0,0,0-3.478,1.755l-1.626-4.242.757,4.748c-1.1.659-2.179,1.361-3.211,2.085l-.809-3.741.075,4.261c-1.264.914-2.459,1.848-3.558,2.759l.1-6.776-.985,7.521c-1.128.963-2.136,1.88-3,2.7l-.125-4.7-1.188,5.969c-1.241,1.229-1.95,2.017-1.95,2.017.648-16.459,7.02-22.994,17.577-24.76s18.162,9.2,18.162,9.2A17.5,17.5,0,0,0,391.8,119.99Z" transform="translate(-364.649 -87.629)" fill="#e0e0e0"/>
            <path id="Path_1688" data-name="Path 1688" d="M442.9,142.112l-.966,4.906c-.463-1.218-1.1-2.782-1.892-4.522l.864-7.18-1.582,5.66a55.369,55.369,0,0,0-4.287-7.4l1.5-4.977-2.437,3.694c-.487-.641-.992-1.265-1.517-1.861l.854-3.134-1.317,2.619q-.541-.586-1.106-1.13l1.036-4.18-1.646,3.614a18.325,18.325,0,0,0-3.381-2.44l1.679-5.111-2.631,4.632a11.625,11.625,0,0,0-5.287-1.1,17.66,17.66,0,0,1,9.053-6.859c5.884-1.761,18.5,8.864,13.019,32.291,0,0-.168-.533-.494-1.443Z" transform="translate(-384.965 -89.637)" fill="#e0e0e0"/>
            <path id="Path_1689" data-name="Path 1689" d="M432.989,81l1,2.972a6.557,6.557,0,0,0-1.1.157l-1.209-3.87.806,3.973a8.553,8.553,0,0,0-2.167.989l-1.664-5.229.976,5.7c-.264.2-.533.412-.807.653l-1.877-4.907,1.417,5.331a20.681,20.681,0,0,0-3.515,4.682l-.52-7.194-.827,9.82a58.493,58.493,0,0,0-3.318,9.512s-1.021-26.137,5.276-29.1,10.045,9.625,10.045,9.625a3.681,3.681,0,0,0-.862-.14Z" transform="translate(-384.725 -74.037)" fill="#e0e0e0"/>
            <path id="Path_1690" data-name="Path 1690" d="M421.094,126.254l-.562,4.96-1.89-4.782-2.568,3.744-1-3.485-2.951,2.476s.361-6.323,2.247-9.215S421.893,119.091,421.094,126.254Z" transform="translate(-381.827 -90.193)" fill="#e0e0e0"/>
          </g>
        </g>
        <g id="Group_3323" data-name="Group 3323" transform="translate(117.568 81.501)">
          <path id="Path_1691" data-name="Path 1691" d="M290.322,235.881V201.31s-7.013,7.446-11.666,6.436-10.711,2.511-10.711,2.511,6.085-.888,8.344,1.583,12.341,2.734,12.341,2.734v22.578Z" transform="translate(-242.08 -201.31)" fill="#ebebeb"/>
          <path id="Path_1692" data-name="Path 1692" d="M314.141,238.879h-1.592v2.174h-5.261v-2.174h-5.165v2.174h-5.261v-2.174H291.7v2.174h-5.261v-2.174h-5.164v2.174h-5.261v-2.174h-5.164v2.174h-5.261v-2.174h-5.165v2.174h-5.261v-2.174h-1.768l-5.126,40.968,71.175-.3Z" transform="translate(-234.96 -214.905)" fill="#e0e0e0"/>
          <path id="Path_1693" data-name="Path 1693" d="M317.92,285.48h-2.188v2.987H308.5V285.48h-7.1v2.987H294.18V285.48h-7.1v2.987h-7.228V285.48h-7.1v2.987h-7.228V285.48h-7.1v2.987h-7.228V285.48h-7.1v2.987h-7.228V285.48h-2.43l-7.042,56.287,97.791-.406Z" transform="translate(-227.413 -231.769)" fill="#ebebeb"/>
        </g>
        <path id="Path_1694" data-name="Path 1694" d="M290.729,352.088c-1.509-1.7-2.934-3.446-4.513-5.087a1.784,1.784,0,0,1-.228-.269,13.276,13.276,0,0,0-1.625-.9c-.1-.034-.43-.168-.773-.293-.635-.233-1.264-.482-1.892-.734-3.965-1.6-7.527-3.445-10.518-6.593-1.639-1.725-2.948-3.736-4.647-5.4-.041.055-.375-.121-.533-.254-.505-.058-1.19-.159-1.281-.161-.685-.01-1.373.012-2.057.043-.979.043-1.955.123-2.93.209-3.8,5.566-8.612,13.163-10.735,14.169-3.284,1.555-33.573,9.552-35.8,9.081s-13.926.472-16.861.362-8.25-1.412-15.944-4.949-11.9-3.564-21.175-6.516-15.486-4.078-20.91.465-20.325-5.048-24.969-6.415-13.532-9.236-19.595-5.565-11.1,5.416-18.678,11.98-22.6,19.238-22.6,19.238H308.323l-2.937-5.139A21.049,21.049,0,0,1,290.729,352.088Z" transform="translate(-46.535 -167.215)" fill="#f5f5f5"/>
        <path id="Path_1695" data-name="Path 1695" d="M43.176,250.793s7.447-13.38,27.63-24.961a79.555,79.555,0,0,1,34.965,6.683s3.759,6.245-.512,8.706-7.82-2.488-7.82-2.488-.788,7.541-6.362,7.76-7.214-5.272-7.214-5.272-.548,6.921-7.2,8.671c-5.776,1.519-9.365-3.4-9.365-3.4s-1.149,5.688-6.325,7.329c-4.16,1.32-7.011-2.26-7.011-2.26s-1.194,6.173-5.612,6.173C44.565,257.735,43.176,250.793,43.176,250.793Z" transform="translate(-43.176 -128.649)" fill="#e0e0e0"/>
      </g>
    </g>
    <g id="Shadow" transform="translate(35.806 285.02)">
      <ellipse id="_Path_" data-name="&lt;Path&gt;" cx="123.727" cy="7.226" rx="123.727" ry="7.226" fill="#f5f5f5"/>
    </g>
    <g id="Sand" transform="translate(193.06 249.863)">
      <g id="Group_3330" data-name="Group 3330">
        <g id="Group_3325" data-name="Group 3325" transform="translate(48.196)">
          <path id="Path_1696" data-name="Path 1696" d="M383.989,360.724s2.777-4.064,5.3-5.2,2.941-5.452,4.31-5.692,2.884,3.749,5.283,4.91,6.03,5.958,6.03,5.958Z" transform="translate(-380.209 -349.822)" fill="#407bff"/>
          <path id="Path_1697" data-name="Path 1697" d="M383.989,360.724s2.777-4.064,5.3-5.2,2.941-5.452,4.31-5.692,2.884,3.749,5.283,4.91,6.03,5.958,6.03,5.958Z" transform="translate(-380.209 -349.822)" fill="#fff" opacity="0.8" style="mix-blend-mode: normal;isolation: isolate"/>
          <path id="Path_1698" data-name="Path 1698" d="M402.725,396.162H382.532l-2.553-29.294h25.3Z" transform="translate(-378.758 -355.99)" fill="#407bff"/>
          <rect id="Rectangle_259" data-name="Rectangle 259" width="27.741" height="3.079" transform="translate(0 9.363)" fill="#407bff"/>
          <rect id="Rectangle_260" data-name="Rectangle 260" width="27.741" height="3.079" transform="translate(0 9.363)" fill="#fff" opacity="0.2" style="mix-blend-mode: normal;isolation: isolate"/>
          <path id="Path_1699" data-name="Path 1699" d="M397.865,367.289c1.84,2.883,9.706,14.789,14.584,15.655l.6-1.442s-4.37.523-14.018-14.941a.693.693,0,0,0-.913-.248h0A.687.687,0,0,0,397.865,367.289Z" transform="translate(-385.191 -355.76)" fill="#263238"/>
        </g>
        <g id="Group_3326" data-name="Group 3326" transform="translate(30.896 2.214)">
          <path id="Path_1700" data-name="Path 1700" d="M352.2,353.366h0a1.628,1.628,0,0,1,2.052,1.105l3.45,12.056,4.484-1.8s2.7,10.052-2.4,11.638c-4.986,1.552-8.836-7.725-8.836-7.725l4.557-1.261-4.351-11.906A1.628,1.628,0,0,1,352.2,353.366Z" transform="translate(-350.956 -353.291)" fill="#407bff"/>
          <path id="Path_1701" data-name="Path 1701" d="M359.792,382.86c-4.984,1.551-8.832-7.728-8.832-7.728l4.556-1.257s.785,1.34,1.666,1.008.523-1.87.523-1.87l4.486-1.793S364.89,381.271,359.792,382.86Z" transform="translate(-350.957 -359.779)" fill="#fff" opacity="0.4" style="mix-blend-mode: normal;isolation: isolate"/>
        </g>
        <g id="Group_3327" data-name="Group 3327" transform="translate(0 19.671)">
          <path id="Path_1702" data-name="Path 1702" d="M380.473,403.622c-2.509-1.244-5.071-2.42-5.891-2.474-1.767-.116-2.777-.9-4.039-2.4s-1.767-3.235-4.039-5.65.253-3.379-4.543-4-2.946-.228-5.891-2.351-2.352-2.122-5.8-3.637-1.433-2.094-5.473-2.436c-2.789-.235-7.2,1.234-9.49,2.867-1.015.725-1.535,1.926-2.536,2.563-1.126.716-2.883-.615-2.7,1.789a6.155,6.155,0,0,1,.083,1.881c-.325,1.365-5.949,1.363-7.374,1.789a1.361,1.361,0,0,0-.858.521c-.325.581.164,1.609-.466,1.822-.2.066-.417-.01-.622.029-.761.146-.561,1.511-1.271,1.825-.678.3-1.537-.324-2.329-.027-.611.229-.812,1.049-1.341,1.373-.923.563-1.884.978-2.8,1.575-1.584,1.038-2.955,2.309-4.655,3.224l-4.544,1.242-1.357.476Z" transform="translate(-302.539 -380.647)" fill="#407bff"/>
          <path id="Path_1703" data-name="Path 1703" d="M380.473,403.622c-2.509-1.244-5.071-2.42-5.891-2.474-1.767-.116-2.777-.9-4.039-2.4s-1.767-3.235-4.039-5.65.253-3.379-4.543-4-2.946-.228-5.891-2.351-2.352-2.122-5.8-3.637-1.433-2.094-5.473-2.436c-2.789-.235-7.2,1.234-9.49,2.867-1.015.725-1.535,1.926-2.536,2.563-1.126.716-2.883-.615-2.7,1.789a6.155,6.155,0,0,1,.083,1.881c-.325,1.365-5.949,1.363-7.374,1.789a1.361,1.361,0,0,0-.858.521c-.325.581.164,1.609-.466,1.822-.2.066-.417-.01-.622.029-.761.146-.561,1.511-1.271,1.825-.678.3-1.537-.324-2.329-.027-.611.229-.812,1.049-1.341,1.373-.923.563-1.884.978-2.8,1.575-1.584,1.038-2.955,2.309-4.655,3.224l-4.544,1.242-1.357.476Z" transform="translate(-302.539 -380.647)" fill="#fff" opacity="0.8" style="mix-blend-mode: normal;isolation: isolate"/>
        </g>
        <g id="Group_3329" data-name="Group 3329" transform="translate(1.149 19.411)">
          <path id="Path_1704" data-name="Path 1704" d="M327.574,391.861a1.039,1.039,0,0,1-.006.14v.006a11.5,11.5,0,0,1-1.812,6.094c-.1.147-.191.294-.3.441a11.636,11.636,0,0,1-2.4,2.508,7.873,7.873,0,0,1-.651.466H322.4a1.055,1.055,0,0,1-.16.1c-.07.051-.14.09-.211.135a3.8,3.8,0,0,1-.338.2c-.179.1-.364.2-.549.293h-.006a11.446,11.446,0,0,1-5.175,1.225,11.564,11.564,0,0,1-8.4-3.6,11.288,11.288,0,0,1-1.946-2.725,11.536,11.536,0,0,1-1.276-5.289v-.038c0-.325.013-.651.045-.97a11.423,11.423,0,0,1,1.232-4.289,10.465,10.465,0,0,1,.562-.976,11.832,11.832,0,0,1,2.45-2.745,10.133,10.133,0,0,1,.951-.689,4.092,4.092,0,0,1,.357-.229,11.359,11.359,0,0,1,2.935-1.27c.089-.026.179-.052.268-.071a11.725,11.725,0,0,1,2.821-.345q.45,0,.881.039c.077,0,.147.006.223.012h.006A11.451,11.451,0,0,1,320.8,381.3c.045.02.1.045.147.071a11.588,11.588,0,0,1,6.528,8.953v.019A10.853,10.853,0,0,1,327.574,391.861Z" transform="translate(-304.34 -380.24)" fill="#407bff"/>
          <path id="Path_1705" data-name="Path 1705" d="M336.737,393.522a11.588,11.588,0,0,1-6.432,10.388c-.006.006-.006,0-.006,0a2.431,2.431,0,0,1-.638-.784c2.144-6.254,0-9.6,0-9.6l.006-.064.153-1,.032-.185c.332-1.856,1.168-5.334,2.98-7.44A11.6,11.6,0,0,1,336.737,393.522Z" transform="translate(-313.502 -381.901)" fill="#fff" opacity="0.6" style="mix-blend-mode: normal;isolation: isolate"/>
          <path id="Path_1706" data-name="Path 1706" d="M307.052,391.327s-2.036,2.035-1.436,7.3a11.616,11.616,0,0,1,3.012-14.307A13.992,13.992,0,0,0,307.052,391.327Z" transform="translate(-304.34 -381.716)" fill="#fff" opacity="0.6" style="mix-blend-mode: normal;isolation: isolate"/>
          <path id="Path_1707" data-name="Path 1707" d="M325.2,383.17c-2.553,2.961-3.172,8.691-3.172,8.691-7.007,1.717-13.445-2.01-13.445-2.01a14.06,14.06,0,0,1,1.576-7.007,11.616,11.616,0,0,1,15.041.326Z" transform="translate(-305.866 -380.24)" fill="#fff" opacity="0.2" style="mix-blend-mode: normal;isolation: isolate"/>
          <path id="Path_1708" data-name="Path 1708" d="M322.963,413.384a11.445,11.445,0,0,1-5.175,1.225,11.564,11.564,0,0,1-8.4-3.6,17.041,17.041,0,0,0,12.935,1.589A2.431,2.431,0,0,0,322.963,413.384Z" transform="translate(-306.167 -391.375)" fill="#fff" opacity="0.2" style="mix-blend-mode: normal;isolation: isolate"/>
          <g id="Group_3328" data-name="Group 3328" transform="translate(0 0.039)" opacity="0.2" style="mix-blend-mode: normal;isolation: isolate">
            <path id="Path_1709" data-name="Path 1709" d="M328.315,381.971a13.639,13.639,0,0,0-.836,1.327,20.441,20.441,0,0,0-1.219,2.731c-.357.938-.632,1.9-.893,2.865s-.472,1.953-.657,2.942a20.618,20.618,0,0,1,.421-2.993,24.552,24.552,0,0,1,.83-2.922,18.028,18.028,0,0,1,1.3-2.745,14.036,14.036,0,0,1,.906-1.276C328.213,381.92,328.264,381.945,328.315,381.971Z" transform="translate(-311.711 -380.88)"/>
            <path id="Path_1710" data-name="Path 1710" d="M322.539,380.313c-.16.288-.306.581-.447.874a19.963,19.963,0,0,0-1.155,3.07c-.338,1.047-.593,2.118-.836,3.191s-.447,2.157-.632,3.242a27.264,27.264,0,0,1,.4-3.293,27.975,27.975,0,0,1,.766-3.23,18.042,18.042,0,0,1,1.244-3.094c.14-.262.287-.524.44-.772C322.393,380.3,322.463,380.307,322.539,380.313Z" transform="translate(-309.815 -380.301)"/>
            <path id="Path_1711" data-name="Path 1711" d="M316.9,380.78c-.064.173-.134.345-.2.518a22.631,22.631,0,0,0-.861,2.9c-.249.983-.44,1.978-.625,2.979s-.338,2-.485,3.012a25.748,25.748,0,0,1,.249-3.05,30.165,30.165,0,0,1,.555-3.013,19.122,19.122,0,0,1,.938-2.929c.051-.114.1-.236.16-.35C316.721,380.825,316.81,380.8,316.9,380.78Z" transform="translate(-308.1 -380.474)"/>
            <path id="Path_1712" data-name="Path 1712" d="M312.354,382.881c-.217.715-.421,1.429-.568,2.157-.185.81-.319,1.633-.447,2.456s-.217,1.653-.294,2.489a17.427,17.427,0,0,1,.051-2.515,23.552,23.552,0,0,1,.377-2.494A18.808,18.808,0,0,1,312,383.11,4.085,4.085,0,0,1,312.354,382.881Z" transform="translate(-306.758 -381.235)"/>
            <path id="Path_1713" data-name="Path 1713" d="M333.5,400.718a11.37,11.37,0,0,1-.466,3.554,12.046,12.046,0,0,1-.619,1.678c-.083.185-.179.37-.274.549h-.006a1.056,1.056,0,0,1-.16.1,13.406,13.406,0,0,0,.823-2.393,11.9,11.9,0,0,0,.383-3.484,12.735,12.735,0,0,0-.536-3.464,14.194,14.194,0,0,0-1.4-3.248,11.168,11.168,0,0,1,1.634,3.171A11.909,11.909,0,0,1,333.5,400.718Z" transform="translate(-314.074 -385.262)"/>
            <path id="Path_1714" data-name="Path 1714" d="M336.543,399l-.032.964-.134.957a6.267,6.267,0,0,1-.134.772c-.1.147-.191.294-.3.441a8.262,8.262,0,0,0,.191-1.244l.1-.945.019-.944a6.76,6.76,0,0,0-.026-.951c-.032-.313-.032-.625-.089-.938a13.964,13.964,0,0,0-.938-3.657,12.962,12.962,0,0,0-1.876-3.292,10.85,10.85,0,0,1,2.1,3.2,13.4,13.4,0,0,1,1.034,3.713c.051.319.045.638.07.964A6.944,6.944,0,0,1,336.543,399Z" transform="translate(-314.827 -383.869)"/>
            <path id="Path_1715" data-name="Path 1715" d="M338.745,394.3a1.039,1.039,0,0,1-.006.14c-.013-.071-.026-.147-.038-.217a16.951,16.951,0,0,0-1.283-3.836,13.848,13.848,0,0,0-2.208-3.4,11.872,11.872,0,0,1,2.425,3.293,15.806,15.806,0,0,1,1.008,2.483v.018A10.854,10.854,0,0,1,338.745,394.3Z" transform="translate(-315.511 -382.722)"/>
            <path id="Path_1716" data-name="Path 1716" d="M306.484,392.421a9.5,9.5,0,0,0-1.308,1.889,12.491,12.491,0,0,0-.836,1.921c0-.325.013-.651.045-.97a9.647,9.647,0,0,1,.581-1.073A6.737,6.737,0,0,1,306.484,392.421Z" transform="translate(-304.34 -384.687)"/>
            <path id="Path_1717" data-name="Path 1717" d="M307.757,387.581c-.485.548-.957,1.091-1.417,1.639a10.477,10.477,0,0,1,.562-.976A9.45,9.45,0,0,1,307.757,387.581Z" transform="translate(-305.064 -382.935)"/>
            <path id="Path_1718" data-name="Path 1718" d="M308.559,399.159c1.06.407,2.135.765,3.219,1.083a28.9,28.9,0,0,0,3.292.784,14.981,14.981,0,0,0,6.7-.083,10.112,10.112,0,0,1-3.343.669,17.64,17.64,0,0,1-3.415-.272,24.528,24.528,0,0,1-3.309-.865A22.385,22.385,0,0,1,308.559,399.159Z" transform="translate(-305.867 -387.125)"/>
            <path id="Path_1719" data-name="Path 1719" d="M308.559,403.508a27.714,27.714,0,0,0,3.271,1.073,24.925,24.925,0,0,0,3.367.646,19.5,19.5,0,0,0,3.418.161l.857-.04.853-.1c.575-.035,1.127-.2,1.7-.285a14.26,14.26,0,0,1-3.395.674,17.5,17.5,0,0,1-3.472-.091,21.657,21.657,0,0,1-3.394-.727A17.816,17.816,0,0,1,308.559,403.508Z" transform="translate(-305.867 -388.699)"/>
            <path id="Path_1720" data-name="Path 1720" d="M308.989,407.266a20.48,20.48,0,0,0,3.112,1.162,19.158,19.158,0,0,0,3.241.653c.546.087,1.1.1,1.646.143.551-.007,1.1.015,1.653-.031a19.723,19.723,0,0,0,3.286-.475,13.937,13.937,0,0,1-3.266.72,15.035,15.035,0,0,1-3.358-.04,17.137,17.137,0,0,1-3.275-.736A14.284,14.284,0,0,1,308.989,407.266Z" transform="translate(-306.022 -390.059)"/>
            <path id="Path_1721" data-name="Path 1721" d="M309.747,410.1a20.936,20.936,0,0,0,2.931,1.094,18.662,18.662,0,0,0,3.047.628,14.8,14.8,0,0,0,3.1.1l.777-.061.77-.126c.521-.055,1.015-.232,1.532-.33a11.649,11.649,0,0,1-3.057.761,13.5,13.5,0,0,1-3.164-.027,16.49,16.49,0,0,1-3.081-.711A13.932,13.932,0,0,1,309.747,410.1Z" transform="translate(-306.297 -391.085)"/>
          </g>
        </g>
      </g>
    </g>
    <g id="Travel_bag" data-name="Travel bag" transform="translate(38.339 258.965)">
      <g id="Group_3333" data-name="Group 3333">
        <path id="Path_1722" data-name="Path 1722" d="M113.791,367.754a8.9,8.9,0,0,1,6.312-3.66c4.039-.253,7.447,4.9,7.447,4.9h-1.282s-3.263-3.51-5.6-3.51-4.607,2.9-4.607,2.9Z" transform="translate(-79.516 -364.085)" fill="#263238"/>
        <g id="Group_3331" data-name="Group 3331" transform="translate(0 28.408)">
          <path id="Path_1723" data-name="Path 1723" d="M60.08,410.808c1.4-2.331,17.052-.819,20.587-2.206l1.893,3.283a12.707,12.707,0,0,1-7.18.969c-4.483-.529-11.248-.671-13.016.884Z" transform="translate(-60.08 -408.602)" fill="#263238"/>
          <path id="Path_1724" data-name="Path 1724" d="M60.08,410.808c1.4-2.331,17.052-.819,20.587-2.206l1.893,3.283a12.707,12.707,0,0,1-7.18.969c-4.483-.529-11.248-.671-13.016.884Z" transform="translate(-60.08 -408.602)" opacity="0.3" style="mix-blend-mode: normal;isolation: isolate"/>
        </g>
        <path id="Path_1725" data-name="Path 1725" d="M133.574,389.3c-.128.555-.268,1.1-.428,1.627-1.257,4.346-3.242,7.862-4.671,8.4H87.9a3.656,3.656,0,0,1-2.891-1.417c-.006-.013-.019-.026-.032-.045a3.206,3.206,0,0,1-.376-.619c-2.8-5.852-5.628-17.555-1.653-22.89a8.867,8.867,0,0,1,1.429-1.506,1.4,1.4,0,0,1,.115-.089,11.955,11.955,0,0,1,2.769-1.691c.006,0,.006-.006.013-.006s.013-.006.019-.006a29.07,29.07,0,0,1,9.6-2.093c.976-.077,1.946-.121,2.9-.14,2.489-.07,4.812-.006,6.662.045,6.522.166,11.652,2.106,15.149,1.768a10.5,10.5,0,0,1,3.854.306,10.885,10.885,0,0,1,1.059.357,17.106,17.106,0,0,1,4.39,2.7C134.844,377.173,134.9,383.675,133.574,389.3Z" transform="translate(-67.642 -365.792)" fill="#263238"/>
        <path id="Path_1726" data-name="Path 1726" d="M133.574,389.3c-.128.555-.268,1.1-.428,1.627-1.257,4.346-3.242,7.862-4.671,8.4H87.9a3.656,3.656,0,0,1-2.891-1.417c-.006-.013-.019-.026-.032-.045a3.206,3.206,0,0,1-.376-.619c-2.8-5.852-5.628-17.555-1.653-22.89a8.867,8.867,0,0,1,1.429-1.506,1.4,1.4,0,0,1,.115-.089,11.955,11.955,0,0,1,2.769-1.691c.006,0,.006-.006.013-.006s.013-.006.019-.006a29.07,29.07,0,0,1,9.6-2.093c.976-.077,1.946-.121,2.9-.14,2.489-.07,4.812-.006,6.662.045,6.522.166,11.652,2.106,15.149,1.768a10.5,10.5,0,0,1,3.854.306,10.885,10.885,0,0,1,1.059.357,17.106,17.106,0,0,1,4.39,2.7C134.844,377.173,134.9,383.675,133.574,389.3Z" transform="translate(-67.642 -365.792)" fill="#fff" opacity="0.1" style="mix-blend-mode: normal;isolation: isolate"/>
        <g id="Group_3332" data-name="Group 3332" transform="translate(13.335 3.041)">
          <path id="Path_1727" data-name="Path 1727" d="M127.358,389.978c-2.9,0-8.711,1.385-17.293-.5a27.271,27.271,0,0,0-12.184-.093c-.092-1.3-.2-2.7-.311-4.24-.759-10.37-6.675-14.722-10.28-13-.006,0-.013.006-.019.006s-.006.006-.013.006a15.96,15.96,0,0,0-2.769,1.691,1.4,1.4,0,0,0-.115.089,8.866,8.866,0,0,0-1.429,1.506c-3.976,5.335-1.149,17.038,1.653,22.89a3.206,3.206,0,0,0,.376.619c.013.019.026.032.032.045a3.677,3.677,0,0,0,2.757,1.244h7.281c2.967,0,3.319-2.717,2.988-8.557.5-.289,1.119-.661,1.811-1.111,1.806-1.174,8.832-.593,11.863.542s10.982,1.64,14.83,1.015a25.7,25.7,0,0,1,6.611-.121c.16-.53.3-1.072.428-1.627C132.246,390.24,129.483,389.978,127.358,389.978Z" transform="translate(-80.977 -369.909)" opacity="0.2" style="mix-blend-mode: normal;isolation: isolate"/>
          <path id="Path_1728" data-name="Path 1728" d="M110,374.274c1.768,6.439,2.98,8.711,3.446,9.342s13.318,2.157,15.73,2.151a46.7,46.7,0,0,0,8.321-.817c1.64-.415,2.17-8.672-1.965-13.624a10.869,10.869,0,0,0-1.059-.357c2.253,5.054,2.3,11.244,2.036,12.105-.383,1.225-4.167,1.047-5.935,1.008s-12.75-.721-13.886-1.168a5.826,5.826,0,0,1-2.648-2.2c-.887-1.136-1.008-5.048-2.61-8.423a13.247,13.247,0,0,0-2.623-3.44c-.951.019-1.921.064-2.9.14A8.417,8.417,0,0,1,110,374.274Z" transform="translate(-89.999 -368.85)" opacity="0.2" style="mix-blend-mode: normal;isolation: isolate"/>
        </g>
        <path id="Path_1729" data-name="Path 1729" d="M80.667,386.644l-3.535.886s-2.51,7.195-1.01,10.224-10.236,7.2-16.043,5.108l2.284,2.93s13.884-.874,16.535-6.16-1.136-6.1-1.388-7.585S80.667,386.644,80.667,386.644Z" transform="translate(-60.08 -372.248)" fill="#263238"/>
        <path id="Path_1730" data-name="Path 1730" d="M80.667,386.644l-3.535.886s-2.51,7.195-1.01,10.224-10.236,7.2-16.043,5.108l2.284,2.93s13.884-.874,16.535-6.16-1.136-6.1-1.388-7.585S80.667,386.644,80.667,386.644Z" transform="translate(-60.08 -372.248)" fill="#fff" opacity="0.1" style="mix-blend-mode: normal;isolation: isolate"/>
      </g>
    </g>
    <g id="Character" transform="translate(44.948 89.666)">
      <g id="Group_3343" data-name="Group 3343">
        <g id="_Group_" data-name="&lt;Group&gt;">
          <path id="Path_1731" data-name="Path 1731" d="M115.636,134.857s-13.655-7.642-16.481-9.62-17.948-16.817-18.8-17.242a2.542,2.542,0,0,0-.706-2.685c-1.272-.988-6.219-4.239-6.925-4.239s-2.544,6.924-2.262,8.621,7.208,2.12,7.208,2.12S92.089,128.6,94.349,130.944s17.665,12.382,17.665,12.382Z" transform="translate(-70.436 -99.609)" fill="#e4897b"/>
          <g id="Group_3335" data-name="Group 3335" transform="translate(30.505 28.925)">
            <path id="Path_1732" data-name="Path 1732" d="M138.541,151.83s2.994,6.047-4.275,15.64l-16.022-11.779,6.4-11.583Z" transform="translate(-118.241 -144.108)" fill="#407bff"/>
            <path id="Path_1733" data-name="Path 1733" d="M134.264,167.472l-7.568-5.565-.989-.727-4.269-3.133-3.2-2.355,2.355-4.256,1.334-2.419,2.712-4.907,2.616,1.455,2.259,1.251,9.023,5.016a7.178,7.178,0,0,1,.542,2.2C139.369,156.6,138.935,161.3,134.264,167.472Z" transform="translate(-118.24 -144.109)" fill="#fff" opacity="0.6" style="mix-blend-mode: normal;isolation: isolate"/>
            <path id="Path_1734" data-name="Path 1734" d="M139.058,173.1l-7.568-5.565c2.6-5.373,9.317-7.268,12.386-7.875C144.163,162.232,143.729,166.928,139.058,173.1Z" transform="translate(-123.035 -149.736)" opacity="0.2" style="mix-blend-mode: normal;isolation: isolate"/>
            <g id="Group_3334" data-name="Group 3334" transform="translate(2.355 1.456)" opacity="0.2">
              <path id="Path_1735" data-name="Path 1735" d="M134.629,147.641l-2.259,1.315V146.39Z" transform="translate(-125.708 -146.39)" fill="#fff"/>
              <path id="Path_1736" data-name="Path 1736" d="M125.937,152.591l-2.833,3.976-1.174-2.348,1.334-2.419Z" transform="translate(-121.93 -148.348)" fill="#fff"/>
              <path id="Path_1737" data-name="Path 1737" d="M128.508,162.41l-.989,5.392-4.269-3.133Z" transform="translate(-122.407 -152.187)" fill="#fff"/>
              <path id="Path_1738" data-name="Path 1738" d="M134.56,157.359l1.578,4.037,3.275-4.451Z" transform="translate(-126.5 -150.21)" fill="#fff"/>
            </g>
          </g>
          <path id="Path_1739" data-name="Path 1739" d="M196.724,132.568s13.654-7.642,16.481-9.62,17.948-16.817,18.8-17.242a2.541,2.541,0,0,1,.707-2.685c1.272-.989,6.218-4.239,6.925-4.239s2.544,6.924,2.261,8.621-7.208,2.12-7.208,2.12-14.415,16.785-16.676,19.133-17.665,12.382-17.665,12.382Z" transform="translate(-116.136 -98.781)" fill="#e4897b"/>
          <path id="Path_1740" data-name="Path 1740" d="M161.836,278.45s-.294,4.831-.759,11.263c-.294,4.007-.657,8.634-1.053,13.107-.536,6.011-1.142,11.742-1.748,15.3-.555,3.274-7.926,43.929-7.926,43.929H145.41c1.557-37.911,3.969-52.614,4.059-54.822.032-.721.057-1.723.089-2.916.1-4.327.179-11.161.23-16.132.038-3.586.057-6.2.057-6.2Z" transform="translate(-97.567 -163.797)" fill="#e4897b"/>
          <path id="Path_1741" data-name="Path 1741" d="M193.812,309.849c-.172,3.312-2.144,52.761-2.144,52.761h-5.431c-2.776-39.386-1.723-53.061-2.221-55.792,0-.013-.006-.019-.006-.032-.849-4.646-1.646-10.753-2.2-15.283-.44-3.644-.715-6.266-.715-6.266l11.072-4.786s.67,5.718,1.174,12.622c.249,3.446.466,7.192.53,10.676C193.92,305.931,193.907,308.011,193.812,309.849Z" transform="translate(-110.482 -164.521)" fill="#e4897b"/>
          <path id="Path_1742" data-name="Path 1742" d="M152.14,293.7l11.289,1.531c-.294,4.008-.657,8.634-1.053,13.107l-10.465,1.493C152.006,305.505,152.089,298.671,152.14,293.7Z" transform="translate(-99.919 -169.316)" opacity="0.2" style="mix-blend-mode: normal;isolation: isolate"/>
          <path id="Path_1743" data-name="Path 1743" d="M194.281,310.016l-9.866,3.038c-.849-4.646-1.646-10.753-2.2-15.283l11.531,1.57C194,302.786,194.217,306.532,194.281,310.016Z" transform="translate(-110.887 -170.789)" opacity="0.2" style="mix-blend-mode: normal;isolation: isolate"/>
          <path id="Path_1744" data-name="Path 1744" d="M150.417,407.083H143.9a.47.47,0,0,0-.457.368l-1.057,4.776a.79.79,0,0,0,.61.937.763.763,0,0,0,.174.017c2.108-.034,3.642-.163,6.289-.163,1.63,0,6.549.17,8.8.17s2.545-2.223,1.624-2.428c-4.134-.9-7.245-2.149-8.568-3.336A1.3,1.3,0,0,0,150.417,407.083Z" transform="translate(-96.467 -210.345)" fill="#407bff"/>
          <path id="Path_1745" data-name="Path 1745" d="M193.712,406.815H187.2a.471.471,0,0,0-.457.369l-1.057,4.775a.791.791,0,0,0,.61.938.8.8,0,0,0,.174.017c2.108-.034,3.643-.164,6.289-.164,1.631,0,6.549.171,8.8.171s2.545-2.225,1.623-2.429c-4.134-.9-7.245-2.149-8.568-3.336A1.294,1.294,0,0,0,193.712,406.815Z" transform="translate(-112.134 -210.248)" fill="#407bff"/>
          <path id="Path_1746" data-name="Path 1746" d="M163.163,283.48c.052-.434.1-.891.156-1.4.662-6.535,1.337-14.378,1.937-21.937,2.2,5.927,3.155,14.255,4.3,23.336h13.406a393.063,393.063,0,0,0-5.558-50.776H148.946c-.034,2.921-.36,31.268-1.092,50.776Z" transform="translate(-98.451 -147.243)" fill="#263238"/>
          <path id="Path_1747" data-name="Path 1747" d="M163.163,283.48c.052-.434.1-.891.156-1.4.662-6.535,1.337-14.378,1.937-21.937,2.2,5.927,3.155,14.255,4.3,23.336h13.406a393.063,393.063,0,0,0-5.558-50.776H148.946c-.034,2.921-.36,31.268-1.092,50.776Z" transform="translate(-98.451 -147.243)" fill="#fff" opacity="0.2" style="mix-blend-mode: normal;isolation: isolate"/>
          <g id="Group_3336" data-name="Group 3336" transform="translate(51.2 10.046)">
            <path id="Path_1748" data-name="Path 1748" d="M169.566,132.79a7.657,7.657,0,0,1-.232.759,7.439,7.439,0,0,1-2.653,3.535,7.52,7.52,0,0,1-.971.6,6.721,6.721,0,0,1-8.028-1.277c-2.687-2.714-2.616-5.847-2.918-11.151A7.273,7.273,0,0,1,164.8,118C170,120.125,170.715,128.016,169.566,132.79Z" transform="translate(-152.144 -115.581)" fill="#e4897b"/>
            <path id="Path_1749" data-name="Path 1749" d="M169.6,147.642a7.522,7.522,0,0,1-.971.6,6.76,6.76,0,0,1-5.81.257,7.9,7.9,0,0,1,.948-1.8A10.47,10.47,0,0,1,169.6,147.642Z" transform="translate(-155.068 -126.138)" opacity="0.2" style="mix-blend-mode: normal;isolation: isolate"/>
            <path id="Path_1750" data-name="Path 1750" d="M156.723,151.184c2.613,2.374,9.014,1.5,9.014,1.5s3.995-1.094,3.156-2.343c-2.354-.389-3.493-1.487-3.963-2.892a6.832,6.832,0,0,1-.239-2.688,14.028,14.028,0,0,1,.2-1.5l-7.913-5.86C158.012,141.265,159.281,148.38,156.723,151.184Z" transform="translate(-152.86 -122.801)" fill="#e4897b"/>
            <path id="Path_1751" data-name="Path 1751" d="M165.206,126.9l1.144.433L165.778,125s1.678-2.519,0-4.767c0,0,4.622-1.4,2.011-3.844-.971-.907-2.177,0-5.364-1.39-1.73-.754-7.141-.813-7.411,1.39,0,0-3.9-.024-4.318,6.633a13.279,13.279,0,0,0,4.127,10.49s4.706,1.115,6.991-.775S165.206,126.9,165.206,126.9Z" transform="translate(-150.67 -114.524)" fill="#263238"/>
            <path id="Path_1752" data-name="Path 1752" d="M168.661,132.555a3.437,3.437,0,0,0,1.765,2.357c1.08.458,1.789-1.064,1.634-2.658-.148-1.413-.88-3.4-2.036-3.14S168.285,131.129,168.661,132.555Z" transform="translate(-157.139 -119.795)" fill="#e4897b"/>
          </g>
          <path id="Path_1753" data-name="Path 1753" d="M169.671,267.727c-.6,7.559-1.276,15.417-1.937,21.953-.969-9.435-2.156-16.161-2.156-16.161s-1.112-.914-4.168-5.792,0-13.985,0-13.985C161.314,262.2,169.671,267.727,169.671,267.727Z" transform="translate(-102.865 -154.856)" opacity="0.2" style="mix-blend-mode: normal;isolation: isolate"/>
          <path id="Path_1754" data-name="Path 1754" d="M195.96,310.536l-.589,2.217H181.1v-2.046Z" transform="translate(-110.483 -175.408)" fill="#407bff"/>
          <path id="Path_1755" data-name="Path 1755" d="M162.975,311.02l-.427,2.047H146.389l-.977-2.047Z" transform="translate(-97.568 -175.583)" fill="#407bff"/>
          <g id="Group_3337" data-name="Group 3337" transform="translate(52.923 32.944)">
            <path id="Path_1756" data-name="Path 1756" d="M167.842,154.354s-2.321-3.672-8.176-3.935-6.3,3.768-6.3,3.768Z" transform="translate(-153.371 -150.407)" fill="#407bff"/>
            <path id="Path_1757" data-name="Path 1757" d="M167.842,154.354s-2.321-3.672-8.176-3.935-6.3,3.768-6.3,3.768Z" transform="translate(-153.371 -150.407)" fill="#fff" opacity="0.5" style="mix-blend-mode: normal;isolation: isolate"/>
          </g>
          <path id="Path_1758" data-name="Path 1758" d="M142.775,153.039a300.974,300.974,0,0,1-.61,59.686l34.287-2.091c-.389-35-5.074-57.032-5.074-57.032a79.248,79.248,0,0,1-16.031,1.586A51.594,51.594,0,0,1,142.775,153.039Z" transform="translate(-96.393 -118.415)" fill="#407bff"/>
          <g id="Group_3339" data-name="Group 3339" transform="translate(20.472 34.624)">
            <path id="Path_1759" data-name="Path 1759" d="M157.031,153.6s4.579,10.705,5.074,21.545-18.613,25.7-18.613,25.7-14.72-10.133-26.08-9.214-14.894,4.958-14.894,4.958,8.835-18.893,24.215-25.479c0,0-3.192-10.88,1.7-18.071C128.428,153.039,139.058,156.5,157.031,153.6Z" transform="translate(-102.517 -153.039)" fill="#407bff"/>
            <path id="Path_1760" data-name="Path 1760" d="M162.106,175.145a8.856,8.856,0,0,1-.006.919,10.768,10.768,0,0,1-.172,1.41,15.271,15.271,0,0,1-.976,3.216v.006a35.149,35.149,0,0,1-5.284,8.3c-1.085,1.327-2.233,2.6-3.369,3.791a89.7,89.7,0,0,1-8.8,8.06,70.145,70.145,0,0,0-12.271-6.477c-1.308-.523-2.667-1.015-4.052-1.429h-.006a27.033,27.033,0,0,0-9.751-1.308,37.3,37.3,0,0,0-9.259,1.812c-.517.179-1,.37-1.436.555-.134.057-.268.115-.4.172A15.65,15.65,0,0,0,103.6,195.7c-.1.064-.185.134-.268.2-.166.121-.3.23-.415.332a1.642,1.642,0,0,0-.153.134.845.845,0,0,0-.108.1l-.077.077-.045.045c.013-.032.077-.166.191-.4.051-.1.108-.217.179-.351.179-.357.428-.836.753-1.417.045-.083.089-.166.14-.255q.115-.211.249-.44c.083-.153.172-.313.268-.472.37-.651.8-1.378,1.3-2.163a64.76,64.76,0,0,1,9.253-11.7l.006-.006a44.888,44.888,0,0,1,3.982-3.516,35.577,35.577,0,0,1,7.887-4.754,30.787,30.787,0,0,1-1.008-8.532,22.29,22.29,0,0,1,.223-2.725,16.075,16.075,0,0,1,2.482-6.815,33.085,33.085,0,0,0,4.786,1.015,62.065,62.065,0,0,0,6.4.619,80.716,80.716,0,0,0,12.878-.453q2.182-.239,4.537-.619s.051.121.147.357a75.317,75.317,0,0,1,2.623,7.792c.281,1.015.562,2.1.83,3.235.242,1.053.472,2.151.676,3.28v.006A53.382,53.382,0,0,1,162.106,175.145Z" transform="translate(-102.522 -153.039)" fill="#fff" opacity="0.6" style="mix-blend-mode: normal;isolation: isolate"/>
            <g id="Group_3338" data-name="Group 3338" transform="translate(0.002 0.562)" opacity="0.2" style="mix-blend-mode: normal;isolation: isolate">
              <path id="Path_1761" data-name="Path 1761" d="M183.579,201.31l-2.017,5.156c-1.085,1.327-2.233,2.6-3.369,3.791l-4.1-7.683Z" transform="translate(-128.419 -171.069)" fill="#fff"/>
              <path id="Path_1762" data-name="Path 1762" d="M129.964,191.86l-8.1.466a44.891,44.891,0,0,1,3.982-3.516Z" transform="translate(-109.519 -166.546)" fill="#fff"/>
              <path id="Path_1763" data-name="Path 1763" d="M145.472,161.6l-.868,8.423-5.724-4.346a22.288,22.288,0,0,1,.223-2.725Z" transform="translate(-115.677 -156.699)" fill="#fff"/>
              <path id="Path_1764" data-name="Path 1764" d="M151.866,190.942l-2.653-8.087,8.069-1.5Z" transform="translate(-119.417 -163.849)" fill="#fff"/>
              <path id="Path_1765" data-name="Path 1765" d="M175.126,184.3v6.059l5.8-2.083Z" transform="translate(-128.794 -164.912)" fill="#fff"/>
              <path id="Path_1766" data-name="Path 1766" d="M146.758,210.5l-2.725,3.842c-1.308-.523-2.667-1.015-4.052-1.429h-.006l-2.055-4.684Z" transform="translate(-115.33 -173.573)" fill="#fff"/>
              <path id="Path_1767" data-name="Path 1767" d="M119.33,202.692l4.166,1.767-4.166,2.84Z" transform="translate(-108.603 -171.569)" fill="#fff"/>
              <path id="Path_1768" data-name="Path 1768" d="M108.155,215.025c-4.148,1.449-5.635,3.146-5.635,3.146a57.516,57.516,0,0,1,3.082-5.5Z" transform="translate(-102.52 -175.18)" fill="#fff"/>
              <path id="Path_1769" data-name="Path 1769" d="M162.676,204.077l-3.588,3.723,5.424.947Z" transform="translate(-122.99 -172.07)" fill="#fff"/>
              <path id="Path_1770" data-name="Path 1770" d="M164.71,167.054l4.216,5.68,3.02-6.437Z" transform="translate(-125.025 -158.399)" fill="#fff"/>
              <path id="Path_1771" data-name="Path 1771" d="M191.582,173.205l-5.392-3.548,3.886-2.967C190.625,168.655,191.161,170.87,191.582,173.205Z" transform="translate(-132.797 -158.541)" fill="#fff"/>
              <path id="Path_1772" data-name="Path 1772" d="M193.948,188.592a14.019,14.019,0,0,1-1.149,4.626l-2.259-5.558Z" transform="translate(-134.372 -166.129)" fill="#fff"/>
              <path id="Path_1773" data-name="Path 1773" d="M185.514,154.277l-3.414,3.5-1.27-3.242q2.182-.239,4.537-.619S185.418,154.041,185.514,154.277Z" transform="translate(-130.858 -153.92)" fill="#fff"/>
              <path id="Path_1774" data-name="Path 1774" d="M157.02,155.249l-2.508,5.309-3.893-5.928A62.066,62.066,0,0,0,157.02,155.249Z" transform="translate(-119.926 -154.177)" fill="#fff"/>
            </g>
            <path id="Path_1775" data-name="Path 1775" d="M193.8,181.351a8.848,8.848,0,0,1-.006.919,10.763,10.763,0,0,1-.172,1.41,21.076,21.076,0,0,1-3.408-13.49l2.112,1c.243,1.053.472,2.151.676,3.28v.006A53.377,53.377,0,0,1,193.8,181.351Z" transform="translate(-134.211 -159.245)" opacity="0.2" style="mix-blend-mode: normal;isolation: isolate"/>
          </g>
          <g id="Group_3340" data-name="Group 3340" transform="translate(46.639 6.479)">
            <path id="Path_1776" data-name="Path 1776" d="M158.841,109.486c7.574-2.609,9.476,7.48,1.953,14.3s-16.161,7.637-17.143,4.2S147.282,113.467,158.841,109.486Z" transform="translate(-143.523 -108.981)" fill="#407bff"/>
            <path id="Path_1777" data-name="Path 1777" d="M152.256,108.934c3.887-.016,9.409,3.955,9.409,3.955a9.269,9.269,0,0,1-3.082,7.91c-3.872,3.7-7.357,4.292-9.527,2.861s-2.759-7-2.759-7a4.282,4.282,0,0,1,2.759-2.841S149.694,108.945,152.256,108.934Z" transform="translate(-144.527 -108.934)" fill="#407bff"/>
            <path id="Path_1778" data-name="Path 1778" d="M158.584,120.908c-3.873,3.7-7.358,4.288-9.527,2.859a3.456,3.456,0,0,1-.944-1c-1.4-2.112-1.812-6.011-1.812-6.011,3.7,4.441,7.989-.147,8.583-3.261a4.928,4.928,0,0,0-.989-4.269,23.165,23.165,0,0,1,6.79,3.108c.613.389.983.657.983.657A9.264,9.264,0,0,1,158.584,120.908Z" transform="translate(-144.528 -109.041)" opacity="0.2" style="mix-blend-mode: normal;isolation: isolate"/>
            <path id="Path_1779" data-name="Path 1779" d="M159.612,122.67c-3.873,3.7-7.358,4.288-9.527,2.859a3.456,3.456,0,0,1-.944-1c3.88,1.155,8.5-.766,10.982-4.218a8.548,8.548,0,0,0,1.589-6.215c.613.389.983.657.983.657A9.263,9.263,0,0,1,159.612,122.67Z" transform="translate(-145.555 -110.803)" fill="#fff" opacity="0.6" style="mix-blend-mode: normal;isolation: isolate"/>
          </g>
          <g id="Group_3342" data-name="Group 3342" transform="translate(74.37 27.464)">
            <path id="Path_1780" data-name="Path 1780" d="M187.593,149.541s-2.995,6.046,4.275,15.64L207.891,153.4,201.5,141.819Z" transform="translate(-186.981 -141.819)" fill="#407bff"/>
            <path id="Path_1781" data-name="Path 1781" d="M207.892,153.4l-4.18,3.069-6.184,4.55-5.66,4.161c-.37-.485-.708-.964-1.027-1.429a27.641,27.641,0,0,1-1.761-2.961,17.181,17.181,0,0,1-2.1-7.709,8.471,8.471,0,0,1,.613-3.542l3.561-1.978,6.132-3.4,2.693-1.5,1.519-.842Z" transform="translate(-186.98 -141.819)" fill="#fff" opacity="0.6" style="mix-blend-mode: normal;isolation: isolate"/>
            <g id="Group_3341" data-name="Group 3341" transform="translate(0 0.843)" opacity="0.2">
              <path id="Path_1782" data-name="Path 1782" d="M208.149,163.922l-6.184,4.55-2.725-6.062Z" transform="translate(-191.416 -150.113)" fill="#fff"/>
              <path id="Path_1783" data-name="Path 1783" d="M208.982,147.2l-5.7,2.259-.147-4.818,2.693-1.5Z" transform="translate(-192.824 -143.14)" fill="#fff"/>
              <path id="Path_1784" data-name="Path 1784" d="M193.2,154.725l-6.215,1.614a8.471,8.471,0,0,1,.613-3.542l3.561-1.978Z" transform="translate(-186.98 -145.919)" fill="#fff"/>
              <path id="Path_1785" data-name="Path 1785" d="M193.059,169.07l-1.027,4.544a27.633,27.633,0,0,1-1.761-2.961Z" transform="translate(-188.17 -152.523)" fill="#fff"/>
            </g>
          </g>
        </g>
      </g>
    </g>
    <g id="Luggage" transform="translate(146.993 190.232)">
      <g id="Group_3346" data-name="Group 3346">
        <rect id="Rectangle_261" data-name="Rectangle 261" width="7.998" height="39.762" transform="translate(15.768 42.511) rotate(-175.522)" fill="none" stroke="#263238" stroke-width="3"/>
        <g id="Group_3344" data-name="Group 3344" transform="translate(7.054 97.002)">
          <path id="Path_1786" data-name="Path 1786" d="M244.19,408.537l1.267.1a2.542,2.542,0,1,1-.4,5.067l-1.267-.1a2.542,2.542,0,1,1,.4-5.067Z" transform="translate(-241.402 -408.436)" fill="#263238"/>
          <path id="Path_1787" data-name="Path 1787" d="M241.416,410.769a2.588,2.588,0,1,0,2.782-2.378A2.588,2.588,0,0,0,241.416,410.769Z" transform="translate(-241.405 -408.383)" fill="#fff" opacity="0.1" style="mix-blend-mode: normal;isolation: isolate"/>
        </g>
        <g id="Group_3345" data-name="Group 3345" transform="translate(0.087 96.456)">
          <path id="Path_1788" data-name="Path 1788" d="M233.272,407.681l1.267.1a2.542,2.542,0,1,1-.4,5.067l-1.267-.1a2.542,2.542,0,1,1,.4-5.067Z" transform="translate(-230.485 -407.581)" fill="#263238"/>
          <path id="Path_1789" data-name="Path 1789" d="M230.5,409.914a2.588,2.588,0,1,0,2.782-2.378A2.589,2.589,0,0,0,230.5,409.914Z" transform="translate(-230.487 -407.528)" fill="#fff" opacity="0.2" style="mix-blend-mode: normal;isolation: isolate"/>
        </g>
        <path id="Rectangle_262" data-name="Rectangle 262" d="M2.694,0h7.951a2.693,2.693,0,0,1,2.693,2.693V60.934a2.694,2.694,0,0,1-2.694,2.694H2.694A2.694,2.694,0,0,1,0,60.934V2.694A2.694,2.694,0,0,1,2.694,0Z" transform="matrix(-0.997, -0.078, 0.078, -0.997, 13.297, 98.23)" fill="#263238"/>
        <rect id="Rectangle_263" data-name="Rectangle 263" width="8.399" height="63.628" rx="2.694" transform="matrix(-0.997, -0.078, 0.078, -0.997, 13.299, 98.23)" fill="#fff" opacity="0.2" style="mix-blend-mode: normal;isolation: isolate"/>
        <rect id="Rectangle_264" data-name="Rectangle 264" width="10.88" height="3.335" rx="1.668" transform="translate(20.284 4.175) rotate(-175.519)" fill="#263238"/>
        <rect id="Rectangle_265" data-name="Rectangle 265" width="10.88" height="3.335" rx="1.668" transform="translate(20.284 4.175) rotate(-175.519)" fill="#fff" opacity="0.2" style="mix-blend-mode: normal;isolation: isolate"/>
        <path id="Rectangle_266" data-name="Rectangle 266" d="M1.626,0h0A1.624,1.624,0,0,1,3.251,1.624V1.71A1.625,1.625,0,0,1,1.626,3.335h0A1.626,1.626,0,0,1,0,1.709V1.626A1.626,1.626,0,0,1,1.626,0Z" transform="translate(12.678 3.58) rotate(-175.499)" opacity="0.2" style="mix-blend-mode: normal;isolation: isolate"/>
        <path id="Path_1790" data-name="Path 1790" d="M270.363,317.549l-4.247,54.217a3.626,3.626,0,0,1-3.894,3.328l-19.809-1.551a2.548,2.548,0,0,1-2.332-2.737l4.415-56.363a2.542,2.542,0,0,1,2.73-2.341l19.808,1.552A3.628,3.628,0,0,1,270.363,317.549Z" transform="translate(-233.867 -276.538)" fill="#407bff"/>
        <path id="Path_1791" data-name="Path 1791" d="M270.363,317.549l-4.247,54.217a3.626,3.626,0,0,1-3.894,3.328l-19.809-1.551a2.548,2.548,0,0,1-2.332-2.737l4.415-56.363a2.542,2.542,0,0,1,2.73-2.341l19.808,1.552A3.628,3.628,0,0,1,270.363,317.549Z" transform="translate(-233.867 -276.538)" fill="#fff" opacity="0.2" style="mix-blend-mode: normal;isolation: isolate"/>
        <path id="Path_1792" data-name="Path 1792" d="M256.756,312.852l-.006.077-.708-.057a2.548,2.548,0,0,0-2.731,2.342l-4.416,56.373a2.545,2.545,0,0,0,1.742,2.6l-8.226-.645a2.551,2.551,0,0,1-2.336-2.731l4.416-56.366a2.543,2.543,0,0,1,2.731-2.342Z" transform="translate(-233.866 -276.539)" opacity="0.2" style="mix-blend-mode: normal;isolation: isolate"/>
        <path id="Path_1793" data-name="Path 1793" d="M258.477,373.016l-.3-.024a.694.694,0,0,1-.638-.746l4.329-55.267a.694.694,0,0,1,.747-.638l.295.023a.694.694,0,0,1,.637.747l-4.329,55.267A.694.694,0,0,1,258.477,373.016Z" transform="translate(-240.189 -278.074)" opacity="0.2" style="mix-blend-mode: normal;isolation: isolate"/>
        <path id="Path_1794" data-name="Path 1794" d="M264.68,373.936l-.295-.024a.7.7,0,0,1-.638-.746l4.33-55.267a.694.694,0,0,1,.746-.638l.295.023a.694.694,0,0,1,.638.747L265.426,373.3A.7.7,0,0,1,264.68,373.936Z" transform="translate(-242.433 -278.407)" opacity="0.2" style="mix-blend-mode: normal;isolation: isolate"/>
        <path id="Path_1795" data-name="Path 1795" d="M270.884,374.3l-.295-.024a.694.694,0,0,1-.638-.747l4.329-55.267a.694.694,0,0,1,.747-.637l.295.023a.693.693,0,0,1,.638.747l-4.329,55.268A.694.694,0,0,1,270.884,374.3Z" transform="translate(-244.678 -278.538)" opacity="0.2" style="mix-blend-mode: normal;isolation: isolate"/>
        <path id="Path_1796" data-name="Path 1796" d="M277.087,374.662l-.295-.023a.7.7,0,0,1-.637-.747l4.329-55.268a.694.694,0,0,1,.746-.638l.295.022a.7.7,0,0,1,.638.747l-4.329,55.268A.7.7,0,0,1,277.087,374.662Z" transform="translate(-246.923 -278.669)" opacity="0.2" style="mix-blend-mode: normal;isolation: isolate"/>
      </g>
    </g>
  </g>
</svg>
