<svg xmlns="http://www.w3.org/2000/svg" width="287.18" height="142.921" viewBox="0 0 287.18 142.921">
  <g id="Group_3909" data-name="Group 3909" transform="translate(-931.371 -660.447)">
    <path id="Path_1366" data-name="Path 1366" d="M368.591,203.416H99.049c-4.87,0-8.819-2.408-8.819-5.378v-.211H377.41v.211C377.41,201.008,373.462,203.416,368.591,203.416Z" transform="translate(841.141 599.951)" fill="#177d7f"/>
    <g id="Group_2842" data-name="Group 2842" transform="translate(859.283 611.883)">
      <rect id="Rectangle_215" data-name="Rectangle 215" width="3.508" height="3.905" transform="translate(295.77 137.472)" fill="#c4001d"/>
      <rect id="Rectangle_216" data-name="Rectangle 216" width="6.867" height="2.071" transform="matrix(0.046, -0.999, 0.999, 0.046, 285.726, 162.321)" fill="#c3c5c8"/>
      <rect id="Rectangle_217" data-name="Rectangle 217" width="2.071" height="6.867" transform="matrix(0.352, -0.936, 0.936, 0.352, 276.116, 163.455)" fill="#c3c5c8"/>
      <rect id="Rectangle_218" data-name="Rectangle 218" width="6.867" height="2.071" transform="matrix(0.624, -0.781, 0.781, 0.624, 279.034, 174.071)" fill="#c3c5c8"/>
      <rect id="Rectangle_219" data-name="Rectangle 219" width="2.071" height="6.867" transform="translate(287.873 170.136) rotate(-33.376)" fill="#c3c5c8"/>
      <rect id="Rectangle_220" data-name="Rectangle 220" width="6.867" height="2.071" transform="translate(290.089 164.25) rotate(-15.354)" fill="#c3c5c8"/>
      <path id="Path_1367" data-name="Path 1367" d="M258.322,182.209H235.266a36.333,36.333,0,0,1-9.979-1.4l-8.229-2.352v-7.794h51.317v1.49A10.054,10.054,0,0,1,258.322,182.209Z" transform="translate(-10.864 -11.902)" fill="#1b1c20"/>
      <path id="Path_1368" data-name="Path 1368" d="M272.952,113.938l-11.5,2.1a1.514,1.514,0,0,1-1.761-1.217l-.027-.152a1.514,1.514,0,0,1,1.218-1.762l11.5-2.1Z" transform="translate(-15.015 -6.067)" fill="#1b1c20"/>
      <path id="Path_1369" data-name="Path 1369" d="M304.166,157.778A19.219,19.219,0,1,0,323.385,177,19.219,19.219,0,0,0,304.166,157.778Zm0,28.966A9.747,9.747,0,1,1,313.914,177,9.746,9.746,0,0,1,304.166,186.744Z" transform="translate(-17.482 -10.646)" fill="#1b1c20"/>
      <path id="Path_1370" data-name="Path 1370" d="M304.985,166.177a11.639,11.639,0,1,0,11.64,11.639A11.639,11.639,0,0,0,304.985,166.177Zm0,21.385a9.747,9.747,0,1,1,9.747-9.746A9.746,9.746,0,0,1,304.985,187.562Z" transform="translate(-18.3 -11.465)" fill="#98989c"/>
      <path id="Path_1371" data-name="Path 1371" d="M311.442,178.769a5.974,5.974,0,1,1-5.693-6.242A5.974,5.974,0,0,1,311.442,178.769Z" transform="translate(-18.9 -12.083)" fill="#c3c5c8"/>
      <path id="Path_1372" data-name="Path 1372" d="M306.159,178.042l-.333.2a1.208,1.208,0,0,1-1.653-.43l-7.6-12.927,2.415-1.421,7.6,12.928A1.208,1.208,0,0,1,306.159,178.042Z" transform="translate(-18.615 -11.2)" fill="#edeeef"/>
      <rect id="Rectangle_221" data-name="Rectangle 221" width="4.161" height="52.364" transform="translate(253.994 114.299) rotate(-30.471)" fill="#c4001d"/>
      <path id="Path_1373" data-name="Path 1373" d="M295.153,144.36c-14.258,0-17.272,17.512-17.272,28.307.066.066.1.1.169.171H283.4a3.614,3.614,0,0,0,3.573-2.921c1.336-7.306,7.51-11.7,15.15-11.7H321.69V156.1C319.406,152.087,311.353,144.36,295.153,144.36Z" transform="translate(-16.793 -9.338)" fill="#c4001d"/>
      <path id="Path_1374" data-name="Path 1374" d="M285.309,169.632c-.327,1.788-1.927,2.443-3.744,2.443h-3.654q-.023.927-.03,1.86c.066.066.1.1.169.171H283.4a3.614,3.614,0,0,0,3.573-2.921c1.336-7.306,7.51-11.7,15.15-11.7H321.69V157.37H301.184C293.179,157.37,286.708,161.976,285.309,169.632Z" transform="translate(-16.793 -10.606)" fill="#fff"/>
      <rect id="Rectangle_222" data-name="Rectangle 222" width="8.411" height="11.272" transform="translate(272.289 111.727)" fill="#c4001d"/>
      <path id="Path_1375" data-name="Path 1375" d="M300.208,130.375h.681a1.644,1.644,0,0,0,1.643-1.643V119.5a1.644,1.644,0,0,0-1.643-1.643h-.681a.6.6,0,0,0-.6.6v11.319A.6.6,0,0,0,300.208,130.375Z" transform="translate(-18.911 -6.755)" fill="#1b1c20"/>
      <path id="Path_1376" data-name="Path 1376" d="M215.937,75.705h-1.782a2.909,2.909,0,0,1-2.72-1.851l-5.873-14.867,1.64-.648,5.873,14.868a1.155,1.155,0,0,0,1.08.736h1.782Z" transform="translate(-9.743 -0.953)" fill="#edeeef"/>
      <path id="Path_1377" data-name="Path 1377" d="M167.533,137.426H108.989v-8.752h58.544a3.439,3.439,0,0,1,3.44,3.439v1.875A3.439,3.439,0,0,1,167.533,137.426Z" transform="translate(-0.329 -7.809)" fill="#1b1c20"/>
      <path id="Path_1378" data-name="Path 1378" d="M159.415,178.864h97.206a1.853,1.853,0,0,0,1.853-1.853v-.737H159.415Z" transform="translate(-5.245 -12.449)" fill="#1b1c20"/>
      <path id="Path_1379" data-name="Path 1379" d="M147.445,182.71a.718.718,0,0,1,0-1.435h12.361c.151-.008,18.514-.918,28.179-3.8a.718.718,0,0,1,.41,1.375c-9.833,2.934-27.794,3.825-28.555,3.861Z" transform="translate(-4.008 -12.563)"/>
      <path id="Path_1380" data-name="Path 1380" d="M147.445,184.708a.718.718,0,0,1,0-1.435h12.361a203.321,203.321,0,0,0,21.58-2.3.718.718,0,1,1,.252,1.413,204.58,204.58,0,0,1-21.8,2.324Z" transform="translate(-4.008 -12.906)"/>
      <rect id="Rectangle_223" data-name="Rectangle 223" width="1.226" height="3.708" transform="translate(173.654 166.697) rotate(-7.062)"/>
      <g id="Group_2841" data-name="Group 2841" transform="translate(117.518 164.216)">
        <path id="Path_1381" data-name="Path 1381" d="M160.267,181.975H147.906c-.794-.038-18.756-.928-28.589-3.862a.718.718,0,1,1,.411-1.375c9.667,2.884,28.029,3.794,28.213,3.8h12.327a.718.718,0,0,1,0,1.435Z" transform="translate(-118.804 -176.707)"/>
      </g>
      <rect id="Rectangle_224" data-name="Rectangle 224" width="2.381" height="2.861" transform="translate(118.524 163.871)"/>
      <path id="Path_1382" data-name="Path 1382" d="M271.109,153.555h-4.366a13.306,13.306,0,0,0-7.735,2.331l-13.9,10.087v6.115h26Z" transform="translate(-13.598 -10.234)" fill="#c4001d"/>
      <rect id="Rectangle_225" data-name="Rectangle 225" width="24.004" height="26.59" transform="translate(207.674 132.887)" fill="#c4001d"/>
      <rect id="Rectangle_226" data-name="Rectangle 226" width="24.004" height="1.927" transform="translate(207.674 138.932)" fill="#1b1c20"/>
      <rect id="Rectangle_227" data-name="Rectangle 227" width="35.701" height="6.353" transform="translate(171.973 153.124)" fill="#c4001d"/>
      <path id="Path_1383" data-name="Path 1383" d="M222.786,133.34l-3.064-22.348a2.774,2.774,0,0,0-2.748-2.4h-1.627a2.986,2.986,0,0,0-2.958,3.393l4.146,30.246h28.6a1.556,1.556,0,0,0,1.556-1.556v-3.819a1.251,1.251,0,0,0-1.25-1.251H225.385A2.623,2.623,0,0,1,222.786,133.34Z" transform="translate(-10.406 -5.852)" fill="#1b1c20"/>
      <rect id="Rectangle_228" data-name="Rectangle 228" width="2.961" height="97.487" transform="translate(206.194 58.089)" fill="#edeeef"/>
      <path id="Path_1384" data-name="Path 1384" d="M174.452,114.279a5.181,5.181,0,0,0-3.588-1.3H139.424V114.9h26.108v3.289H151.553v1.446h13.979v2.733h-5.807v1.913h5.807v5.684h1.9v-5.684h6.5a2.235,2.235,0,0,0,2.232-2.233v-3.1A6.079,6.079,0,0,0,174.452,114.279Zm-7.019.619h3.456l.073,0a3.234,3.234,0,0,1,2.19.787,3.792,3.792,0,0,1,1.059,2.5h-6.777Zm6.5,7.467h-6.5v-2.733h6.818v2.413A.319.319,0,0,1,173.932,122.365Z" transform="translate(-3.296 -6.279)" fill="#edeeef"/>
      <path id="Path_1385" data-name="Path 1385" d="M208,60.051H162.8a5.912,5.912,0,0,0-5.912,5.912v44.029H108.989V65.613a17.049,17.049,0,0,1,17.678-17.037l82.293,3.035a6.068,6.068,0,0,1,1.037.13l46.931,9.351a1.135,1.135,0,0,1,.913,1.113v.459h-11.2Z" transform="translate(-0.329)" fill="#1b1c20"/>
      <path id="Path_1386" data-name="Path 1386" d="M278.083,108.355h-11.3a3.9,3.9,0,0,1-3.743-2.809L252.15,68.2a1.539,1.539,0,0,1,1.477-1.97h.176l-1.177-2.042h-5.986l7.587,48.133a20.39,20.39,0,0,1-.015,6.436l-4.579,28.181a12.03,12.03,0,0,1-11.874,10.1h-18.51a6.438,6.438,0,0,1-6.438-6.438V129.976a1.5,1.5,0,0,0-1.5-1.5H204.7a1.5,1.5,0,0,0-1.5,1.5V150.6a6.437,6.437,0,0,1-6.438,6.438H183.7a12.03,12.03,0,0,1-11.717-9.3l-4.332-18.612a15.167,15.167,0,0,0-1.177-3.286l-6.046-12.225a3.767,3.767,0,0,0-3.376-2.1H108.989V151.73a14.766,14.766,0,0,0,3.381,9.4l1.794,2.171a5.635,5.635,0,0,0,4.344,2.046H254.669a12.9,12.9,0,0,0,12.087-8.386l12.422-33.228A18.56,18.56,0,0,0,278.083,108.355Z" transform="translate(-0.329 -1.523)" fill="#e60004"/>
      <path id="Path_1387" data-name="Path 1387" d="M166.256,177.358a19.219,19.219,0,1,1-19.219-19.218A19.219,19.219,0,0,1,166.256,177.358Z" transform="translate(-2.165 -10.681)" fill="#1b1c20"/>
      <path id="Path_1388" data-name="Path 1388" d="M159.5,178.177a11.639,11.639,0,1,1-11.64-11.639A11.64,11.64,0,0,1,159.5,178.177Z" transform="translate(-2.984 -11.5)" fill="#98989c"/>
      <path id="Path_1389" data-name="Path 1389" d="M157.419,178.428a9.311,9.311,0,1,1-9.311-9.31A9.311,9.311,0,0,1,157.419,178.428Z" transform="translate(-3.235 -11.751)" fill="#c3c5c8"/>
      <path id="Path_1390" data-name="Path 1390" d="M154.839,178.741a6.418,6.418,0,1,1-6.419-6.418A6.419,6.419,0,0,1,154.839,178.741Z" transform="translate(-3.548 -12.064)" fill="#edeeef"/>
      <path id="Path_1391" data-name="Path 1391" d="M146.348,148.431c-14.082,0-25.509,10.208-25.6,24.958.066.066.1.1.169.171h6.523a3.612,3.612,0,0,0,3.573-2.918c1.334-7.308,7.69-11.7,15.331-11.7s14,4.4,15.332,11.7a3.612,3.612,0,0,0,3.573,2.918h6.693C171.947,158.718,160.485,148.431,146.348,148.431Z" transform="translate(-1.476 -9.735)" fill="#fc0820"/>
      <path id="Path_1392" data-name="Path 1392" d="M241.6,170.762H183.332v-.416a2.742,2.742,0,0,1,2.742-2.743H241.6c8.875,0,13.19-4.723,14.891-13.492.727-3.74,5.148-34.09,5.2-34.379h.283a1.491,1.491,0,0,1,1.486,1.61c-.5,6.278-3.225,30.271-3.868,33.589C257.5,165.732,252.552,170.762,241.6,170.762Z" transform="translate(-7.576 -6.937)" fill="#edeeef"/>
      <path id="Path_1393" data-name="Path 1393" d="M110.012,165.395h-1.967a2.435,2.435,0,0,1-2.436-2.436v-5.711a2.435,2.435,0,0,1,2.436-2.436h1.967Z" transform="translate(0 -10.357)" fill="#edeeef"/>
      <path id="Path_1394" data-name="Path 1394" d="M281.252,108.576h12.19l.006-.013L269.163,66.45H268.1a1.54,1.54,0,0,0-1.478,1.97l10.885,37.347A3.9,3.9,0,0,0,281.252,108.576Z" transform="translate(-15.689 -1.744)" fill="#8cc8dd"/>
      <path id="Path_1395" data-name="Path 1395" d="M294.7,115.393H269.579l.3,1.919c.016.1.028.207.042.31h25.5A18.727,18.727,0,0,0,294.7,115.393Z" transform="translate(-15.984 -6.514)" fill="#1b1c20"/>
      <path id="Path_1396" data-name="Path 1396" d="M152.154,123.221h-.16a1.676,1.676,0,0,1-1.677-1.676v-7.5h3.513v7.5A1.675,1.675,0,0,1,152.154,123.221Z" transform="translate(-4.358 -6.383)" fill="#1b1c20"/>
      <rect id="Rectangle_229" data-name="Rectangle 229" width="5.686" height="1.444" transform="translate(144.873 112.63)" fill="#e73324"/>
      <path id="Path_1397" data-name="Path 1397" d="M119.092,123.221h-.161a1.676,1.676,0,0,1-1.676-1.676v-7.5h3.513v7.5A1.676,1.676,0,0,1,119.092,123.221Z" transform="translate(-1.135 -6.383)" fill="#1b1c20"/>
      <rect id="Rectangle_230" data-name="Rectangle 230" width="5.686" height="1.444" transform="translate(115.033 112.63)" fill="#e73324"/>
      <path id="Path_1398" data-name="Path 1398" d="M275.2,138.694l19.342.6a1.827,1.827,0,0,0,1.884-1.827v-.227a1.827,1.827,0,0,0-1.884-1.827l-19.342.6a1.325,1.325,0,0,0-1.284,1.325v.026A1.326,1.326,0,0,0,275.2,138.694Z" transform="translate(-16.407 -8.466)" fill="#edeeef"/>
      <path id="Rectangle_231" data-name="Rectangle 231" d="M1.006,0h8.6a1.007,1.007,0,0,1,1.007,1.007V4.073A1.006,1.006,0,0,1,9.609,5.079h-8.6A1.007,1.007,0,0,1,0,4.072V1.006A1.006,1.006,0,0,1,1.006,0Z" transform="translate(257.937 120.034)" fill="#1b1c20"/>
      <path id="Rectangle_232" data-name="Rectangle 232" d="M.469,0H8.735A.469.469,0,0,1,9.2.469V2.992a.469.469,0,0,1-.469.469H.47A.47.47,0,0,1,0,2.992V.469A.469.469,0,0,1,.469,0Z" transform="translate(258.643 120.842)" fill="#f7af2c"/>
      <path id="Path_1399" data-name="Path 1399" d="M320.8,147.913l-4.251-.486a3.148,3.148,0,0,1-2.792-3.127v-.739a3.15,3.15,0,0,1,2.792-3.129l4.251-.485Z" transform="translate(-20.29 -8.908)" fill="#e60004"/>
      <path id="Path_1400" data-name="Path 1400" d="M321.89,148.233h.473a1.14,1.14,0,0,0,1.141-1.14v-6.4a1.141,1.141,0,0,0-1.141-1.141h-.473a.415.415,0,0,0-.413.415v7.856A.414.414,0,0,0,321.89,148.233Z" transform="translate(-21.043 -8.869)" fill="#1b1c20"/>
    </g>
  </g>
</svg>
