<svg xmlns="http://www.w3.org/2000/svg" width="185.678" height="95.807" viewBox="0 0 185.678 95.807">
  <g id="Group_3910" data-name="Group 3910" transform="translate(-898 -576.87)">
    <g id="Group_3607" data-name="Group 3607" transform="translate(910 576.869)">
      <rect id="Rectangle_312" data-name="Rectangle 312" width="125.38" height="5.496" transform="translate(8.1 65.45)" fill="#263238"/>
      <path id="Path_2167" data-name="Path 2167" d="M335.645,707.13h-35.42a3.593,3.593,0,0,0-3.582,3.584v48.871a3.573,3.573,0,0,0,1.108,2.587,9.44,9.44,0,0,1,9.139-7.545h11.371a9.463,9.463,0,0,1,9.3,8.541h8.087a3.7,3.7,0,0,0,3.584-3.584l1.622-21.009-1.622-2.056h-.138l-1.846-25.065v-.044h1.985v-.7A3.594,3.594,0,0,0,335.645,707.13Z" transform="translate(-180.621 -690.114)" fill="#f4511e"/>
      <g id="_142727640" data-name=" 142727640" transform="translate(159.894 50.853)">
        <path id="Path_2168" data-name="Path 2168" d="M295.7,727.949l-.192,2.475h1.234a.942.942,0,0,0,.939-.938v-.6a.942.942,0,0,0-.939-.938Z" transform="translate(-295.513 -727.949)" fill="#f57c00"/>
      </g>
      <g id="_142727592" data-name=" 142727592" transform="translate(159.6 54.696)">
        <path id="Path_2169" data-name="Path 2169" d="M295.859,730.313l-.19,2.475h1.274a.943.943,0,0,0,.939-.939v-.6a.941.941,0,0,0-.939-.938Z" transform="translate(-295.669 -730.313)" fill="#f57c00"/>
      </g>
      <g id="_142727544" data-name=" 142727544" transform="translate(159.329 58.19)">
        <path id="Path_2170" data-name="Path 2170" d="M296.018,732.463l-.19,2.475h1.287a.941.941,0,0,0,.939-.938v-.6a.943.943,0,0,0-.939-.939Z" transform="translate(-295.828 -732.463)" fill="#f57c00"/>
      </g>
      <g id="_142727496" data-name=" 142727496" transform="translate(159.029 62.032)">
        <path id="Path_2171" data-name="Path 2171" d="M296.177,734.827l-.19,2.475h1.328a.942.942,0,0,0,.939-.939v-.6a.942.942,0,0,0-.939-.938Z" transform="translate(-295.987 -734.827)" fill="#f57c00"/>
      </g>
      <path id="Path_2172" data-name="Path 2172" d="M301.595,709.762h-1.518a2.31,2.31,0,0,0-2.378,2.222v20.669a2.309,2.309,0,0,0,2.378,2.219h3.407l-1.889-25.066Z" transform="translate(-144.969 -688.468)" fill="#98dcf2"/>
      <rect id="Rectangle_313" data-name="Rectangle 313" width="2.577" height="57.461" transform="translate(42.634 77.61) rotate(-93.142)" fill="#cfd8dc"/>
      <path id="Path_2173" data-name="Path 2173" d="M323.3,709.553H303.946a1.7,1.7,0,0,0-1.682,1.708v40.031h9.9a10.345,10.345,0,0,1,8.518,4.549H323.3a1.7,1.7,0,0,0,1.684-1.708V711.261a1.7,1.7,0,0,0-1.684-1.708Z" transform="translate(-173.886 -688.599)" fill="#f4511e"/>
      <path id="Path_2174" data-name="Path 2174" d="M320.654,756.174h2.739a1.937,1.937,0,0,0,1.921-1.949V711.353a1.936,1.936,0,0,0-1.921-1.947H304.04a1.936,1.936,0,0,0-1.923,1.947v40.27h10.144a10.125,10.125,0,0,1,8.322,4.447Zm2.739-46.292a1.459,1.459,0,0,1,1.443,1.471v42.872a1.459,1.459,0,0,1-1.443,1.471H320.9a10.6,10.6,0,0,0-8.643-4.549h-9.666V711.353a1.46,1.46,0,0,1,1.445-1.471Z" transform="translate(-173.98 -688.691)" fill="#a0361a"/>
      <path id="Path_2175" data-name="Path 2175" d="M319.138,737.194a13.156,13.156,0,1,0,13.155,13.157A13.156,13.156,0,0,0,319.138,737.194Z" transform="translate(-187.24 -671.315)" fill="#263238"/>
      <path id="Path_2176" data-name="Path 2176" d="M316.771,740.979a7.005,7.005,0,1,0,7,7.005A7,7,0,0,0,316.771,740.979Z" transform="translate(-184.873 -668.948)" fill="#bfbfbf"/>
      <path id="Path_2177" data-name="Path 2177" d="M315.064,743.709a2.567,2.567,0,1,0,2.566,2.568A2.568,2.568,0,0,0,315.064,743.709Z" transform="translate(-183.166 -667.241)" fill="#263238"/>
      <path id="Path_2178" data-name="Path 2178" d="M314.47,741.613a1.023,1.023,0,1,0,1.022,1.024A1.025,1.025,0,0,0,314.47,741.613Z" transform="translate(-182.572 -668.551)" fill="#263238"/>
      <path id="Path_2179" data-name="Path 2179" d="M317.425,743.666a1.023,1.023,0,1,0,1.022,1.022A1.022,1.022,0,0,0,317.425,743.666Z" transform="translate(-190.33 -667.268)" fill="#263238"/>
      <g id="_142726824" data-name=" 142726824" transform="translate(128.018 82.058)">
        <path id="Path_2180" data-name="Path 2180" d="M315.637,749.006a1.023,1.023,0,1,0-.245-1.425A1.025,1.025,0,0,0,315.637,749.006Z" transform="translate(-315.203 -747.148)" fill="#263238"/>
      </g>
      <g id="_142726752" data-name=" 142726752" transform="translate(133.869 82.103)">
        <path id="Path_2181" data-name="Path 2181" d="M312.036,749.034a1.023,1.023,0,1,0-.245-1.425A1.021,1.021,0,0,0,312.036,749.034Z" transform="translate(-311.603 -747.176)" fill="#263238"/>
      </g>
      <path id="Path_2182" data-name="Path 2182" d="M312.144,745.475a1.024,1.024,0,1,0-1.435-.187A1.025,1.025,0,0,0,312.144,745.475Z" transform="translate(-174.827 -667.284)" fill="#263238"/>
      <path id="Path_2183" data-name="Path 2183" d="M377.09,737.194a13.156,13.156,0,1,0,13.155,13.157A13.156,13.156,0,0,0,377.09,737.194Z" transform="translate(-339.385 -671.315)" fill="#263238"/>
      <path id="Path_2184" data-name="Path 2184" d="M374.724,740.979a7.005,7.005,0,1,0,7.005,7.005A7,7,0,0,0,374.724,740.979Z" transform="translate(-337.019 -668.948)" fill="#bfbfbf"/>
      <path id="Path_2185" data-name="Path 2185" d="M373.015,743.709a2.567,2.567,0,1,0,2.568,2.568A2.567,2.567,0,0,0,373.015,743.709Z" transform="translate(-335.31 -667.241)" fill="#263238"/>
      <g id="_142726392" data-name=" 142726392" transform="translate(36.683 73.062)">
        <path id="Path_2186" data-name="Path 2186" d="M372.421,741.613a1.023,1.023,0,1,0,1.024,1.024A1.024,1.024,0,0,0,372.421,741.613Z" transform="translate(-371.399 -741.613)" fill="#263238"/>
      </g>
      <g id="_142726320" data-name=" 142726320" transform="translate(31.88 76.398)">
        <path id="Path_2187" data-name="Path 2187" d="M375.377,743.666a1.023,1.023,0,1,0,1.022,1.022A1.022,1.022,0,0,0,375.377,743.666Z" transform="translate(-374.355 -743.666)" fill="#263238"/>
      </g>
      <g id="_142726224" data-name=" 142726224" transform="translate(33.826 82.058)">
        <path id="Path_2188" data-name="Path 2188" d="M373.591,749.006a1.023,1.023,0,1,0-.245-1.425A1.022,1.022,0,0,0,373.591,749.006Z" transform="translate(-373.157 -747.148)" fill="#263238"/>
      </g>
      <g id="_142726152" data-name=" 142726152" transform="translate(39.678 82.103)">
        <path id="Path_2189" data-name="Path 2189" d="M369.989,749.034a1.023,1.023,0,1,0-.245-1.425A1.022,1.022,0,0,0,369.989,749.034Z" transform="translate(-369.556 -747.176)" fill="#263238"/>
      </g>
      <path id="Path_2190" data-name="Path 2190" d="M370.1,745.475a1.024,1.024,0,1,0-1.433-.187A1.023,1.023,0,0,0,370.1,745.475Z" transform="translate(-326.973 -667.284)" fill="#263238"/>
      <path id="Path_2191" data-name="Path 2191" d="M309.624,738.875H297.773a2.28,2.28,0,0,0-2.448,2.048v4.447a2.28,2.28,0,0,0,2.448,2.048H309.68v-8.543Z" transform="translate(-147.307 -670.263)" fill="#b23012"/>
      <rect id="Rectangle_314" data-name="Rectangle 314" width="1.708" height="9.223" transform="translate(155.198 49.308)" fill="#801901"/>
      <path id="Path_2192" data-name="Path 2192" d="M297.862,727c1.76,2.739,1.867,5.786-.013,9.209" transform="translate(-140.95 -677.689)" fill="#801901"/>
      <path id="Path_2193" data-name="Path 2193" d="M304.112,702.9c-2.791,0-5.053,1.542-5.053,3.446s2.262,3.447,5.053,3.447a6.9,6.9,0,0,0,2.613-.5v-5.9A6.9,6.9,0,0,0,304.112,702.9Z" transform="translate(-150.422 -692.761)" fill="#ffca28"/>
      <path id="Path_2194" data-name="Path 2194" d="M299.06,709.679a6.6,6.6,0,0,0,1.526-.418v-5.9a6.512,6.512,0,0,0-1.526-.418Z" transform="translate(-144.284 -692.731)" fill="#f57c00"/>
      <path id="Path_2195" data-name="Path 2195" d="M316.228,722.48h-3.533a.939.939,0,0,0-.939.941h0a.941.941,0,0,0,.939.939h3.533a.941.941,0,0,0,.939-.939h0A.939.939,0,0,0,316.228,722.48Z" transform="translate(-181.498 -680.515)" fill="#263238"/>
      <path id="Path_2196" data-name="Path 2196" d="M334,746.947h-3.558a13.16,13.16,0,0,0-24.1-2.392l-2.189-3.4a9.338,9.338,0,0,1,8.1-4.8H323.63a9.463,9.463,0,0,1,9.3,8.543H334v2.053Z" transform="translate(-185.986 -671.841)" fill="#b23012"/>
      <path id="Path_2197" data-name="Path 2197" d="M362.965,734.5h-3.826l5.664,15.3h4.118Z" transform="translate(-310.266 -673.002)" fill="#cfd8dc"/>
      <path id="Path_2198" data-name="Path 2198" d="M438.055,696.661H328.623a1.882,1.882,0,0,0-1.884,1.882v61.684a1.883,1.883,0,0,0,1.884,1.884H436.171a1.884,1.884,0,0,0,1.884-1.884Z" transform="translate(-326.739 -696.66)" fill="#ffca28"/>
      <path id="Path_2199" data-name="Path 2199" d="M340.647,737.508h-2.285c-6.769,0-12.256,2.365-12.256,5.282h0c0,2.917,5.487,5.282,12.256,5.282h2.285c6.771,0,12.258-2.365,12.258-5.282h0C352.9,739.873,347.418,737.508,340.647,737.508Z" transform="translate(-240.559 -671.118)" fill="#fff"/>
      <path id="Path_2200" data-name="Path 2200" d="M332.007,696.661h-15.1V710.47a.877.877,0,0,0,.878.879h14.22a.878.878,0,0,0,.878-.879V697.539A.878.878,0,0,0,332.007,696.661Z" transform="translate(-205.595 -696.66)" fill="#ffb300"/>
      <path id="Path_2201" data-name="Path 2201" d="M334.824,739.1a2.061,2.061,0,1,0,2.061,2.059A2.06,2.06,0,0,0,334.824,739.1Z" transform="translate(-235.36 -670.125)" fill="#5d5d5d"/>
      <g id="Group_3591" data-name="Group 3591" transform="translate(124.815 1.951)">
        <path id="Path_2202" data-name="Path 2202" d="M318.378,708.733a.241.241,0,0,0,.239-.241V698.1a.239.239,0,0,0-.478,0v10.392A.241.241,0,0,0,318.378,708.733Z" transform="translate(-318.139 -697.861)" fill="#1f1a17"/>
      </g>
      <g id="Group_3592" data-name="Group 3592" transform="translate(123.365 1.951)">
        <path id="Path_2203" data-name="Path 2203" d="M319.27,708.733a.241.241,0,0,0,.239-.241V698.1a.239.239,0,0,0-.478,0v10.392A.241.241,0,0,0,319.27,708.733Z" transform="translate(-319.031 -697.861)" fill="#1f1a17"/>
      </g>
      <g id="Group_3593" data-name="Group 3593" transform="translate(120.466 1.951)">
        <path id="Path_2204" data-name="Path 2204" d="M321.054,708.733a.241.241,0,0,0,.239-.241V698.1a.239.239,0,0,0-.478,0v10.392A.241.241,0,0,0,321.054,708.733Z" transform="translate(-320.815 -697.861)" fill="#1f1a17"/>
      </g>
      <g id="Group_3594" data-name="Group 3594" transform="translate(117.566 1.951)">
        <path id="Path_2205" data-name="Path 2205" d="M322.837,708.733a.241.241,0,0,0,.239-.241V698.1a.238.238,0,1,0-.476,0v10.392A.239.239,0,0,0,322.837,708.733Z" transform="translate(-322.6 -697.861)" fill="#1f1a17"/>
      </g>
      <g id="Group_3595" data-name="Group 3595" transform="translate(121.916 1.951)">
        <path id="Path_2206" data-name="Path 2206" d="M320.163,708.733a.239.239,0,0,0,.237-.241V698.1a.238.238,0,1,0-.476,0v10.392A.241.241,0,0,0,320.163,708.733Z" transform="translate(-319.924 -697.861)" fill="#1f1a17"/>
      </g>
      <g id="Group_3596" data-name="Group 3596" transform="translate(119.016 1.951)">
        <path id="Path_2207" data-name="Path 2207" d="M321.945,708.733a.24.24,0,0,0,.239-.241V698.1a.238.238,0,1,0-.476,0v10.392A.24.24,0,0,0,321.945,708.733Z" transform="translate(-321.708 -697.861)" fill="#1f1a17"/>
      </g>
      <g id="Group_3597" data-name="Group 3597" transform="translate(116.116 1.951)">
        <path id="Path_2208" data-name="Path 2208" d="M323.729,708.733a.241.241,0,0,0,.239-.241V698.1a.238.238,0,1,0-.476,0v10.392A.239.239,0,0,0,323.729,708.733Z" transform="translate(-323.492 -697.861)" fill="#1f1a17"/>
      </g>
      <g id="Group_3598" data-name="Group 3598" transform="translate(113.217 1.951)">
        <path id="Path_2209" data-name="Path 2209" d="M325.513,708.733a.241.241,0,0,0,.239-.241V698.1a.238.238,0,1,0-.476,0v10.392A.239.239,0,0,0,325.513,708.733Z" transform="translate(-325.276 -697.861)" fill="#1f1a17"/>
      </g>
      <g id="Group_3599" data-name="Group 3599" transform="translate(114.665 1.951)">
        <path id="Path_2210" data-name="Path 2210" d="M324.623,708.733a.241.241,0,0,0,.239-.241V698.1a.239.239,0,0,0-.478,0v10.392A.241.241,0,0,0,324.623,708.733Z" transform="translate(-324.384 -697.861)" fill="#1f1a17"/>
      </g>
      <path id="Path_2211" data-name="Path 2211" d="M322.379,710.922H303.42v16.59l10.6.024,2.313,6.611,6.041-.017Z" transform="translate(-173.164 -687.743)" fill="#98dcf2"/>
      <g id="Group_3600" data-name="Group 3600" transform="translate(80.818 9.328)">
        <path id="Path_2212" data-name="Path 2212" d="M339.837,749.348h12.9L346.832,702.4h-12.9Z" transform="translate(-333.93 -702.399)" fill="#fb8c00"/>
      </g>
      <g id="Group_3601" data-name="Group 3601" transform="translate(64.69 9.328)">
        <path id="Path_2213" data-name="Path 2213" d="M349.76,749.348h12.9L356.755,702.4h-12.9Z" transform="translate(-343.852 -702.399)" fill="#fb8c00"/>
      </g>
      <g id="Group_3602" data-name="Group 3602" transform="translate(48.562 9.328)">
        <path id="Path_2214" data-name="Path 2214" d="M359.683,749.348h12.9L366.679,702.4h-12.9Z" transform="translate(-353.776 -702.399)" fill="#fb8c00"/>
      </g>
      <g id="Group_3603" data-name="Group 3603" transform="translate(32.433 9.328)">
        <path id="Path_2215" data-name="Path 2215" d="M369.607,749.348h12.9L376.6,702.4H363.7Z" transform="translate(-363.699 -702.399)" fill="#fb8c00"/>
      </g>
      <g id="Group_3604" data-name="Group 3604" transform="translate(16.309 9.258)">
        <path id="Path_2216" data-name="Path 2216" d="M379.527,749.306h12.9l-5.907-46.95h-12.9Z" transform="translate(-373.621 -702.356)" fill="#fb8c00"/>
      </g>
      <g id="Group_3605" data-name="Group 3605" transform="translate(9.585 9.258)">
        <path id="Path_2217" data-name="Path 2217" d="M383.544,702.356h3.5l5.907,46.95h-9.4Z" transform="translate(-383.544 -702.356)" fill="#fb8c00"/>
      </g>
      <g id="Group_3606" data-name="Group 3606" transform="translate(96.952 9.328)">
        <path id="Path_2218" data-name="Path 2218" d="M337.525,702.4V742.64L332.46,702.4Z" transform="translate(-332.46 -702.399)" fill="#fb8c00"/>
      </g>
      <path id="Path_2219" data-name="Path 2219" d="M320.117,726.967h6.639V710.6h-7.808a1.825,1.825,0,0,0-1.827,1.827v11.753Z" transform="translate(-199.811 -687.941)" fill="#98dcf2"/>
    </g>
    <path id="Path_2220" data-name="Path 2220" d="M270.207,201.441H95.932c-3.148,0-5.7-1.557-5.7-3.477v-.136H275.908v.136C275.908,199.884,273.356,201.441,270.207,201.441Z" transform="translate(807.77 471.236)" fill="#177d7f"/>
  </g>
</svg>
