<svg xmlns="http://www.w3.org/2000/svg" width="287.18" height="142.922" viewBox="0 0 287.18 142.922">
  <g id="Group_3908" data-name="Group 3908" transform="translate(-1385.746 -660.445)">
    <g id="Group_2812" data-name="Group 2812" transform="translate(667.664 -25.508)">
      <g id="_140453888" data-name=" 140453888" transform="translate(895.071 762.536)">
        <g id="Group_2788" data-name="Group 2788">
          <circle id="Ellipse_20" data-name="Ellipse 20" cx="30.374" cy="30.374" r="30.374" fill="#263238"/>
        </g>
      </g>
      <g id="_140454056" data-name=" 140454056" transform="translate(901.795 769.262)">
        <g id="Group_2789" data-name="Group 2789">
          <path id="Path_1231" data-name="Path 1231" d="M854.97,776.254a23.648,23.648,0,1,1,23.649-23.649A23.676,23.676,0,0,1,854.97,776.254Zm0-46.729a23.081,23.081,0,1,0,23.082,23.08A23.106,23.106,0,0,0,854.97,729.525Zm0,46.154a23.072,23.072,0,1,1,23.072-23.074A23.1,23.1,0,0,1,854.97,775.679Zm0-45.576a22.5,22.5,0,1,0,22.5,22.5A22.529,22.529,0,0,0,854.97,730.1Z" transform="translate(-831.321 -728.958)" fill="#fbe9e7"/>
        </g>
      </g>
      <g id="_140453792" data-name=" 140453792" transform="translate(904.719 772.671)">
        <g id="Group_2790" data-name="Group 2790">
          <path id="Path_1232" data-name="Path 1232" d="M849.5,731.287a1.1,1.1,0,0,1,.9.308.913.913,0,0,1,0,.787l-3.621,14.554L836.2,757.188c-.575.519-.913.63-1.1.63-.4,0-.713-.655-.9-1.174a20.182,20.182,0,0,1,14.744-25.3,3.08,3.08,0,0,1,.548-.052m0-.569a3.688,3.688,0,0,0-.649.062A20.748,20.748,0,0,0,833.663,756.8c.387,1.1.866,1.583,1.443,1.583a2.435,2.435,0,0,0,1.48-.775l10.7-10.379,3.661-14.711c.391-1.174-.329-1.8-1.453-1.8Z" transform="translate(-832.83 -730.718)" fill="#fbe9e7"/>
        </g>
      </g>
      <g id="_140453960" data-name=" 140453960" transform="translate(909.673 800.214)">
        <g id="Group_2791" data-name="Group 2791">
          <path id="Path_1233" data-name="Path 1233" d="M851.081,745.527l14.18,3.991c.657.209,1.06.465,1.135.723.078.273-.145.734-.6,1.277a20.168,20.168,0,0,1-29.286-.027,1.623,1.623,0,0,1-.525-1.339c.089-.258.4-.374.7-.438l14.4-4.186m0-.591-14.556,4.231c-1.433.3-1.426,1.557-.448,2.695a20.745,20.745,0,0,0,30.129.047c1.321-1.557.883-2.406-.773-2.933l-14.353-4.039Z" transform="translate(-835.388 -744.936)" fill="#fbe9e7"/>
        </g>
      </g>
      <g id="_140454152" data-name=" 140454152" transform="translate(928.138 772.7)">
        <g id="Group_2792" data-name="Group 2792">
          <path id="Path_1234" data-name="Path 1234" d="M846.325,731.3h0a4.117,4.117,0,0,1,.73.076,20.281,20.281,0,0,1,5.312,2.154,20.058,20.058,0,0,1,9.138,23.32c-.242.672-.639,1.124-.992,1.124a.986.986,0,0,1-.639-.4l-10.755-10.455-3.537-14.3c-.184-.872-.052-1.2.043-1.317a.889.889,0,0,1,.7-.209m0-.569c-1.286,0-1.6.794-1.3,2.214l3.58,14.475,10.873,10.565a1.408,1.408,0,0,0,1.035.558c.626,0,1.2-.587,1.527-1.5h0a20.75,20.75,0,0,0-14.847-26.218,4.769,4.769,0,0,0-.868-.093Z" transform="translate(-844.919 -730.733)" fill="#fbe9e7"/>
        </g>
      </g>
      <g id="_140453552" data-name=" 140453552" transform="translate(919.935 787.401)">
        <g id="Group_2793" data-name="Group 2793">
          <path id="Path_1235" data-name="Path 1235" d="M846.194,738.322a5.508,5.508,0,1,1-5.509,5.509A5.508,5.508,0,0,1,846.194,738.322Z" transform="translate(-840.685 -738.322)" fill="#fbe9e7"/>
        </g>
      </g>
      <g id="_140454368" data-name=" 140454368" transform="translate(922.309 772.133)">
        <g id="Group_2794" data-name="Group 2794">
          <path id="Path_1236" data-name="Path 1236" d="M845.393,731.008c.122,0,.223.211.261.42l2.038,11.057a7.941,7.941,0,0,1-2.237.236,7.5,7.5,0,0,1-2.954-.421l2.019-10.871c.039-.209.141-.422.262-.422h.612m0-.568h-.612c-.451,0-.73.4-.82.885l-2.046,11.015c-.118.649,1.782.949,3.539.949,1.515,0,2.921-.223,2.844-.641l-2.084-11.323c-.089-.48-.37-.885-.821-.885Z" transform="translate(-841.91 -730.44)" fill="#fbe9e7"/>
        </g>
      </g>
      <g id="_140454536" data-name=" 140454536" transform="translate(908.147 794.412)">
        <g id="Group_2795" data-name="Group 2795">
          <path id="Path_1237" data-name="Path 1237" d="M843.451,742.588a10.383,10.383,0,0,1,2.363,4.3l-9.891,3.673a.862.862,0,0,1-.283.056c-.126,0-.149-.039-.159-.052l-.3-.5c-.05-.083.068-.263.211-.389l8.059-7.084m-.056-.647a.169.169,0,0,0-.116.043l-8.262,7.262a.888.888,0,0,0-.324,1.106l.3.5a.712.712,0,0,0,.647.331,1.405,1.405,0,0,0,.482-.095l10.033-3.723c1.044-.387-1.9-5.428-2.76-5.428Z" transform="translate(-834.6 -741.941)" fill="#fbe9e7"/>
        </g>
      </g>
      <g id="_140454224" data-name=" 140454224" transform="translate(930.843 794.505)">
        <g id="Group_2796" data-name="Group 2796">
          <path id="Path_1238" data-name="Path 1238" d="M849.5,742.593l8.018,6.856c.144.124.264.3.217.385l-.292.508c-.008.015-.035.056-.165.056a.855.855,0,0,1-.277-.052l-10.11-3.6a10.4,10.4,0,0,1,2.609-4.153m.056-.6c-1.089,0-3.886,4.928-3.109,5.205l10.362,3.686a1.4,1.4,0,0,0,.469.087.717.717,0,0,0,.657-.343l.292-.508a.887.887,0,0,0-.341-1.1l-8.132-6.956a.3.3,0,0,0-.2-.072Z" transform="translate(-846.316 -741.989)" fill="#fbe9e7"/>
        </g>
      </g>
      <g id="Group_2798" data-name="Group 2798" transform="translate(915.298 782.801)">
        <g id="Group_2797" data-name="Group 2797">
          <path id="Path_1239" data-name="Path 1239" d="M848.4,735.947a10.11,10.11,0,1,0,10.112,10.11A10.11,10.11,0,0,0,848.4,735.947Zm0,17.214a7.1,7.1,0,1,1,7.105-7.1A7.1,7.1,0,0,1,848.4,753.161Z" transform="translate(-838.291 -735.947)" fill="#fbe9e7"/>
        </g>
      </g>
      <path id="Path_1240" data-name="Path 1240" d="M799.938,711.406l6.59.083-.331,4h-4.424v1.17l-5.337.417-.333-1.668-2.255-.168-2.168,8.012-.5,1.585-2.671-.666,3-9.847,1.835-2.588,1-.167.333-7.677,2.921-6.009-.083-1.918s-1.083-.167-.335-3.756a14.062,14.062,0,0,1,3.423-6.259l1.585.083-.085,9.264-.914.752-2.338,2-2.67,6.176.668,5.591.414.835s2.17-1.083,2.671.752Z" transform="translate(30.35)" fill="#263238"/>
      <path id="Path_1241" data-name="Path 1241" d="M863.445,716.211l17.692,25.536-1.337.416L875.629,741s-10.85-13.518-17.274-14.854a31.005,31.005,0,0,0-12.685.335l2.921-7.762,12.266-4Z" transform="translate(83.923 26.951)" fill="#f4511e"/>
      <path id="Path_1242" data-name="Path 1242" d="M862.679,714.741a76.136,76.136,0,0,1,16.187-4.506c7.677-1,9.349-1.168,5.676,2.17s-3.671,6.007-3,7.009-4.006,2.5-12.185,6.842S854.836,734.77,853,735.77s-10.848-.5-14.184-1.67-4.839-4.5-3.506-7.175,27.37-12.183,27.37-12.183Z" transform="translate(73.758 22.163)" fill="#ffc400"/>
      <path id="Path_1243" data-name="Path 1243" d="M844.338,730.048l-1.116,20.477L828.54,756.2l-2.841,7.175-7.707-2.242-12.319-9.606,1.171-28.038,3.668.166-.163,7.844,5.505.335,5.84-9.847h15.357l3.167,4Z" transform="translate(46.437 33.771)" fill="#263238"/>
      <path id="Path_1244" data-name="Path 1244" d="M821.977,730.947a4.672,4.672,0,1,1-4.674,4.672A4.672,4.672,0,0,1,821.977,730.947Z" transform="translate(57.337 42.168)" fill="#ffc400"/>
      <path id="Path_1245" data-name="Path 1245" d="M802.038,715.356,794.28,709.1l-1.338-.335L785.685,724.2l3.587,1.671,1.672-2.089,1.665.168,7.927,27.955,8.679,11.682,10.013,5.842.253-4.589-8.012-3.672-7.93-10.348-3.585-13.769,5.091-2.168-.921-2.588Z" transform="translate(27.706 21.377)" fill="#263238"/>
      <path id="Path_1246" data-name="Path 1246" d="M840.247,732.092l-9.512,12.516H817.886l-4.673-4.005-.333-20.528,7.51.166,6.006,6.341,8.511,5.007Z" transform="translate(53.193 31.979)" fill="#fb8c00"/>
      <path id="Path_1247" data-name="Path 1247" d="M810.151,721.56l9.181,20.694-13.85,6.508-9.349-22.2Z" transform="translate(37.497 33.37)" fill="#ffc400"/>
      <g id="_140455976" data-name=" 140455976" transform="translate(906.087 758.263)">
        <rect id="Rectangle_211" data-name="Rectangle 211" width="5.84" height="37.385" transform="translate(0 2.488) rotate(-25.212)" fill="#263238"/>
      </g>
      <g id="_140456096" data-name=" 140456096" transform="translate(903.223 752.425)">
        <path id="Path_1248" data-name="Path 1248" d="M834.214,720.626a3.754,3.754,0,1,0,5,1.8A3.753,3.753,0,0,0,834.214,720.626Z" transform="translate(-832.058 -720.267)" fill="#263238"/>
      </g>
      <path id="Path_1249" data-name="Path 1249" d="M781.775,722.335a36.538,36.538,0,0,0-19.649,5.7c4.37,1.207,8.53.895,12.793.682,3.318.542,6.924,1.366,7.855,2.466,1.836,2.172.587,5.593.587,5.593s-2.338,3.421,3.088,2.586,14.907-1.982,21.139,3.1a36.785,36.785,0,0,1,4.165,6.54,36.254,36.254,0,0,1,2.253,5.686h0q4.408,9.226,4.155-.537a36.725,36.725,0,0,0-36.388-31.807Z" transform="translate(5.626 34.097)" fill="#ffc400"/>
      <path id="Path_1250" data-name="Path 1250" d="M859.15,726.294c-15.073,4.388-32.512,8.2-36.125,3.44l-4.674-4.841c-2.358-3.3-.967-6.038,6.468-7.553,6.364,2.282,14.705,1.656,24.407-.959,1.745-.469,3.493-2.5,5.244-2.91,6.259-1.474,12.57-1.017,18.955-1.929,7.168-1.025,17.489-3.754,12.4,3.372-4.489,6.28-20.367,9.544-26.671,11.379Z" transform="translate(57.335 22.693)" fill="#f4511e"/>
      <path id="Path_1251" data-name="Path 1251" d="M798.963,694.766s.835,4.841-1.835,7.344-4.008,5.174-2.17,7.842,4.5,9.849,4.5,9.849,1.335.333-.5,3.5-6.842,13.353-6.842,13.353l-6.009.333s-2-1.836.167-2.338,1.668-4.506-1.835-4.506a37.488,37.488,0,0,1-7.175-.833s-6.009,1.168-2.172-7.844,12.518-17.526,12.518-17.526l11.348-9.178Z" transform="translate(16.581 8.259)" fill="#ffc400"/>
      <path id="Path_1252" data-name="Path 1252" d="M773.891,718.914c-.223-1.176.025-2.983,1.207-5.753a48.37,48.37,0,0,1,5.662-9.529l6.306.676s-6.507,7.342-7.342,10.682a27.523,27.523,0,0,0-.835,3.839Z" transform="translate(16.583 16.569)" fill="#f4511e"/>
      <path id="Path_1253" data-name="Path 1253" d="M827.328,734.181l-23.7,10.013L791.612,728.84s-5.341-12.35,4.006-17.69,25.7-6.007,38.05-.333,12.524,10.838,12.524,10.838l2.33,11.193,21.16.4s2.371.436.953,3.438-2.753,6.009-7.175,8.1-10.682,5.841-10.682,5.841-2.586,1.922-5.676-1.168-19.775-15.271-19.775-15.271Z" transform="translate(31.836 19.579)" fill="#ffc400"/>
      <path id="Path_1254" data-name="Path 1254" d="M825.844,724.785l-.137-.151c-.05-.056-5.147-5.577-10.606-4.915l-1.046.122c-9.9,1.168-19.267,2.226-20.552,2.046a4.233,4.233,0,0,1-1.9-.537l.448-.351a5.511,5.511,0,0,0,1.53.324c1.437.19,14.732-1.377,20.412-2.048l1.046-.122c5.314-.63,10.069,4.031,10.955,4.95a147.142,147.142,0,0,1,19.889-6.867l.138.552a147.17,147.17,0,0,0-19.986,6.916Z" transform="translate(33.248 29.318)" fill="#263238"/>
      <circle id="Ellipse_21" data-name="Ellipse 21" cx="4.673" cy="4.673" r="4.673" transform="translate(836.467 737.406)" fill="#263238"/>
      <path id="Path_1255" data-name="Path 1255" d="M859.364,757.477l-15.4,5.267a1.21,1.21,0,0,1-.424.072l-31.927-.163a1.29,1.29,0,0,1-.728-.231L800.8,755.461a1.3,1.3,0,0,1-.484-.632l-4.76-13.314a.977.977,0,0,1-.037-.122c-1.209-4.568.889-8.031,4.981-10.831a1.294,1.294,0,0,1,1.922.568h0a1.291,1.291,0,0,1-.448,1.561c-3.338,2.313-4.971,4.645-3.706,8.177l4.262,12.2a1.284,1.284,0,0,0,.492.641l9.122,6.211a1.271,1.271,0,0,0,.73.227l30.009-.068a1.214,1.214,0,0,0,.43-.076l13.07-4.655a1.29,1.29,0,0,1,1.4.357l1.589,1.773Z" transform="translate(36.599 41.596)" fill="#ffc400"/>
      <g id="_140457680" data-name=" 140457680" transform="translate(844.436 774.936)">
        <path id="Path_1256" data-name="Path 1256" d="M801.854,736.869a.147.147,0,0,1-.128-.079.144.144,0,0,1,.064-.192l9.473-4.7a.144.144,0,0,1,.19.064.141.141,0,0,1-.064.19l-9.473,4.7A.146.146,0,0,1,801.854,736.869Z" transform="translate(-801.711 -731.887)" fill="#0a0b0c"/>
      </g>
      <g id="Group_2800" data-name="Group 2800" transform="translate(837.468 760.02)">
        <g id="Group_2799" data-name="Group 2799" transform="translate(0.495 1.067)">
          <g id="_140023664" data-name=" 140023664" transform="translate(5.977 12.782)">
            <path id="Path_1257" data-name="Path 1257" d="M801.6,736.294a.143.143,0,0,1-.064-.271l9.494-4.672a.138.138,0,0,1,.188.064.141.141,0,0,1-.064.192l-9.494,4.674A.157.157,0,0,1,801.6,736.294Z" transform="translate(-801.455 -731.337)" fill="#0a0b0c"/>
          </g>
          <g id="_140018168" data-name=" 140018168" transform="translate(5.475 11.717)">
            <path id="Path_1258" data-name="Path 1258" d="M801.339,735.721a.144.144,0,0,1-.062-.273l9.514-4.647a.143.143,0,0,1,.19.066.14.14,0,0,1-.066.19l-9.513,4.649A.169.169,0,0,1,801.339,735.721Z" transform="translate(-801.196 -730.787)" fill="#0a0b0c"/>
          </g>
          <g id="_141043400" data-name=" 141043400" transform="translate(4.981 10.654)">
            <path id="Path_1259" data-name="Path 1259" d="M801.084,735.143a.142.142,0,0,1-.128-.079.141.141,0,0,1,.064-.19l9.537-4.624a.147.147,0,0,1,.19.066.145.145,0,0,1-.066.192l-9.535,4.62A.153.153,0,0,1,801.084,735.143Z" transform="translate(-800.941 -730.238)" fill="#0a0b0c"/>
          </g>
          <g id="_140016176" data-name=" 140016176" transform="translate(4.48 9.586)">
            <path id="Path_1260" data-name="Path 1260" d="M800.825,734.571a.142.142,0,0,1-.06-.271l9.554-4.6a.14.14,0,0,1,.19.068.138.138,0,0,1-.066.188l-9.556,4.6A.14.14,0,0,1,800.825,734.571Z" transform="translate(-800.683 -729.686)" fill="#0a0b0c"/>
          </g>
          <g id="_140017472" data-name=" 140017472" transform="translate(3.985 8.521)">
            <path id="Path_1261" data-name="Path 1261" d="M800.568,734a.143.143,0,0,1-.06-.271l9.576-4.572a.139.139,0,0,1,.19.066.141.141,0,0,1-.066.188l-9.577,4.574A.119.119,0,0,1,800.568,734Z" transform="translate(-800.427 -729.137)" fill="#0a0b0c"/>
          </g>
          <g id="_140016848" data-name=" 140016848" transform="translate(3.484 7.456)">
            <path id="Path_1262" data-name="Path 1262" d="M800.309,733.42a.141.141,0,0,1-.126-.083.139.139,0,0,1,.068-.188q4.8-2.273,9.6-4.547a.136.136,0,0,1,.186.066.141.141,0,0,1-.066.19q-4.8,2.275-9.6,4.547A.1.1,0,0,1,800.309,733.42Z" transform="translate(-800.169 -728.587)" fill="#0a0b0c"/>
          </g>
          <g id="_140016560" data-name=" 140016560" transform="translate(2.987 6.392)">
            <path id="Path_1263" data-name="Path 1263" d="M800.054,732.846a.147.147,0,0,1-.128-.083.142.142,0,0,1,.068-.19l9.62-4.523a.149.149,0,0,1,.19.07.144.144,0,0,1-.07.19l-9.618,4.522A.148.148,0,0,1,800.054,732.846Z" transform="translate(-799.912 -728.038)" fill="#0a0b0c"/>
          </g>
          <g id="_140018000" data-name=" 140018000" transform="translate(2.491 5.326)">
            <path id="Path_1264" data-name="Path 1264" d="M799.8,732.269a.144.144,0,0,1-.132-.083.147.147,0,0,1,.07-.19l9.643-4.5a.142.142,0,1,1,.118.258l-9.639,4.5A.186.186,0,0,1,799.8,732.269Z" transform="translate(-799.656 -727.487)" fill="#0a0b0c"/>
          </g>
          <g id="_140023280" data-name=" 140023280" transform="translate(1.993 4.259)">
            <path id="Path_1265" data-name="Path 1265" d="M799.541,731.695a.143.143,0,0,1-.13-.081.145.145,0,0,1,.068-.19q4.835-2.238,9.663-4.475a.143.143,0,0,1,.12.26q-4.829,2.24-9.661,4.473A.141.141,0,0,1,799.541,731.695Z" transform="translate(-799.399 -726.937)" fill="#0a0b0c"/>
          </g>
          <g id="_141042392" data-name=" 141042392" transform="translate(1.496 3.195)">
            <path id="Path_1266" data-name="Path 1266" d="M799.285,731.119a.142.142,0,0,1-.06-.271l9.684-4.446a.14.14,0,1,1,.116.256l-9.682,4.448A.127.127,0,0,1,799.285,731.119Z" transform="translate(-799.142 -726.387)" fill="#0a0b0c"/>
          </g>
          <g id="_141039200" data-name=" 141039200" transform="translate(0.995 2.13)">
            <path id="Path_1267" data-name="Path 1267" d="M799.026,730.545a.139.139,0,0,1-.128-.083.141.141,0,0,1,.072-.19l9.7-4.421a.143.143,0,1,1,.118.26l-9.7,4.421A.122.122,0,0,1,799.026,730.545Z" transform="translate(-798.884 -725.838)" fill="#0a0b0c"/>
          </g>
          <g id="_141046568" data-name=" 141046568" transform="translate(0.5 1.064)">
            <path id="Path_1268" data-name="Path 1268" d="M798.769,729.971a.142.142,0,0,1-.058-.271l9.723-4.4a.139.139,0,0,1,.19.07.141.141,0,0,1-.072.188l-9.725,4.4A.128.128,0,0,1,798.769,729.971Z" transform="translate(-798.628 -725.287)" fill="#0a0b0c"/>
          </g>
          <g id="_141046688" data-name=" 141046688">
            <path id="Path_1269" data-name="Path 1269" d="M798.511,729.4a.143.143,0,0,1-.128-.085.14.14,0,0,1,.07-.188l9.744-4.372a.14.14,0,0,1,.188.07.145.145,0,0,1-.07.19l-9.744,4.37A.138.138,0,0,1,798.511,729.4Z" transform="translate(-798.37 -724.738)" fill="#0a0b0c"/>
          </g>
        </g>
        <g id="_140458016" data-name=" 140458016">
          <path id="Path_1270" data-name="Path 1270" d="M798.257,728.82a.142.142,0,0,1-.058-.271l9.765-4.349a.141.141,0,0,1,.188.074.139.139,0,0,1-.074.186l-9.765,4.347A.158.158,0,0,1,798.257,728.82Z" transform="translate(-798.114 -724.187)" fill="#0a0b0c"/>
        </g>
      </g>
      <path id="Path_1271" data-name="Path 1271" d="M809.832,735.947c5.137,0,9.3,2.877,9.3,6.426s-4.167,6.424-9.3,6.424-9.306-2.875-9.306-6.424S804.695,735.947,809.832,735.947Z" transform="translate(41.614 46.854)" fill="#fb8c00"/>
      <circle id="Ellipse_22" data-name="Ellipse 22" cx="9.847" cy="9.847" r="9.847" transform="translate(848.315 777.459)" fill="#ffc400"/>
      <path id="Path_1272" data-name="Path 1272" d="M852,734.7l-4.173,6.675-27.537,14.519-4.006,2.172-1.335-1.838,1-7.842-1.335-2.005s-1.836-3.336,2-3.838S840.98,738.2,840.98,738.2l1.668-.835,6.509-5.006s4.175-.668,2.838,2.336Z" transform="translate(54.403 43.435)" fill="#ffc400"/>
      <g id="_140453888-2" data-name=" 140453888" transform="translate(756.123 762.536)">
        <g id="Group_2801" data-name="Group 2801">
          <circle id="Ellipse_23" data-name="Ellipse 23" cx="30.374" cy="30.374" r="30.374" fill="#263238"/>
        </g>
      </g>
      <g id="_140454056-2" data-name=" 140454056" transform="translate(762.849 769.262)">
        <g id="Group_2802" data-name="Group 2802">
          <path id="Path_1273" data-name="Path 1273" d="M783.244,776.254a23.648,23.648,0,1,1,23.649-23.649A23.675,23.675,0,0,1,783.244,776.254Zm0-46.729a23.081,23.081,0,1,0,23.082,23.08A23.107,23.107,0,0,0,783.244,729.525Zm0,46.154a23.072,23.072,0,1,1,23.072-23.074A23.1,23.1,0,0,1,783.244,775.679Zm0-45.576a22.5,22.5,0,1,0,22.5,22.5A22.526,22.526,0,0,0,783.244,730.1Z" transform="translate(-759.595 -728.958)" fill="#fbe9e7"/>
        </g>
      </g>
      <g id="_140453792-2" data-name=" 140453792" transform="translate(765.772 772.671)">
        <g id="Group_2803" data-name="Group 2803">
          <path id="Path_1274" data-name="Path 1274" d="M777.773,731.287a1.1,1.1,0,0,1,.9.308.921.921,0,0,1,0,.787l-3.623,14.554-10.575,10.252c-.575.519-.916.63-1.1.63-.4,0-.715-.655-.9-1.174a20.181,20.181,0,0,1,14.746-25.3,3.044,3.044,0,0,1,.546-.052m0-.569a3.728,3.728,0,0,0-.651.062A20.755,20.755,0,0,0,761.935,756.8c.389,1.1.866,1.583,1.445,1.583a2.426,2.426,0,0,0,1.478-.775l10.707-10.379,3.661-14.711c.389-1.174-.329-1.8-1.453-1.8Z" transform="translate(-761.104 -730.718)" fill="#fbe9e7"/>
        </g>
      </g>
      <g id="_140453960-2" data-name=" 140453960" transform="translate(770.728 800.214)">
        <g id="Group_2804" data-name="Group 2804">
          <path id="Path_1275" data-name="Path 1275" d="M779.357,745.527l14.176,3.991c.66.209,1.063.465,1.137.723.078.273-.143.734-.6,1.277a20.168,20.168,0,0,1-29.286-.027,1.608,1.608,0,0,1-.519-1.339c.087-.258.4-.374.7-.438l14.4-4.186m0-.591L764.8,749.167c-1.433.3-1.424,1.557-.445,2.695a20.74,20.74,0,0,0,30.127.047c1.321-1.557.881-2.406-.771-2.933l-14.355-4.039Z" transform="translate(-763.662 -744.936)" fill="#fbe9e7"/>
        </g>
      </g>
      <g id="_140454152-2" data-name=" 140454152" transform="translate(789.191 772.7)">
        <g id="Group_2805" data-name="Group 2805">
          <path id="Path_1276" data-name="Path 1276" d="M774.6,731.3h0a4.173,4.173,0,0,1,.732.076,20.268,20.268,0,0,1,5.31,2.154,20.058,20.058,0,0,1,9.138,23.32c-.24.672-.637,1.124-.992,1.124a.985.985,0,0,1-.639-.4l-10.755-10.455-3.537-14.3c-.184-.872-.052-1.2.043-1.317a.886.886,0,0,1,.7-.209m0-.569c-1.284,0-1.6.794-1.3,2.214l3.58,14.475,10.873,10.565a1.414,1.414,0,0,0,1.034.558c.626,0,1.2-.587,1.527-1.5h0a20.754,20.754,0,0,0-14.847-26.218,4.75,4.75,0,0,0-.868-.093Z" transform="translate(-773.193 -730.733)" fill="#fbe9e7"/>
        </g>
      </g>
      <g id="_140453552-2" data-name=" 140453552" transform="translate(780.991 787.401)">
        <g id="Group_2806" data-name="Group 2806">
          <path id="Path_1277" data-name="Path 1277" d="M774.467,738.322a5.508,5.508,0,1,1-5.507,5.509A5.511,5.511,0,0,1,774.467,738.322Z" transform="translate(-768.96 -738.322)" fill="#fbe9e7"/>
        </g>
      </g>
      <g id="_140454368-2" data-name=" 140454368" transform="translate(783.364 772.133)">
        <g id="Group_2807" data-name="Group 2807">
          <path id="Path_1278" data-name="Path 1278" d="M773.666,731.008c.12,0,.225.211.261.42l2.038,11.057a7.912,7.912,0,0,1-2.235.236,7.516,7.516,0,0,1-2.956-.421l2.018-10.871c.039-.209.141-.422.262-.422h.612m0-.568h-.612c-.449,0-.732.4-.821.885l-2.042,11.015c-.122.649,1.778.949,3.539.949,1.513,0,2.919-.223,2.842-.641l-2.086-11.323c-.089-.48-.368-.885-.82-.885Z" transform="translate(-770.185 -730.44)" fill="#fbe9e7"/>
        </g>
      </g>
      <g id="_140454536-2" data-name=" 140454536" transform="translate(769.2 794.412)">
        <g id="Group_2808" data-name="Group 2808">
          <path id="Path_1279" data-name="Path 1279" d="M771.725,742.588a10.386,10.386,0,0,1,2.364,4.3l-9.89,3.673a.881.881,0,0,1-.287.056c-.124,0-.147-.039-.157-.052l-.3-.5c-.05-.083.068-.263.211-.389l8.059-7.084m-.056-.647a.169.169,0,0,0-.116.043l-8.26,7.262a.885.885,0,0,0-.325,1.106h0l.3.5a.71.71,0,0,0,.645.331,1.405,1.405,0,0,0,.482-.095l10.035-3.723c1.046-.387-1.9-5.428-2.76-5.428Z" transform="translate(-762.874 -741.941)" fill="#fbe9e7"/>
        </g>
      </g>
      <g id="_140454224-2" data-name=" 140454224" transform="translate(791.895 794.505)">
        <g id="Group_2809" data-name="Group 2809">
          <path id="Path_1280" data-name="Path 1280" d="M777.776,742.593l8.018,6.856c.145.124.267.3.219.385l-.293.508c-.01.015-.035.056-.165.056a.856.856,0,0,1-.279-.052l-10.106-3.6a10.39,10.39,0,0,1,2.606-4.153m.058-.6c-1.091,0-3.886,4.928-3.111,5.205l10.364,3.686a1.407,1.407,0,0,0,.469.087.715.715,0,0,0,.657-.343l.293-.508a.886.886,0,0,0-.339-1.1l-8.136-6.956a.287.287,0,0,0-.2-.072Z" transform="translate(-774.589 -741.989)" fill="#fbe9e7"/>
        </g>
      </g>
      <g id="Group_2811" data-name="Group 2811" transform="translate(776.351 782.801)">
        <g id="Group_2810" data-name="Group 2810">
          <path id="Path_1281" data-name="Path 1281" d="M776.675,735.947a10.11,10.11,0,1,0,10.11,10.11A10.11,10.11,0,0,0,776.675,735.947Zm0,17.214a7.1,7.1,0,1,1,7.1-7.1A7.1,7.1,0,0,1,776.675,753.161Z" transform="translate(-766.565 -735.947)" fill="#fbe9e7"/>
        </g>
      </g>
      <path id="Path_1282" data-name="Path 1282" d="M813.972,708.979l-1.669,3.5-5.005-2.17-9.847,21.2-23.784,45.645-3.335-1.583L794.449,729.5l-.21-.832,10.013-20.32-.838-.959,1.294-2.5Z" transform="translate(13.317 17.746)" fill="#263238"/>
      <path id="Path_1283" data-name="Path 1283" d="M835.415,738.286l-14.185,6.341-.5-1.67,1.668-2.335,12.851-4.173.167,1.837Z" transform="translate(60.548 47.324)" fill="#263238"/>
      <path id="Path_1284" data-name="Path 1284" d="M838.374,747.466c.4.9-11.015,2.669-11.015,2.669l-1.5-3.671,8.678-6.426Z" transform="translate(65.353 50.689)" fill="#ffc400"/>
      <path id="Path_1285" data-name="Path 1285" d="M875.786,730.175l3.838,7.843-45.9,20.361-4.338-9.179Z" transform="translate(68.663 41.444)" fill="#f4511e"/>
    </g>
    <path id="Path_1365" data-name="Path 1365" d="M368.591,203.416H99.049c-4.87,0-8.819-2.408-8.819-5.378v-.211H377.41v.211C377.41,201.008,373.462,203.416,368.591,203.416Z" transform="translate(1295.516 599.951)" fill="#177d7f"/>
  </g>
</svg>
